<svg xmlns="http://www.w3.org/2000/svg" width="58.58" height="58.58" viewBox="0 0 58.58 58.58"><path d="M50,8.579A29.29,29.29,0,0,0,8.579,50,29.29,29.29,0,0,0,50,8.579ZM29.29,55.148A25.858,25.858,0,1,1,55.148,29.29,25.887,25.887,0,0,1,29.29,55.148Z" fill="#e3e230"/><g transform="translate(20.221 11.03)"><path d="M187.641,112.945h-3.677a3.8,3.8,0,1,1,0-7.6h7.353a1.716,1.716,0,0,0,0-3.432h-3.8v-3.8a1.716,1.716,0,1,0-3.432,0v3.8h-.122a7.231,7.231,0,1,0,0,14.462h3.677a3.8,3.8,0,0,1,0,7.6h-7.353a1.716,1.716,0,1,0,0,3.432h3.8v3.8a1.716,1.716,0,0,0,3.432,0v-3.8h.122a7.231,7.231,0,0,0,0-14.462Z" transform="translate(-176.734 -96.401)" fill="#e3e230"/></g></svg>