<svg xmlns="http://www.w3.org/2000/svg" width="52.378" height="57.425" viewBox="0 0 52.378 57.425"><path d="M314.795,233.747l-2.77,2.77-1.087-1.088a.841.841,0,1,0-1.19,1.19l1.682,1.682a.841.841,0,0,0,1.19,0l3.365-3.365a.841.841,0,1,0-1.19-1.189Z" transform="translate(-277.312 -207.311)" fill="#658cb1"/><path d="M311.429,178.3a.841.841,0,0,0,1.19,0l3.365-3.365a.841.841,0,0,0-1.19-1.19l-2.77,2.77-1.088-1.087a.841.841,0,0,0-1.19,1.19Z" transform="translate(-277.311 -154.041)" fill="#658cb1"/><path d="M311.429,298.3a.841.841,0,0,0,1.19,0l3.365-3.365a.841.841,0,0,0-1.19-1.19l-2.77,2.77-1.088-1.088a.841.841,0,1,0-1.19,1.19Z" transform="translate(-277.311 -260.582)" fill="#658cb1"/><path d="M189.341,250.183h10.206a.841.841,0,0,0,0-1.682H189.341a.841.841,0,0,0,0,1.682Z" transform="translate(-169.882 -220.629)" fill="#658cb1"/><path d="M189.342,190.183h10.206a.841.841,0,1,0,0-1.682H189.342a.841.841,0,0,0,0,1.682Z" transform="translate(-169.883 -167.359)" fill="#658cb1"/><path d="M199.549,308.5H189.342a.841.841,0,0,0,0,1.682h10.206a.841.841,0,1,0,0-1.682Z" transform="translate(-169.883 -273.899)" fill="#658cb1"/><path d="M70.672,1.682h-14.5a5.879,5.879,0,0,0-8.234,0h-14.5a4.211,4.211,0,0,0-4.206,4.206V41.442a.841.841,0,1,0,1.682,0V5.888a2.526,2.526,0,0,1,2.524-2.524h13.3a5.84,5.84,0,0,0-.508,1.682H33.435a.841.841,0,0,0-.841.841V43.966H23.341a.841.841,0,0,0-.841.841A5.9,5.9,0,0,0,28.388,50.7h.841v2.523a4.206,4.206,0,0,0,4.206,4.206H70.672a4.211,4.211,0,0,0,4.206-4.206V5.888A4.211,4.211,0,0,0,70.672,1.682ZM47.006,10.094a.841.841,0,0,0,.841-.841V5.888a4.206,4.206,0,0,1,8.412,0V9.253a.841.841,0,0,0,.841.841h1.682a2.528,2.528,0,0,1,2.379,1.682H42.945a2.528,2.528,0,0,1,2.379-1.682Zm-.841-3.365V8.412h-.841a4.211,4.211,0,0,0-4.206,4.206.841.841,0,0,0,.841.841H62.148a.841.841,0,0,0,.841-.841,4.211,4.211,0,0,0-4.206-4.206h-.841V6.73H69.831V44.807a4.206,4.206,0,0,1-8.412,0,.841.841,0,0,0-.841-.841h-26.3V6.729ZM28.388,49.013a4.213,4.213,0,0,1-4.121-3.365H59.8a5.867,5.867,0,0,0,1.711,3.365ZM73.2,53.219a2.526,2.526,0,0,1-2.524,2.524H33.435a2.523,2.523,0,0,1-2.524-2.523V50.7H65.625a5.888,5.888,0,0,0,5.888-5.888V5.888a.841.841,0,0,0-.841-.841H57.882a5.828,5.828,0,0,0-.505-1.682H70.672A2.526,2.526,0,0,1,73.2,5.888Z" transform="translate(-22.5 0)" fill="#658cb1"/><path d="M266.024,35.047a2.527,2.527,0,1,0-1.784-.74A2.526,2.526,0,0,0,266.024,35.047Zm-.595-3.119a.842.842,0,1,1-.246.595A.835.835,0,0,1,265.429,31.929Z" transform="translate(-236.47 -26.635)" fill="#658cb1"/></svg>