<svg xmlns="http://www.w3.org/2000/svg" width="63.392" height="63.386" viewBox="0 0 63.392 63.386"><path d="M48.466,26.136l-1.9-2.821a.9.9,0,1,1,1.491-1l1.348,2.006,4.69-3.8a.9.9,0,1,1,1.131,1.4l-5.454,4.42a.9.9,0,0,1-.565.2.758.758,0,0,1-.133-.01A.891.891,0,0,1,48.466,26.136Zm2.774-9.594a6.6,6.6,0,1,0,6.595,6.6A6.6,6.6,0,0,0,51.239,16.542Zm0,14.989a8.393,8.393,0,1,0-8.391-8.393A8.4,8.4,0,0,0,51.239,31.531Zm0-20.734A12.342,12.342,0,1,0,63.58,23.137,12.355,12.355,0,0,0,51.239,10.8ZM62.432,38.808l-2.808-.568a.9.9,0,0,0-1.029.594l-.912,2.714-2.751-4.763a14.081,14.081,0,0,0,4.921-2.445ZM44.8,41.549l-.913-2.714a.9.9,0,0,0-1.029-.594l-2.807.568,2.579-4.468a14.092,14.092,0,0,0,4.921,2.445Zm-3.547-8.416-3.753,6.5a.9.9,0,0,0,.956,1.331l3.981-.8,1.295,3.85a.9.9,0,0,0,.763.608c.03,0,.059,0,.088,0a.894.894,0,0,0,.778-.45l4.05-7.013a14.118,14.118,0,0,0,3.667,0l4.048,7.013a.9.9,0,0,0,.779.45c.03,0,.059,0,.089,0a.9.9,0,0,0,.762-.608l1.295-3.85,3.982.8a.9.9,0,0,0,.956-1.331l-3.753-6.5a14.138,14.138,0,1,0-19.981,0ZM67.839,56.3,50.471,62.995l-.567.221c-2.545.99-5.712,2.223-8.155,1.514L32.5,62.043a6.163,6.163,0,0,0-4.542.386l-2.805,1.365-5.2-12.486c2.127-1,4.4-2.085,6.744-3.232,4.426-2.165,6.984-3.12,12.273.631a.9.9,0,0,0,.287.135l8.39,2.248A3.068,3.068,0,0,1,49.779,53.2c0,.014.008.028.011.043a.087.087,0,0,0,0,.016,3.043,3.043,0,0,1-3.726,3.7L34.918,53.975a.9.9,0,0,0-.464,1.735L45.6,58.7a4.841,4.841,0,0,0,6.073-5.069l11.618-3.4c3.841-1.124,6.507-.691,7.133,1.158.592,1.75-.69,4.187-2.59,4.918ZM24.691,68.125a1,1,0,0,0,0-.767l-7.534-18.09a1,1,0,0,0-1.308-.54L11.4,50.575a.989.989,0,0,0-.54,1.308l7.533,18.091a1,1,0,0,0,1.307.54l4.45-1.848a1,1,0,0,0,.545-.541ZM72.13,50.808c.9,2.67-.834,6.087-3.645,7.172L51.117,64.672l-.563.218a20.91,20.91,0,0,1-7.205,1.846,7.5,7.5,0,0,1-2.1-.283l-9.254-2.687a4.36,4.36,0,0,0-3.254.277l-2.9,1.41.5,1.211a2.79,2.79,0,0,1-1.509,3.659l-4.45,1.846a2.761,2.761,0,0,1-1.069.214,2.8,2.8,0,0,1-2.585-1.722L9.2,52.573a2.789,2.789,0,0,1,1.51-3.658l4.449-1.848a2.8,2.8,0,0,1,3.655,1.509l.447,1.071c2.1-.992,4.336-2.057,6.646-3.186,4.736-2.316,7.958-3.526,13.968.686l8.237,2.207a4.8,4.8,0,0,1,2.933,2.256c.054.1.105.19.153.287l11.6-3.4a11.7,11.7,0,0,1,6.293-.432,4.3,4.3,0,0,1,3.047,2.737Z" transform="translate(-8.979 -9)" fill="#658cb1" fill-rule="evenodd"/></svg>