<svg xmlns="http://www.w3.org/2000/svg" width="50.558" height="50.419" viewBox="0 0 50.558 50.419"><g transform="translate(-43.42 -22.259)"><path d="M57.132,22.259a2.788,2.788,0,0,0-2.773,2.771v9.837a.9.9,0,0,0,1.8,0V25.031a.95.95,0,0,1,.971-.971H91.207a.95.95,0,0,1,.971.971V61.878H85.943a2.781,2.781,0,0,0-2.771,2.764v6.234h-9.9a.9.9,0,1,0,0,1.8h11.7a.9.9,0,0,0,.638-.26l8.1-8.108a.9.9,0,0,0,.266-.631V25.031a2.787,2.787,0,0,0-2.771-2.771Zm21.54,4.507a8.331,8.331,0,1,0,8.335,8.328A8.344,8.344,0,0,0,78.672,26.766Zm0,1.794a6.534,6.534,0,1,1-6.533,6.535A6.521,6.521,0,0,1,78.672,28.56ZM81.7,32.441l-3.3,3.976-1.987-2.035a.9.9,0,0,0-1.289,1.256L77.8,38.39a.9.9,0,0,0,1.336-.053L83.086,33.6A.9.9,0,0,0,81.7,32.441ZM56.958,37.725a6.005,6.005,0,0,0-6.16,5.81,23.334,23.334,0,0,0,1.428,6.691,29.983,29.983,0,0,1,1.344,8.05H52.558a2.809,2.809,0,0,0-2.7,2.9v.885H46.69a3.421,3.421,0,0,0-3.271,3.536v2.631a.9.9,0,0,0,.9.9h.825v1.868a1.73,1.73,0,0,0,1.741,1.688H67.027a1.731,1.731,0,0,0,1.743-1.688V69.123h.823a.9.9,0,0,0,.9-.9V65.594a3.419,3.419,0,0,0-3.269-3.536H64.263v-.885a2.809,2.809,0,0,0-2.7-2.9H60.354a30.068,30.068,0,0,1,1.336-8.05,23.4,23.4,0,0,0,1.423-6.691,6,6,0,0,0-6.155-5.81Zm0,1.8a4.186,4.186,0,0,1,4.361,4.009,22.655,22.655,0,0,1-1.356,6.186,34.736,34.736,0,0,0-1.3,8.555H55.251a34.654,34.654,0,0,0-1.3-8.555A22.574,22.574,0,0,1,52.6,43.535a4.185,4.185,0,0,1,4.359-4.009Zm14.509,7.022a.923.923,0,1,0,.923.923A.924.924,0,0,0,71.468,46.548Zm3.6.025a.9.9,0,1,0,0,1.8h12.6a.9.9,0,1,0,0-1.8Zm-9.005,4.477a.923.923,0,1,0,.923.923A.924.924,0,0,0,66.065,51.049Zm3.6.021a.9.9,0,0,0,0,1.8h18a.9.9,0,1,0,0-1.8Zm1.8,4.481a.923.923,0,1,0,.923.923A.924.924,0,0,0,71.467,55.551Zm3.6.019a.9.9,0,1,0,0,1.8h12.6a.9.9,0,1,0,0-1.8ZM52.558,60.078h9.007a.992.992,0,0,1,.9,1.1v.885h-5.4a.9.9,0,1,0,0,1.8H67.221a1.6,1.6,0,0,1,1.468,1.736v1.727H45.222V65.594a1.6,1.6,0,0,1,1.468-1.736h6.772a.9.9,0,0,0,0-1.8h-1.8v-.885a.992.992,0,0,1,.9-1.1Zm33.385,3.6h5.863L84.973,70.5V64.643a.944.944,0,0,1,.971-.964ZM46.949,69.123H66.968v1.753H46.949Z" transform="translate(0 0)" fill="#658cb1"/></g></svg>