<svg xmlns="http://www.w3.org/2000/svg" xmlns:xlink="http://www.w3.org/1999/xlink" width="338.667" height="1745.016" viewBox="0 0 338.667 1745.016"><defs><radialGradient id="a" cx="0.548" cy="1.07" r="1.313" gradientTransform="matrix(0, -1, -1, 0, 1.219, 1.219)" gradientUnits="objectBoundingBox"><stop offset="0" stop-color="#fff"/><stop offset="0.552" stop-color="#f5f5f5"/><stop offset="1" stop-color="#e5e5e5"/></radialGradient><clipPath id="e"><path d="M25.118,0H1719.9c13.872,0,25.118,5.682,25.118,12.692V325.975c0,7.009-11.246,12.692-25.118,12.692H25.118C11.246,338.667,0,332.985,0,325.975V12.692C0,5.682,11.246,0,25.118,0Z" transform="translate(0)" fill="#eff6ff"/></clipPath><clipPath id="f"><rect width="591.486" height="354.657" fill="#e8f6f1"/></clipPath><clipPath id="g"><rect width="318.667" height="175.577" fill="#92c9ff"/></clipPath><clipPath id="h"><path d="M0,0,953.859,232.987l165.971,335.756L165.971,335.756Z" fill="#92c9ff"/></clipPath><clipPath id="i"><rect width="192.045" height="188.619" fill="none"/></clipPath><clipPath id="j"><rect width="192.043" height="188.621" fill="none"/></clipPath><clipPath id="k"><rect width="173.107" height="173.107" fill="none"/></clipPath><clipPath id="l"><path d="M173.108,89.082A86.554,86.554,0,1,1,86.551,2.525a86.557,86.557,0,0,1,86.557,86.557" transform="translate(0 -2.525)" fill="none"/></clipPath><radialGradient id="m" cx="0.5" cy="0.5" r="0.5" gradientTransform="matrix(1, 0, 0, -1, 0, 2)" gradientUnits="objectBoundingBox"><stop offset="0" stop-color="#666"/><stop offset="0.108" stop-color="#8e8e8e"/><stop offset="0.221" stop-color="#b1b1b1"/><stop offset="0.341" stop-color="#cdcdcd"/><stop offset="0.469" stop-color="#e3e3e3"/><stop offset="0.609" stop-color="#f2f2f2"/><stop offset="0.771" stop-color="#fcfcfc"/><stop offset="1" stop-color="#fff"/></radialGradient><clipPath id="o"><path d="M176.185,86.557A86.551,86.551,0,1,1,89.634,0a86.548,86.548,0,0,1,86.551,86.557" transform="translate(-3.083)" fill="none"/></clipPath><radialGradient id="p" cy="0.5" r="0.5" gradientTransform="matrix(1, 0, 0, -1, 0, 2.179)" xlink:href="#m"/><clipPath id="r"><path d="M173.108,87.852A86.554,86.554,0,1,1,86.551,1.3a86.558,86.558,0,0,1,86.557,86.551" transform="translate(0 -1.301)" fill="none"/></clipPath><radialGradient id="s" cy="0.5" r="0.5" gradientTransform="matrix(1, 0, 0, -1, 0, 2.087)" xlink:href="#m"/><clipPath id="t"><path d="M5.686,53.637A49.462,49.462,0,1,0,55.154,4.181,49.468,49.468,0,0,0,5.686,53.637" transform="translate(-5.686 -4.181)" fill="none"/></clipPath><radialGradient id="u" cx="0.546" cy="0.174" r="0.948" gradientTransform="matrix(0, 1, 1, 0, -1.471, 1.471)" gradientUnits="objectBoundingBox"><stop offset="0" stop-color="#fff"/><stop offset="1" stop-color="#b3b3b3"/></radialGradient><clipPath id="v"><path d="M6.024,51.9A47.389,47.389,0,1,0,53.416,4.518,47.386,47.386,0,0,0,6.024,51.9" transform="translate(-6.024 -4.518)" fill="url(#a)"/></clipPath></defs><g transform="translate(6974.465 6231.349)"><g transform="translate(-9160.937 -5170.342) rotate(-90)"><g transform="translate(-684.009 2186.471)" opacity="0.2" clip-path="url(#e)"><g transform="translate(-719.943 -51.667)" fill="#fff" stroke="#707070" stroke-width="1"><rect width="2746.126" height="472" stroke="none"/><rect x="0.5" y="0.5" width="2745.126" height="471" fill="none"/></g><path d="M31.152,0H2133.061c17.2,0,31.152,5.632,31.152,12.579v310.5c0,6.947-13.947,12.579-31.152,12.579H31.152C13.947,335.657,0,330.025,0,323.078V12.579C0,5.632,13.947,0,31.152,0Z" transform="translate(-419.197)" fill="#f6f6f6"/><path d="M623.851,0C968.394,0,1247.7,100.529,1247.7,224.538S968.394,449.075,623.851,449.075,0,348.546,0,224.538,279.308,0,623.851,0Z" transform="translate(-198.678 -327.217)" fill="#d3e9ff" opacity="0.41"/><path d="M583.682,0c322.358,0,583.682,94.056,583.682,210.08S906.04,420.16,583.682,420.16,0,326.1,0,210.08,261.323,0,583.682,0Z" transform="translate(-410.361 56.351)" fill="#92c9ff" opacity="0.48" style="mix-blend-mode:multiply;isolation:isolate"/><g transform="translate(1270.667 -7.995)" style="mix-blend-mode:multiply;isolation:isolate"><g transform="translate(0 0)" clip-path="url(#f)"><path d="M175.324,41.626c-13.27,9.854-26.872,19.452-39.738,29.618-24.795,19.59-49.5,39.259-73.646,59.337C26.657,159.926,4.472,194.253,1.977,234.945.3,262.3.556,289.729.1,317.126-.1,329.633.065,342.144.064,354.653H8.4c-.117-22.011-.538-44.024-.258-66.031.231-18.139.71-36.3,2.113-54.4,2.6-33.516,18.469-63.211,46.242-88.631,16.77-15.349,35.281-29.553,53.26-44.082q28.1-22.709,56.756-45c5.857-4.543,12.713-8.3,19.112-12.422a4,4,0,0,1,.792-.851c17.7-10.723,36.447-20.115,57.088-27.03,22.885-7.667,46.647-11.431,71.634-9.126,30.828,2.845,59.423,11.186,86.989,21.878,53.383,20.707,98.612,50.149,142.3,81.214q21.849,16.4,43.7,32.793c1.1.826,2.22,1.636,3.331,2.454q.015-4.654.031-9.31c-3.207-2.386-6.436-4.755-9.619-7.161q-14.386-10.872-28.742-21.766c-12.679-8.593-25.223-17.31-38.062-25.754C477.61,56.8,438.32,34.279,393.306,18.565,368.333,9.847,342.634,2.979,315.222.622c-26.291-2.261-51.207,1.734-75.248,9.8-21.943,7.365-41.78,17.441-60.538,28.883-1.331.812-2.74,1.547-4.113,2.318" transform="translate(0 0.005)" fill="#e8f6f1"/><path d="M9.636,666.022c-.575-14.062-.7-28.146-1.825-42.181-1.941-24.2,3.341-47.653,10.514-71C23.5,535.98,29.5,519.378,38.53,503.465c12.906-22.739,34.738-36.183,66.019-41.207a658.786,658.786,0,0,1,79.734-7.621c27.09-1.022,54.238-1.679,81.354-1.552,32.54.153,63.57,5.758,91.977,18.733,19.452,8.884,35.884,20.695,52.153,32.672,27.127,19.97,53.994,40.164,81.552,59.765,12.718,9.046,26.808,16.917,40.276,25.32q0-4.034,0-8.068c-18.651-12.195-37.853-23.917-55.82-36.7-26.079-18.549-51.138-37.968-76.867-56.821-34.332-25.158-74.969-38.97-122.179-41-32.411-1.394-64.755-.41-97.032,1.532-22.09,1.329-44.1,3.628-66.076,5.875-7.433.76-14.68,2.655-21.994,4.089-26.63,5.223-44.8,18.4-57.166,37.038-12.223,18.431-19.231,38.234-24.786,58.364C6.151,566.678,1.923,579.524.749,592.5c-1.46,16.13-.123,32.416.066,48.635.1,8.3.323,16.593.49,24.89Z" transform="translate(59.857 -311.365)" fill="#e8f6f1"/><path d="M8.4,798.4c2.534-24.8,5.024-49.605,7.617-74.4,1.69-16.168,3.067-32.347,9.422-48,8.456-20.827,27.284-30.811,54.3-32.844,25.5-1.919,50.861-.2,76.16,1.829,19.445,1.557,38.79,3.9,58.153,6.041,30.325,3.351,54.24,15.523,74.312,33.01,12.132,10.568,24.029,21.337,36.853,31.376,16.193,12.678,36.073,21.7,54.789,31.854,11.376,6.173,22.49,12.64,33.721,18.976q0-4.162-.005-8.325c-23.184-12.71-46.544-25.23-69.493-38.194-16.355-9.239-29.114-21.411-42.145-33.3-13.6-12.4-28.356-23.75-46.923-31.688-13.445-5.749-28.093-8.6-42.993-10.6a869.256,869.256,0,0,0-105.71-8.021,258.447,258.447,0,0,0-41.766,2.817c-26.006,3.983-40.436,17.958-47.891,37.037-5.206,13.324-6.946,27.069-8.337,40.853-2.6,25.764-5.093,51.534-7.654,77.3-.142,1.433-.49,2.853-.742,4.279Z" transform="translate(177.739 -443.746)" fill="#e8f6f1"/><path d="M305.573,889.014c-.565-10.69-1.744-21.385-1.579-32.069.471-30.494,17.961-54.179,49.246-71.837A99.152,99.152,0,0,1,391.871,772.9c20.732-2.167,37.652,3.828,49.624,16.717a372.361,372.361,0,0,1,29.049,35.931c17,23.582,37.25,45.008,63.764,62.627a5.658,5.658,0,0,1,.843.842h12.96C530.2,877.336,513.131,864.9,500.1,849.731c-11.56-13.458-21.784-27.618-32.522-41.5-7.965-10.3-15.759-20.676-27.071-29.086-16.961-12.608-37-15.758-59.086-11.132-43.732,9.161-78.453,40.676-84.37,75.642-2.485,14.684-.772,29.283.173,43.92.031.48.013.962.018,1.443Z" transform="translate(-71.301 -534.357)" fill="#e8f6f1"/><path d="M512.6,988.532c-1.841-20.992-1.406-41.662,14.962-59.854a39.3,39.3,0,0,1,25.351-13.273,28.548,28.548,0,0,1,18.311,3.445C584.556,926.608,594,937,602.747,947.8c10.47,12.92,19.581,26.4,26.492,40.736h8.331c-6.171-15.5-16.36-29.478-27.1-43.231-8.124-10.4-17.338-20.17-29.007-28.356-15.288-10.725-33.941-11.086-49.894-.917-13.067,8.329-20.293,19.523-24.217,32.028-4.175,13.3-4.556,26.867-3.085,40.475Z" transform="translate(-241.296 -633.875)" fill="#e8f6f1"/></g></g><g transform="translate(401.621 394.861) rotate(180)" opacity="0.65" style="mix-blend-mode:screen;isolation:isolate"><g transform="translate(102.955 0)" clip-path="url(#g)"><path d="M298.514.146c-.45,2.978-.827,5.968-1.367,8.939-1.3,7.143-2.551,14.293-4.044,21.412-3.984,19-9.282,37.754-17.4,55.985a5.478,5.478,0,0,1-.4.646c-3.387,6.164-6.749,12.336-10.186,18.483a27.622,27.622,0,0,1-2.267,3.012c-5.668,7.925-12.71,14.908-23.031,19.516-9.785,4.369-19.4,3.745-28.633-1.07-2.008-1.046-3.772-2.372-5.649-3.569l.037.013-.546-.276c-3.231-2.723-6.737-5.282-9.641-8.2a83.24,83.24,0,0,1-16.918-25.064,7.987,7.987,0,0,1-.288-1.063,77.993,77.993,0,0,0,26.4-5.606c3.11-1.972,6.506-3.733,9.275-5.959a27.336,27.336,0,0,0,10.694-20.411c.037-.584.066-1.168.1-1.753a34.022,34.022,0,0,0-7.375-20.131A36.947,36.947,0,0,0,198.6,21.915c-11.551-3.634-23.63-1.415-31.924,5.851-6.137,5.377-9.288,11.854-11.109,18.748-.854,3.232-1.235,6.538-1.83,9.81.106,5.436.213,10.872.323,16.514-2.375-.5-4.853-.966-7.283-1.549a162.259,162.259,0,0,1-28.832-9.663c-5.772-2.682-11.707-5.175-17.287-8.078A339.39,339.39,0,0,1,33.8,7.5c-2.72-2.375-5.39-4.786-8.279-7.354L0,0A3.569,3.569,0,0,1,2.838,1.064a368.958,368.958,0,0,0,40.1,34.508C60.535,48.6,79.3,60.512,100.185,70.3c4.531,2.123,9.239,4.019,13.859,6.03.82.357,1.606.76,2.408,1.141,2.71.894,5.428,1.775,8.13,2.683a165.71,165.71,0,0,0,32.095,7.611,2.385,2.385,0,0,1,2.3,1.733,96.284,96.284,0,0,0,26.508,38.781c2.929,2.608,6.3,4.918,9.471,7.365a67.117,67.117,0,0,0,16.366,7.5,53.927,53.927,0,0,0,40.247-3.852c4.412-2.22,8.275-5.093,12.388-7.668a100.656,100.656,0,0,0,16.608-17.806c2.726-4.54,5.627-9.024,8.141-13.634A186.01,186.01,0,0,0,301.482,69.7c1.257-3.761,2.387-7.548,3.576-11.323C310.5,39.142,318.176.02,318.667.02M173,71.653c-.33-4.616-.531-9.237-.741-13.857a8.483,8.483,0,0,1,.325-1.856c.5-6.558,2.155-12.867,7.461-18.21,3.694-3.72,8.837-4.278,13.864-1.658a22.3,22.3,0,0,1,11.239,13.433,15.97,15.97,0,0,1,.393,9.838c-1.072,5.22-4.786,9.023-10.6,11.625-5.467,2.445-11.493,3.345-17.725,3.588-3.9.152-3.992.165-4.211-2.9" transform="translate(0 30.201)" fill="#92c9ff"/><line x1="18.597" y2="0.074" transform="translate(298.514 0)" fill="#fdfdfd"/></g></g><g transform="matrix(0.927, -0.375, 0.375, 0.927, -366.754, -72.211)" opacity="0.07" style="mix-blend-mode:darken;isolation:isolate"><g transform="translate(0 0)" clip-path="url(#h)"><path d="M893.677,218.533c1.467,5.366,3.167,10.808,4.358,16.1,2.864,12.709,5.875,25.467,8.136,37.989,6.032,33.413,7.9,65.41.849,94.341a3.416,3.416,0,0,1-.593.941c-4.313,9.31-8.541,18.655-13.018,27.9-.771,1.592-2.6,2.747-3.938,4.1-9.476,11.01-23.953,19.216-50.489,20.482-25.16,1.2-54.516-7.02-86.719-22.981-7-3.469-13.534-7.294-20.282-10.956l.122.052-1.894-.927C717.963,378,705.05,370.545,693.6,362.842a519.887,519.887,0,0,1-74.334-60.3c-.617-.6-1-1.19-1.866-2.244,27.49,5.882,52.451,9.2,73.71,8.579,7.445-1.5,15.945-2.381,22.13-4.614,15.716-5.674,18.6-16.712,12.714-31.213-.442-1.09-.907-2.186-1.361-3.279-7.488-13.933-20.955-28.562-41.1-43.889a292.619,292.619,0,0,0-68.3-38.77c-38.011-15.4-72.069-19.983-90.026-12.151-13.287,5.8-16.6,15.878-15.531,27.73.5,5.555,2.484,11.6,3.8,17.422L530,251.929c-7.583-2.7-15.439-5.4-23.264-8.288-32.394-11.97-64.269-25.044-95.435-39.558-19.812-9.348-39.935-18.456-59.381-28.086A2743.5,2743.5,0,0,1,108.266,39.055C97.877,32.524,87.608,25.963,76.532,18.939L0,0A27.193,27.193,0,0,1,9.5,4.11C57.978,36.49,108.66,68.329,162.139,99.416c65,37.785,132.416,74.277,204.2,108.265,15.57,7.372,31.456,14.442,47.184,21.663,2.792,1.282,5.526,2.627,8.287,3.943q13.437,5.536,26.872,11.074c34.2,14.186,68.582,27.184,103.264,38.02,4.349,1.359,6.416,2.767,8.526,5,29.667,31.348,67.239,62.59,116,93.541,11.233,7.13,23.514,14.013,35.312,21.009,17.97,9.5,36.336,18.6,56.083,26.317,46.557,18.2,85.289,24.956,116.83,22.059,11.107-1.02,19.954-3.689,29.834-5.606a85.952,85.952,0,0,0,32.88-21.907c3.867-6.69,8.313-13.142,11.481-20.119,6.787-14.944,8.839-31.687,9.408-48.972.207-6.274.012-12.688,0-19.038-1.878-32.792-15.893-102-14.424-101.638M585.56,263.506c-5.35-9.067-10.32-18.052-15.317-27.04a9.954,9.954,0,0,1-.782-3.311c-4.7-12.174-5.711-23.03,5.119-29.368,7.541-4.413,22.407-1.72,39.933,6.966,21.592,10.7,35.773,22.2,46.34,33.905,6.307,6.985,10.308,13.5,10.475,19.1,1.726,9.2-5.8,13.755-20.753,14.477-14.053.678-31.239-2.007-49.665-6.1-11.528-2.56-11.793-2.6-15.348-8.63" transform="translate(28.549 57.754)" fill="#92c9ff"/><line x1="55.596" y1="13.456" transform="translate(893.608 218.395)" fill="#fdfdfd"/></g></g></g></g><path d="M3.779-4.509V0H1.143V-12.8H6.135a5.776,5.776,0,0,1,2.536.527,3.886,3.886,0,0,1,1.683,1.5,4.178,4.178,0,0,1,.589,2.21A3.674,3.674,0,0,1,9.655-5.594,5.363,5.363,0,0,1,6.091-4.509Zm0-2.136H6.135a2.316,2.316,0,0,0,1.6-.492,1.79,1.79,0,0,0,.549-1.406,2.111,2.111,0,0,0-.554-1.521,2.068,2.068,0,0,0-1.529-.6H3.779Zm8.3,1.8a5.64,5.64,0,0,1,.545-2.522A3.989,3.989,0,0,1,14.19-9.079a4.577,4.577,0,0,1,2.377-.606,4.33,4.33,0,0,1,3.142,1.178,4.727,4.727,0,0,1,1.358,3.2l.018.65a4.97,4.97,0,0,1-1.222,3.511A4.247,4.247,0,0,1,16.585.176,4.268,4.268,0,0,1,13.3-1.143a5.058,5.058,0,0,1-1.226-3.586Zm2.54.185a3.545,3.545,0,0,0,.51,2.07,1.682,1.682,0,0,0,1.459.716,1.686,1.686,0,0,0,1.441-.708,3.879,3.879,0,0,0,.519-2.263A3.51,3.51,0,0,0,18.026-6.9a1.686,1.686,0,0,0-1.459-.729,1.659,1.659,0,0,0-1.441.725A3.944,3.944,0,0,0,14.616-4.658ZM25.33,0H22.781V-13.5H25.33Zm4.834,0h-2.54V-9.51h2.54Zm-.747-13.368h2.769l-2.435,2.725H27.686Zm5.977,1.521V-9.51H37.02v1.863H35.394V-2.9a1.133,1.133,0,0,0,.2.756,1.015,1.015,0,0,0,.773.229,4.051,4.051,0,0,0,.747-.062V-.053a5.229,5.229,0,0,1-1.538.229,2.425,2.425,0,0,1-2.725-2.7V-7.646H31.465V-9.51h1.389v-2.338ZM41.115,0H38.566V-9.51h2.549Zm-2.7-11.971a1.251,1.251,0,0,1,.382-.94,1.436,1.436,0,0,1,1.042-.369,1.44,1.44,0,0,1,1.037.369,1.244,1.244,0,0,1,.387.94,1.247,1.247,0,0,1-.391.949,1.443,1.443,0,0,1-1.033.369,1.443,1.443,0,0,1-1.033-.369A1.247,1.247,0,0,1,38.417-11.971Zm8.745,10.1A1.666,1.666,0,0,0,48.3-2.259a1.355,1.355,0,0,0,.457-1.028h2.382a3.258,3.258,0,0,1-.527,1.771A3.48,3.48,0,0,1,49.2-.268a4.442,4.442,0,0,1-1.991.444,4.129,4.129,0,0,1-3.217-1.3A5.13,5.13,0,0,1,42.812-4.7v-.167A5.071,5.071,0,0,1,43.98-8.376a4.08,4.08,0,0,1,3.208-1.31A4,4,0,0,1,50.049-8.67a3.594,3.594,0,0,1,1.094,2.7H48.762a1.731,1.731,0,0,0-.457-1.2,1.528,1.528,0,0,0-1.16-.461,1.531,1.531,0,0,0-1.34.646,3.739,3.739,0,0,0-.453,2.1v.264A3.786,3.786,0,0,0,45.8-2.514,1.55,1.55,0,0,0,47.162-1.872ZM58.1,0a2.821,2.821,0,0,1-.255-.853A3.073,3.073,0,0,1,55.45.176a3.376,3.376,0,0,1-2.316-.809,2.6,2.6,0,0,1-.918-2.039,2.687,2.687,0,0,1,1.121-2.32,5.529,5.529,0,0,1,3.239-.817h1.169v-.545a1.567,1.567,0,0,0-.338-1.055,1.331,1.331,0,0,0-1.068-.4,1.513,1.513,0,0,0-1.006.308,1.045,1.045,0,0,0-.365.844h-2.54a2.551,2.551,0,0,1,.51-1.529,3.37,3.37,0,0,1,1.441-1.1,5.253,5.253,0,0,1,2.092-.4A4.15,4.15,0,0,1,59.26-8.8a3.09,3.09,0,0,1,1.033,2.483V-2.2a4.546,4.546,0,0,0,.378,2.048V0ZM56-1.767a2.188,2.188,0,0,0,1.037-.25,1.645,1.645,0,0,0,.7-.672V-4.324h-.949q-1.907,0-2.03,1.318l-.009.149a1.017,1.017,0,0,0,.334.782A1.3,1.3,0,0,0,56-1.767Zm11.391-.861a.818.818,0,0,0-.461-.734,5.241,5.241,0,0,0-1.481-.479Q62.06-4.553,62.06-6.724a2.613,2.613,0,0,1,1.05-2.114,4.237,4.237,0,0,1,2.747-.848,4.56,4.56,0,0,1,2.9.853,2.687,2.687,0,0,1,1.085,2.215H67.3a1.229,1.229,0,0,0-.352-.9,1.488,1.488,0,0,0-1.1-.356,1.52,1.52,0,0,0-.993.29.916.916,0,0,0-.352.738.783.783,0,0,0,.4.681,4.114,4.114,0,0,0,1.349.448,11.019,11.019,0,0,1,1.6.426,2.628,2.628,0,0,1,2.013,2.558,2.481,2.481,0,0,1-1.116,2.1,4.815,4.815,0,0,1-2.883.8A5.029,5.029,0,0,1,63.743-.25a3.561,3.561,0,0,1-1.455-1.169,2.716,2.716,0,0,1-.527-1.6h2.408a1.326,1.326,0,0,0,.5,1.037,1.987,1.987,0,0,0,1.248.36,1.839,1.839,0,0,0,1.1-.277A.861.861,0,0,0,67.395-2.628ZM80.358.176a4.668,4.668,0,0,1-3.406-1.283,4.561,4.561,0,0,1-1.314-3.419v-.246a5.745,5.745,0,0,1,.554-2.562,4.064,4.064,0,0,1,1.569-1.74,4.4,4.4,0,0,1,2.316-.611,3.947,3.947,0,0,1,3.072,1.23A5,5,0,0,1,84.27-4.966v1.037H78.214a2.36,2.36,0,0,0,.743,1.494,2.245,2.245,0,0,0,1.569.563,2.742,2.742,0,0,0,2.294-1.063l1.248,1.4A3.813,3.813,0,0,1,82.521-.277,5.075,5.075,0,0,1,80.358.176Zm-.29-7.8a1.591,1.591,0,0,0-1.226.51,2.634,2.634,0,0,0-.6,1.459h3.533v-.2a1.878,1.878,0,0,0-.457-1.305A1.642,1.642,0,0,0,80.068-7.629ZM88.093-9.51l.079,1.063a3.342,3.342,0,0,1,2.733-1.239,2.536,2.536,0,0,1,2.522,1.45,3.265,3.265,0,0,1,2.856-1.45,2.836,2.836,0,0,1,2.3.9,4.141,4.141,0,0,1,.756,2.711V0H96.794V-6.064a1.811,1.811,0,0,0-.316-1.182,1.4,1.4,0,0,0-1.116-.374,1.585,1.585,0,0,0-1.582,1.09L93.788,0h-2.54V-6.056a1.789,1.789,0,0,0-.325-1.2,1.416,1.416,0,0,0-1.107-.369,1.646,1.646,0,0,0-1.564.9V0h-2.54V-9.51Zm21.762,4.843a5.7,5.7,0,0,1-1,3.52A3.2,3.2,0,0,1,106.163.176a2.963,2.963,0,0,1-2.329-1V3.656h-2.54V-9.51h2.355l.088.932a2.985,2.985,0,0,1,2.408-1.107,3.22,3.22,0,0,1,2.733,1.3,5.858,5.858,0,0,1,.976,3.586Zm-2.54-.185a3.743,3.743,0,0,0-.47-2.048,1.532,1.532,0,0,0-1.367-.721,1.663,1.663,0,0,0-1.644.914v3.894a1.692,1.692,0,0,0,1.661.94Q107.314-1.872,107.314-4.852Zm9.457-2.276a6.9,6.9,0,0,0-.914-.07,1.86,1.86,0,0,0-1.89.976V0h-2.54V-9.51h2.4l.07,1.134a2.354,2.354,0,0,1,2.118-1.31,2.662,2.662,0,0,1,.791.114Zm5.6,7.3a4.668,4.668,0,0,1-3.406-1.283,4.561,4.561,0,0,1-1.314-3.419v-.246a5.745,5.745,0,0,1,.554-2.562,4.064,4.064,0,0,1,1.569-1.74,4.4,4.4,0,0,1,2.316-.611,3.947,3.947,0,0,1,3.072,1.23,5,5,0,0,1,1.121,3.489v1.037h-6.056a2.36,2.36,0,0,0,.743,1.494,2.245,2.245,0,0,0,1.569.563,2.742,2.742,0,0,0,2.294-1.063l1.248,1.4a3.813,3.813,0,0,1-1.547,1.261A5.075,5.075,0,0,1,122.37.176Zm-.29-7.8a1.591,1.591,0,0,0-1.226.51,2.634,2.634,0,0,0-.6,1.459h3.533v-.2a1.878,1.878,0,0,0-.457-1.305A1.642,1.642,0,0,0,122.08-7.629Zm10.793,5a.818.818,0,0,0-.461-.734,5.241,5.241,0,0,0-1.481-.479q-3.393-.712-3.393-2.883a2.613,2.613,0,0,1,1.05-2.114,4.237,4.237,0,0,1,2.747-.848,4.56,4.56,0,0,1,2.9.853,2.687,2.687,0,0,1,1.085,2.215h-2.54a1.229,1.229,0,0,0-.352-.9,1.488,1.488,0,0,0-1.1-.356,1.52,1.52,0,0,0-.993.29.916.916,0,0,0-.352.738.783.783,0,0,0,.4.681,4.114,4.114,0,0,0,1.349.448,11.019,11.019,0,0,1,1.6.426,2.628,2.628,0,0,1,2.013,2.558,2.481,2.481,0,0,1-1.116,2.1,4.815,4.815,0,0,1-2.883.8,5.029,5.029,0,0,1-2.123-.426,3.561,3.561,0,0,1-1.455-1.169,2.716,2.716,0,0,1-.527-1.6h2.408a1.326,1.326,0,0,0,.5,1.037,1.987,1.987,0,0,0,1.248.36,1.839,1.839,0,0,0,1.1-.277A.861.861,0,0,0,132.873-2.628ZM142.488,0a2.821,2.821,0,0,1-.255-.853,3.073,3.073,0,0,1-2.4,1.028,3.376,3.376,0,0,1-2.316-.809,2.6,2.6,0,0,1-.918-2.039,2.687,2.687,0,0,1,1.121-2.32,5.529,5.529,0,0,1,3.239-.817h1.169v-.545a1.567,1.567,0,0,0-.338-1.055,1.331,1.331,0,0,0-1.068-.4,1.513,1.513,0,0,0-1.006.308,1.045,1.045,0,0,0-.365.844h-2.54a2.551,2.551,0,0,1,.51-1.529,3.37,3.37,0,0,1,1.441-1.1,5.253,5.253,0,0,1,2.092-.4,4.15,4.15,0,0,1,2.791.883,3.09,3.09,0,0,1,1.033,2.483V-2.2a4.546,4.546,0,0,0,.378,2.048V0Zm-2.1-1.767a2.188,2.188,0,0,0,1.037-.25,1.645,1.645,0,0,0,.7-.672V-4.324h-.949q-1.907,0-2.03,1.318l-.009.149a1.017,1.017,0,0,0,.334.782A1.3,1.3,0,0,0,140.388-1.767Zm11.584-5.361a6.9,6.9,0,0,0-.914-.07,1.86,1.86,0,0,0-1.89.976V0h-2.54V-9.51h2.4l.07,1.134a2.354,2.354,0,0,1,2.118-1.31,2.662,2.662,0,0,1,.791.114ZM155.874,0h-2.549V-9.51h2.549Zm-2.7-11.971a1.251,1.251,0,0,1,.382-.94,1.436,1.436,0,0,1,1.042-.369,1.44,1.44,0,0,1,1.037.369,1.244,1.244,0,0,1,.387.94,1.247,1.247,0,0,1-.391.949,1.443,1.443,0,0,1-1.033.369,1.443,1.443,0,0,1-1.033-.369A1.247,1.247,0,0,1,153.176-11.971ZM163.477,0a2.821,2.821,0,0,1-.255-.853,3.073,3.073,0,0,1-2.4,1.028,3.376,3.376,0,0,1-2.316-.809,2.6,2.6,0,0,1-.918-2.039,2.687,2.687,0,0,1,1.121-2.32,5.529,5.529,0,0,1,3.239-.817h1.169v-.545a1.567,1.567,0,0,0-.338-1.055,1.331,1.331,0,0,0-1.068-.4A1.513,1.513,0,0,0,160.7-7.5a1.045,1.045,0,0,0-.365.844H157.8a2.551,2.551,0,0,1,.51-1.529,3.37,3.37,0,0,1,1.441-1.1,5.253,5.253,0,0,1,2.092-.4,4.15,4.15,0,0,1,2.791.883,3.09,3.09,0,0,1,1.033,2.483V-2.2a4.546,4.546,0,0,0,.378,2.048V0Zm-2.1-1.767a2.188,2.188,0,0,0,1.037-.25,1.645,1.645,0,0,0,.7-.672V-4.324h-.949q-1.907,0-2.03,1.318l-.009.149a1.017,1.017,0,0,0,.334.782A1.3,1.3,0,0,0,161.376-1.767ZM170.3,0h-2.549V-13.5H170.3Zm6.469.176a4.668,4.668,0,0,1-3.406-1.283,4.561,4.561,0,0,1-1.314-3.419v-.246a5.745,5.745,0,0,1,.554-2.562,4.064,4.064,0,0,1,1.569-1.74,4.4,4.4,0,0,1,2.316-.611,3.947,3.947,0,0,1,3.072,1.23,5,5,0,0,1,1.121,3.489v1.037h-6.056a2.36,2.36,0,0,0,.743,1.494,2.245,2.245,0,0,0,1.569.563,2.742,2.742,0,0,0,2.294-1.063l1.248,1.4a3.813,3.813,0,0,1-1.547,1.261A5.075,5.075,0,0,1,176.766.176Zm-.29-7.8a1.591,1.591,0,0,0-1.226.51,2.634,2.634,0,0,0-.6,1.459h3.533v-.2a1.878,1.878,0,0,0-.457-1.305A1.642,1.642,0,0,0,176.476-7.629Zm10.793,5a.818.818,0,0,0-.461-.734,5.241,5.241,0,0,0-1.481-.479q-3.393-.712-3.393-2.883a2.613,2.613,0,0,1,1.05-2.114,4.237,4.237,0,0,1,2.747-.848,4.56,4.56,0,0,1,2.9.853,2.687,2.687,0,0,1,1.085,2.215h-2.54a1.229,1.229,0,0,0-.352-.9,1.488,1.488,0,0,0-1.1-.356,1.52,1.52,0,0,0-.993.29.916.916,0,0,0-.352.738.783.783,0,0,0,.4.681,4.114,4.114,0,0,0,1.349.448,11.019,11.019,0,0,1,1.6.426,2.628,2.628,0,0,1,2.013,2.558,2.481,2.481,0,0,1-1.116,2.1,4.815,4.815,0,0,1-2.883.8,5.029,5.029,0,0,1-2.123-.426,3.561,3.561,0,0,1-1.455-1.169,2.716,2.716,0,0,1-.527-1.6h2.408a1.326,1.326,0,0,0,.5,1.037,1.987,1.987,0,0,0,1.248.36,1.839,1.839,0,0,0,1.1-.277A.861.861,0,0,0,187.269-2.628Z" transform="translate(-6928.295 -6177.901)" fill="#12263f"/><g transform="translate(-1154.227 809)"><rect width="192" height="100" rx="16" transform="translate(-5715.402 -5585.516)" fill="#fef2ef"/><rect width="192" height="121" rx="16" transform="translate(-5715.902 -5478.016)" fill="#fde8e1"/><text transform="translate(-5609.3 -5628.92)" fill="#12263f" font-size="16" font-family="Roboto-Bold, Roboto" font-weight="700"><tspan x="-42.168" y="0">Políticas de</tspan><tspan x="-71.824" y="24" xml:space="preserve"> calidad y seguridad</tspan></text><g transform="translate(-5730.402 -5709.516)" fill="none" stroke="#12263f" stroke-width="2"><rect width="221" height="364" rx="18" stroke="none"/><rect x="1" y="1" width="219" height="362" rx="17" fill="none"/></g><text transform="translate(-5697.25 -5566.516)" fill="#12263f" font-size="16" font-family="Roboto-Bold, Roboto" font-weight="700"><tspan x="0" y="17">Enfoque: </tspan><tspan font-family="Roboto-Regular, Roboto" font-weight="400"><tspan x="0" y="41">Implementación de </tspan><tspan x="0" y="65">certificaciones.</tspan></tspan></text><text transform="translate(-5700.75 -5460.016)" fill="#12263f" font-size="16" font-family="Roboto-Bold, Roboto" font-weight="700"><tspan x="0" y="17">Detalles: </tspan><tspan y="17" font-family="Roboto-Regular, Roboto" font-weight="400">Integridad del </tspan><tspan x="0" y="41" font-family="Roboto-Regular, Roboto" font-weight="400">producto y seguridad </tspan><tspan x="0" y="65" font-family="Roboto-Regular, Roboto" font-weight="400">de la cadena de </tspan><tspan x="0" y="89" font-family="Roboto-Regular, Roboto" font-weight="400">suministro.</tspan></text><g transform="translate(-6786.3 -11412.516)"><g transform="translate(1081.898 5623)"><g clip-path="url(#i)"><g transform="translate(0 -0.002)"><g opacity="0.4" clip-path="url(#j)"><g transform="translate(0 15.514)" style="mix-blend-mode:multiply;isolation:isolate"><g clip-path="url(#k)"><g transform="translate(0 0.001)"><g clip-path="url(#l)"><rect width="173.108" height="173.108" transform="translate(0 -0.002)" fill="url(#m)"/></g></g></g></g><g transform="translate(18.938 0.002)" style="mix-blend-mode:multiply;isolation:isolate"><g transform="translate(0 0)"><g clip-path="url(#k)"><g transform="translate(0.003 0)"><g clip-path="url(#o)"><rect width="173.102" height="173.108" transform="translate(0 -0.002)" fill="url(#p)"/></g></g></g></g></g><g transform="translate(0 7.992)" style="mix-blend-mode:multiply;isolation:isolate"><g clip-path="url(#k)"><g transform="translate(0 0.002)"><g clip-path="url(#r)"><rect width="173.108" height="173.108" transform="translate(0 -0.002)" fill="url(#s)"/></g></g></g></g></g></g><g transform="translate(34.933 25.686)"><g clip-path="url(#t)"><rect width="134.533" height="134.533" transform="matrix(0.874, -0.486, 0.486, 0.874, -42.018, 23.364)" fill="url(#u)"/></g></g><g transform="translate(37.009 27.757)"><g clip-path="url(#v)"><rect width="132.933" height="132.933" transform="matrix(0.792, -0.611, 0.611, 0.792, -45.836, 35.355)" fill="url(#a)"/></g></g></g></g><g transform="translate(1132.934 5502.426)"><path d="M85.643,229.333,92.2,253.967c1.031,3.874-2.37,3.126-3.942,2.518-1.312-.507-6.553-2.545-6.553-2.545s-3.531,1.915-4.485,2.422c-2.079,1.1-4.2.83-5.112-1.811-.024-.069-2.264-7.667-4.372-14.816v-10.4Z" transform="translate(-34.272 -38.513)" fill="#f45558"/><g transform="translate(8.812 190.865)"><path d="M15.569,67.906,9,92.579c-1.032,3.88,2.374,3.131,3.948,2.522,1.314-.508,6.563-2.549,6.563-2.549s3.536,1.918,4.492,2.426c2.083,1.107,4.206.831,5.12-1.814.024-.069,2.268-7.679,4.379-14.84V67.906Z" transform="translate(-8.812 -67.906)" fill="#f45558"/><path d="M67.84,67.906V78.325c1.615,5.48,2.635,8.932,3.351,11.357,2.015-.4,3.918-3.851,5.845-4.487,2.043-.674,5.949,1.216,7.683-.057s1.107-5.565,2.364-7.311a4.027,4.027,0,0,1,1.079-.958l-2.385-8.963Z" transform="translate(-43.146 -67.906)" fill="#db375b"/><path d="M23.017,67.906c-.139.324-.3.655-.47.99l-1.285,4.828c.934,1.848,4.9,2.588,6.112,4.247,1.272,1.735.682,6.033,2.428,7.29s5.635-.667,7.684-.011a3.675,3.675,0,0,1,1.048.578c.831-2.817,1.147-3.883,2.214-7.5V67.906Z" transform="translate(-16.054 -67.906)" fill="#db375b"/></g><path d="M50.285,205.812c-1.732,1.27-5.631-.616-7.671.056s-4.052,4.509-6.2,4.518-4.194-3.809-6.239-4.464-5.928,1.266-7.672.011-1.154-5.546-2.424-7.278-5.54-2.46-6.213-4.5,2.326-5.165,2.317-7.313S13.147,181.6,13.8,179.55s4.918-2.811,6.173-4.555.628-6.029,2.36-7.3,5.631.616,7.671-.056,4.052-4.509,6.2-4.518,4.194,3.809,6.239,4.464,5.928-1.266,7.672-.011,1.154,5.546,2.424,7.278,5.54,2.46,6.213,4.5-2.326,5.165-2.317,7.313,3.036,5.247,2.381,7.293-4.918,2.811-6.173,4.555-.628,6.029-2.36,7.3Z" transform="translate(-2.848)" fill="#ffd54f"/><path d="M12.733,282v.443h.886V282Zm2.214,0v.443h.886V282Zm2.213,0v.443h.886V282Zm2.214,0v.443h.886V282Zm2.213,0v.443h.886V282Zm2.214,0v.443h.886V282Zm2.214,0v.443H26.9V282Zm2.213,0v.443h.886V282Zm2.214,0v.443h.886V282Z" transform="translate(-2.281 -69.148)" fill="#bf1d43" fill-rule="evenodd"/><path d="M62.311,200.3A13.893,13.893,0,1,1,48.418,186.4,13.893,13.893,0,0,1,62.311,200.3Z" transform="translate(-14.956 -13.543)" fill="#2196f3"/><path d="M70.582,53.827c-.617,1.19-2.255,2.476-2.6,3.569-.468,1.469.766,4.351-.476,5.265s-3.616-1.187-5.158-1.178c-1.1.007-2.728,1.1-4.024,1.391-.059.98,0,2.091.574,2.506,1.253.9,3.823-1.234,5.366-1.243s4.138,2.092,5.38,1.178.008-4.017.476-5.487,3.268-3.289,2.783-4.753c-.231-.7-1.329-1.012-2.318-1.249Z" transform="translate(-28.786 131.148)" fill="#2979ff"/><path d="M43.592,178.629l0,.443.878.006.01-.442Zm-1.347.075-.887.108.06.439.872-.106Zm3.585.03-.052.44.871.118.065-.438Zm-5.8.327-.863.225.119.427.851-.222Zm8.007.068-.111.428.846.235.125-.425Zm-10.151.579-.828.333.172.409.815-.328Zm12.288.1-.169.409.808.346.181-.4Zm-14.332.82-.776.44.225.382.764-.433Zm16.356.136-.217.386.758.445.229-.379Zm-18.261,1.044-.712.538.273.348.7-.529Zm20.146.168-.266.354.694.54.277-.346ZM32.2,183.229l-.636.627.316.31.626-.616Zm23.592.2-.31.316.617.625.32-.306Zm-25.129,1.435-.548.7.354.266.54-.693Zm26.639.222-.349.273.53.7.357-.261Zm-27.95,1.595-.453.768.384.22.448-.757Zm29.231.243-.382.225.434.764.389-.212Zm-30.293,1.729-.351.82.409.169.346-.808Zm31.325.262-.409.171.329.815.413-.159ZM27.5,190.746l-.239.86.429.111.235-.846Zm32.879.274-.427.119.223.85.43-.106Zm-33.393,1.907-.127.882.439.058.125-.87Zm33.871.284-.439.06.106.872.44-.046Zm-34.1,1.948-.007.892.442,0,.007-.878Zm34.285.286-.443,0-.011.984.442.014Zm-33.778,1.907-.44.046.107.887.439-.06Zm33.225.382-.127.869.437.071.128-.883Zm-32.879,1.775-.431.1.219.864.428-.114Zm32.483.373-.237.847.425.125.24-.86ZM28.234,201.6l-.413.158.333.829.409-.172Zm31.186.358-.347.807.4.181.353-.82Zm-30.293,1.633-.389.212.44.776.382-.224Zm29.353.337-.45.754.376.233.458-.766Zm-28.207,1.521-.357.261.538.712.349-.273Zm27.019.311-.546.689.342.28.554-.7Zm-25.64,1.383-.319.306.625.636.31-.315Zm24.222.279-.63.613.3.322.639-.622Zm-22.634,1.222-.278.344.7.551.269-.352Zm21.011.241-.7.529.262.356.712-.537Zm-19.241,1.039-.233.377.766.457.221-.383Zm17.445.2-.765.432.212.388.777-.439Zm-15.525.838-.181.4.82.352.167-.409Zm13.582.157-.815.327.158.413.829-.333Zm-11.544.623-.125.425.86.239.112-.429Zm9.489.109-.852.215.1.431.865-.218Zm-7.364.394-.07.437.883.127.057-.439Zm5.226.06-.872.1.046.44.887-.106Zm-3.056.165-.009.443.891.008,0-.443Z" transform="translate(-10.433 -9.02)" fill="#ff7377"/><path d="M78.217,282v.443H79.1V282Zm2.214,0v.443h.886V282Zm2.213,0v.443h.886V282Zm2.214,0v.443h.886V282Zm2.213,0v.443h.886V282Zm2.214,0v.443h.886V282Zm2.214,0v.443h.886V282Zm2.213,0v.443H94.6V282Zm2.214,0v.443h.886V282Z" transform="translate(-40.37 -69.148)" fill="#bf1d43" fill-rule="evenodd"/><path d="M61.014,213.981c-1.24.913-3.832-1.186-5.372-1.176s-4.106,2.139-5.357,1.241-.057-4.011-.541-5.472-3.3-3.244-2.836-4.711,3.8-1.293,5.037-2.206,2.065-4.144,3.6-4.153,2.4,3.212,3.654,4.109,4.579.683,5.063,2.145-2.312,3.278-2.779,4.745.765,4.566-.475,5.478Z" transform="translate(-22.129 -19.999)" fill="#d9defb"/></g></g></g><g transform="translate(-672.329 -10)"><rect width="192" height="98" rx="16" transform="translate(-6197.3 -5606.516)" fill="#e8f6f1"/><rect width="192" height="143.5" rx="16" transform="translate(-6197.3 -5498.016)" fill="#d3efe5"/><text transform="translate(-6137.3 -5627.516)" fill="#12263f" font-size="16" font-family="Roboto-Bold, Roboto" font-weight="700"><tspan x="0" y="0">Formación</tspan></text><g transform="translate(-6212.3 -5713.516)" fill="none" stroke="#12263f" stroke-width="2"><rect width="221" height="374" rx="18" stroke="none"/><rect x="1" y="1" width="219" height="372" rx="17" fill="none"/></g><text transform="translate(-6186.25 -5589.516)" fill="#12263f" font-size="16" font-family="Roboto-Bold, Roboto" font-weight="700"><tspan x="0" y="17">Enfoque: </tspan><tspan font-family="Roboto-Regular, Roboto" font-weight="400"><tspan x="0" y="41">Desarrollo de </tspan><tspan x="0" y="65">habilidades del personal.</tspan></tspan></text><text transform="translate(-6176.25 -5481.516)" fill="#12263f" font-size="16" font-family="Roboto-Bold, Roboto" font-weight="700"><tspan x="0" y="17">Detalles: </tspan><tspan y="17" font-family="Roboto-Regular, Roboto" font-weight="400">Uso de </tspan><tspan x="0" y="41" font-family="Roboto-Regular, Roboto" font-weight="400">tecnologías de </tspan><tspan x="0" y="65" font-family="Roboto-Regular, Roboto" font-weight="400">trazabilidad y </tspan><tspan x="0" y="89" font-family="Roboto-Regular, Roboto" font-weight="400">procedimientos </tspan><tspan x="0" y="113" font-family="Roboto-Regular, Roboto" font-weight="400">estandarizados.</tspan></text><g transform="translate(-6786.3 -11412.516)"><g transform="translate(600 5623)"><g clip-path="url(#i)"><g transform="translate(0 -0.002)"><g opacity="0.4" clip-path="url(#j)"><g transform="translate(0 15.514)" style="mix-blend-mode:multiply;isolation:isolate"><g clip-path="url(#k)"><g transform="translate(0 0.001)"><g clip-path="url(#l)"><rect width="173.108" height="173.108" transform="translate(0 -0.002)" fill="url(#m)"/></g></g></g></g><g transform="translate(18.938 0.002)" style="mix-blend-mode:multiply;isolation:isolate"><g transform="translate(0 0)"><g clip-path="url(#k)"><g transform="translate(0.003 0)"><g clip-path="url(#o)"><rect width="173.102" height="173.108" transform="translate(0 -0.002)" fill="url(#p)"/></g></g></g></g></g><g transform="translate(0 7.992)" style="mix-blend-mode:multiply;isolation:isolate"><g clip-path="url(#k)"><g transform="translate(0 0.002)"><g clip-path="url(#r)"><rect width="173.108" height="173.108" transform="translate(0 -0.002)" fill="url(#s)"/></g></g></g></g></g></g><g transform="translate(34.933 25.686)"><g clip-path="url(#t)"><rect width="134.533" height="134.533" transform="matrix(0.874, -0.486, 0.486, 0.874, -42.018, 23.364)" fill="url(#u)"/></g></g><g transform="translate(37.009 27.757)"><g clip-path="url(#v)"><rect width="132.933" height="132.933" transform="matrix(0.792, -0.611, 0.611, 0.792, -45.836, 35.355)" fill="url(#a)"/></g></g></g></g><g transform="translate(655.421 5672)"><path d="M6.319,206.888l-.207-5.545A5.865,5.865,0,0,0,5.1,198.256l-3.775-5.532a7.587,7.587,0,0,1-.11-8.387l6.508-10.1,4.25,14.641L10.261,207.1l-3.272.367a.6.6,0,0,1-.67-.577Z" transform="translate(0 -154.606)" fill="#f1d0a5"/><path d="M115.012,32.6a2.985,2.985,0,0,1-2.985,2.985H67.6A2.985,2.985,0,0,1,64.611,32.6V2.985A2.985,2.985,0,0,1,67.6,0h44.43a2.985,2.985,0,0,1,2.985,2.985Z" transform="translate(-57.332)" fill="#365e7d"/><path d="M472.519,2.985A2.985,2.985,0,0,0,469.534,0h-2.027a2.985,2.985,0,0,1,2.985,2.985V32.6a2.985,2.985,0,0,1-2.985,2.985h2.027a2.985,2.985,0,0,0,2.985-2.985Z" transform="translate(-414.839 0)" fill="#2b4d66"/><path d="M152.148,35.276H111.285a.167.167,0,0,0-.162.172v27.3a.167.167,0,0,0,.162.172h40.862a.167.167,0,0,0,.162-.172v-27.3A.167.167,0,0,0,152.148,35.276Z" transform="translate(-98.604 -31.302)" fill="#d3effb"/><path d="M458.2,35.276h-2.169a.167.167,0,0,1,.162.172v27.3a.167.167,0,0,1-.162.172H458.2a.167.167,0,0,0,.162-.172v-27.3A.167.167,0,0,0,458.2,35.276Z" transform="translate(-404.657 -31.302)" fill="#b1e4f9"/><g transform="translate(9.055 16.217)"><path d="M81.238,147.107a.87.87,0,0,1-.87-.87v-1.416a.87.87,0,1,1,1.741,0v1.416A.87.87,0,0,1,81.238,147.107Z" transform="translate(-80.368 -143.951)" fill="#2b4d66"/></g><path d="M71.726,252.879l.093-4.014a6.938,6.938,0,0,1,.386-2.126,5.828,5.828,0,0,0-1-5.626,1.044,1.044,0,0,1-.107-1.169l5.5-9.932a2.045,2.045,0,0,0-3.293-2.377l-9.145,9.917.6,6.911,2.431,9.435,4-.433a.6.6,0,0,0,.538-.586Z" transform="translate(-56.927 -201.407)" fill="#f1d0a5"/><path d="M100.422,230.022a2.044,2.044,0,0,0-3.044-2.6,2.04,2.04,0,0,1,.531,2.6l-5.5,9.933a1.044,1.044,0,0,0,.107,1.169,5.828,5.828,0,0,1,1,5.626,6.933,6.933,0,0,0-.386,2.126l-.064,2.769a2.024,2.024,0,0,1-1.805,1.965l-.045,0a.237.237,0,0,0-.2.294l4-.433a.6.6,0,0,0,.538-.586l.09-3.891a7.289,7.289,0,0,1,.387-2.244,5.829,5.829,0,0,0-1-5.631,1.044,1.044,0,0,1-.107-1.169Z" transform="translate(-80.756 -201.417)" fill="#f1b986"/><path d="M312.352,193.7H300.667a1.494,1.494,0,0,1-1.494-1.494v-3.75a1.494,1.494,0,0,1,1.494-1.494h11.685a1.494,1.494,0,0,1,1.494,1.494v3.75A1.494,1.494,0,0,1,312.352,193.7Z" transform="translate(-265.469 -165.903)" fill="#80e29d"/><path d="M397.924,186.965h-2.315a1.494,1.494,0,0,1,1.494,1.494v3.75a1.494,1.494,0,0,1-1.494,1.494h2.315a1.494,1.494,0,0,0,1.494-1.494v-3.75A1.494,1.494,0,0,0,397.924,186.965Z" transform="translate(-351.041 -165.902)" fill="#66b49d"/><g transform="translate(32.146 38.636)"><path d="M305.336,362a.687.687,0,0,0,.687-.687v-3.355a4.042,4.042,0,0,1,.6-2.14l1.728-2.761a5.147,5.147,0,0,0,.481-4.368l-.819-2.381-1.583-3.352h-11.7l-2.687,3.352-4.022-1.958a1.79,1.79,0,0,0-2.143.452,2.266,2.266,0,0,0,.024,2.986l5.215,5.646a3.591,3.591,0,0,1,.926,2.433v5.447a.687.687,0,0,0,.687.687h12.6Z" transform="translate(-285.339 -342.957)" fill="#f1d0a5"/></g><g transform="translate(50.655 38.571)"><path d="M454.628,348.181l-.819-2.381-1.583-3.352-1.84-.065,1.427,3.417.64,2.381a5.148,5.148,0,0,1-.481,4.368l-1.729,2.761a4.042,4.042,0,0,0-.6,2.14v4.042h1.488a.687.687,0,0,0,.687-.687V357.45a4.042,4.042,0,0,1,.6-2.14l1.728-2.761A5.147,5.147,0,0,0,454.628,348.181Z" transform="translate(-449.638 -342.384)" fill="#f1b986"/></g><g transform="translate(38.859 24.897)"><path d="M348.926,238.093V223.2a2.005,2.005,0,1,0-3.992,0v14.892h3.992Z" transform="translate(-344.934 -221.002)" fill="#f1d0a5"/><path d="M384.357,311.5v-6.438a1.422,1.422,0,0,0-1.5-1.334h-1a1.422,1.422,0,0,0-1.5,1.334V311.5Z" transform="translate(-376.374 -294.406)" fill="#f1d0a5"/><path d="M419.789,311.5v-6.438a1.422,1.422,0,0,0-1.5-1.334h-1a1.422,1.422,0,0,0-1.5,1.334V311.5Z" transform="translate(-407.815 -294.406)" fill="#f1d0a5"/><path d="M455.22,311.5v-6.438a1.422,1.422,0,0,0-1.5-1.334h-1a1.422,1.422,0,0,0-1.5,1.334V311.5Z" transform="translate(-439.254 -294.406)" fill="#f1d0a5"/></g><path d="M461.585,303.725h-1a1.653,1.653,0,0,0-.5.077,1.354,1.354,0,0,1,1,1.257V311.5h2v-6.438A1.422,1.422,0,0,0,461.585,303.725Z" transform="translate(-408.255 -269.509)" fill="#f1b986"/><g transform="translate(41.981 34.68)"><path d="M373.51,316.02a.87.87,0,0,1-.87-.87v-6.438a.87.87,0,0,1,1.741,0v6.438A.87.87,0,0,1,373.51,316.02Z" transform="translate(-372.64 -307.842)" fill="#f1b986"/></g><g transform="translate(45.972 34.68)"><path d="M408.942,316.02a.87.87,0,0,1-.87-.87v-6.438a.87.87,0,0,1,1.741,0v6.438A.87.87,0,0,1,408.942,316.02Z" transform="translate(-408.072 -307.842)" fill="#f1b986"/></g><g transform="translate(49.964 34.68)"><path d="M444.372,316.02a.87.87,0,0,1-.87-.87v-6.438a.87.87,0,0,1,1.741,0v6.438A.87.87,0,0,1,444.372,316.02Z" transform="translate(-443.502 -307.842)" fill="#f1b986"/></g><path d="M178.618,117.774a13.588,13.588,0,0,1-10.9,0,.942.942,0,0,1-.58-.868v-8.729H179.2v8.729a.942.942,0,0,1-.58.868Z" transform="translate(-148.312 -95.99)" fill="#4a80aa"/><path d="M179.652,108.176v8.04a.942.942,0,0,1-.58.868,13.508,13.508,0,0,1-9.636.465.943.943,0,0,0,.321.224,13.588,13.588,0,0,0,10.9,0,.942.942,0,0,0,.58-.868v-8.729h-1.581Z" transform="translate(-150.347 -95.989)" fill="#407093"/><path d="M155.572,68.173l-9.237,5.083a.21.21,0,0,1-.2,0l-9.237-5.083a.21.21,0,0,1,0-.368l9.237-5.083a.21.21,0,0,1,.2,0l9.237,5.083A.21.21,0,0,1,155.572,68.173Z" transform="translate(-121.376 -55.633)" fill="#365e7d"/><path d="M217.532,67.805l-9.237-5.083a.21.21,0,0,0-.2,0l-1.48.814,7.757,4.269a.21.21,0,0,1,0,.368l-7.757,4.269,1.48.814a.21.21,0,0,0,.2,0l9.237-5.083a.21.21,0,0,0,0-.368Z" transform="translate(-183.335 -55.633)" fill="#2b4d66"/><g transform="translate(23.871 11.486)"><path d="M215.626,110.408a.87.87,0,0,1-.87-.87V106.51l-2.657-3.119a.87.87,0,0,1,1.325-1.129l2.865,3.363a.871.871,0,0,1,.208.564v3.348A.87.87,0,0,1,215.626,110.408Z" transform="translate(-211.891 -101.956)" fill="#407093"/></g><g transform="translate(37.459 10.663)"><path d="M339.89,96.4h-6.517a.87.87,0,1,1,0-1.741h6.517a.87.87,0,0,1,0,1.741Z" transform="translate(-332.502 -94.655)" fill="#2b4d66"/></g><g transform="translate(37.459 14.657)"><path d="M344.533,131.842h-11.16a.87.87,0,0,1,0-1.741h11.16a.87.87,0,0,1,0,1.741Z" transform="translate(-332.503 -130.101)" fill="#2b4d66"/></g></g></g></g><g transform="translate(-432.379 -374)"><rect width="192" height="80" rx="16" transform="translate(-6438.25 -5606.516)" fill="#f9f8e9"/><rect width="192" height="98" rx="16" transform="translate(-6438.25 -5517.516)" fill="#f4f1d4"/><text transform="translate(-6378.25 -5627.516)" fill="#12263f" font-size="16" font-family="Roboto-Bold, Roboto" font-weight="700"><tspan x="0" y="0">Estrategias</tspan></text><g transform="translate(-6453.25 -5713.516)" fill="none" stroke="#12263f" stroke-width="2"><rect width="221" height="303" rx="18" stroke="none"/><rect x="1" y="1" width="219" height="301" rx="17" fill="none"/></g><text transform="translate(-6416.25 -5585.516)" fill="#12263f" font-size="16" font-family="Roboto-Bold, Roboto" font-weight="700"><tspan x="0" y="17">Enfoque: </tspan><tspan font-family="Roboto-Regular, Roboto" font-weight="400"><tspan x="0" y="41">Gestión de flotas.</tspan></tspan></text><text transform="translate(-6416.25 -5502.516)" fill="#12263f" font-size="16" font-family="Roboto-Bold, Roboto" font-weight="700"><tspan x="0" y="17">Detalles: </tspan><tspan y="17" font-family="Roboto-Regular, Roboto" font-weight="400">Adquisición, </tspan><tspan x="0" y="41" font-family="Roboto-Regular, Roboto" font-weight="400">mantenimiento, y </tspan><tspan x="0" y="65" font-family="Roboto-Regular, Roboto" font-weight="400">monitoreo.</tspan></text><g transform="translate(-6786.3 -11412.516)"><g transform="translate(364 5623)"><g clip-path="url(#i)"><g transform="translate(0 -0.002)"><g opacity="0.4" clip-path="url(#j)"><g transform="translate(0 15.514)" style="mix-blend-mode:multiply;isolation:isolate"><g clip-path="url(#k)"><g transform="translate(0 0.001)"><g clip-path="url(#l)"><rect width="173.108" height="173.108" transform="translate(0 -0.002)" fill="url(#m)"/></g></g></g></g><g transform="translate(18.938 0.002)" style="mix-blend-mode:multiply;isolation:isolate"><g transform="translate(0 0)"><g clip-path="url(#k)"><g transform="translate(0.003 0)"><g clip-path="url(#o)"><rect width="173.102" height="173.108" transform="translate(0 -0.002)" fill="url(#p)"/></g></g></g></g></g><g transform="translate(0 7.992)" style="mix-blend-mode:multiply;isolation:isolate"><g clip-path="url(#k)"><g transform="translate(0 0.002)"><g clip-path="url(#r)"><rect width="173.108" height="173.108" transform="translate(0 -0.002)" fill="url(#s)"/></g></g></g></g></g></g><g transform="translate(34.933 25.686)"><g clip-path="url(#t)"><rect width="134.533" height="134.533" transform="matrix(0.874, -0.486, 0.486, 0.874, -42.018, 23.364)" fill="url(#u)"/></g></g><g transform="translate(37.009 27.757)"><g clip-path="url(#v)"><rect width="132.933" height="132.933" transform="matrix(0.792, -0.611, 0.611, 0.792, -45.836, 35.355)" fill="url(#a)"/></g></g></g></g><g transform="translate(418.119 5666.367)"><g transform="translate(9.932 5.635)"><g transform="translate(5.429 41.284)"><path d="M40.3,40.21a3.012,3.012,0,0,1-3.013,3.013H17.217a3.013,3.013,0,1,1,0-6.025H37.29A3.012,3.012,0,0,1,40.3,40.21Z" transform="translate(-14.187 -37.198)" fill="#5b5e8b"/><g transform="translate(2.147 6.025)"><path d="M37.708,44.534a2.6,2.6,0,0,1-2.6,2.6H18.467a2.6,2.6,0,0,1,0-5.21H35.111A2.6,2.6,0,0,1,37.708,44.534Z" transform="translate(-15.87 -41.92)" fill="#5b5e8b"/></g></g><g transform="translate(5.429 41.287)"><path d="M21.344,43.228H17.214a3.014,3.014,0,1,1,0-6.028h4.131a3.014,3.014,0,1,0,0,6.028Z" transform="translate(-14.187 -37.2)" fill="#312e4b"/><g transform="translate(2.149 6.028)"><path d="M22.6,47.125H18.466a2.6,2.6,0,0,1,0-5.2H22.6a2.6,2.6,0,0,0,0,5.2Z" transform="translate(-15.872 -41.925)" fill="#312e4b"/></g></g><g transform="translate(12.633 52.517)"><path d="M31.491,46v1.145a4.017,4.017,0,0,1-4.015,4.015H23.848a4.017,4.017,0,0,1-4.015-4.015V46Z" transform="translate(-19.834 -46.003)" fill="#5b5e8b"/></g><g transform="translate(12.634 52.514)"><path d="M24.843,46.925a2.546,2.546,0,0,0-2.2,3.9,1.165,1.165,0,0,0,.168.193,4.006,4.006,0,0,1-2.978-3.867V46h11.66v.925Z" transform="translate(-19.835 -46.001)" fill="#312e4b"/></g><g transform="translate(0.005 0.004)"><path d="M18.781,46.125H38.071A20.765,20.765,0,0,1,42.786,34.96,18.415,18.415,0,0,0,46.9,22.789a18.488,18.488,0,0,0-36.968.526,18.427,18.427,0,0,0,4.29,11.852,19.753,19.753,0,0,1,4.555,10.958Z" transform="translate(-9.936 -4.843)" fill="#fcb73e"/></g><path d="M18.787,46.126h3.659A19.76,19.76,0,0,0,17.9,35.162,18.469,18.469,0,0,1,30.25,4.941a10.089,10.089,0,0,0-1.074-.087A18.479,18.479,0,0,0,14.228,35.162a19.791,19.791,0,0,1,4.559,10.964Z" transform="translate(-9.932 -4.839)" fill="#fd982e"/></g><g transform="translate(14.816 10.12)"><circle cx="13.609" cy="13.609" r="13.609" fill="#e83d62"/><g transform="translate(3.183 3.183)"><circle cx="10.426" cy="10.426" r="10.426" fill="#deddff"/></g><g transform="translate(5.896 5.896)"><circle cx="7.714" cy="7.714" r="7.714" fill="#e83d62"/></g><g transform="translate(8.89 8.89)"><circle cx="4.719" cy="4.719" r="4.719" fill="#deddff"/></g></g><g transform="translate(28.095 1.953)"><g transform="translate(0 3.504)"><path d="M24.373,22.983a.736.736,0,0,1,.022-1.042L42.064,4.906a.737.737,0,0,1,1.02,1.064L25.415,23.005A.737.737,0,0,1,24.373,22.983Z" transform="translate(-24.168 -4.7)" fill="#5b5e8b"/></g><g transform="translate(15.602)"><path d="M43.536,5.984,40.2,9.115a.319.319,0,0,1-.231.083L36.7,8.977a.3.3,0,0,1-.288-.307L36.4,5.392a.319.319,0,0,1,.1-.226l3.334-3.131a.309.309,0,0,1,.52.224l.012,2.7a.3.3,0,0,0,.288.307l2.7.182a.309.309,0,0,1,.191.533Z" transform="translate(-36.397 -1.953)" fill="#65b9ff"/></g></g></g></g></g><g transform="translate(-913.278 421)"><rect width="192" height="80" rx="16" transform="translate(-5956.351 -5602.516)" fill="#e8f4ff"/><rect width="192" height="99" rx="16" transform="translate(-5958.3 -5514.016)" fill="#d3e9ff"/><text transform="translate(-5944.3 -5627.516)" fill="#12263f" font-size="16" font-family="Roboto-Bold, Roboto" font-weight="700"><tspan x="0" y="0">Adopción de tecnologías</tspan></text><g transform="translate(-5971.351 -5709.516)" fill="none" stroke="#12263f" stroke-width="2"><rect width="221" height="308" rx="18" stroke="none"/><rect x="1" y="1" width="219" height="306" rx="17" fill="none"/></g><text transform="translate(-5943.25 -5585.516)" fill="#12263f" font-size="16" font-family="Roboto-Bold, Roboto" font-weight="700"><tspan x="0" y="17">Enfoque: </tspan><tspan font-family="Roboto-Regular, Roboto" font-weight="400"><tspan x="0" y="41">Inversión en sistemas.</tspan></tspan></text><text transform="translate(-5938.199 -5498.016)" fill="#12263f" font-size="16" font-family="Roboto-Bold, Roboto" font-weight="700"><tspan x="0" y="17">Detalles: </tspan><tspan y="17" font-family="Roboto-Regular, Roboto" font-weight="400">GPS, RFID, </tspan><tspan x="0" y="41" font-family="Roboto-Regular, Roboto" font-weight="400">TMS, WMS y </tspan><tspan x="0" y="65" font-family="Roboto-Regular, Roboto" font-weight="400">plataformas de datos.</tspan></text><g transform="translate(-6786.3 -11412.516)"><g transform="translate(840.949 5623)"><g clip-path="url(#i)"><g transform="translate(0 -0.002)"><g opacity="0.4" clip-path="url(#j)"><g transform="translate(0 15.514)" style="mix-blend-mode:multiply;isolation:isolate"><g clip-path="url(#k)"><g transform="translate(0 0.001)"><g clip-path="url(#l)"><rect width="173.108" height="173.108" transform="translate(0 -0.002)" fill="url(#m)"/></g></g></g></g><g transform="translate(18.938 0.002)" style="mix-blend-mode:multiply;isolation:isolate"><g transform="translate(0 0)"><g clip-path="url(#k)"><g transform="translate(0.003 0)"><g clip-path="url(#o)"><rect width="173.102" height="173.108" transform="translate(0 -0.002)" fill="url(#p)"/></g></g></g></g></g><g transform="translate(0 7.992)" style="mix-blend-mode:multiply;isolation:isolate"><g clip-path="url(#k)"><g transform="translate(0 0.002)"><g clip-path="url(#r)"><rect width="173.108" height="173.108" transform="translate(0 -0.002)" fill="url(#s)"/></g></g></g></g></g></g><g transform="translate(34.933 25.686)"><g clip-path="url(#t)"><rect width="134.533" height="134.533" transform="matrix(0.874, -0.486, 0.486, 0.874, -42.018, 23.364)" fill="url(#u)"/></g></g><g transform="translate(37.009 27.757)"><g clip-path="url(#v)"><rect width="132.933" height="132.933" transform="matrix(0.792, -0.611, 0.611, 0.792, -45.836, 35.355)" fill="url(#a)"/></g></g></g></g><g transform="translate(893.051 5664)"><rect width="60" height="39" rx="2" transform="translate(2 9)" fill="#939393"/><path d="M6,13H58V40H6Z" fill="#f2f2f2"/><path d="M6,13H55V37H6Z" fill="#fff"/><path d="M43,54l-3-6H24l-3,6Z" fill="#474747"/><path d="M62,40v6a2,2,0,0,1-2,2H4a2,2,0,0,1-2-2V40Z" fill="#686868"/><path d="M20,54H44a4,4,0,0,1,4,4v4H16V58A4,4,0,0,1,20,54Z" fill="#686868"/><path d="M31,43h2v2H31Z" fill="#474747"/><path d="M53,35h2v2H53Z" fill="#3b5892"/><path d="M49,35h2v2H49Z" fill="#3b5892"/><path d="M45,35h2v2H45Z" fill="#3b5892"/><path d="M21,2H43V36H21Z" fill="#c8cded"/><path d="M21,2H40V31H21Z" fill="#e2e7f6"/><path d="M35,7H33V5H31V7H29V9h2v2h2V9h2Z" fill="#d23f34"/><path d="M28,13h8v2H28Z" fill="#9da1bf"/><path d="M24,17H40v2H24Z" fill="#9da1bf"/><path d="M24,21H40v2H24Z" fill="#9da1bf"/><path d="M24,25H40v2H24Z" fill="#9da1bf"/><path d="M24,29H40v2H24Z" fill="#9da1bf"/><path d="M38,13h2v2H38Z" fill="#9da1bf"/></g></g></g><g transform="translate(-6948.559 -6211.114)" fill="none"><path d="M18,0H214.924a18,18,0,0,1,18,18V37.2a18,18,0,0,1-18,18H18a18,18,0,0,1-18-18V18A18,18,0,0,1,18,0Z" stroke="none"/><path d="M 18.00001525878906 2.000003814697266 C 13.72622680664062 2.000003814697266 9.708282470703125 3.664283752441406 6.686294555664062 6.686283111572266 C 3.664291381835938 9.708282470703125 2.000015258789062 13.72625350952148 2.000015258789062 18.00000381469727 L 2.000015258789062 37.19775390625 C 2.000015258789062 41.47150421142578 3.664291381835938 45.48947143554688 6.686294555664062 48.51147079467773 C 9.708282470703125 51.53347015380859 13.72622680664062 53.19775390625 18.00001525878906 53.19775390625 L 214.923828125 53.19775390625 C 219.1975708007812 53.19775390625 223.2155456542969 51.53347015380859 226.2375335693359 48.51147079467773 C 229.2595367431641 45.48947143554688 230.9238128662109 41.47150421142578 230.9238128662109 37.19775390625 L 230.9238128662109 18.00000381469727 C 230.9238128662109 13.72625350952148 229.2595367431641 9.708282470703125 226.2375335693359 6.686283111572266 C 223.2155456542969 3.664283752441406 219.1975708007812 2.000003814697266 214.923828125 2.000003814697266 L 18.00001525878906 2.000003814697266 M 18.00001525878906 3.814697265625e-06 L 214.923828125 3.814697265625e-06 C 224.8649444580078 3.814697265625e-06 232.9238128662109 8.058876037597656 232.9238128662109 18.00000381469727 L 232.9238128662109 37.19775390625 C 232.9238128662109 47.13887786865234 224.8649444580078 55.19775009155273 214.923828125 55.19775009155273 L 18.00001525878906 55.19775009155273 C 8.058853149414062 55.19775009155273 1.52587890625e-05 47.13887786865234 1.52587890625e-05 37.19775390625 L 1.52587890625e-05 18.00000381469727 C 1.52587890625e-05 8.058876037597656 8.058853149414062 3.814697265625e-06 18.00001525878906 3.814697265625e-06 Z" stroke="none" fill="#12263f"/></g><path d="M-6928.3-6155.917l-2.371,1310.583h48" fill="none" stroke="#12263f" stroke-width="2"/><path d="M-6930.667-5241.333H-6884" fill="none" stroke="#12263f" stroke-width="2"/><path d="M-6930.667-5241.333H-6884" transform="translate(0 -429)" fill="none" stroke="#12263f" stroke-width="2"/><path d="M-6930.667-5241.333H-6884" transform="translate(0 -809)" fill="none" stroke="#12263f" stroke-width="2"/></g></svg>