<svg xmlns="http://www.w3.org/2000/svg" xmlns:xlink="http://www.w3.org/1999/xlink" width="338.667" height="1713.349" viewBox="0 0 338.667 1713.349">
  <defs>
    <radialGradient id="radial-gradient" cx="0.548" cy="1.07" r="1.313" gradientTransform="matrix(0, -1, -1, 0, 1.219, 1.219)" gradientUnits="objectBoundingBox">
      <stop offset="0" stop-color="#fff"/>
      <stop offset="0.552" stop-color="#f5f5f5"/>
      <stop offset="1" stop-color="#e5e5e5"/>
    </radialGradient>
    <clipPath id="clip-path">
      <path id="Trazado_1012159" data-name="Trazado 1012159" d="M24.662,0H1688.687c13.62,0,24.662,5.682,24.662,12.692V325.975c0,7.009-11.042,12.692-24.662,12.692H24.662C11.041,338.667,0,332.985,0,325.975V12.692C0,5.682,11.041,0,24.662,0Z" transform="translate(0)" fill="#eff6ff"/>
    </clipPath>
    <clipPath id="clip-path-2">
      <rect id="Rectángulo_417928" data-name="Rectángulo 417928" width="580.752" height="354.657" fill="#e8f6f1"/>
    </clipPath>
    <clipPath id="clip-path-3">
      <rect id="Rectángulo_417929" data-name="Rectángulo 417929" width="312.884" height="175.577" fill="#92c9ff"/>
    </clipPath>
    <clipPath id="clip-path-4">
      <path id="Trazado_1012167" data-name="Trazado 1012167" d="M0,0,937.51,226.382l161.266,333.855L161.266,333.855Z" fill="#92c9ff"/>
    </clipPath>
    <clipPath id="clip-path-5">
      <rect id="Rectángulo_417941" data-name="Rectángulo 417941" width="192.045" height="188.619" fill="none"/>
    </clipPath>
    <clipPath id="clip-path-6">
      <path id="Trazado_1012164" data-name="Trazado 1012164" d="M5.686,53.637A49.462,49.462,0,1,0,55.154,4.181,49.468,49.468,0,0,0,5.686,53.637" transform="translate(-5.686 -4.181)" fill="none"/>
    </clipPath>
    <radialGradient id="radial-gradient-5" cx="0.546" cy="0.174" r="0.948" gradientTransform="matrix(0, 1, 1, 0, -1.471, 1.471)" gradientUnits="objectBoundingBox">
      <stop offset="0" stop-color="#fff"/>
      <stop offset="1" stop-color="#b3b3b3"/>
    </radialGradient>
    <clipPath id="clip-path-7">
      <path id="Trazado_1012165" data-name="Trazado 1012165" d="M6.024,51.9A47.389,47.389,0,1,0,53.416,4.518,47.386,47.386,0,0,0,6.024,51.9" transform="translate(-6.024 -4.518)" fill="url(#radial-gradient)"/>
    </clipPath>
  </defs>
  <g id="Grupo_1159480" data-name="Grupo 1159480" transform="translate(6974.465 6231.349)">
    <g id="Grupo_1158703" data-name="Grupo 1158703" transform="translate(-9160.937 -5170.342) rotate(-90)">
      <g id="Enmascarar_grupo_1115158" data-name="Enmascarar grupo 1115158" transform="translate(-652.342 2186.471)" opacity="0.2" clip-path="url(#clip-path)">
        <g id="Rectángulo_418561" data-name="Rectángulo 418561" transform="translate(-706.878 -51.667)" fill="#fff" stroke="#707070" stroke-width="1">
          <rect width="2696.293" height="472" stroke="none"/>
          <rect x="0.5" y="0.5" width="2695.293" height="471" fill="none"/>
        </g>
        <path id="Trazado_1012148" data-name="Trazado 1012148" d="M30.586,0H2094.353c16.893,0,30.586,5.632,30.586,12.579v310.5c0,6.947-13.694,12.579-30.586,12.579H30.586C13.694,335.657,0,330.025,0,323.078V12.579C0,5.632,13.694,0,30.586,0Z" transform="translate(-411.59)" fill="#f6f6f6"/>
        <path id="Trazado_1012149" data-name="Trazado 1012149" d="M612.53,0c338.291,0,612.53,100.529,612.53,224.538S950.821,449.075,612.53,449.075,0,348.546,0,224.538,274.239,0,612.53,0Z" transform="translate(-195.073 -327.217)" fill="#d3e9ff" opacity="0.41"/>
        <path id="Trazado_1012150" data-name="Trazado 1012150" d="M573.09,0c316.509,0,573.09,94.056,573.09,210.08S889.6,420.16,573.09,420.16,0,326.1,0,210.08,256.581,0,573.09,0Z" transform="translate(-402.914 56.351)" fill="#92c9ff" opacity="0.48" style="mix-blend-mode: multiply;isolation: isolate"/>
        <g id="Grupo_1158426" data-name="Grupo 1158426" transform="translate(1247.608 -7.995)" style="mix-blend-mode: multiply;isolation: isolate">
          <g id="Grupo_1158425" data-name="Grupo 1158425" transform="translate(0 0)" clip-path="url(#clip-path-2)">
            <path id="Trazado_1012152" data-name="Trazado 1012152" d="M172.142,41.626c-13.029,9.854-26.385,19.452-39.017,29.618C108.78,90.834,84.519,110.5,60.816,130.581,26.173,159.926,4.391,194.253,1.941,234.945.294,262.3.546,289.729.1,317.126c-.2,12.507-.037,25.018-.038,37.527h8.18c-.115-22.011-.528-44.024-.253-66.031.227-18.139.7-36.3,2.075-54.4,2.551-33.516,18.134-63.211,45.4-88.631,16.466-15.349,34.641-29.553,52.293-44.082q27.59-22.709,55.726-45c5.751-4.543,12.482-8.3,18.765-12.422a3.968,3.968,0,0,1,.777-.851c17.375-10.723,35.786-20.115,56.052-27.03,22.469-7.667,45.8-11.431,70.335-9.126,30.268,2.845,58.345,11.186,85.41,21.878,52.414,20.707,96.823,50.149,139.72,81.214q21.452,16.4,42.906,32.793c1.081.826,2.18,1.636,3.271,2.454q.015-4.654.03-9.31c-3.149-2.386-6.319-4.755-9.444-7.161q-14.125-10.872-28.221-21.766c-12.449-8.593-24.766-17.31-37.371-25.754-36.774-24.634-75.35-47.15-119.547-62.863C361.649,9.847,336.416,2.979,309.5.622c-25.814-2.261-50.278,1.734-73.882,9.8-21.545,7.365-41.022,17.441-59.439,28.883-1.307.812-2.691,1.547-4.039,2.318" transform="translate(0 0.005)" fill="#e8f6f1"/>
            <path id="Trazado_1012153" data-name="Trazado 1012153" d="M9.462,666.022C8.9,651.96,8.774,637.876,7.67,623.841c-1.905-24.2,3.28-47.653,10.323-71,5.085-16.857,10.971-33.46,19.839-49.373,12.672-22.739,34.108-36.183,64.821-41.207a635.436,635.436,0,0,1,78.287-7.621c26.6-1.022,53.254-1.679,79.878-1.552,31.95.153,62.416,5.758,90.308,18.733,19.1,8.884,35.233,20.695,51.207,32.672,26.635,19.97,53.014,40.164,80.072,59.765,12.487,9.046,26.322,16.917,39.545,25.32q0-4.034,0-8.068c-18.312-12.195-37.166-23.917-54.807-36.7-25.606-18.549-50.21-37.968-75.472-56.821-33.709-25.158-73.608-38.97-119.962-41-31.823-1.394-63.58-.41-95.271,1.532-21.689,1.329-43.3,3.628-64.877,5.875-7.3.76-14.414,2.655-21.595,4.089-26.147,5.223-43.992,18.4-56.128,37.038-12,18.431-18.882,38.234-24.336,58.364C6.041,566.678,1.889,579.524.736,592.5-.7,608.627.615,624.913.8,641.132c.095,8.3.317,16.593.482,24.89Z" transform="translate(58.769 -311.365)" fill="#e8f6f1"/>
            <path id="Trazado_1012154" data-name="Trazado 1012154" d="M8.244,798.4c2.488-24.8,4.933-49.605,7.479-74.4,1.66-16.168,3.011-32.347,9.251-48,8.3-20.827,26.789-30.811,53.312-32.844,25.032-1.919,49.938-.2,74.778,1.829,19.092,1.557,38.086,3.9,57.1,6.041,29.774,3.351,53.256,15.523,72.964,33.01,11.911,10.568,23.593,21.337,36.184,31.376,15.9,12.678,35.418,21.7,53.8,31.854,11.17,6.173,22.082,12.64,33.109,18.976q0-4.162,0-8.325c-22.764-12.71-45.7-25.23-68.232-38.194-16.058-9.239-28.586-21.411-41.38-33.3-13.353-12.4-27.841-23.75-46.071-31.688-13.2-5.749-27.583-8.6-42.212-10.6a838.291,838.291,0,0,0-103.792-8.021,249.231,249.231,0,0,0-41.008,2.817c-25.535,3.983-39.7,17.958-47.022,37.037-5.112,13.324-6.82,27.069-8.186,40.853-2.553,25.764-5,51.534-7.515,77.3-.14,1.433-.481,2.853-.728,4.279Z" transform="translate(174.512 -443.746)" fill="#e8f6f1"/>
            <path id="Trazado_1012155" data-name="Trazado 1012155" d="M305.395,889.014c-.555-10.69-1.712-21.385-1.55-32.069.462-30.494,17.635-54.179,48.352-71.837A96.107,96.107,0,0,1,390.127,772.9c20.356-2.167,36.969,3.828,48.724,16.717a371.184,371.184,0,0,1,28.522,35.931c16.688,23.582,36.574,45.008,62.607,62.627a5.609,5.609,0,0,1,.828.842h12.725c-17.589-11.678-34.347-24.111-47.142-39.283-11.351-13.458-21.389-27.618-31.932-41.5-7.821-10.3-15.473-20.676-26.58-29.086-16.654-12.608-36.333-15.758-58.014-11.132-42.939,9.161-77.029,40.676-82.839,75.642-2.44,14.684-.758,29.283.17,43.92.03.48.013.962.018,1.443Z" transform="translate(-75.374 -534.357)" fill="#e8f6f1"/>
            <path id="Trazado_1012156" data-name="Trazado 1012156" d="M512.432,988.532c-1.807-20.992-1.38-41.662,14.691-59.854a38.378,38.378,0,0,1,24.891-13.273,27.6,27.6,0,0,1,17.979,3.445c13.092,7.757,22.363,18.15,30.953,28.945,10.28,12.92,19.226,26.4,26.011,40.736h8.18c-6.059-15.5-16.063-29.478-26.609-43.231-7.977-10.4-17.023-20.17-28.48-28.356-15.011-10.725-33.325-11.086-48.989-.917-12.83,8.329-19.925,19.523-23.777,32.028-4.1,13.3-4.473,26.867-3.029,40.475Z" transform="translate(-246.054 -633.875)" fill="#e8f6f1"/>
          </g>
        </g>
        <g id="Grupo_1158428" data-name="Grupo 1158428" transform="translate(293.246 394.861) rotate(180)" opacity="0.65" style="mix-blend-mode: screen;isolation: isolate">
          <g id="Grupo_1158427" data-name="Grupo 1158427" transform="translate(0 0)" clip-path="url(#clip-path-3)">
            <path id="Trazado_1012157" data-name="Trazado 1012157" d="M293.1.146c-.442,2.978-.812,5.968-1.342,8.939-1.275,7.143-2.5,14.293-3.97,21.412-3.911,19-9.114,37.754-17.081,55.985a5.494,5.494,0,0,1-.395.646c-3.326,6.164-6.627,12.336-10,18.483a27.585,27.585,0,0,1-2.226,3.012c-5.566,7.925-12.48,14.908-22.613,19.516-9.607,4.369-19.044,3.745-28.114-1.07-1.971-1.046-3.7-2.372-5.546-3.569l.036.013-.536-.276c-3.173-2.723-6.615-5.282-9.466-8.2a83.345,83.345,0,0,1-16.611-25.064,8.1,8.1,0,0,1-.282-1.063A75.391,75.391,0,0,0,200.866,83.3c3.054-1.972,6.388-3.733,9.107-5.959a27.5,27.5,0,0,0,10.5-20.411c.036-.584.065-1.168.1-1.753a34.408,34.408,0,0,0-7.241-20.131A36.3,36.3,0,0,0,195,21.915c-11.341-3.634-23.2-1.415-31.345,5.851-6.025,5.377-9.119,11.854-10.908,18.748-.838,3.232-1.213,6.538-1.8,9.81.1,5.436.209,10.872.317,16.514-2.332-.5-4.765-.966-7.151-1.549a157.32,157.32,0,0,1-28.309-9.663c-5.667-2.682-11.495-5.175-16.973-8.078A333.118,333.118,0,0,1,33.188,7.5C30.517,5.125,27.9,2.714,25.059.146L0,0A3.469,3.469,0,0,1,2.786,1.064,364.2,364.2,0,0,0,42.154,35.573C59.436,48.6,77.856,60.512,98.367,70.3c4.449,2.123,9.072,4.019,13.608,6.03.805.357,1.577.76,2.364,1.141,2.661.894,5.329,1.775,7.983,2.683a160.24,160.24,0,0,0,31.512,7.611,2.349,2.349,0,0,1,2.259,1.733,96.373,96.373,0,0,0,26.027,38.781c2.876,2.608,6.188,4.918,9.3,7.365a65.342,65.342,0,0,0,16.069,7.5,52.084,52.084,0,0,0,39.517-3.852c4.332-2.22,8.125-5.093,12.164-7.668a99.956,99.956,0,0,0,16.306-17.806c2.676-4.54,5.525-9.024,7.994-13.634A187.917,187.917,0,0,0,296.011,69.7c1.234-3.761,2.344-7.548,3.511-11.323C304.868,39.142,312.4.02,312.884.02M169.857,71.653c-.324-4.616-.521-9.237-.728-13.857a8.625,8.625,0,0,1,.319-1.856c.492-6.558,2.116-12.867,7.325-18.21,3.627-3.72,8.676-4.278,13.613-1.658a22.207,22.207,0,0,1,11.035,13.433,16.249,16.249,0,0,1,.386,9.838c-1.052,5.22-4.7,9.023-10.412,11.625-5.368,2.445-11.284,3.345-17.4,3.588-3.829.152-3.919.165-4.134-2.9" transform="translate(0 30.201)" fill="#92c9ff"/>
            <line id="Línea_606" data-name="Línea 606" x1="18.259" y2="0.074" transform="translate(293.097 0)" fill="#fdfdfd"/>
          </g>
        </g>
        <g id="Grupo_1158430" data-name="Grupo 1158430" transform="matrix(0.927, -0.375, 0.375, 0.927, -360.099, -72.211)" opacity="0.07" style="mix-blend-mode: darken;isolation: isolate">
          <g id="Grupo_1158429" data-name="Grupo 1158429" transform="translate(0 0)" clip-path="url(#clip-path-4)">
            <path id="Trazado_1012158" data-name="Trazado 1012158" d="M878.358,212.344c1.41,5.343,3.049,10.76,4.189,16.027,2.739,12.659,5.623,25.365,7.769,37.841,5.728,33.29,7.368,65.194.241,94.095a3.473,3.473,0,0,1-.59.943c-4.3,9.314-8.525,18.662-12.991,27.908-.769,1.593-2.575,2.756-3.9,4.118-9.4,11.042-23.7,19.318-49.831,20.748-24.775,1.355-53.622-6.659-85.221-22.376-6.868-3.416-13.277-7.191-19.9-10.8l.12.051-1.859-.912c-12.007-7.472-24.671-14.829-35.894-22.44A503.664,503.664,0,0,1,607.7,297.869c-.6-.6-.974-1.18-1.823-2.226,27.024,5.693,51.575,8.845,72.506,8.092,7.338-1.541,15.711-2.476,21.813-4.742,15.506-5.759,18.414-16.787,12.713-31.214-.428-1.084-.879-2.175-1.32-3.262C704.305,250.667,691.14,236.16,671.4,221a282.427,282.427,0,0,0-66.992-38.241c-37.321-15.117-70.819-19.478-88.545-11.553-13.116,5.864-16.437,15.942-15.463,27.757.456,5.538,2.372,11.554,3.626,17.354l16.119,31.63c-7.448-2.642-15.164-5.285-22.849-8.12-31.813-11.735-63.109-24.575-93.7-38.855-19.444-9.2-39.2-18.158-58.278-27.641A2647.32,2647.32,0,0,1,106.331,38.273C96.145,31.824,86.078,25.345,75.219,18.409L0,0A26.225,26.225,0,0,1,9.326,4.04c47.518,31.992,97.208,63.43,149.656,94.1,63.75,37.279,129.882,73.253,200.329,106.7,15.281,7.256,30.874,14.207,46.312,21.311,2.74,1.261,5.423,2.585,8.133,3.881q13.192,5.437,26.383,10.876c33.577,13.934,67.34,26.682,101.413,37.273,4.273,1.328,6.3,2.719,8.362,4.93,29.007,31.081,65.8,62.006,113.606,92.572,11.013,7.041,23.058,13.829,34.629,20.733,17.63,9.361,35.652,18.321,55.043,25.9,45.716,17.861,83.8,24.355,114.868,21.267,10.94-1.088,19.666-3.806,29.4-5.779a86.048,86.048,0,0,0,32.505-22.059c3.849-6.7,8.266-13.161,11.429-20.14,6.775-14.949,8.9-31.662,9.57-48.906.243-6.259.091-12.656.12-18.99-1.642-32.7-15-101.637-13.558-101.288M574.764,259.144c-5.21-9.011-10.046-17.941-14.908-26.875a9.954,9.954,0,0,1-.749-3.3c-4.549-12.114-5.477-22.935,5.224-29.325,7.451-4.449,22.068-1.857,39.266,6.7,21.188,10.538,35.076,21.92,45.4,33.527,6.164,6.928,10.062,13.4,10.191,18.985,1.641,9.163-5.792,13.757-20.521,14.571-13.839.765-30.739-1.8-48.852-5.769-11.332-2.48-11.592-2.522-15.054-8.511" transform="translate(27.74 57.427)" fill="#92c9ff"/>
            <line id="Línea_607" data-name="Línea 607" x1="54.644" y1="13.071" transform="translate(878.291 212.206)" fill="#fdfdfd"/>
          </g>
        </g>
      </g>
    </g>
    <text id="Políticas_empresariales" data-name="Políticas empresariales" transform="translate(-6928.295 -6177.901)" fill="#12263f" font-size="18" font-family="Roboto-Bold, Roboto" font-weight="700"><tspan x="0" y="0">Políticas empresariales</tspan></text>
    <g id="Grupo_1159111" data-name="Grupo 1159111" transform="translate(-1154.227 809)">
      <rect id="Rectángulo_418601" data-name="Rectángulo 418601" width="192" height="100" rx="16" transform="translate(-5715.402 -5585.516)" fill="#fef2ef"/>
      <rect id="Rectángulo_418603" data-name="Rectángulo 418603" width="192" height="121" rx="16" transform="translate(-5715.902 -5478.016)" fill="#fde8e1"/>
      <text id="Políticas_de_calidad_y_seguridad" data-name="Políticas de
 calidad y seguridad" transform="translate(-5609.3 -5628.92)" fill="#12263f" font-size="16" font-family="Roboto-Bold, Roboto" font-weight="700"><tspan x="-42.168" y="0">Políticas de</tspan><tspan x="-71.824" y="24" xml:space="preserve"> calidad y seguridad</tspan></text>
      <g id="Rectángulo_418602" data-name="Rectángulo 418602" transform="translate(-5730.402 -5709.516)" fill="none" stroke="#12263f" stroke-width="2">
        <rect width="221" height="364" rx="18" stroke="none"/>
        <rect x="1" y="1" width="219" height="362" rx="17" fill="none"/>
      </g>
      <text id="Enfoque:_Implementación_de_certificaciones._" data-name="Enfoque: 
Implementación de certificaciones.
" transform="translate(-5697.25 -5566.516)" fill="#12263f" font-size="16" font-family="Roboto-Bold, Roboto" font-weight="700"><tspan x="0" y="15">Enfoque: </tspan><tspan font-family="Roboto-Regular, Roboto" font-weight="400"><tspan x="0" y="39">Implementación de </tspan><tspan x="0" y="63">certificaciones.</tspan></tspan></text>
      <text id="Detalles:_Integridad_del_producto_y_seguridad_de_la_cadena_de_suministro." data-name="Detalles: Integridad del producto y seguridad de la cadena de suministro." transform="translate(-5700.75 -5460.016)" fill="#12263f" font-size="16" font-family="Roboto-Bold, Roboto" font-weight="700"><tspan x="0" y="15">Detalles: </tspan><tspan y="15" font-family="Roboto-Regular, Roboto" font-weight="400">Integridad del </tspan><tspan x="0" y="39" font-family="Roboto-Regular, Roboto" font-weight="400">producto y seguridad </tspan><tspan x="0" y="63" font-family="Roboto-Regular, Roboto" font-weight="400">de la cadena de </tspan><tspan x="0" y="87" font-family="Roboto-Regular, Roboto" font-weight="400">suministro.</tspan></text>
      <g id="Grupo_1159028" data-name="Grupo 1159028" transform="translate(-6786.3 -11412.516)">
        <g id="Grupo_1158975" data-name="Grupo 1158975" transform="translate(1081.898 5623)">
          <g id="Grupo_1158454" data-name="Grupo 1158454" clip-path="url(#clip-path-5)">
            <g id="Grupo_1158451" data-name="Grupo 1158451" transform="translate(34.933 25.686)">
              <g id="Grupo_1158450" data-name="Grupo 1158450" clip-path="url(#clip-path-6)">
                <rect id="Rectángulo_417939" data-name="Rectángulo 417939" width="134.533" height="134.533" transform="matrix(0.874, -0.486, 0.486, 0.874, -42.018, 23.364)" fill="url(#radial-gradient-5)"/>
              </g>
            </g>
            <g id="Grupo_1158453" data-name="Grupo 1158453" transform="translate(37.009 27.757)">
              <g id="Grupo_1158452" data-name="Grupo 1158452" clip-path="url(#clip-path-7)">
                <rect id="Rectángulo_417940" data-name="Rectángulo 417940" width="132.933" height="132.933" transform="matrix(0.792, -0.611, 0.611, 0.792, -45.836, 35.355)" fill="url(#radial-gradient)"/>
              </g>
            </g>
          </g>
        </g>
        <g id="layer1" transform="translate(1132.934 5502.426)">
          <path id="path23715" d="M85.643,229.333,92.2,253.967c1.031,3.874-2.37,3.126-3.942,2.518-1.312-.507-6.553-2.545-6.553-2.545s-3.531,1.915-4.485,2.422c-2.079,1.1-4.2.83-5.112-1.811-.024-.069-2.264-7.667-4.372-14.816v-10.4Z" transform="translate(-34.272 -38.513)" fill="#f45558"/>
          <g id="Grupo_1158977" data-name="Grupo 1158977" transform="translate(8.812 190.865)">
            <path id="rect23394" d="M15.569,67.906,9,92.579c-1.032,3.88,2.374,3.131,3.948,2.522,1.314-.508,6.563-2.549,6.563-2.549s3.536,1.918,4.492,2.426c2.083,1.107,4.206.831,5.12-1.814.024-.069,2.268-7.679,4.379-14.84V67.906Z" transform="translate(-8.812 -67.906)" fill="#f45558"/>
            <path id="path15252" d="M67.84,67.906V78.325c1.615,5.48,2.635,8.932,3.351,11.357,2.015-.4,3.918-3.851,5.845-4.487,2.043-.674,5.949,1.216,7.683-.057s1.107-5.565,2.364-7.311a4.027,4.027,0,0,1,1.079-.958l-2.385-8.963Z" transform="translate(-43.146 -67.906)" fill="#db375b"/>
            <path id="path15257" d="M23.017,67.906c-.139.324-.3.655-.47.99l-1.285,4.828c.934,1.848,4.9,2.588,6.112,4.247,1.272,1.735.682,6.033,2.428,7.29s5.635-.667,7.684-.011a3.675,3.675,0,0,1,1.048.578c.831-2.817,1.147-3.883,2.214-7.5V67.906Z" transform="translate(-16.054 -67.906)" fill="#db375b"/>
          </g>
          <path id="path23391" d="M50.285,205.812c-1.732,1.27-5.631-.616-7.671.056s-4.052,4.509-6.2,4.518-4.194-3.809-6.239-4.464-5.928,1.266-7.672.011-1.154-5.546-2.424-7.278-5.54-2.46-6.213-4.5,2.326-5.165,2.317-7.313S13.147,181.6,13.8,179.55s4.918-2.811,6.173-4.555.628-6.029,2.36-7.3,5.631.616,7.671-.056,4.052-4.509,6.2-4.518,4.194,3.809,6.239,4.464,5.928-1.266,7.672-.011,1.154,5.546,2.424,7.278,5.54,2.46,6.213,4.5-2.326,5.165-2.317,7.313,3.036,5.247,2.381,7.293-4.918,2.811-6.173,4.555-.628,6.029-2.36,7.3Z" transform="translate(-2.848)" fill="#ffd54f"/>
          <path id="rect4225-8-0" d="M12.733,282v.443h.886V282Zm2.214,0v.443h.886V282Zm2.213,0v.443h.886V282Zm2.214,0v.443h.886V282Zm2.213,0v.443h.886V282Zm2.214,0v.443h.886V282Zm2.214,0v.443H26.9V282Zm2.213,0v.443h.886V282Zm2.214,0v.443h.886V282Z" transform="translate(-2.281 -69.148)" fill="#bf1d43" fill-rule="evenodd"/>
          <path id="path14890" d="M62.311,200.3A13.893,13.893,0,1,1,48.418,186.4,13.893,13.893,0,0,1,62.311,200.3Z" transform="translate(-14.956 -13.543)" fill="#2196f3"/>
          <path id="path15260" d="M70.582,53.827c-.617,1.19-2.255,2.476-2.6,3.569-.468,1.469.766,4.351-.476,5.265s-3.616-1.187-5.158-1.178c-1.1.007-2.728,1.1-4.024,1.391-.059.98,0,2.091.574,2.506,1.253.9,3.823-1.234,5.366-1.243s4.138,2.092,5.38,1.178.008-4.017.476-5.487,3.268-3.289,2.783-4.753c-.231-.7-1.329-1.012-2.318-1.249Z" transform="translate(-28.786 131.148)" fill="#2979ff"/>
          <path id="path27653" d="M43.592,178.629l0,.443.878.006.01-.442Zm-1.347.075-.887.108.06.439.872-.106Zm3.585.03-.052.44.871.118.065-.438Zm-5.8.327-.863.225.119.427.851-.222Zm8.007.068-.111.428.846.235.125-.425Zm-10.151.579-.828.333.172.409.815-.328Zm12.288.1-.169.409.808.346.181-.4Zm-14.332.82-.776.44.225.382.764-.433Zm16.356.136-.217.386.758.445.229-.379Zm-18.261,1.044-.712.538.273.348.7-.529Zm20.146.168-.266.354.694.54.277-.346ZM32.2,183.229l-.636.627.316.31.626-.616Zm23.592.2-.31.316.617.625.32-.306Zm-25.129,1.435-.548.7.354.266.54-.693Zm26.639.222-.349.273.53.7.357-.261Zm-27.95,1.595-.453.768.384.22.448-.757Zm29.231.243-.382.225.434.764.389-.212Zm-30.293,1.729-.351.82.409.169.346-.808Zm31.325.262-.409.171.329.815.413-.159ZM27.5,190.746l-.239.86.429.111.235-.846Zm32.879.274-.427.119.223.85.43-.106Zm-33.393,1.907-.127.882.439.058.125-.87Zm33.871.284-.439.06.106.872.44-.046Zm-34.1,1.948-.007.892.442,0,.007-.878Zm34.285.286-.443,0-.011.984.442.014Zm-33.778,1.907-.44.046.107.887.439-.06Zm33.225.382-.127.869.437.071.128-.883Zm-32.879,1.775-.431.1.219.864.428-.114Zm32.483.373-.237.847.425.125.24-.86ZM28.234,201.6l-.413.158.333.829.409-.172Zm31.186.358-.347.807.4.181.353-.82Zm-30.293,1.633-.389.212.44.776.382-.224Zm29.353.337-.45.754.376.233.458-.766Zm-28.207,1.521-.357.261.538.712.349-.273Zm27.019.311-.546.689.342.28.554-.7Zm-25.64,1.383-.319.306.625.636.31-.315Zm24.222.279-.63.613.3.322.639-.622Zm-22.634,1.222-.278.344.7.551.269-.352Zm21.011.241-.7.529.262.356.712-.537Zm-19.241,1.039-.233.377.766.457.221-.383Zm17.445.2-.765.432.212.388.777-.439Zm-15.525.838-.181.4.82.352.167-.409Zm13.582.157-.815.327.158.413.829-.333Zm-11.544.623-.125.425.86.239.112-.429Zm9.489.109-.852.215.1.431.865-.218Zm-7.364.394-.07.437.883.127.057-.439Zm5.226.06-.872.1.046.44.887-.106Zm-3.056.165-.009.443.891.008,0-.443Z" transform="translate(-10.433 -9.02)" fill="#ff7377"/>
          <path id="path14943" d="M78.217,282v.443H79.1V282Zm2.214,0v.443h.886V282Zm2.213,0v.443h.886V282Zm2.214,0v.443h.886V282Zm2.213,0v.443h.886V282Zm2.214,0v.443h.886V282Zm2.214,0v.443h.886V282Zm2.213,0v.443H94.6V282Zm2.214,0v.443h.886V282Z" transform="translate(-40.37 -69.148)" fill="#bf1d43" fill-rule="evenodd"/>
          <path id="path23807" d="M61.014,213.981c-1.24.913-3.832-1.186-5.372-1.176s-4.106,2.139-5.357,1.241-.057-4.011-.541-5.472-3.3-3.244-2.836-4.711,3.8-1.293,5.037-2.206,2.065-4.144,3.6-4.153,2.4,3.212,3.654,4.109,4.579.683,5.063,2.145-2.312,3.278-2.779,4.745.765,4.566-.475,5.478Z" transform="translate(-22.129 -19.999)" fill="#d9defb"/>
        </g>
      </g>
    </g>
    <g id="Grupo_1159109" data-name="Grupo 1159109" transform="translate(-672.329 -10)">
      <rect id="Rectángulo_418598" data-name="Rectángulo 418598" width="192" height="98" rx="16" transform="translate(-6197.3 -5606.516)" fill="#e8f6f1"/>
      <rect id="Rectángulo_418599" data-name="Rectángulo 418599" width="192" height="143.5" rx="16" transform="translate(-6197.3 -5498.016)" fill="#d3efe5"/>
      <text id="Formación" transform="translate(-6137.3 -5627.516)" fill="#12263f" font-size="16" font-family="Roboto-Bold, Roboto" font-weight="700"><tspan x="0" y="0">Formación</tspan></text>
      <g id="Rectángulo_418600" data-name="Rectángulo 418600" transform="translate(-6212.3 -5713.516)" fill="none" stroke="#12263f" stroke-width="2">
        <rect width="221" height="374" rx="18" stroke="none"/>
        <rect x="1" y="1" width="219" height="372" rx="17" fill="none"/>
      </g>
      <text id="Enfoque:_Desarrollo_de_habilidades_del_personal._" data-name="Enfoque: 
Desarrollo de habilidades del personal.

" transform="translate(-6186.25 -5589.516)" fill="#12263f" font-size="16" font-family="Roboto-Bold, Roboto" font-weight="700"><tspan x="0" y="15">Enfoque: </tspan><tspan font-family="Roboto-Regular, Roboto" font-weight="400"><tspan x="0" y="39">Desarrollo de </tspan><tspan x="0" y="63">habilidades del personal.</tspan></tspan></text>
      <text id="Detalles:_Uso_de_tecnologías_de_trazabilidad_y_procedimientos_estandarizados._" data-name="Detalles: Uso de tecnologías de trazabilidad y procedimientos estandarizados.
" transform="translate(-6176.25 -5481.516)" fill="#12263f" font-size="16" font-family="Roboto-Bold, Roboto" font-weight="700"><tspan x="0" y="15">Detalles: </tspan><tspan y="15" font-family="Roboto-Regular, Roboto" font-weight="400">Uso de </tspan><tspan x="0" y="39" font-family="Roboto-Regular, Roboto" font-weight="400">tecnologías de </tspan><tspan x="0" y="63" font-family="Roboto-Regular, Roboto" font-weight="400">trazabilidad y </tspan><tspan x="0" y="87" font-family="Roboto-Regular, Roboto" font-weight="400">procedimientos </tspan><tspan x="0" y="111" font-family="Roboto-Regular, Roboto" font-weight="400">estandarizados.</tspan></text>
      <g id="Grupo_1159025" data-name="Grupo 1159025" transform="translate(-6786.3 -11412.516)">
        <g id="Grupo_1158974" data-name="Grupo 1158974" transform="translate(600 5623)">
          <g id="Grupo_1158454-2" data-name="Grupo 1158454" clip-path="url(#clip-path-5)">
            <g id="Grupo_1158451-2" data-name="Grupo 1158451" transform="translate(34.933 25.686)">
              <g id="Grupo_1158450-2" data-name="Grupo 1158450" clip-path="url(#clip-path-6)">
                <rect id="Rectángulo_417939-2" data-name="Rectángulo 417939" width="134.533" height="134.533" transform="matrix(0.874, -0.486, 0.486, 0.874, -42.018, 23.364)" fill="url(#radial-gradient-5)"/>
              </g>
            </g>
            <g id="Grupo_1158453-2" data-name="Grupo 1158453" transform="translate(37.009 27.757)">
              <g id="Grupo_1158452-2" data-name="Grupo 1158452" clip-path="url(#clip-path-7)">
                <rect id="Rectángulo_417940-2" data-name="Rectángulo 417940" width="132.933" height="132.933" transform="matrix(0.792, -0.611, 0.611, 0.792, -45.836, 35.355)" fill="url(#radial-gradient)"/>
              </g>
            </g>
          </g>
        </g>
        <g id="elearning" transform="translate(655.421 5672)">
          <path id="Trazado_1012861" data-name="Trazado 1012861" d="M6.319,206.888l-.207-5.545A5.865,5.865,0,0,0,5.1,198.256l-3.775-5.532a7.587,7.587,0,0,1-.11-8.387l6.508-10.1,4.25,14.641L10.261,207.1l-3.272.367a.6.6,0,0,1-.67-.577Z" transform="translate(0 -154.606)" fill="#f1d0a5"/>
          <path id="Trazado_1012862" data-name="Trazado 1012862" d="M115.012,32.6a2.985,2.985,0,0,1-2.985,2.985H67.6A2.985,2.985,0,0,1,64.611,32.6V2.985A2.985,2.985,0,0,1,67.6,0h44.43a2.985,2.985,0,0,1,2.985,2.985Z" transform="translate(-57.332)" fill="#365e7d"/>
          <path id="Trazado_1012863" data-name="Trazado 1012863" d="M472.519,2.985A2.985,2.985,0,0,0,469.534,0h-2.027a2.985,2.985,0,0,1,2.985,2.985V32.6a2.985,2.985,0,0,1-2.985,2.985h2.027a2.985,2.985,0,0,0,2.985-2.985Z" transform="translate(-414.839 0)" fill="#2b4d66"/>
          <path id="Trazado_1012864" data-name="Trazado 1012864" d="M152.148,35.276H111.285a.167.167,0,0,0-.162.172v27.3a.167.167,0,0,0,.162.172h40.862a.167.167,0,0,0,.162-.172v-27.3A.167.167,0,0,0,152.148,35.276Z" transform="translate(-98.604 -31.302)" fill="#d3effb"/>
          <path id="Trazado_1012865" data-name="Trazado 1012865" d="M458.2,35.276h-2.169a.167.167,0,0,1,.162.172v27.3a.167.167,0,0,1-.162.172H458.2a.167.167,0,0,0,.162-.172v-27.3A.167.167,0,0,0,458.2,35.276Z" transform="translate(-404.657 -31.302)" fill="#b1e4f9"/>
          <g id="Grupo_1158978" data-name="Grupo 1158978" transform="translate(9.055 16.217)">
            <path id="Trazado_1012866" data-name="Trazado 1012866" d="M81.238,147.107a.87.87,0,0,1-.87-.87v-1.416a.87.87,0,1,1,1.741,0v1.416A.87.87,0,0,1,81.238,147.107Z" transform="translate(-80.368 -143.951)" fill="#2b4d66"/>
          </g>
          <path id="Trazado_1012867" data-name="Trazado 1012867" d="M71.726,252.879l.093-4.014a6.938,6.938,0,0,1,.386-2.126,5.828,5.828,0,0,0-1-5.626,1.044,1.044,0,0,1-.107-1.169l5.5-9.932a2.045,2.045,0,0,0-3.293-2.377l-9.145,9.917.6,6.911,2.431,9.435,4-.433a.6.6,0,0,0,.538-.586Z" transform="translate(-56.927 -201.407)" fill="#f1d0a5"/>
          <path id="Trazado_1012868" data-name="Trazado 1012868" d="M100.422,230.022a2.044,2.044,0,0,0-3.044-2.6,2.04,2.04,0,0,1,.531,2.6l-5.5,9.933a1.044,1.044,0,0,0,.107,1.169,5.828,5.828,0,0,1,1,5.626,6.933,6.933,0,0,0-.386,2.126l-.064,2.769a2.024,2.024,0,0,1-1.805,1.965l-.045,0a.237.237,0,0,0-.2.294l4-.433a.6.6,0,0,0,.538-.586l.09-3.891a7.289,7.289,0,0,1,.387-2.244,5.829,5.829,0,0,0-1-5.631,1.044,1.044,0,0,1-.107-1.169Z" transform="translate(-80.756 -201.417)" fill="#f1b986"/>
          <path id="Trazado_1012869" data-name="Trazado 1012869" d="M312.352,193.7H300.667a1.494,1.494,0,0,1-1.494-1.494v-3.75a1.494,1.494,0,0,1,1.494-1.494h11.685a1.494,1.494,0,0,1,1.494,1.494v3.75A1.494,1.494,0,0,1,312.352,193.7Z" transform="translate(-265.469 -165.903)" fill="#80e29d"/>
          <path id="Trazado_1012870" data-name="Trazado 1012870" d="M397.924,186.965h-2.315a1.494,1.494,0,0,1,1.494,1.494v3.75a1.494,1.494,0,0,1-1.494,1.494h2.315a1.494,1.494,0,0,0,1.494-1.494v-3.75A1.494,1.494,0,0,0,397.924,186.965Z" transform="translate(-351.041 -165.902)" fill="#66b49d"/>
          <g id="Grupo_1158979" data-name="Grupo 1158979" transform="translate(32.146 38.636)">
            <path id="Trazado_1012871" data-name="Trazado 1012871" d="M305.336,362a.687.687,0,0,0,.687-.687v-3.355a4.042,4.042,0,0,1,.6-2.14l1.728-2.761a5.147,5.147,0,0,0,.481-4.368l-.819-2.381-1.583-3.352h-11.7l-2.687,3.352-4.022-1.958a1.79,1.79,0,0,0-2.143.452,2.266,2.266,0,0,0,.024,2.986l5.215,5.646a3.591,3.591,0,0,1,.926,2.433v5.447a.687.687,0,0,0,.687.687h12.6Z" transform="translate(-285.339 -342.957)" fill="#f1d0a5"/>
          </g>
          <g id="Grupo_1158980" data-name="Grupo 1158980" transform="translate(50.655 38.571)">
            <path id="Trazado_1012872" data-name="Trazado 1012872" d="M454.628,348.181l-.819-2.381-1.583-3.352-1.84-.065,1.427,3.417.64,2.381a5.148,5.148,0,0,1-.481,4.368l-1.729,2.761a4.042,4.042,0,0,0-.6,2.14v4.042h1.488a.687.687,0,0,0,.687-.687V357.45a4.042,4.042,0,0,1,.6-2.14l1.728-2.761A5.147,5.147,0,0,0,454.628,348.181Z" transform="translate(-449.638 -342.384)" fill="#f1b986"/>
          </g>
          <g id="Grupo_1158981" data-name="Grupo 1158981" transform="translate(38.859 24.897)">
            <path id="Trazado_1012873" data-name="Trazado 1012873" d="M348.926,238.093V223.2a2.005,2.005,0,1,0-3.992,0v14.892h3.992Z" transform="translate(-344.934 -221.002)" fill="#f1d0a5"/>
            <path id="Trazado_1012874" data-name="Trazado 1012874" d="M384.357,311.5v-6.438a1.422,1.422,0,0,0-1.5-1.334h-1a1.422,1.422,0,0,0-1.5,1.334V311.5Z" transform="translate(-376.374 -294.406)" fill="#f1d0a5"/>
            <path id="Trazado_1012875" data-name="Trazado 1012875" d="M419.789,311.5v-6.438a1.422,1.422,0,0,0-1.5-1.334h-1a1.422,1.422,0,0,0-1.5,1.334V311.5Z" transform="translate(-407.815 -294.406)" fill="#f1d0a5"/>
            <path id="Trazado_1012876" data-name="Trazado 1012876" d="M455.22,311.5v-6.438a1.422,1.422,0,0,0-1.5-1.334h-1a1.422,1.422,0,0,0-1.5,1.334V311.5Z" transform="translate(-439.254 -294.406)" fill="#f1d0a5"/>
          </g>
          <path id="Trazado_1012877" data-name="Trazado 1012877" d="M461.585,303.725h-1a1.653,1.653,0,0,0-.5.077,1.354,1.354,0,0,1,1,1.257V311.5h2v-6.438A1.422,1.422,0,0,0,461.585,303.725Z" transform="translate(-408.255 -269.509)" fill="#f1b986"/>
          <g id="Grupo_1158982" data-name="Grupo 1158982" transform="translate(41.981 34.68)">
            <path id="Trazado_1012878" data-name="Trazado 1012878" d="M373.51,316.02a.87.87,0,0,1-.87-.87v-6.438a.87.87,0,0,1,1.741,0v6.438A.87.87,0,0,1,373.51,316.02Z" transform="translate(-372.64 -307.842)" fill="#f1b986"/>
          </g>
          <g id="Grupo_1158983" data-name="Grupo 1158983" transform="translate(45.972 34.68)">
            <path id="Trazado_1012879" data-name="Trazado 1012879" d="M408.942,316.02a.87.87,0,0,1-.87-.87v-6.438a.87.87,0,0,1,1.741,0v6.438A.87.87,0,0,1,408.942,316.02Z" transform="translate(-408.072 -307.842)" fill="#f1b986"/>
          </g>
          <g id="Grupo_1158984" data-name="Grupo 1158984" transform="translate(49.964 34.68)">
            <path id="Trazado_1012880" data-name="Trazado 1012880" d="M444.372,316.02a.87.87,0,0,1-.87-.87v-6.438a.87.87,0,0,1,1.741,0v6.438A.87.87,0,0,1,444.372,316.02Z" transform="translate(-443.502 -307.842)" fill="#f1b986"/>
          </g>
          <path id="Trazado_1012881" data-name="Trazado 1012881" d="M178.618,117.774a13.588,13.588,0,0,1-10.9,0,.942.942,0,0,1-.58-.868v-8.729H179.2v8.729a.942.942,0,0,1-.58.868Z" transform="translate(-148.312 -95.99)" fill="#4a80aa"/>
          <path id="Trazado_1012882" data-name="Trazado 1012882" d="M179.652,108.176v8.04a.942.942,0,0,1-.58.868,13.508,13.508,0,0,1-9.636.465.943.943,0,0,0,.321.224,13.588,13.588,0,0,0,10.9,0,.942.942,0,0,0,.58-.868v-8.729h-1.581Z" transform="translate(-150.347 -95.989)" fill="#407093"/>
          <path id="Trazado_1012883" data-name="Trazado 1012883" d="M155.572,68.173l-9.237,5.083a.21.21,0,0,1-.2,0l-9.237-5.083a.21.21,0,0,1,0-.368l9.237-5.083a.21.21,0,0,1,.2,0l9.237,5.083A.21.21,0,0,1,155.572,68.173Z" transform="translate(-121.376 -55.633)" fill="#365e7d"/>
          <path id="Trazado_1012884" data-name="Trazado 1012884" d="M217.532,67.805l-9.237-5.083a.21.21,0,0,0-.2,0l-1.48.814,7.757,4.269a.21.21,0,0,1,0,.368l-7.757,4.269,1.48.814a.21.21,0,0,0,.2,0l9.237-5.083a.21.21,0,0,0,0-.368Z" transform="translate(-183.335 -55.633)" fill="#2b4d66"/>
          <g id="Grupo_1158985" data-name="Grupo 1158985" transform="translate(23.871 11.486)">
            <path id="Trazado_1012885" data-name="Trazado 1012885" d="M215.626,110.408a.87.87,0,0,1-.87-.87V106.51l-2.657-3.119a.87.87,0,0,1,1.325-1.129l2.865,3.363a.871.871,0,0,1,.208.564v3.348A.87.87,0,0,1,215.626,110.408Z" transform="translate(-211.891 -101.956)" fill="#407093"/>
          </g>
          <g id="Grupo_1158986" data-name="Grupo 1158986" transform="translate(37.459 10.663)">
            <path id="Trazado_1012886" data-name="Trazado 1012886" d="M339.89,96.4h-6.517a.87.87,0,1,1,0-1.741h6.517a.87.87,0,0,1,0,1.741Z" transform="translate(-332.502 -94.655)" fill="#2b4d66"/>
          </g>
          <g id="Grupo_1158987" data-name="Grupo 1158987" transform="translate(37.459 14.657)">
            <path id="Trazado_1012887" data-name="Trazado 1012887" d="M344.533,131.842h-11.16a.87.87,0,0,1,0-1.741h11.16a.87.87,0,0,1,0,1.741Z" transform="translate(-332.503 -130.101)" fill="#2b4d66"/>
          </g>
        </g>
      </g>
    </g>
    <g id="Grupo_1159108" data-name="Grupo 1159108" transform="translate(-432.379 -374)">
      <rect id="Rectángulo_418595" data-name="Rectángulo 418595" width="192" height="80" rx="16" transform="translate(-6438.25 -5606.516)" fill="#f9f8e9"/>
      <rect id="Rectángulo_418596" data-name="Rectángulo 418596" width="192" height="98" rx="16" transform="translate(-6438.25 -5517.516)" fill="#f4f1d4"/>
      <text id="Estrategias" transform="translate(-6378.25 -5627.516)" fill="#12263f" font-size="16" font-family="Roboto-Bold, Roboto" font-weight="700"><tspan x="0" y="0">Estrategias</tspan></text>
      <g id="Rectángulo_418597" data-name="Rectángulo 418597" transform="translate(-6453.25 -5713.516)" fill="none" stroke="#12263f" stroke-width="2">
        <rect width="221" height="303" rx="18" stroke="none"/>
        <rect x="1" y="1" width="219" height="301" rx="17" fill="none"/>
      </g>
      <text id="Enfoque:_Gestión_de_flotas._" data-name="Enfoque: 
Gestión de flotas.
" transform="translate(-6416.25 -5585.516)" fill="#12263f" font-size="16" font-family="Roboto-Bold, Roboto" font-weight="700"><tspan x="0" y="15">Enfoque: </tspan><tspan font-family="Roboto-Regular, Roboto" font-weight="400"><tspan x="0" y="39">Gestión de flotas.</tspan></tspan></text>
      <text id="Detalles:_Adquisición_mantenimiento_y_monitoreo._" data-name="Detalles: Adquisición, mantenimiento, y monitoreo.
" transform="translate(-6416.25 -5502.516)" fill="#12263f" font-size="16" font-family="Roboto-Bold, Roboto" font-weight="700"><tspan x="0" y="15">Detalles: </tspan><tspan y="15" font-family="Roboto-Regular, Roboto" font-weight="400">Adquisición, </tspan><tspan x="0" y="39" font-family="Roboto-Regular, Roboto" font-weight="400">mantenimiento, y </tspan><tspan x="0" y="63" font-family="Roboto-Regular, Roboto" font-weight="400">monitoreo.</tspan></text>
      <g id="Grupo_1159026" data-name="Grupo 1159026" transform="translate(-6786.3 -11412.516)">
        <g id="Grupo_1158973" data-name="Grupo 1158973" transform="translate(364 5623)">
          <g id="Grupo_1158454-3" data-name="Grupo 1158454" clip-path="url(#clip-path-5)">
            <g id="Grupo_1158451-3" data-name="Grupo 1158451" transform="translate(34.933 25.686)">
              <g id="Grupo_1158450-3" data-name="Grupo 1158450" clip-path="url(#clip-path-6)">
                <rect id="Rectángulo_417939-3" data-name="Rectángulo 417939" width="134.533" height="134.533" transform="matrix(0.874, -0.486, 0.486, 0.874, -42.018, 23.364)" fill="url(#radial-gradient-5)"/>
              </g>
            </g>
            <g id="Grupo_1158453-3" data-name="Grupo 1158453" transform="translate(37.009 27.757)">
              <g id="Grupo_1158452-3" data-name="Grupo 1158452" clip-path="url(#clip-path-7)">
                <rect id="Rectángulo_417940-3" data-name="Rectángulo 417940" width="132.933" height="132.933" transform="matrix(0.792, -0.611, 0.611, 0.792, -45.836, 35.355)" fill="url(#radial-gradient)"/>
              </g>
            </g>
          </g>
        </g>
        <g id="_x39_2" transform="translate(418.119 5666.367)">
          <g id="Grupo_1159007" data-name="Grupo 1159007" transform="translate(9.932 5.635)">
            <g id="Grupo_1159006" data-name="Grupo 1159006">
              <g id="Grupo_1158992" data-name="Grupo 1158992" transform="translate(5.429 41.284)">
                <g id="Grupo_1158989" data-name="Grupo 1158989">
                  <g id="Grupo_1158988" data-name="Grupo 1158988">
                    <path id="Trazado_1012888" data-name="Trazado 1012888" d="M40.3,40.21a3.012,3.012,0,0,1-3.013,3.013H17.217a3.013,3.013,0,1,1,0-6.025H37.29A3.012,3.012,0,0,1,40.3,40.21Z" transform="translate(-14.187 -37.198)" fill="#5b5e8b"/>
                  </g>
                </g>
                <g id="Grupo_1158991" data-name="Grupo 1158991" transform="translate(2.147 6.025)">
                  <g id="Grupo_1158990" data-name="Grupo 1158990">
                    <path id="Trazado_1012889" data-name="Trazado 1012889" d="M37.708,44.534a2.6,2.6,0,0,1-2.6,2.6H18.467a2.6,2.6,0,0,1,0-5.21H35.111A2.6,2.6,0,0,1,37.708,44.534Z" transform="translate(-15.87 -41.92)" fill="#5b5e8b"/>
                  </g>
                </g>
              </g>
              <g id="Grupo_1158997" data-name="Grupo 1158997" transform="translate(5.429 41.287)">
                <g id="Grupo_1158994" data-name="Grupo 1158994">
                  <g id="Grupo_1158993" data-name="Grupo 1158993">
                    <path id="Trazado_1012890" data-name="Trazado 1012890" d="M21.344,43.228H17.214a3.014,3.014,0,1,1,0-6.028h4.131a3.014,3.014,0,1,0,0,6.028Z" transform="translate(-14.187 -37.2)" fill="#312e4b"/>
                  </g>
                </g>
                <g id="Grupo_1158996" data-name="Grupo 1158996" transform="translate(2.149 6.028)">
                  <g id="Grupo_1158995" data-name="Grupo 1158995">
                    <path id="Trazado_1012891" data-name="Trazado 1012891" d="M22.6,47.125H18.466a2.6,2.6,0,0,1,0-5.2H22.6a2.6,2.6,0,0,0,0,5.2Z" transform="translate(-15.872 -41.925)" fill="#312e4b"/>
                  </g>
                </g>
              </g>
              <g id="Grupo_1158999" data-name="Grupo 1158999" transform="translate(12.633 52.517)">
                <g id="Grupo_1158998" data-name="Grupo 1158998">
                  <path id="Trazado_1012892" data-name="Trazado 1012892" d="M31.491,46v1.145a4.017,4.017,0,0,1-4.015,4.015H23.848a4.017,4.017,0,0,1-4.015-4.015V46Z" transform="translate(-19.834 -46.003)" fill="#5b5e8b"/>
                </g>
              </g>
              <g id="Grupo_1159001" data-name="Grupo 1159001" transform="translate(12.634 52.514)">
                <g id="Grupo_1159000" data-name="Grupo 1159000">
                  <path id="Trazado_1012893" data-name="Trazado 1012893" d="M24.843,46.925a2.546,2.546,0,0,0-2.2,3.9,1.165,1.165,0,0,0,.168.193,4.006,4.006,0,0,1-2.978-3.867V46h11.66v.925Z" transform="translate(-19.835 -46.001)" fill="#312e4b"/>
                </g>
              </g>
              <g id="Grupo_1159003" data-name="Grupo 1159003" transform="translate(0.005 0.004)">
                <g id="Grupo_1159002" data-name="Grupo 1159002">
                  <path id="Trazado_1012894" data-name="Trazado 1012894" d="M18.781,46.125H38.071A20.765,20.765,0,0,1,42.786,34.96,18.415,18.415,0,0,0,46.9,22.789a18.488,18.488,0,0,0-36.968.526,18.427,18.427,0,0,0,4.29,11.852,19.753,19.753,0,0,1,4.555,10.958Z" transform="translate(-9.936 -4.843)" fill="#fcb73e"/>
                </g>
              </g>
              <g id="Grupo_1159005" data-name="Grupo 1159005">
                <g id="Grupo_1159004" data-name="Grupo 1159004">
                  <path id="Trazado_1012895" data-name="Trazado 1012895" d="M18.787,46.126h3.659A19.76,19.76,0,0,0,17.9,35.162,18.469,18.469,0,0,1,30.25,4.941a10.089,10.089,0,0,0-1.074-.087A18.479,18.479,0,0,0,14.228,35.162a19.791,19.791,0,0,1,4.559,10.964Z" transform="translate(-9.932 -4.839)" fill="#fd982e"/>
                </g>
              </g>
            </g>
          </g>
          <g id="Grupo_1159016" data-name="Grupo 1159016" transform="translate(14.816 10.12)">
            <g id="Grupo_1159009" data-name="Grupo 1159009">
              <g id="Grupo_1159008" data-name="Grupo 1159008">
                <circle id="Elipse_12789" data-name="Elipse 12789" cx="13.609" cy="13.609" r="13.609" fill="#e83d62"/>
              </g>
            </g>
            <g id="Grupo_1159011" data-name="Grupo 1159011" transform="translate(3.183 3.183)">
              <g id="Grupo_1159010" data-name="Grupo 1159010">
                <circle id="Elipse_12790" data-name="Elipse 12790" cx="10.426" cy="10.426" r="10.426" fill="#deddff"/>
              </g>
            </g>
            <g id="Grupo_1159013" data-name="Grupo 1159013" transform="translate(5.896 5.896)">
              <g id="Grupo_1159012" data-name="Grupo 1159012">
                <circle id="Elipse_12791" data-name="Elipse 12791" cx="7.714" cy="7.714" r="7.714" fill="#e83d62"/>
              </g>
            </g>
            <g id="Grupo_1159015" data-name="Grupo 1159015" transform="translate(8.89 8.89)">
              <g id="Grupo_1159014" data-name="Grupo 1159014">
                <circle id="Elipse_12792" data-name="Elipse 12792" cx="4.719" cy="4.719" r="4.719" fill="#deddff"/>
              </g>
            </g>
          </g>
          <g id="Grupo_1159023" data-name="Grupo 1159023" transform="translate(28.095 1.953)">
            <g id="Grupo_1159019" data-name="Grupo 1159019" transform="translate(0 3.504)">
              <g id="Grupo_1159018" data-name="Grupo 1159018">
                <g id="Grupo_1159017" data-name="Grupo 1159017">
                  <path id="Trazado_1012896" data-name="Trazado 1012896" d="M24.373,22.983a.736.736,0,0,1,.022-1.042L42.064,4.906a.737.737,0,0,1,1.02,1.064L25.415,23.005A.737.737,0,0,1,24.373,22.983Z" transform="translate(-24.168 -4.7)" fill="#5b5e8b"/>
                </g>
              </g>
            </g>
            <g id="Grupo_1159022" data-name="Grupo 1159022" transform="translate(15.602)">
              <g id="Grupo_1159021" data-name="Grupo 1159021">
                <g id="Grupo_1159020" data-name="Grupo 1159020">
                  <path id="Trazado_1012897" data-name="Trazado 1012897" d="M43.536,5.984,40.2,9.115a.319.319,0,0,1-.231.083L36.7,8.977a.3.3,0,0,1-.288-.307L36.4,5.392a.319.319,0,0,1,.1-.226l3.334-3.131a.309.309,0,0,1,.52.224l.012,2.7a.3.3,0,0,0,.288.307l2.7.182a.309.309,0,0,1,.191.533Z" transform="translate(-36.397 -1.953)" fill="#65b9ff"/>
                </g>
              </g>
            </g>
          </g>
        </g>
      </g>
    </g>
    <g id="Grupo_1159110" data-name="Grupo 1159110" transform="translate(-913.278 421)">
      <rect id="Rectángulo_418605" data-name="Rectángulo 418605" width="192" height="80" rx="16" transform="translate(-5956.351 -5602.516)" fill="#e8f4ff"/>
      <rect id="Rectángulo_418606" data-name="Rectángulo 418606" width="192" height="99" rx="16" transform="translate(-5958.3 -5514.016)" fill="#d3e9ff"/>
      <text id="Adopción_de_tecnologías" data-name="Adopción de tecnologías" transform="translate(-5944.3 -5627.516)" fill="#12263f" font-size="16" font-family="Roboto-Bold, Roboto" font-weight="700"><tspan x="0" y="0">Adopción de tecnologías</tspan></text>
      <g id="Rectángulo_418604" data-name="Rectángulo 418604" transform="translate(-5971.351 -5709.516)" fill="none" stroke="#12263f" stroke-width="2">
        <rect width="221" height="308" rx="18" stroke="none"/>
        <rect x="1" y="1" width="219" height="306" rx="17" fill="none"/>
      </g>
      <text id="Enfoque:_Inversión_en_sistemas._" data-name="Enfoque: 
Inversión en sistemas.

" transform="translate(-5943.25 -5585.516)" fill="#12263f" font-size="16" font-family="Roboto-Bold, Roboto" font-weight="700"><tspan x="0" y="15">Enfoque: </tspan><tspan font-family="Roboto-Regular, Roboto" font-weight="400"><tspan x="0" y="39">Inversión en sistemas.</tspan></tspan></text>
      <text id="Detalles:_GPS_RFID_TMS_WMS_y_plataformas_de_datos._" data-name="Detalles: GPS, RFID, TMS, WMS y plataformas de datos.

" transform="translate(-5938.199 -5498.016)" fill="#12263f" font-size="16" font-family="Roboto-Bold, Roboto" font-weight="700"><tspan x="0" y="15">Detalles: </tspan><tspan y="15" font-family="Roboto-Regular, Roboto" font-weight="400">GPS, RFID, </tspan><tspan x="0" y="39" font-family="Roboto-Regular, Roboto" font-weight="400">TMS, WMS y </tspan><tspan x="0" y="63" font-family="Roboto-Regular, Roboto" font-weight="400">plataformas de datos.</tspan></text>
      <g id="Grupo_1159027" data-name="Grupo 1159027" transform="translate(-6786.3 -11412.516)">
        <g id="Grupo_1158976" data-name="Grupo 1158976" transform="translate(840.949 5623)">
          <g id="Grupo_1158454-4" data-name="Grupo 1158454" clip-path="url(#clip-path-5)">
            <g id="Grupo_1158451-4" data-name="Grupo 1158451" transform="translate(34.933 25.686)">
              <g id="Grupo_1158450-4" data-name="Grupo 1158450" clip-path="url(#clip-path-6)">
                <rect id="Rectángulo_417939-4" data-name="Rectángulo 417939" width="134.533" height="134.533" transform="matrix(0.874, -0.486, 0.486, 0.874, -42.018, 23.364)" fill="url(#radial-gradient-5)"/>
              </g>
            </g>
            <g id="Grupo_1158453-4" data-name="Grupo 1158453" transform="translate(37.009 27.757)">
              <g id="Grupo_1158452-4" data-name="Grupo 1158452" clip-path="url(#clip-path-7)">
                <rect id="Rectángulo_417940-4" data-name="Rectángulo 417940" width="132.933" height="132.933" transform="matrix(0.792, -0.611, 0.611, 0.792, -45.836, 35.355)" fill="url(#radial-gradient)"/>
              </g>
            </g>
          </g>
        </g>
        <g id="Layer_27" data-name="Layer 27" transform="translate(893.051 5664)">
          <rect id="Rectángulo_418607" data-name="Rectángulo 418607" width="60" height="39" rx="2" transform="translate(2 9)" fill="#939393"/>
          <path id="Trazado_1012898" data-name="Trazado 1012898" d="M6,13H58V40H6Z" fill="#f2f2f2"/>
          <path id="Trazado_1012899" data-name="Trazado 1012899" d="M6,13H55V37H6Z" fill="#fff"/>
          <path id="Trazado_1012900" data-name="Trazado 1012900" d="M43,54l-3-6H24l-3,6Z" fill="#474747"/>
          <path id="Trazado_1012901" data-name="Trazado 1012901" d="M62,40v6a2,2,0,0,1-2,2H4a2,2,0,0,1-2-2V40Z" fill="#686868"/>
          <path id="Trazado_1012902" data-name="Trazado 1012902" d="M20,54H44a4,4,0,0,1,4,4v4H16V58A4,4,0,0,1,20,54Z" fill="#686868"/>
          <path id="Trazado_1012903" data-name="Trazado 1012903" d="M31,43h2v2H31Z" fill="#474747"/>
          <path id="Trazado_1012904" data-name="Trazado 1012904" d="M53,35h2v2H53Z" fill="#3b5892"/>
          <path id="Trazado_1012905" data-name="Trazado 1012905" d="M49,35h2v2H49Z" fill="#3b5892"/>
          <path id="Trazado_1012906" data-name="Trazado 1012906" d="M45,35h2v2H45Z" fill="#3b5892"/>
          <path id="Trazado_1012907" data-name="Trazado 1012907" d="M21,2H43V36H21Z" fill="#c8cded"/>
          <path id="Trazado_1012908" data-name="Trazado 1012908" d="M21,2H40V31H21Z" fill="#e2e7f6"/>
          <path id="Trazado_1012909" data-name="Trazado 1012909" d="M35,7H33V5H31V7H29V9h2v2h2V9h2Z" fill="#d23f34"/>
          <g id="Grupo_1159024" data-name="Grupo 1159024">
            <path id="Trazado_1012910" data-name="Trazado 1012910" d="M28,13h8v2H28Z" fill="#9da1bf"/>
            <path id="Trazado_1012911" data-name="Trazado 1012911" d="M24,17H40v2H24Z" fill="#9da1bf"/>
            <path id="Trazado_1012912" data-name="Trazado 1012912" d="M24,21H40v2H24Z" fill="#9da1bf"/>
            <path id="Trazado_1012913" data-name="Trazado 1012913" d="M24,25H40v2H24Z" fill="#9da1bf"/>
            <path id="Trazado_1012914" data-name="Trazado 1012914" d="M24,29H40v2H24Z" fill="#9da1bf"/>
            <path id="Trazado_1012915" data-name="Trazado 1012915" d="M38,13h2v2H38Z" fill="#9da1bf"/>
          </g>
        </g>
      </g>
    </g>
    <g id="Rectángulo_418920" data-name="Rectángulo 418920" transform="translate(-6948.559 -6211.114)" fill="none" stroke="#12263f" stroke-width="2">
      <rect width="232.924" height="55.198" rx="18" stroke="none"/>
      <rect x="1" y="1" width="230.924" height="53.198" rx="17" fill="none"/>
    </g>
    <path id="Trazado_1013655" data-name="Trazado 1013655" d="M-6928.3-6155.917l-2.371,1310.583h48" fill="none" stroke="#12263f" stroke-width="2"/>
    <path id="Trazado_1013656" data-name="Trazado 1013656" d="M-6930.667-5241.333H-6884" fill="none" stroke="#12263f" stroke-width="2"/>
    <path id="Trazado_1013657" data-name="Trazado 1013657" d="M-6930.667-5241.333H-6884" transform="translate(0 -429)" fill="none" stroke="#12263f" stroke-width="2"/>
    <path id="Trazado_1013658" data-name="Trazado 1013658" d="M-6930.667-5241.333H-6884" transform="translate(0 -809)" fill="none" stroke="#12263f" stroke-width="2"/>
  </g>
</svg>
