<svg xmlns="http://www.w3.org/2000/svg" xmlns:xlink="http://www.w3.org/1999/xlink" width="1032.5" height="557.016" viewBox="0 0 1032.5 557.016"><defs><radialGradient id="a" cx="0.548" cy="1.07" r="1.313" gradientTransform="matrix(0, -1, -1, 0, 1.219, 1.219)" gradientUnits="objectBoundingBox"><stop offset="0" stop-color="#fff"/><stop offset="0.552" stop-color="#f5f5f5"/><stop offset="1" stop-color="#e5e5e5"/></radialGradient><clipPath id="e"><path d="M14.862,0H1017.638c8.208,0,14.862,9.346,14.862,20.874V536.141c0,11.529-6.654,20.874-14.862,20.874H14.862C6.654,557.016,0,547.67,0,536.141V20.874C0,9.346,6.654,0,14.862,0Z" transform="translate(-12635 -12918)" fill="#eff6ff"/></clipPath><clipPath id="f"><rect width="595.179" height="504.768" fill="#e8f6f1"/></clipPath><clipPath id="g"><rect width="326.7" height="249.891" fill="#92c9ff"/></clipPath><clipPath id="h"><path d="M.292.439,505.441-12.368l-9.123,378.742L-8.831,379.181Z" fill="#92c9ff"/></clipPath><clipPath id="i"><rect width="192.045" height="188.619" fill="none"/></clipPath><clipPath id="j"><rect width="192.043" height="188.621" fill="none"/></clipPath><clipPath id="k"><rect width="173.107" height="173.107" fill="none"/></clipPath><clipPath id="l"><path d="M173.108,89.082A86.554,86.554,0,1,1,86.551,2.525a86.557,86.557,0,0,1,86.557,86.557" transform="translate(0 -2.525)" fill="none"/></clipPath><radialGradient id="m" cx="0.5" cy="0.5" r="0.5" gradientTransform="matrix(1, 0, 0, -1, 0, 2)" gradientUnits="objectBoundingBox"><stop offset="0" stop-color="#666"/><stop offset="0.108" stop-color="#8e8e8e"/><stop offset="0.221" stop-color="#b1b1b1"/><stop offset="0.341" stop-color="#cdcdcd"/><stop offset="0.469" stop-color="#e3e3e3"/><stop offset="0.609" stop-color="#f2f2f2"/><stop offset="0.771" stop-color="#fcfcfc"/><stop offset="1" stop-color="#fff"/></radialGradient><clipPath id="o"><path d="M176.185,86.557A86.551,86.551,0,1,1,89.634,0a86.548,86.548,0,0,1,86.551,86.557" transform="translate(-3.083)" fill="none"/></clipPath><radialGradient id="p" cy="0.5" r="0.5" gradientTransform="matrix(1, 0, 0, -1, 0, 2.179)" xlink:href="#m"/><clipPath id="r"><path d="M173.108,87.852A86.554,86.554,0,1,1,86.551,1.3a86.558,86.558,0,0,1,86.557,86.551" transform="translate(0 -1.301)" fill="none"/></clipPath><radialGradient id="s" cy="0.5" r="0.5" gradientTransform="matrix(1, 0, 0, -1, 0, 2.087)" xlink:href="#m"/><clipPath id="t"><path d="M5.686,53.637A49.462,49.462,0,1,0,55.154,4.181,49.468,49.468,0,0,0,5.686,53.637" transform="translate(-5.686 -4.181)" fill="none"/></clipPath><radialGradient id="u" cx="0.546" cy="0.174" r="0.948" gradientTransform="matrix(0, 1, 1, 0, -1.471, 1.471)" gradientUnits="objectBoundingBox"><stop offset="0" stop-color="#fff"/><stop offset="1" stop-color="#b3b3b3"/></radialGradient><clipPath id="v"><path d="M6.024,51.9A47.389,47.389,0,1,0,53.416,4.518,47.386,47.386,0,0,0,6.024,51.9" transform="translate(-6.024 -4.518)" fill="url(#a)"/></clipPath></defs><g transform="translate(-283.75 -5726.453)"><g transform="translate(-1.25 155.469)"><g transform="translate(2.5 3365.977)"><g transform="translate(12917.5 15123.008)" opacity="0.2" clip-path="url(#e)"><g transform="translate(-12672.449 -12930.846)" fill="#fff" stroke="#707070" stroke-width="1"><rect width="1118" height="582.707" stroke="none"/><rect x="0.5" y="0.5" width="1117" height="581.707" fill="none"/></g><path d="M14.862,0H1017.638c8.208,0,14.862,8.015,14.862,17.9V459.822c0,9.887-6.654,17.9-14.862,17.9H14.862C6.654,477.725,0,469.71,0,459.822V17.9C0,8.015,6.654,0,14.862,0Z" transform="translate(-12635 -12918)" fill="#f6f6f6"/><path d="M297.626,0C462,0,595.252,143.078,595.252,319.574S462,639.149,297.626,639.149,0,496.071,0,319.574,133.252,0,297.626,0Z" transform="translate(-12530 -13351.579)" fill="#d3e9ff" opacity="0.41"/><path d="M278.462,0c153.79,0,278.462,133.866,278.462,299s-124.672,299-278.462,299S0,464.129,0,299,124.672,0,278.462,0Z" transform="translate(-13023.831 -12739.272)" fill="#92c9ff" opacity="0.48" style="mix-blend-mode:multiply;isolation:isolate"/><g transform="translate(-12141.796 -12929.379)" style="mix-blend-mode:multiply;isolation:isolate"><g transform="translate(0 0)" clip-path="url(#f)"><path d="M176.419,59.247c-13.353,14.025-27.04,27.686-39.986,42.153-24.95,27.882-49.814,55.875-74.105,84.452C26.823,227.618,4.5,276.473,1.989,334.389.3,373.321.559,412.36.1,451.353-.1,469.154.066,486.96.064,504.764H8.448c-.118-31.327-.542-62.657-.259-93.979.233-25.817.714-51.663,2.126-77.427,2.615-47.7,18.584-89.966,46.53-126.145,16.875-21.846,35.5-42.061,53.593-62.74q28.276-32.321,57.11-64.044c5.894-6.467,12.792-11.818,19.231-17.68a5.4,5.4,0,0,1,.8-1.211c17.807-15.261,36.675-28.629,57.444-38.47C268.047,12.156,291.958,6.8,317.1,10.08,348.122,14.128,376.9,26,404.633,41.219c53.716,29.472,99.228,71.375,143.191,115.588q21.985,23.337,43.972,46.672c1.108,1.175,2.234,2.329,3.352,3.493q.015-6.624.031-13.251c-3.227-3.4-6.476-6.768-9.679-10.191q-14.475-15.473-28.922-30.979c-12.758-12.229-25.381-24.636-38.3-36.655-37.687-35.06-77.222-67.106-122.517-89.471C370.633,14.017,344.774,4.243,317.191.887c-26.455-3.218-51.527,2.468-75.718,13.953-22.08,10.483-42.041,24.823-60.916,41.109-1.34,1.156-2.758,2.2-4.139,3.3" transform="translate(0 0.004)" fill="#e8f6f1"/><path d="M9.7,759.006c-.579-20.014-.705-40.059-1.837-60.034-1.953-34.443,3.361-67.822,10.58-101.056,5.212-23.993,11.244-47.622,20.332-70.27C51.757,495.283,73.725,476.149,105.2,469a475.475,475.475,0,0,1,80.232-10.846c27.259-1.454,54.577-2.39,81.862-2.208,32.744.218,63.967,8.195,92.552,26.661,19.574,12.645,36.108,29.454,52.479,46.5,27.3,28.423,54.331,57.163,82.062,85.061,12.8,12.875,26.976,24.077,40.527,36.037q0-5.742,0-11.483c-18.767-17.356-38.089-34.041-56.169-52.229-26.242-26.4-51.458-54.038-77.347-80.871-34.546-35.806-75.437-55.464-122.942-58.354-32.613-1.984-65.159-.584-97.638,2.18-22.228,1.891-44.372,5.163-66.489,8.361-7.479,1.081-14.772,3.778-22.131,5.82-26.8,7.433-45.085,26.186-57.523,52.714-12.3,26.232-19.351,54.416-24.94,83.067C6.189,617.614,1.934,635.9.753,654.361-.717,677.319.629,700.5.819,723.581c.1,11.809.325,23.617.494,35.425Z" transform="translate(60.231 -254.238)" fill="#e8f6f1"/><path d="M8.447,867.1q3.824-52.948,7.665-105.894c1.7-23.011,3.086-46.039,9.481-68.318,8.509-29.643,27.455-43.852,54.637-46.746,25.654-2.732,51.179-.28,76.636,2.6,19.566,2.216,39.032,5.552,58.516,8.6,30.514,4.769,54.579,22.094,74.777,46.982,12.207,15.041,24.179,30.367,37.083,44.657,16.294,18.043,36.3,30.881,55.132,45.337,11.447,8.786,22.63,17.99,33.932,27.008q0-5.923-.005-11.848c-23.329-18.089-46.835-35.909-69.927-54.36-16.457-13.149-29.3-30.474-42.408-47.389-13.685-17.655-28.533-33.8-47.216-45.1-13.529-8.182-28.269-12.237-43.261-15.086-35.191-6.686-70.675-10.833-106.37-11.416a185.4,185.4,0,0,0-42.027,4.009C38.923,645.8,24.4,665.693,16.9,692.847c-5.238,18.963-6.99,38.526-8.389,58.145q-3.924,55-7.7,110.017c-.143,2.039-.493,4.061-.746,6.09Z" transform="translate(178.849 -362.331)" fill="#e8f6f1"/><path d="M305.634,941.086c-.569-15.214-1.755-30.437-1.589-45.642.474-43.4,18.073-77.11,49.553-102.242,11.557-9.226,24.626-15.274,38.873-17.38,20.862-3.084,37.887,5.448,49.934,23.793a538.617,538.617,0,0,1,29.231,51.139c17.1,33.563,37.482,64.058,64.162,89.135a7.391,7.391,0,0,1,.849,1.2h13.041c-18.026-16.621-35.2-34.316-48.313-55.91-11.633-19.155-21.92-39.307-32.725-59.07-8.015-14.659-15.857-29.427-27.24-41.4-17.067-17.945-37.236-22.428-59.455-15.844-44.005,13.038-78.943,57.892-84.9,107.658-2.5,20.9-.776,41.678.174,62.509.031.683.013,1.369.018,2.053Z" transform="translate(-69.899 -436.318)" fill="#e8f6f1"/><path d="M512.654,1022.345c-1.852-29.877-1.414-59.3,15.056-85.188,6.258-9.837,14.328-16.939,25.51-18.891a21.88,21.88,0,0,1,18.426,4.9c13.417,11.041,22.919,25.832,31.722,41.2a331.95,331.95,0,0,1,26.657,57.978h8.383c-6.209-22.064-16.462-41.955-27.271-61.528-8.175-14.8-17.446-28.707-29.188-40.358-15.383-15.265-34.153-15.778-50.206-1.3-13.149,11.854-20.42,27.787-24.368,45.584-4.2,18.936-4.585,38.238-3.1,57.607Z" transform="translate(-239.659 -517.577)" fill="#e8f6f1"/></g></g><g transform="translate(-12405.816 -12391.593) rotate(180)" opacity="0.65" style="mix-blend-mode:screen;isolation:isolate"><g transform="translate(0 0)" clip-path="url(#g)"><path d="M306.04.208c-.462,4.239-.848,8.494-1.4,12.723-1.332,10.166-2.615,20.342-4.146,30.474-4.084,27.036-9.517,53.734-17.835,79.681a8.71,8.71,0,0,1-.412.919c-3.473,8.773-6.919,17.557-10.443,26.306a40.966,40.966,0,0,1-2.324,4.287c-5.811,11.279-13.031,21.218-23.611,27.776-10.032,6.218-19.884,5.329-29.355-1.523-2.058-1.489-3.867-3.376-5.791-5.08l.037.019-.559-.393c-3.313-3.875-6.907-7.517-9.884-11.67-7.719-10.77-13.2-22.863-17.345-35.672a14.99,14.99,0,0,1-.295-1.513,61.46,61.46,0,0,0,27.061-7.978c3.189-2.807,6.67-5.312,9.509-8.481,7.214-8.052,10.463-17.992,10.963-29.05.038-.831.068-1.663.1-2.494a60.938,60.938,0,0,0-7.561-28.652c-4.61-8.29-10.648-14.986-19.141-18.7-11.842-5.173-24.226-2.014-32.729,8.328-6.292,7.653-9.522,16.871-11.389,26.684-.875,4.6-1.266,9.3-1.876,13.962.109,7.737.218,15.474.331,23.5-2.435-.714-4.975-1.376-7.466-2.205A137.236,137.236,0,0,1,120.92,87.711c-5.917-3.817-12-7.366-17.723-11.5C77.586,57.719,55.082,35.439,34.653,10.674,31.864,7.294,29.127,3.863,26.165.208L0,0A3.183,3.183,0,0,1,2.909,1.515,448.756,448.756,0,0,0,44.016,50.629c18.045,18.544,37.278,35.5,58.695,49.424,4.646,3.021,9.472,5.721,14.209,8.582.841.508,1.647,1.081,2.469,1.624,2.779,1.272,5.564,2.526,8.335,3.818a131.8,131.8,0,0,0,32.9,10.832c1.433.251,1.967,1.015,2.359,2.467,5.52,20.4,14.14,39.078,27.176,55.195,3,3.712,6.461,7,9.71,10.483,5.171,4.325,10.573,8.229,16.779,10.681,14.631,5.78,28.418,3.49,41.262-5.483,4.523-3.16,8.483-7.249,12.7-10.913A135.954,135.954,0,0,0,287.641,162c2.794-6.462,5.769-12.843,8.346-19.4,5.521-14.053,9.545-28.65,13.095-43.4,1.289-5.353,2.448-10.742,3.666-16.115C318.33,55.71,326.2.028,326.7.028M177.357,101.981c-.338-6.569-.544-13.146-.76-19.722a16.379,16.379,0,0,1,.333-2.641c.514-9.334,2.21-18.313,7.649-25.917,3.787-5.294,9.06-6.089,14.214-2.36,6.35,4.594,9.66,11.4,11.523,19.119a31.149,31.149,0,0,1,.4,14,22.513,22.513,0,0,1-10.872,16.545c-5.6,3.48-11.783,4.76-18.172,5.107-4,.217-4.092.235-4.317-4.131" transform="translate(0 42.984)" fill="#92c9ff"/><line x1="19.066" y2="0.105" transform="translate(306.04 0)" fill="#fdfdfd"/></g></g><g transform="matrix(0.927, -0.375, 0.375, 0.927, -12610.416, -13021.071)" opacity="0.07" style="mix-blend-mode:darken;isolation:isolate"><g transform="translate(0 0)" clip-path="url(#h)"><path d="M473.187-11.278c-.869,6.442-1.621,12.906-2.632,19.338-2.43,15.46-4.786,30.934-7.523,46.35-7.3,41.137-16.676,81.813-30.486,121.465a13.838,13.838,0,0,1-.671,1.41c-5.69,13.432-11.34,26.881-17.107,40.279a65.7,65.7,0,0,1-3.75,6.589c-9.4,17.322-20.923,32.67-37.522,43.024-15.738,9.817-30.94,8.857-45.334-1.157-3.128-2.177-5.856-4.966-8.769-7.472l.057.027L318.6,258c-4.981-5.743-10.4-11.123-14.856-17.3-11.543-16.02-19.575-34.135-25.517-53.386a21.7,21.7,0,0,1-.4-2.282c14.832-1.444,28.965-5.367,42.133-13.153,5.033-4.38,10.507-8.313,15.012-13.227,11.449-12.487,16.835-27.679,18.012-44.458.089-1.261.165-2.523.247-3.784.012-15.52-3.393-29.972-10.644-43.129C335.762,54.9,326.67,44.986,313.674,39.7c-18.122-7.376-37.385-2.1-50.91,13.905-10.007,11.845-15.339,25.944-18.585,40.889-1.521,7.005-2.3,14.152-3.411,21.235-.114,11.722-.228,23.444-.346,35.61-3.739-.987-7.642-1.89-11.464-3.05a202.7,202.7,0,0,1-45.2-19.685c-9.01-5.553-18.289-10.693-26.984-16.73C117.848,84.843,83.866,51.956,53.182,15.223c-4.189-5.015-8.3-10.106-12.742-15.53L-.009.4A4.692,4.692,0,0,1,4.434,2.585,635.192,635.192,0,0,0,66.2,75.413c27.224,27.4,56.345,52.337,88.951,72.608,7.073,4.4,14.438,8.3,21.656,12.45,1.281.737,2.507,1.574,3.758,2.365,4.25,1.818,8.512,3.611,12.748,5.46,16.195,7.068,32.891,12.541,50.481,15.128,2.206.324,3,1.462,3.558,3.646,7.791,30.7,20.437,58.673,40.005,82.589,4.508,5.509,9.735,10.356,14.631,15.507,7.838,6.352,16.048,12.058,25.554,15.531,22.412,8.187,43.813,4.176,64-9.928,7.109-4.966,13.382-11.319,20.037-17.038,10.65-11.854,19.359-25.16,27.252-39.077,4.557-9.9,9.389-19.692,13.614-29.737,9.05-21.516,15.8-43.8,21.832-66.289,2.188-8.164,4.177-16.378,6.257-24.568,9.631-41.7,23.827-126.4,24.605-126.421M270.5,148.017c-.283-9.943-.361-19.9-.455-29.861a24.853,24.853,0,0,1,.611-4.016c1.135-14.166,4.085-27.842,12.773-39.58,6.049-8.173,14.23-9.583,22.064-4.134,9.651,6.714,14.52,16.895,17.118,28.525a46.17,46.17,0,0,1,.111,21.2c-1.97,11.3-8.055,19.655-17.414,25.5-8.793,5.493-18.392,7.677-28.285,8.453-6.189.485-6.336.516-6.524-6.093" transform="translate(-1.268 65.183)" fill="#92c9ff"/><line x1="29.484" y2="0.907" transform="translate(473.492 -12.305)" fill="#fdfdfd"/></g></g></g></g><text transform="translate(333.051 5629)" fill="#12263f" font-size="18" font-family="Roboto-Bold, Roboto" font-weight="700"><tspan x="0" y="0">Políticas empresariales</tspan></text><rect width="192" height="80" rx="16" transform="translate(348.051 5806)" fill="#f9f8e9"/><rect width="192" height="80" rx="16" transform="translate(829.949 5810)" fill="#e8f4ff"/><rect width="192" height="98" rx="16" transform="translate(589 5806)" fill="#e8f6f1"/><rect width="192" height="100" rx="16" transform="translate(1070.898 5827)" fill="#fef2ef"/><rect width="192" height="98" rx="16" transform="translate(348.051 5895)" fill="#f4f1d4"/><rect width="192" height="99" rx="16" transform="translate(828 5898.5)" fill="#d3e9ff"/><rect width="192" height="143.5" rx="16" transform="translate(589 5914.5)" fill="#d3efe5"/><rect width="192" height="121" rx="16" transform="translate(1070.398 5934.5)" fill="#fde8e1"/><text transform="translate(408.051 5785)" fill="#12263f" font-size="16" font-family="Roboto-Bold, Roboto" font-weight="700"><tspan x="0" y="0">Estrategias</tspan></text><text transform="translate(842 5785)" fill="#12263f" font-size="16" font-family="Roboto-Bold, Roboto" font-weight="700"><tspan x="0" y="0">Adopción de tecnologías</tspan></text><text transform="translate(649 5785)" fill="#12263f" font-size="16" font-family="Roboto-Bold, Roboto" font-weight="700"><tspan x="0" y="0">Formación</tspan></text><text transform="translate(1177 5783.596)" fill="#12263f" font-size="16" font-family="Roboto-Bold, Roboto" font-weight="700"><tspan x="-42.168" y="0">Políticas de</tspan><tspan x="-71.824" y="24" xml:space="preserve"> calidad y seguridad</tspan></text><g transform="translate(333.051 5699)" fill="none" stroke="#12263f" stroke-width="2"><rect width="221" height="303" rx="18" stroke="none"/><rect x="1" y="1" width="219" height="301" rx="17" fill="none"/></g><g transform="translate(814.949 5703)" fill="none" stroke="#12263f" stroke-width="2"><rect width="221" height="308" rx="18" stroke="none"/><rect x="1" y="1" width="219" height="306" rx="17" fill="none"/></g><g transform="translate(574 5699)" fill="none" stroke="#12263f" stroke-width="2"><rect width="221" height="374" rx="18" stroke="none"/><rect x="1" y="1" width="219" height="372" rx="17" fill="none"/></g><g transform="translate(1055.898 5703)" fill="none" stroke="#12263f" stroke-width="2"><rect width="221" height="364" rx="18" stroke="none"/><rect x="1" y="1" width="219" height="362" rx="17" fill="none"/></g><text transform="translate(370.051 5827)" fill="#12263f" font-size="16" font-family="Roboto-Bold, Roboto" font-weight="700"><tspan x="0" y="17">Enfoque: </tspan></text><text transform="translate(843.051 5827)" fill="#12263f" font-size="16" font-family="Roboto-Bold, Roboto" font-weight="700"><tspan x="0" y="17">Enfoque: </tspan></text><text transform="translate(1089.051 5846)" fill="#12263f" font-size="16" font-family="Roboto-Bold, Roboto" font-weight="700"><tspan x="0" y="17">Enfoque: </tspan><tspan font-family="Roboto-Regular, Roboto" font-weight="400"><tspan x="0" y="41">Implementación de </tspan><tspan x="0" y="65">certificaciones.</tspan></tspan></text><text transform="translate(600.051 5823)" fill="#12263f" font-size="16" font-family="Roboto-Bold, Roboto" font-weight="700"><tspan x="0" y="17">Enfoque: </tspan><tspan font-family="Roboto-Regular, Roboto" font-weight="400"><tspan x="0" y="41">Desarrollo de </tspan><tspan x="0" y="65">habilidades del personal.</tspan></tspan></text><text transform="translate(370.051 5910)" fill="#12263f" font-size="16" font-family="Roboto-Bold, Roboto" font-weight="700"><tspan x="0" y="17">Detalles: </tspan><tspan y="17" font-family="Roboto-Regular, Roboto" font-weight="400">Adquisición, </tspan><tspan x="0" y="41" font-family="Roboto-Regular, Roboto" font-weight="400">mantenimiento, y </tspan></text><text transform="translate(848.102 5914.5)" fill="#12263f" font-size="16" font-family="Roboto-Bold, Roboto" font-weight="700"><tspan x="0" y="17">Detalles: </tspan><tspan y="17" font-family="Roboto-Regular, Roboto" font-weight="400">GPS, RFID, </tspan><tspan x="0" y="41" font-family="Roboto-Regular, Roboto" font-weight="400">TMS, WMS y </tspan></text><text transform="translate(1085.551 5952.5)" fill="#12263f" font-size="16" font-family="Roboto-Bold, Roboto" font-weight="700"><tspan x="0" y="17">Detalles: </tspan><tspan y="17" font-family="Roboto-Regular, Roboto" font-weight="400">Integridad del </tspan><tspan x="0" y="41" font-family="Roboto-Regular, Roboto" font-weight="400">producto y seguridad </tspan><tspan x="0" y="65" font-family="Roboto-Regular, Roboto" font-weight="400">de la cadena de </tspan></text><text transform="translate(610.051 5931)" fill="#12263f" font-size="16" font-family="Roboto-Bold, Roboto" font-weight="700"><tspan x="0" y="17">Detalles: </tspan><tspan y="17" font-family="Roboto-Regular, Roboto" font-weight="400">Uso de </tspan><tspan x="0" y="41" font-family="Roboto-Regular, Roboto" font-weight="400">tecnologías de </tspan><tspan x="0" y="65" font-family="Roboto-Regular, Roboto" font-weight="400">trazabilidad y </tspan><tspan x="0" y="89" font-family="Roboto-Regular, Roboto" font-weight="400">procedimientos </tspan><tspan x="0" y="113" font-family="Roboto-Regular, Roboto" font-weight="400">estandarizados.</tspan></text><g transform="translate(1081.898 5623)"><g clip-path="url(#i)"><g transform="translate(0 -0.002)"><g opacity="0.4" clip-path="url(#j)"><g transform="translate(0 15.514)" style="mix-blend-mode:multiply;isolation:isolate"><g clip-path="url(#k)"><g transform="translate(0 0.001)"><g clip-path="url(#l)"><rect width="173.108" height="173.108" transform="translate(0 -0.002)" fill="url(#m)"/></g></g></g></g><g transform="translate(18.938 0.002)" style="mix-blend-mode:multiply;isolation:isolate"><g transform="translate(0 0)"><g clip-path="url(#k)"><g transform="translate(0.003 0)"><g clip-path="url(#o)"><rect width="173.102" height="173.108" transform="translate(0 -0.002)" fill="url(#p)"/></g></g></g></g></g><g transform="translate(0 7.992)" style="mix-blend-mode:multiply;isolation:isolate"><g clip-path="url(#k)"><g transform="translate(0 0.002)"><g clip-path="url(#r)"><rect width="173.108" height="173.108" transform="translate(0 -0.002)" fill="url(#s)"/></g></g></g></g></g></g><g transform="translate(34.933 25.686)"><g clip-path="url(#t)"><rect width="134.533" height="134.533" transform="matrix(0.874, -0.486, 0.486, 0.874, -42.018, 23.364)" fill="url(#u)"/></g></g><g transform="translate(37.009 27.757)"><g clip-path="url(#v)"><rect width="132.933" height="132.933" transform="matrix(0.792, -0.611, 0.611, 0.792, -45.836, 35.355)" fill="url(#a)"/></g></g></g></g><g transform="translate(1132.934 5502.426)"><path d="M85.643,229.333,92.2,253.967c1.031,3.874-2.37,3.126-3.942,2.518-1.312-.507-6.553-2.545-6.553-2.545s-3.531,1.915-4.485,2.422c-2.079,1.1-4.2.83-5.112-1.811-.024-.069-2.264-7.667-4.372-14.816v-10.4Z" transform="translate(-34.272 -38.513)" fill="#f45558"/><g transform="translate(8.812 190.865)"><path d="M15.569,67.906,9,92.579c-1.032,3.88,2.374,3.131,3.948,2.522,1.314-.508,6.563-2.549,6.563-2.549s3.536,1.918,4.492,2.426c2.083,1.107,4.206.831,5.12-1.814.024-.069,2.268-7.679,4.379-14.84V67.906Z" transform="translate(-8.812 -67.906)" fill="#f45558"/><path d="M67.84,67.906V78.325c1.615,5.48,2.635,8.932,3.351,11.357,2.015-.4,3.918-3.851,5.845-4.487,2.043-.674,5.949,1.216,7.683-.057s1.107-5.565,2.364-7.311a4.027,4.027,0,0,1,1.079-.958l-2.385-8.963Z" transform="translate(-43.146 -67.906)" fill="#db375b"/><path d="M23.017,67.906c-.139.324-.3.655-.47.99l-1.285,4.828c.934,1.848,4.9,2.588,6.112,4.247,1.272,1.735.682,6.033,2.428,7.29s5.635-.667,7.684-.011a3.675,3.675,0,0,1,1.048.578c.831-2.817,1.147-3.883,2.214-7.5V67.906Z" transform="translate(-16.054 -67.906)" fill="#db375b"/></g><path d="M50.285,205.812c-1.732,1.27-5.631-.616-7.671.056s-4.052,4.509-6.2,4.518-4.194-3.809-6.239-4.464-5.928,1.266-7.672.011-1.154-5.546-2.424-7.278-5.54-2.46-6.213-4.5,2.326-5.165,2.317-7.313S13.147,181.6,13.8,179.55s4.918-2.811,6.173-4.555.628-6.029,2.36-7.3,5.631.616,7.671-.056,4.052-4.509,6.2-4.518,4.194,3.809,6.239,4.464,5.928-1.266,7.672-.011,1.154,5.546,2.424,7.278,5.54,2.46,6.213,4.5-2.326,5.165-2.317,7.313,3.036,5.247,2.381,7.293-4.918,2.811-6.173,4.555-.628,6.029-2.36,7.3Z" transform="translate(-2.848)" fill="#ffd54f"/><path d="M12.733,282v.443h.886V282Zm2.214,0v.443h.886V282Zm2.213,0v.443h.886V282Zm2.214,0v.443h.886V282Zm2.213,0v.443h.886V282Zm2.214,0v.443h.886V282Zm2.214,0v.443H26.9V282Zm2.213,0v.443h.886V282Zm2.214,0v.443h.886V282Z" transform="translate(-2.281 -69.148)" fill="#bf1d43" fill-rule="evenodd"/><path d="M62.311,200.3A13.893,13.893,0,1,1,48.418,186.4,13.893,13.893,0,0,1,62.311,200.3Z" transform="translate(-14.956 -13.543)" fill="#2196f3"/><path d="M70.582,53.827c-.617,1.19-2.255,2.476-2.6,3.569-.468,1.469.766,4.351-.476,5.265s-3.616-1.187-5.158-1.178c-1.1.007-2.728,1.1-4.024,1.391-.059.98,0,2.091.574,2.506,1.253.9,3.823-1.234,5.366-1.243s4.138,2.092,5.38,1.178.008-4.017.476-5.487,3.268-3.289,2.783-4.753c-.231-.7-1.329-1.012-2.318-1.249Z" transform="translate(-28.786 131.148)" fill="#2979ff"/><path d="M43.592,178.629l0,.443.878.006.01-.442Zm-1.347.075-.887.108.06.439.872-.106Zm3.585.03-.052.44.871.118.065-.438Zm-5.8.327-.863.225.119.427.851-.222Zm8.007.068-.111.428.846.235.125-.425Zm-10.151.579-.828.333.172.409.815-.328Zm12.288.1-.169.409.808.346.181-.4Zm-14.332.82-.776.44.225.382.764-.433Zm16.356.136-.217.386.758.445.229-.379Zm-18.261,1.044-.712.538.273.348.7-.529Zm20.146.168-.266.354.694.54.277-.346ZM32.2,183.229l-.636.627.316.31.626-.616Zm23.592.2-.31.316.617.625.32-.306Zm-25.129,1.435-.548.7.354.266.54-.693Zm26.639.222-.349.273.53.7.357-.261Zm-27.95,1.595-.453.768.384.22.448-.757Zm29.231.243-.382.225.434.764.389-.212Zm-30.293,1.729-.351.82.409.169.346-.808Zm31.325.262-.409.171.329.815.413-.159ZM27.5,190.746l-.239.86.429.111.235-.846Zm32.879.274-.427.119.223.85.43-.106Zm-33.393,1.907-.127.882.439.058.125-.87Zm33.871.284-.439.06.106.872.44-.046Zm-34.1,1.948-.007.892.442,0,.007-.878Zm34.285.286-.443,0-.011.984.442.014Zm-33.778,1.907-.44.046.107.887.439-.06Zm33.225.382-.127.869.437.071.128-.883Zm-32.879,1.775-.431.1.219.864.428-.114Zm32.483.373-.237.847.425.125.24-.86ZM28.234,201.6l-.413.158.333.829.409-.172Zm31.186.358-.347.807.4.181.353-.82Zm-30.293,1.633-.389.212.44.776.382-.224Zm29.353.337-.45.754.376.233.458-.766Zm-28.207,1.521-.357.261.538.712.349-.273Zm27.019.311-.546.689.342.28.554-.7Zm-25.64,1.383-.319.306.625.636.31-.315Zm24.222.279-.63.613.3.322.639-.622Zm-22.634,1.222-.278.344.7.551.269-.352Zm21.011.241-.7.529.262.356.712-.537Zm-19.241,1.039-.233.377.766.457.221-.383Zm17.445.2-.765.432.212.388.777-.439Zm-15.525.838-.181.4.82.352.167-.409Zm13.582.157-.815.327.158.413.829-.333Zm-11.544.623-.125.425.86.239.112-.429Zm9.489.109-.852.215.1.431.865-.218Zm-7.364.394-.07.437.883.127.057-.439Zm5.226.06-.872.1.046.44.887-.106Zm-3.056.165-.009.443.891.008,0-.443Z" transform="translate(-10.433 -9.02)" fill="#ff7377"/><path d="M78.217,282v.443H79.1V282Zm2.214,0v.443h.886V282Zm2.213,0v.443h.886V282Zm2.214,0v.443h.886V282Zm2.213,0v.443h.886V282Zm2.214,0v.443h.886V282Zm2.214,0v.443h.886V282Zm2.213,0v.443H94.6V282Zm2.214,0v.443h.886V282Z" transform="translate(-40.37 -69.148)" fill="#bf1d43" fill-rule="evenodd"/><path d="M61.014,213.981c-1.24.913-3.832-1.186-5.372-1.176s-4.106,2.139-5.357,1.241-.057-4.011-.541-5.472-3.3-3.244-2.836-4.711,3.8-1.293,5.037-2.206,2.065-4.144,3.6-4.153,2.4,3.212,3.654,4.109,4.579.683,5.063,2.145-2.312,3.278-2.779,4.745.765,4.566-.475,5.478Z" transform="translate(-22.129 -19.999)" fill="#d9defb"/></g><g transform="translate(600 5623)"><g clip-path="url(#i)"><g transform="translate(0 -0.002)"><g opacity="0.4" clip-path="url(#j)"><g transform="translate(0 15.514)" style="mix-blend-mode:multiply;isolation:isolate"><g clip-path="url(#k)"><g transform="translate(0 0.001)"><g clip-path="url(#l)"><rect width="173.108" height="173.108" transform="translate(0 -0.002)" fill="url(#m)"/></g></g></g></g><g transform="translate(18.938 0.002)" style="mix-blend-mode:multiply;isolation:isolate"><g transform="translate(0 0)"><g clip-path="url(#k)"><g transform="translate(0.003 0)"><g clip-path="url(#o)"><rect width="173.102" height="173.108" transform="translate(0 -0.002)" fill="url(#p)"/></g></g></g></g></g><g transform="translate(0 7.992)" style="mix-blend-mode:multiply;isolation:isolate"><g clip-path="url(#k)"><g transform="translate(0 0.002)"><g clip-path="url(#r)"><rect width="173.108" height="173.108" transform="translate(0 -0.002)" fill="url(#s)"/></g></g></g></g></g></g><g transform="translate(34.933 25.686)"><g clip-path="url(#t)"><rect width="134.533" height="134.533" transform="matrix(0.874, -0.486, 0.486, 0.874, -42.018, 23.364)" fill="url(#u)"/></g></g><g transform="translate(37.009 27.757)"><g clip-path="url(#v)"><rect width="132.933" height="132.933" transform="matrix(0.792, -0.611, 0.611, 0.792, -45.836, 35.355)" fill="url(#a)"/></g></g></g></g><g transform="translate(655.421 5672)"><path d="M6.319,206.888l-.207-5.545A5.865,5.865,0,0,0,5.1,198.256l-3.775-5.532a7.587,7.587,0,0,1-.11-8.387l6.508-10.1,4.25,14.641L10.261,207.1l-3.272.367a.6.6,0,0,1-.67-.577Z" transform="translate(0 -154.606)" fill="#f1d0a5"/><path d="M115.012,32.6a2.985,2.985,0,0,1-2.985,2.985H67.6A2.985,2.985,0,0,1,64.611,32.6V2.985A2.985,2.985,0,0,1,67.6,0h44.43a2.985,2.985,0,0,1,2.985,2.985Z" transform="translate(-57.332)" fill="#365e7d"/><path d="M472.519,2.985A2.985,2.985,0,0,0,469.534,0h-2.027a2.985,2.985,0,0,1,2.985,2.985V32.6a2.985,2.985,0,0,1-2.985,2.985h2.027a2.985,2.985,0,0,0,2.985-2.985Z" transform="translate(-414.839 0)" fill="#2b4d66"/><path d="M152.148,35.276H111.285a.167.167,0,0,0-.162.172v27.3a.167.167,0,0,0,.162.172h40.862a.167.167,0,0,0,.162-.172v-27.3A.167.167,0,0,0,152.148,35.276Z" transform="translate(-98.604 -31.302)" fill="#d3effb"/><path d="M458.2,35.276h-2.169a.167.167,0,0,1,.162.172v27.3a.167.167,0,0,1-.162.172H458.2a.167.167,0,0,0,.162-.172v-27.3A.167.167,0,0,0,458.2,35.276Z" transform="translate(-404.657 -31.302)" fill="#b1e4f9"/><g transform="translate(9.055 16.217)"><path d="M81.238,147.107a.87.87,0,0,1-.87-.87v-1.416a.87.87,0,1,1,1.741,0v1.416A.87.87,0,0,1,81.238,147.107Z" transform="translate(-80.368 -143.951)" fill="#2b4d66"/></g><path d="M71.726,252.879l.093-4.014a6.938,6.938,0,0,1,.386-2.126,5.828,5.828,0,0,0-1-5.626,1.044,1.044,0,0,1-.107-1.169l5.5-9.932a2.045,2.045,0,0,0-3.293-2.377l-9.145,9.917.6,6.911,2.431,9.435,4-.433a.6.6,0,0,0,.538-.586Z" transform="translate(-56.927 -201.407)" fill="#f1d0a5"/><path d="M100.422,230.022a2.044,2.044,0,0,0-3.044-2.6,2.04,2.04,0,0,1,.531,2.6l-5.5,9.933a1.044,1.044,0,0,0,.107,1.169,5.828,5.828,0,0,1,1,5.626,6.933,6.933,0,0,0-.386,2.126l-.064,2.769a2.024,2.024,0,0,1-1.805,1.965l-.045,0a.237.237,0,0,0-.2.294l4-.433a.6.6,0,0,0,.538-.586l.09-3.891a7.289,7.289,0,0,1,.387-2.244,5.829,5.829,0,0,0-1-5.631,1.044,1.044,0,0,1-.107-1.169Z" transform="translate(-80.756 -201.417)" fill="#f1b986"/><path d="M312.352,193.7H300.667a1.494,1.494,0,0,1-1.494-1.494v-3.75a1.494,1.494,0,0,1,1.494-1.494h11.685a1.494,1.494,0,0,1,1.494,1.494v3.75A1.494,1.494,0,0,1,312.352,193.7Z" transform="translate(-265.469 -165.903)" fill="#80e29d"/><path d="M397.924,186.965h-2.315a1.494,1.494,0,0,1,1.494,1.494v3.75a1.494,1.494,0,0,1-1.494,1.494h2.315a1.494,1.494,0,0,0,1.494-1.494v-3.75A1.494,1.494,0,0,0,397.924,186.965Z" transform="translate(-351.041 -165.902)" fill="#66b49d"/><g transform="translate(32.146 38.636)"><path d="M305.336,362a.687.687,0,0,0,.687-.687v-3.355a4.042,4.042,0,0,1,.6-2.14l1.728-2.761a5.147,5.147,0,0,0,.481-4.368l-.819-2.381-1.583-3.352h-11.7l-2.687,3.352-4.022-1.958a1.79,1.79,0,0,0-2.143.452,2.266,2.266,0,0,0,.024,2.986l5.215,5.646a3.591,3.591,0,0,1,.926,2.433v5.447a.687.687,0,0,0,.687.687h12.6Z" transform="translate(-285.339 -342.957)" fill="#f1d0a5"/></g><g transform="translate(50.655 38.571)"><path d="M454.628,348.181l-.819-2.381-1.583-3.352-1.84-.065,1.427,3.417.64,2.381a5.148,5.148,0,0,1-.481,4.368l-1.729,2.761a4.042,4.042,0,0,0-.6,2.14v4.042h1.488a.687.687,0,0,0,.687-.687V357.45a4.042,4.042,0,0,1,.6-2.14l1.728-2.761A5.147,5.147,0,0,0,454.628,348.181Z" transform="translate(-449.638 -342.384)" fill="#f1b986"/></g><g transform="translate(38.859 24.897)"><path d="M348.926,238.093V223.2a2.005,2.005,0,1,0-3.992,0v14.892h3.992Z" transform="translate(-344.934 -221.002)" fill="#f1d0a5"/><path d="M384.357,311.5v-6.438a1.422,1.422,0,0,0-1.5-1.334h-1a1.422,1.422,0,0,0-1.5,1.334V311.5Z" transform="translate(-376.374 -294.406)" fill="#f1d0a5"/><path d="M419.789,311.5v-6.438a1.422,1.422,0,0,0-1.5-1.334h-1a1.422,1.422,0,0,0-1.5,1.334V311.5Z" transform="translate(-407.815 -294.406)" fill="#f1d0a5"/><path d="M455.22,311.5v-6.438a1.422,1.422,0,0,0-1.5-1.334h-1a1.422,1.422,0,0,0-1.5,1.334V311.5Z" transform="translate(-439.254 -294.406)" fill="#f1d0a5"/></g><path d="M461.585,303.725h-1a1.653,1.653,0,0,0-.5.077,1.354,1.354,0,0,1,1,1.257V311.5h2v-6.438A1.422,1.422,0,0,0,461.585,303.725Z" transform="translate(-408.255 -269.509)" fill="#f1b986"/><g transform="translate(41.981 34.68)"><path d="M373.51,316.02a.87.87,0,0,1-.87-.87v-6.438a.87.87,0,0,1,1.741,0v6.438A.87.87,0,0,1,373.51,316.02Z" transform="translate(-372.64 -307.842)" fill="#f1b986"/></g><g transform="translate(45.972 34.68)"><path d="M408.942,316.02a.87.87,0,0,1-.87-.87v-6.438a.87.87,0,0,1,1.741,0v6.438A.87.87,0,0,1,408.942,316.02Z" transform="translate(-408.072 -307.842)" fill="#f1b986"/></g><g transform="translate(49.964 34.68)"><path d="M444.372,316.02a.87.87,0,0,1-.87-.87v-6.438a.87.87,0,0,1,1.741,0v6.438A.87.87,0,0,1,444.372,316.02Z" transform="translate(-443.502 -307.842)" fill="#f1b986"/></g><path d="M178.618,117.774a13.588,13.588,0,0,1-10.9,0,.942.942,0,0,1-.58-.868v-8.729H179.2v8.729a.942.942,0,0,1-.58.868Z" transform="translate(-148.312 -95.99)" fill="#4a80aa"/><path d="M179.652,108.176v8.04a.942.942,0,0,1-.58.868,13.508,13.508,0,0,1-9.636.465.943.943,0,0,0,.321.224,13.588,13.588,0,0,0,10.9,0,.942.942,0,0,0,.58-.868v-8.729h-1.581Z" transform="translate(-150.347 -95.989)" fill="#407093"/><path d="M155.572,68.173l-9.237,5.083a.21.21,0,0,1-.2,0l-9.237-5.083a.21.21,0,0,1,0-.368l9.237-5.083a.21.21,0,0,1,.2,0l9.237,5.083A.21.21,0,0,1,155.572,68.173Z" transform="translate(-121.376 -55.633)" fill="#365e7d"/><path d="M217.532,67.805l-9.237-5.083a.21.21,0,0,0-.2,0l-1.48.814,7.757,4.269a.21.21,0,0,1,0,.368l-7.757,4.269,1.48.814a.21.21,0,0,0,.2,0l9.237-5.083a.21.21,0,0,0,0-.368Z" transform="translate(-183.335 -55.633)" fill="#2b4d66"/><g transform="translate(23.871 11.486)"><path d="M215.626,110.408a.87.87,0,0,1-.87-.87V106.51l-2.657-3.119a.87.87,0,0,1,1.325-1.129l2.865,3.363a.871.871,0,0,1,.208.564v3.348A.87.87,0,0,1,215.626,110.408Z" transform="translate(-211.891 -101.956)" fill="#407093"/></g><g transform="translate(37.459 10.663)"><path d="M339.89,96.4h-6.517a.87.87,0,1,1,0-1.741h6.517a.87.87,0,0,1,0,1.741Z" transform="translate(-332.502 -94.655)" fill="#2b4d66"/></g><g transform="translate(37.459 14.657)"><path d="M344.533,131.842h-11.16a.87.87,0,0,1,0-1.741h11.16a.87.87,0,0,1,0,1.741Z" transform="translate(-332.503 -130.101)" fill="#2b4d66"/></g></g><g transform="translate(364 5623)"><g clip-path="url(#i)"><g transform="translate(0 -0.002)"><g opacity="0.4" clip-path="url(#j)"><g transform="translate(0 15.514)" style="mix-blend-mode:multiply;isolation:isolate"><g clip-path="url(#k)"><g transform="translate(0 0.001)"><g clip-path="url(#l)"><rect width="173.108" height="173.108" transform="translate(0 -0.002)" fill="url(#m)"/></g></g></g></g><g transform="translate(18.938 0.002)" style="mix-blend-mode:multiply;isolation:isolate"><g transform="translate(0 0)"><g clip-path="url(#k)"><g transform="translate(0.003 0)"><g clip-path="url(#o)"><rect width="173.102" height="173.108" transform="translate(0 -0.002)" fill="url(#p)"/></g></g></g></g></g><g transform="translate(0 7.992)" style="mix-blend-mode:multiply;isolation:isolate"><g clip-path="url(#k)"><g transform="translate(0 0.002)"><g clip-path="url(#r)"><rect width="173.108" height="173.108" transform="translate(0 -0.002)" fill="url(#s)"/></g></g></g></g></g></g><g transform="translate(34.933 25.686)"><g clip-path="url(#t)"><rect width="134.533" height="134.533" transform="matrix(0.874, -0.486, 0.486, 0.874, -42.018, 23.364)" fill="url(#u)"/></g></g><g transform="translate(37.009 27.757)"><g clip-path="url(#v)"><rect width="132.933" height="132.933" transform="matrix(0.792, -0.611, 0.611, 0.792, -45.836, 35.355)" fill="url(#a)"/></g></g></g></g><g transform="translate(418.119 5666.367)"><g transform="translate(9.932 5.635)"><g transform="translate(5.429 41.284)"><path d="M40.3,40.21a3.012,3.012,0,0,1-3.013,3.013H17.217a3.013,3.013,0,1,1,0-6.025H37.29A3.012,3.012,0,0,1,40.3,40.21Z" transform="translate(-14.187 -37.198)" fill="#5b5e8b"/><g transform="translate(2.147 6.025)"><path d="M37.708,44.534a2.6,2.6,0,0,1-2.6,2.6H18.467a2.6,2.6,0,0,1,0-5.21H35.111A2.6,2.6,0,0,1,37.708,44.534Z" transform="translate(-15.87 -41.92)" fill="#5b5e8b"/></g></g><g transform="translate(5.429 41.287)"><path d="M21.344,43.228H17.214a3.014,3.014,0,1,1,0-6.028h4.131a3.014,3.014,0,1,0,0,6.028Z" transform="translate(-14.187 -37.2)" fill="#312e4b"/><g transform="translate(2.149 6.028)"><path d="M22.6,47.125H18.466a2.6,2.6,0,0,1,0-5.2H22.6a2.6,2.6,0,0,0,0,5.2Z" transform="translate(-15.872 -41.925)" fill="#312e4b"/></g></g><g transform="translate(12.633 52.517)"><path d="M31.491,46v1.145a4.017,4.017,0,0,1-4.015,4.015H23.848a4.017,4.017,0,0,1-4.015-4.015V46Z" transform="translate(-19.834 -46.003)" fill="#5b5e8b"/></g><g transform="translate(12.634 52.514)"><path d="M24.843,46.925a2.546,2.546,0,0,0-2.2,3.9,1.165,1.165,0,0,0,.168.193,4.006,4.006,0,0,1-2.978-3.867V46h11.66v.925Z" transform="translate(-19.835 -46.001)" fill="#312e4b"/></g><g transform="translate(0.005 0.004)"><path d="M18.781,46.125H38.071A20.765,20.765,0,0,1,42.786,34.96,18.415,18.415,0,0,0,46.9,22.789a18.488,18.488,0,0,0-36.968.526,18.427,18.427,0,0,0,4.29,11.852,19.753,19.753,0,0,1,4.555,10.958Z" transform="translate(-9.936 -4.843)" fill="#fcb73e"/></g><path d="M18.787,46.126h3.659A19.76,19.76,0,0,0,17.9,35.162,18.469,18.469,0,0,1,30.25,4.941a10.089,10.089,0,0,0-1.074-.087A18.479,18.479,0,0,0,14.228,35.162a19.791,19.791,0,0,1,4.559,10.964Z" transform="translate(-9.932 -4.839)" fill="#fd982e"/></g><g transform="translate(14.816 10.12)"><circle cx="13.609" cy="13.609" r="13.609" fill="#e83d62"/><g transform="translate(3.183 3.183)"><circle cx="10.426" cy="10.426" r="10.426" fill="#deddff"/></g><g transform="translate(5.896 5.896)"><circle cx="7.714" cy="7.714" r="7.714" fill="#e83d62"/></g><g transform="translate(8.89 8.89)"><circle cx="4.719" cy="4.719" r="4.719" fill="#deddff"/></g></g><g transform="translate(28.095 1.953)"><g transform="translate(0 3.504)"><path d="M24.373,22.983a.736.736,0,0,1,.022-1.042L42.064,4.906a.737.737,0,0,1,1.02,1.064L25.415,23.005A.737.737,0,0,1,24.373,22.983Z" transform="translate(-24.168 -4.7)" fill="#5b5e8b"/></g><g transform="translate(15.602)"><path d="M43.536,5.984,40.2,9.115a.319.319,0,0,1-.231.083L36.7,8.977a.3.3,0,0,1-.288-.307L36.4,5.392a.319.319,0,0,1,.1-.226l3.334-3.131a.309.309,0,0,1,.52.224l.012,2.7a.3.3,0,0,0,.288.307l2.7.182a.309.309,0,0,1,.191.533Z" transform="translate(-36.397 -1.953)" fill="#65b9ff"/></g></g></g><g transform="translate(840.949 5623)"><g clip-path="url(#i)"><g transform="translate(0 -0.002)"><g opacity="0.4" clip-path="url(#j)"><g transform="translate(0 15.514)" style="mix-blend-mode:multiply;isolation:isolate"><g clip-path="url(#k)"><g transform="translate(0 0.001)"><g clip-path="url(#l)"><rect width="173.108" height="173.108" transform="translate(0 -0.002)" fill="url(#m)"/></g></g></g></g><g transform="translate(18.938 0.002)" style="mix-blend-mode:multiply;isolation:isolate"><g transform="translate(0 0)"><g clip-path="url(#k)"><g transform="translate(0.003 0)"><g clip-path="url(#o)"><rect width="173.102" height="173.108" transform="translate(0 -0.002)" fill="url(#p)"/></g></g></g></g></g><g transform="translate(0 7.992)" style="mix-blend-mode:multiply;isolation:isolate"><g clip-path="url(#k)"><g transform="translate(0 0.002)"><g clip-path="url(#r)"><rect width="173.108" height="173.108" transform="translate(0 -0.002)" fill="url(#s)"/></g></g></g></g></g></g><g transform="translate(34.933 25.686)"><g clip-path="url(#t)"><rect width="134.533" height="134.533" transform="matrix(0.874, -0.486, 0.486, 0.874, -42.018, 23.364)" fill="url(#u)"/></g></g><g transform="translate(37.009 27.757)"><g clip-path="url(#v)"><rect width="132.933" height="132.933" transform="matrix(0.792, -0.611, 0.611, 0.792, -45.836, 35.355)" fill="url(#a)"/></g></g></g></g><g transform="translate(893.051 5664)"><rect width="60" height="39" rx="2" transform="translate(2 9)" fill="#939393"/><path d="M6,13H58V40H6Z" fill="#f2f2f2"/><path d="M6,13H55V37H6Z" fill="#fff"/><path d="M43,54l-3-6H24l-3,6Z" fill="#474747"/><path d="M62,40v6a2,2,0,0,1-2,2H4a2,2,0,0,1-2-2V40Z" fill="#686868"/><path d="M20,54H44a4,4,0,0,1,4,4v4H16V58A4,4,0,0,1,20,54Z" fill="#686868"/><path d="M31,43h2v2H31Z" fill="#474747"/><path d="M53,35h2v2H53Z" fill="#3b5892"/><path d="M49,35h2v2H49Z" fill="#3b5892"/><path d="M45,35h2v2H45Z" fill="#3b5892"/><path d="M21,2H43V36H21Z" fill="#c8cded"/><path d="M21,2H40V31H21Z" fill="#e2e7f6"/><path d="M35,7H33V5H31V7H29V9h2v2h2V9h2Z" fill="#d23f34"/><path d="M28,13h8v2H28Z" fill="#9da1bf"/><path d="M24,17H40v2H24Z" fill="#9da1bf"/><path d="M24,21H40v2H24Z" fill="#9da1bf"/><path d="M24,25H40v2H24Z" fill="#9da1bf"/><path d="M24,29H40v2H24Z" fill="#9da1bf"/><path d="M38,13h2v2H38Z" fill="#9da1bf"/></g></g></g></svg>