<svg xmlns="http://www.w3.org/2000/svg" width="85" height="85" viewBox="0 0 85 85"><g transform="translate(-285 -4102.829)"><circle cx="42.5" cy="42.5" r="42.5" transform="translate(285 4102.829)" fill="#e3e230"/><g transform="translate(251.027 4119.951)"><g transform="translate(58.48)"><g transform="translate(0)"><path d="M94.277,0H60.761A2.281,2.281,0,0,0,58.48,2.281v44.1a2.281,2.281,0,0,0,2.281,2.281h3.548v4.951a1.141,1.141,0,0,0,2.008.741l2.51-2.92,2.51,2.92a1.141,1.141,0,0,0,2.008-.741V48.664H94.277a2.281,2.281,0,0,0,2.281-2.281V2.281A2.281,2.281,0,0,0,94.277,0ZM69.694,48.9a1.141,1.141,0,0,0-1.734,0l-1.369,1.6V46.166a6.343,6.343,0,0,0,4.472,0V50.5ZM72.967,40.1a4.186,4.186,0,0,1-4.141,4.187h-.046A4.187,4.187,0,1,1,72.967,40.1ZM94.22,46.371H73.344V44.717a6.468,6.468,0,1,0-9.146-.112l.112.112v1.654H60.761V2.281H94.277Z" transform="translate(-58.48)" fill="#89821e"/></g></g><g transform="translate(66.465 9.023)"><path d="M135.447,63.28H115.621a1.141,1.141,0,0,0,0,2.281h19.826a1.141,1.141,0,1,0,0-2.281Z" transform="translate(-114.48 -63.28)" fill="#89821e"/></g><g transform="translate(66.465 15.583)"><path d="M135.447,109.28H115.621a1.141,1.141,0,0,0,0,2.281h19.826a1.141,1.141,0,1,0,0-2.281Z" transform="translate(-114.48 -109.28)" fill="#89821e"/></g><g transform="translate(66.465 22.142)"><path d="M135.447,155.28H115.621a1.141,1.141,0,1,0,0,2.281h19.826a1.141,1.141,0,1,0,0-2.281Z" transform="translate(-114.48 -155.28)" fill="#89821e"/></g><g transform="translate(66.465 28.701)"><path d="M135.447,201.28H115.621a1.141,1.141,0,1,0,0,2.281h19.826a1.141,1.141,0,1,0,0-2.281Z" transform="translate(-114.48 -201.28)" fill="#89821e"/></g><g transform="translate(77.234 35.26)"><g transform="translate(0)"><path d="M200.2,247.28h-9.058a1.141,1.141,0,1,0,0,2.281H200.2a1.141,1.141,0,1,0,0-2.281Z" transform="translate(-190 -247.28)" fill="#89821e"/></g></g></g></g></svg>