<svg xmlns="http://www.w3.org/2000/svg" xmlns:xlink="http://www.w3.org/1999/xlink" width="384" height="600" viewBox="0 0 384 600"><defs><clipPath id="a"><rect width="384" height="600" transform="translate(931.051 3951)" fill="#fff" stroke="#707070" stroke-width="1"/></clipPath><clipPath id="b"><rect width="383.589" height="654.533" fill="none"/></clipPath></defs><g transform="translate(-931.051 -3951)" clip-path="url(#a)"><g transform="translate(931.411 3951.467)"><g clip-path="url(#b)"><path d="M247.405,106.369c-1.39-6.225-5.032-11.641-8.28-17.021-3.7-6.122-6.557-12.513-7.611-19.642-1.046-7.066.651-14.488-2.111-21.253-2.915-7.137-9.021-12.117-14.377-17.38-3.295-3.238-2.647-7.011-5.726-10.489C200.667,10.829,199.594,5.672,192.04,2.2c-7.99-3.675-16.988-2.361-24.789,1.156-8.715,3.928-16.241,10.358-23.781,16.187a132.814,132.814,0,0,0-22.377,16.55A92.068,92.068,0,0,0,108.11,50.147c-3.224,4.529-6.451,11.1-3.831,16.625,1.423,3.006,4.213,4.961,6.658,7.075,4.24,3.667,9.064,8.264,9.574,14.2.563,6.58-3.938,12.792-8.058,17.454-3.381,2.6-6.7,5.287-9.84,8.179-4.39,4.046-9.349,8.728-11.257,14.555-1.737,5.306-.161,10.8,4.531,13.942a14.319,14.319,0,0,0,5.065,2.1,20.675,20.675,0,0,0,7.54,4.368c8.675,2.869,18.316.327,26.292-3.472,3.488-1.661,6.943-4.659,11.053-3.854,3.575.7,6.311,3.87,9.38,5.618,2.949,1.68,6.185,1.6,9.458,1.166a52.617,52.617,0,0,0,9.737-2.281,1.316,1.316,0,0,0,.649.251c7.133.773,14.593,1.131,21.382-1.6a22.591,22.591,0,0,0,7.406-4.7c2.2-2.152,3.533-5.427,6.355-6.867,3.066-1.565,6.889-.7,10.1-.184a29.068,29.068,0,0,0,9.115.353,21.942,21.942,0,0,0,14.84-9.375,22.374,22.374,0,0,0,3.145-17.323M97.737,140.3c-.186-.112-.375-.218-.558-.341-5.139-3.455-4.631-9.779-1.67-14.538a35.283,35.283,0,0,1,4.04-5.212,24.392,24.392,0,0,0-3.8,9.91A15.73,15.73,0,0,0,97.737,140.3m8.417-75.8c-1.086-3.991,1.108-8.391,3.235-11.686A24.246,24.246,0,0,0,108.349,61a26.323,26.323,0,0,0,2.061,9.137c-1.872-1.57-3.622-3.3-4.256-5.636" transform="translate(40.999 0)" fill="#914840"/><path d="M92.54,493.39l2.636,32.841a1.031,1.031,0,0,0,1.062.924l72.077-.879a1.022,1.022,0,0,0,1.035-1.014q-.621-37.087,1.24-74.161a1.36,1.36,0,0,1,2.7-.154l8.622,52.336q1.823,11.074,3.648,22.146a1.038,1.038,0,0,0,1.027.845l75.574.868a.993.993,0,0,0,.492-1.889c-.007,0-2.055-115.712-4.229-139.939q-3.374-37.6-6.25-75.246-.921-12.085-1.792-24.177a3.1,3.1,0,0,0-.2-.908,2.855,2.855,0,0,0-3.019-3.283q-51.823.93-103.645,1.86l-29.485.529a3.242,3.242,0,0,0-1.641.444,1.028,1.028,0,0,1-.468.151,2.608,2.608,0,0,0-2.476,2.141q-5.729,25.9-11.461,51.788c-3.723,16.829-7.866,33.648-10.013,50.744-2.164,17.237-1.018,34.418.366,51.666q2.1,26.185,4.2,52.369" transform="translate(39.234 127.379)" fill="#f5dac8"/><path d="M116.82,308.952a1.351,1.351,0,0,1,.456-.868c4.3-.16,8.607-.26,12.769-.359,6.927-.163,14.089-.331,21.2-.773a.412.412,0,1,0-.051-.823c-7.1.441-14.25.61-21.168.773-4.165.1-8.472.2-12.765.359-.732,0-1.266,1.112-1.266,1.677-.7,20.153-1.384,40.6-2.043,60.37-1.6,48.05-3.256,97.605-5.335,146.529l.825-.01c2.081-48.914,3.734-98.455,5.334-146.491.659-19.771,1.342-40.217,2.045-60.383" transform="translate(49.114 138.425)" fill="#212540"/><path d="M171.547,306.31a.412.412,0,0,0-.367.453l22.459,208.9.828.01L172,306.676a.409.409,0,0,0-.452-.366" transform="translate(77.403 138.506)" fill="#212540"/><path d="M180.087,53.678c-1.072-.826-2.772-.446-3.8.293a6.49,6.49,0,0,0-1.586,1.772,32.51,32.51,0,0,0-4.955,17.436,27.9,27.9,0,0,0,.652,5.312c.215.97.37,2.44,1.32,3.173,3.349,2.588,5.9-6.119,6.42-7.559a60.965,60.965,0,0,0,3-12.554c.3-2.226,1.173-6.156-1.053-7.874" transform="translate(76.752 24.061)" fill="#fcb48b"/><path d="M123.257,62.025a60.966,60.966,0,0,0,3,12.554c.517,1.439,3.071,10.146,6.42,7.559.95-.735,1.105-2.2,1.319-3.173a27.9,27.9,0,0,0,.653-5.312A32.51,32.51,0,0,0,129.7,56.216a6.454,6.454,0,0,0-1.587-1.772c-1.027-.741-2.727-1.12-3.8-.293-2.226,1.718-1.352,5.648-1.053,7.874" transform="translate(55.544 24.275)" fill="#fcb48b"/><path d="M222.885,138.467c-7-5.921-13.852-12.322-21.147-17.709-6.873-5.077-15.031-7.161-22.962-8.327a50.466,50.466,0,0,0-12.682-.6c-3.632.394-15.425,4.83-18.63,6.862-7.214,4.576-6.567,3.967-14.08,7.83-8.312,4.271-15.959,10.46-23.726,16.051-.3-.171-.574.118-.6.433-.009.009-.022.016-.031.023-.469.343-.039,1.227.43.881.08-.057.16-.11.24-.168,6.156,3.967,13.01,5.608,19.854,6.965,7.734,1.532,15.486,3.063,23.3,3.927,15.824,1.75,31.411-.578,46.757-5.279,4.233-1.3,8.434-2.74,12.608-4.284,3.71-1.372,7.365-2.883,10.533-5.64a.591.591,0,0,0,.144-.964" transform="translate(49.207 50.483)" fill="#fcb48b"/><path d="M131.151,72.7c-.048-.094-.094-.19-.142-.285a3.08,3.08,0,0,0-4.086-1.072,3.021,3.021,0,0,0-1.374,1.785c-.035.266-.071.53-.106.794a2.965,2.965,0,0,0,.408,1.507c.046.1.094.19.142.285a2.871,2.871,0,0,0,2.976,1.426,2.207,2.207,0,0,0,1.111-.354A3.013,3.013,0,0,0,131.451,75c.036-.264.071-.53.107-.794a2.973,2.973,0,0,0-.408-1.507" transform="translate(56.722 32.076)" fill="#fcf7f7"/><path d="M176.328,72.89a3,3,0,0,0-2.111-.874,3.109,3.109,0,0,0-2.113.874l-.142.142a3.081,3.081,0,0,0-.874,2.111,3.041,3.041,0,0,0,.874,2.113,3,3,0,0,0,2.113.874,3.109,3.109,0,0,0,2.111-.874l.142-.142A3.081,3.081,0,0,0,177.2,75a3.04,3.04,0,0,0-.874-2.111" transform="translate(77.362 32.563)" fill="#fcf7f7"/><path d="M176.427,80.251A4.811,4.811,0,0,0,173.2,79l-18.78-.469c-4.98-.125-10.042-.113-14.141,2.884a5.543,5.543,0,0,0-2.055,1.907,4.791,4.791,0,0,0-.706,4.772q.969,23.909.035,47.839a5.273,5.273,0,0,0,3.029,4.831,4.468,4.468,0,0,0,4.322,2.493,150.558,150.558,0,0,0,16.966-1.462c4.217-.6,8.71-.942,11.575-3.893,1.809-.651,3.405-5.752,3.487-8.309.513-16.044,1.234-28.575,2.4-44.579a5.125,5.125,0,0,0-2.906-4.763" transform="translate(62.029 35.493)" fill="#fcb48b"/><path d="M196.308,71.946c0,31.973-14.786,64.3-34.707,63.155-24.749-1.423-35.282-38.412-35.282-70.384s15.329-45.4,35.282-45.4,34.707,20.656,34.707,52.628" transform="translate(57.119 8.735)" fill="#fcb48b"/><path d="M163.085,55.1c-4.126-.052-3.741,8.128-2.544,10.209a1.938,1.938,0,0,0,2.656.8c2.106-1.13,2.059-4.406,2.133-6.407.057-1.5.057-4.577-2.245-4.606" transform="translate(72.227 24.913)" fill="#20131f"/><path d="M164.087,81.53c-6.827,1.365-13.9-.372-20.634,1.638-.516-.212-.736.613-.234.819,3.4,1.4,6.763,3.434,10.559,3.357,3.689-.076,7.46-3.125,10.393-4.9a.377.377,0,0,0,.1-.089l.046-.007c.539-.107.311-.931-.227-.823" transform="translate(64.633 36.862)" fill="#ce5d4e"/><path d="M166.287,45.466c-3.349-.4-10.441.321-11.292,5.344a.633.633,0,0,0,.137.53,2.37,2.37,0,0,0,1.785,2.013c2.162.652,4.9-.9,7.027-1.224a48.718,48.718,0,0,1,9.814-.182.462.462,0,0,0,.417-.288c1.529-4.249-5.658-5.928-7.887-6.194" transform="translate(70.081 20.517)" fill="#914840"/><path d="M130.526,52.286a.46.46,0,0,0,.415.288,48.624,48.624,0,0,1,9.815.182c2.127.328,4.863,1.876,7.027,1.224a2.372,2.372,0,0,0,1.785-2.013.638.638,0,0,0,.135-.53c-.85-5.023-7.942-5.743-11.291-5.344-2.229.266-9.416,1.944-7.887,6.194" transform="translate(58.925 20.8)" fill="#914840"/><path d="M138.97,55.773c-4.081.195-3.2,8.44-1.891,10.473a1.9,1.9,0,0,0,2.675.653c2.01-1.266,1.764-4.577,1.716-6.6-.036-1.523-.224-4.631-2.5-4.522" transform="translate(61.49 25.218)" fill="#20131f"/><path d="M199.827,66.835c-3.326-4.357-7.117-8.359-9.865-13.132a43.422,43.422,0,0,1-5.422-16.215c-.2-1.613-2.766-1.634-2.56,0a47.284,47.284,0,0,0,3.893,13.865,59.271,59.271,0,0,0,8.466,12.712c5.967,7.283,14.205,18.068,7.09,27.379-1,1.308,1.223,2.585,2.21,1.292,6.3-8.241,1.695-18.687-3.812-25.9" transform="translate(82.282 16.401)" fill="#914840"/><path d="M164.264,81.793a12.465,12.465,0,0,1-3.1-.221,20.879,20.879,0,0,0-3.758-1.038,5.5,5.5,0,0,0-3.192.684c-1.34.672-2.81-.459-4.221-.145a21.283,21.283,0,0,0-3.9,1.545c-.675.3-2.367.356-3.057.616-.216.083-.755,1.044.465,1.107.1.006.2,0,.308,0a.43.43,0,0,0,.195.074,49.677,49.677,0,0,0,20.034-1.663c.086-.009.173-.013.261-.025a.47.47,0,1,0-.035-.938" transform="translate(64.539 36.405)" fill="#ce5d4e"/><path d="M153.489,44.036c-1.924,10.944-15.72,13.62-22.984,19.946-8.694,7.573-9.234,19.6-8.224,30.272.155,1.635,2.66,1.1,2.506-.53-.566-5.973-.745-12.171,1.118-17.953a23.12,23.12,0,0,1,10.518-12.9c7.763-4.743,17.844-8.575,19.62-18.675.285-1.619-2.273-1.763-2.556-.155" transform="translate(55.125 19.399)" fill="#914840"/><path d="M149.478,82.435c-3.594-7.063-1.975-15.512-1.263-23.055.052-.546-.8-.543-.852,0-.732,7.742-2.306,16.243,1.38,23.486.248.489.985.058.736-.431" transform="translate(66.197 26.666)" fill="#e6795e"/><path d="M152.816,75.149a22.4,22.4,0,0,0-3.25-2.649c-.456-.308-.884.431-.43.736a21.128,21.128,0,0,1,3.076,2.517c.392.385,1-.218.6-.6" transform="translate(67.349 32.75)" fill="#e6795e"/><path d="M193.966,20.277c-3.574-6.3-10.279-8.516-17.2-7.6-7.358.97-14.631,4.065-21.235,7.345a108.929,108.929,0,0,0-19.289,12.365c-5.311,4.224-12.114,9.281-14.268,16.025a12.66,12.66,0,0,0,.818,9.115c1.459,3.327,3.764,6.5,3.575,10.3-.195,3.915-2.6,7.383-4.736,10.512a60.152,60.152,0,0,0-5.828,9.927c-2.74,6.314-5.531,14.853-1.427,21.112,2.6,3.957,4.686,7.463,4.839,12.351.129,4.094-1.329,3.806.391,7.675,2.759,6.205,13.1,7.068,18.184,2.254,9.55-9.035-13.087-21.748-8.909-41.769A27.669,27.669,0,0,1,136.564,76.1a21.166,21.166,0,0,1,5.714-4.1c2.5-1.194,5.167-1.507,7.813-2.2a12.976,12.976,0,0,0,8.89-7.643c2.109-4.667,2.174-10,4.471-14.586,5.2-10.373,21.219-13.038,29.319-2.859.635.8.253-2.521.59-3.212a1.169,1.169,0,0,0,.346-.463c2.859-6.591,3.954-14.249.258-20.763" transform="translate(50.779 5.642)" fill="#914840"/><path d="M204.415,120.1c-2.222-5.345-5.8-9.756-8.584-14.773-6.561-11.816-.228-26.239,2.9-38.137,2.643-10.065,4.078-21.958-1.84-31.206-3.516-5.494-9.3-8.842-14.2-12.942A100.028,100.028,0,0,1,168.431,8.306a1.1,1.1,0,0,0-.622-.742A3.045,3.045,0,0,0,163.4,9.955c-.248,1.473.317,3.051.637,4.47q.634,2.788,1.165,5.6a157.011,157.011,0,0,1,2.575,23.188c0,.025.009.046.01.071a1.321,1.321,0,0,0,.144,1.483c5,6.169,8.678,13.79,8.115,21.9-.566,8.153-5.584,15.849-4.975,24.092.276,3.738,2.236,6.26,4.329,9.2,2.48,3.492,2.771,7.3,1.51,11.352-2.329,7.48-8.7,13.328-8.892,21.536-.245,10.639,10.872,15.156,19.819,15.714a17.688,17.688,0,0,0,17.918-11.16c2.139-5.633.906-11.908-1.336-17.3" transform="translate(73.856 3.264)" fill="#914840"/><path d="M130.361,74.881q-1.229-6.112-2.271-12.259c-.091-.54-.915-.312-.823.227q1.041,6.147,2.271,12.259c.109.539.931.311.823-.227" transform="translate(57.544 28.177)" fill="#e6795e"/><path d="M131.26,88.976c-2.241-3.427-4.669-6.577-5.77-10.6a41.083,41.083,0,0,1-1.009-11.867.427.427,0,0,0-.854,0c-.166,6.817.494,13.221,4.288,19.054,4.02,6.18,9.253,13.171,5.674,20.847-.231.5.505.928.738.431,2.859-6.133.4-12.557-3.067-17.862" transform="translate(55.891 29.886)" fill="#692922"/><path d="M174.833,73.354c-.215-.5-.95-.07-.736.431,2.13,5,.662,9.31-2.026,13.675a19.321,19.321,0,0,0-3,10.438.426.426,0,0,0,.852,0,17.836,17.836,0,0,1,1.5-7.444c1.022-2.284,2.675-4.22,3.633-6.535a13.58,13.58,0,0,0-.219-10.566" transform="translate(76.449 33.068)" fill="#692922"/><path d="M130.9,26.122C125.634,30.5,117.954,37.3,118.991,44.948c.581,4.285,3.109,7.971,3.472,12.342a19.827,19.827,0,0,1-3.4,12.667c-.306.457.433.886.738.431,4.355-6.49,4.2-13.661,1.477-20.723a17.449,17.449,0,0,1-1.547-6.3,12.574,12.574,0,0,1,2.429-6.75,47.5,47.5,0,0,1,9.342-9.894c.423-.351-.184-.953-.6-.6" transform="translate(53.762 11.764)" fill="#692922"/><path d="M189.3,86.69c-5.672-9.978-4.248-21.645-1.515-32.291a.427.427,0,0,0-.823-.228c-2.791,10.872-4.185,22.772,1.6,32.95a.428.428,0,0,0,.738-.431" transform="translate(83.447 24.358)" fill="#692922"/><path d="M180.778,22.889A24.256,24.256,0,0,0,162.154,9.26c-9.619-1.3-18.618,4.312-26.187,9.567-.447.311-.022,1.051.431.736,7.238-5.025,15.843-10.505,25.04-9.536a23.431,23.431,0,0,1,18.6,13.293c.229.5.966.064.736-.431" transform="translate(61.396 4.101)" fill="#692922"/><path d="M137.774,23.7c-.109.055-.216.116-.319.182a.388.388,0,0,0-.2.395c-.783.8-2.011,1.468-2.811,2.162a35.883,35.883,0,0,0-2.7,2.575,22.445,22.445,0,0,0-4.047,5.9c-.231.494.505.928.736.43a22.916,22.916,0,0,1,4.862-6.7c.892-.871,1.83-1.692,2.791-2.485a11.838,11.838,0,0,0,2.268-1.882c.261-.369-.235-.771-.584-.584" transform="translate(57.723 10.697)" fill="#692922"/><path d="M287.27,345.027c1.761-8.533-1.531-27.44-4.547-41.75-2.977-14.125-20.361-106.427-45.858-149.419-3.2-5.393-14.244-12.033-14.623-12.017-1.2-.854-3.953,1.387-5.539,1.563-3.349.369-2.877.729-3.706,3.874-1.057,4.015-.729,8.553-.835,12.664q-.187,7.234-.229,14.474c-.121,19.308.463,38.612,1.3,57.9.414,9.475.8,18.963,1.417,28.428.588,8.961,1.577,18.008,4.243,26.618,4.871,15.726,15.212,29.106,27.151,40.176a254.34,254.34,0,0,0,22.875,18.38c3.458,2.533,7.248,6.223,11.719,6.6,2.859.245-6.467,6.491-5.266,4.063,1.213.051,11.578-10.032,11.893-11.559" transform="translate(95.824 64.05)" fill="#c27d60"/><path d="M182.415,36.236c-1.773-5.81-7.708-10.992-13.865-7.508a.427.427,0,0,0,.43.736c5.675-3.211,11.006,1.735,12.612,7,.16.524.985.3.823-.227" transform="translate(76.12 12.481)" fill="#692922"/><path d="M174.352,307.605c-6.866,0-12.47-.3-17.977-.591-2.72-.144-5.531-.293-8.455-.405a.413.413,0,0,1,.016-.825c2.945.113,5.759.263,8.482.407a269.41,269.41,0,0,0,40.137-.338.412.412,0,0,1,.064.822c-8.983.693-16.129.931-22.268.931" transform="translate(66.707 138.269)" fill="#212540"/><path d="M149.877,443.9a.412.412,0,0,1-.414-.412v-19.9a5.532,5.532,0,0,1-3.286-1.259c-3.211-2.428-7.278-9.288-8.434-28.175-.62-10.155-.006-100.489,0-101.4a.412.412,0,1,1,.823.006c-.006.911-.62,91.217,0,101.345,1.139,18.575,5.036,25.245,8.109,27.568a4.185,4.185,0,0,0,3.113,1.072.416.416,0,0,1,.346.081.409.409,0,0,1,.155.321v20.341a.412.412,0,0,1-.412.412" transform="translate(62.159 132.191)" fill="#212540"/><path d="M146.14,423.558a.414.414,0,0,1-.412-.423l3.119-130.39a.413.413,0,0,1,.825.019l-3.119,130.391a.413.413,0,0,1-.412.4" transform="translate(65.895 132.191)" fill="#212540"/><path d="M229.164,294.773c-3.134-1.971-6.609-2.257-10.087-2.618q-6.3-.651-12.617-1.1-12.416-.876-24.863-.95t-24.871.652q-2.947.174-5.894.391c-1.791.134-4.1-.134-5.79.677-2.071.995-2.384,4.611.055,5.284a1.271,1.271,0,0,0,.879-.057q8.151,7.92,16.3,15.843c5.148,5,10.209,10.3,15.888,14.484,2.367,1.746,4.813,2.849,7.5,1.387,2.912-1.583,5.492-4.471,8.131-6.6a174.292,174.292,0,0,1,17.153-12.217c6.156-3.841,13.54-6.51,18.517-12.435a1.947,1.947,0,0,0-.3-2.743" transform="translate(64.832 131.177)" fill="#fcf7f7"/><path d="M185.747,283.35c-11.19-3.389-23.161-.761-34.424.81-6,.838-11.994,1.812-17.937,3.157-4.911,1.111-10.3,2.434-14.513,6.022-4.577,3.895-4.387,9.975-3.677,16.253.369,3.272-3.574,4.741-2.794,7.9.723,2.923,6.072,8.455,7.48,10.983,1.211,2.17,2.65,1.574,4.271.558,2.743-1.722,5.456-3.526,8.179-5.295q7.8-5.069,15.579-10.2,18.147-11.965,36.164-24.246a1.806,1.806,0,0,0,.717-1.8l.956-.494c1.249-.646,1.579-3.169,0-3.646" transform="translate(50.779 127.378)" fill="#fcf7f7"/><path d="M141.114,307.15c-1.849,0-3.018-.041-3.047-.042a.41.41,0,0,1-.4-.427.406.406,0,0,1,.427-.4,116.092,116.092,0,0,0,14.25-.5.412.412,0,1,1,.087.819,111.358,111.358,0,0,1-11.321.545" transform="translate(62.252 138.269)" fill="#212540"/><path d="M251.089,376a4.349,4.349,0,0,0-1.316-1.924q-1.878-47.828-4.378-95.632c-1.577-30.082-2.127-60.623-8.164-90.3-3.269-16.077-8.511-31.811-16.646-46.374a3.978,3.978,0,0,0-4.766-1.9c-.649-.365-1.515-.054-2.177-.479a55.04,55.04,0,0,0-26.524-8.6,25.929,25.929,0,0,1-6.686,11.893c-3.195,3.3-8.71.716-8.828-3.657,0-.176-.1-1.019-.094-1.1-.032-.028-.067-.052-.1-.081a12.139,12.139,0,0,1-3.378-5.7,114.747,114.747,0,0,0-25.416,8.431c-.617.283-1.275.086-1.793.274a5.423,5.423,0,0,0-4,1.131c-10,7.564-10.787,21.572-12.8,32.458q-3.877,20.931-7.389,41.917-7.016,41.943-12.577,84.08-2.756,20.85-5.139,41.74a82.873,82.873,0,0,0-4.654,18.992c-.269,2.763-.558,5.98.562,8.654.01.051.016.1.028.15,1.374,5.826,7.65,10.238,14.1,9.769a5.5,5.5,0,0,0,2.766-.957c4.436.308,9.108-.536,13.549-1.22,8.289-1.279,16.476-3.068,24.612-5,9.994-2.379,19.943-5,29.99-7.206a446.786,446.786,0,0,1,58.482,15.778c.036.013.076.02.113.032a9.76,9.76,0,0,0,7.792,1.551,4.261,4.261,0,0,0,2.7-1.969A4.149,4.149,0,0,0,251.089,376" transform="translate(42.514 59.142)" fill="#7178ad"/><path d="M168.361,153.925a172.162,172.162,0,0,1-37.565-4.59.412.412,0,1,1,.2-.8c.319.081,32.291,8.164,57.007,2.631a.412.412,0,0,1,.18.8,91.917,91.917,0,0,1-19.827,1.953" transform="translate(59.003 67.159)" fill="#212540"/><path d="M65.87,297.343c.038-.242,3.842-3.864-1.92-.089-.608.4,1.516-9.429-2.56-3.055-.241-1.3-3.787,2.79-5.052,3.267-8.137,3.08-15.4,7.837-22.435,12.888a2.294,2.294,0,0,0-.7,3.007c-.116.049-.232.1-.35.145-2.769,1.153-.051,5.216.931,5.043,7.71-1.356,21.606-9.515,28.832-12.522.714-.3,1.989-.685,2.19-1.269,1.685-1.615.873-5.161,1.067-7.416" transform="translate(14.307 132.056)" fill="#212540"/><path d="M154.639,294.922a.412.412,0,0,1-.132-.8l41-13.929a.412.412,0,1,1,.264.78l-41,13.931a.42.42,0,0,1-.132.022" transform="translate(69.738 126.686)" fill="#212540"/><path d="M188.263,136.534c-1.073-2.589-5.036-1.836-7.724-1.793-3.568.058-7.383-.176-10.9.4a9.508,9.508,0,0,0-3.978,1.519c-1.111.8-1.75,2.048-3,2.707-3.211,1.683-7.079-2.457-9.464-3.735a26.118,26.118,0,0,0-9.125-2.8c-2-.241-6.973-.855-8.426.635a8.442,8.442,0,0,0-1.073,2.088l-1.227,2.409q-1.231,2.409-2.457,4.82c-.322.63.081,1.1.688,1.3a1.52,1.52,0,0,0,.773.412,160.78,160.78,0,0,0,56.635,3.019c.592-.073,1.149-.667,1.1-1.134-.357-3.179-.552-6.806-1.812-9.854" transform="translate(59.131 59.917)" fill="#fcf7f7"/><path d="M127.039,282.786a.412.412,0,0,1-.038-.822l61.125-5.761a.4.4,0,0,1,.449.372.411.411,0,0,1-.37.449l-61.127,5.761h-.039" transform="translate(57.258 124.892)" fill="#212540"/><path d="M247.7,157.959q-24.85-14.006-50.684-26.157a5.6,5.6,0,0,1-.722-.444c-7.884-5.367-26.965-18.44-30.141-20.168-.118-.064-.134-.231-.195-.349-.051.016-.1.029-.151.048-1.836.736-1.606.728-1.432,2.678,2.928,32.722,4.526,67.4,6.79,100.17q6.073,87.867,8.986,175.915c1.815,54.881,1.4,111.233,1.377,166.144a3.663,3.663,0,0,0,5.022,3.41c2.628-1.059,48.4-25.956,53.25-28.874a8.85,8.85,0,0,0,4.248-6.715c4.314-43.275-.675-254.165-2.135-290.247q4.964-34.591,7.36-69.485a4.387,4.387,0,0,0-.058-1.076,4.035,4.035,0,0,0-1.515-4.85" transform="translate(74.275 50.12)" fill="#c27d60"/><path d="M231.69,359.663a.412.412,0,0,1-.363-.216c-.4-.386-3.386-2.248-6.832-4.4-9.211-5.74-24.625-15.35-26.777-19.05-1.242-2.136-2.332-19.684-2.325-24.372,0-.369,0-.743-.007-1.121-.032-2.657-.064-5.4,1.6-6.59,1.063-.758,2.644-.748,4.833.035,3.625,1.3,12.2,8.275,22.136,16.356,2.533,2.061,5.152,4.191,7.824,6.339a.409.409,0,0,1,.152.318c.1,11.494.158,22.356.174,32.286a.412.412,0,0,1-.411.412Zm-32.742-55.479a2.519,2.519,0,0,0-1.487.4c-1.31.935-1.281,3.463-1.252,5.909,0,.382.009.761.009,1.133-.007,5.03,1.136,22.1,2.213,23.957,2.049,3.523,17.355,13.064,26.5,18.764,3.683,2.3,5.475,3.426,6.346,4.034-.017-9.635-.076-20.132-.17-31.217-2.621-2.107-5.19-4.2-7.675-6.22-9.875-8.033-18.4-14.97-21.893-16.218a7.952,7.952,0,0,0-2.591-.545" transform="translate(88.345 137.171)" fill="#212540"/><path d="M208.8,239.952a.442.442,0,0,1-.087-.009.413.413,0,0,1-.317-.489c.19-.887.282-1.626.447-2.968.392-3.158,1.121-9.041,4.259-26.316,5.295-29.148,15.383-59.252,15.485-59.552a.412.412,0,1,1,.78.264c-.1.3-10.17,30.349-15.453,59.435-3.135,17.253-3.861,23.12-4.252,26.271-.164,1.32-.263,2.116-.46,3.039a.411.411,0,0,1-.4.325" transform="translate(94.23 67.979)" fill="#212540"/><path d="M175.859,323.323a.393.393,0,0,1-.092-.01.412.412,0,0,1-.311-.494L207.929,180.3a2.315,2.315,0,0,0-1.77-2.716l-24.948-5.668a2.684,2.684,0,0,1-1.239-4.579l28.114-26.286a.662.662,0,0,0,.208-.52.654.654,0,0,0-.267-.489l-40.895-28.017c-.783-.577-1.41-.8-1.732-.629s-.473.823-.417,1.78a.412.412,0,0,1-.388.436.4.4,0,0,1-.436-.388c-.078-1.346.206-2.2.847-2.553s1.518-.119,2.6.681l40.9,28.017a1.482,1.482,0,0,1,.145,2.283L180.535,167.94a1.861,1.861,0,0,0,.858,3.173l24.947,5.669a3.135,3.135,0,0,1,2.395,3.691L176.26,323a.412.412,0,0,1-.4.321" transform="translate(74.223 49.973)" fill="#212540"/><path d="M279.832,354.072,183.116,371.5a8.291,8.291,0,0,1-9.629-6.689L144.422,203.541a8.291,8.291,0,0,1,6.689-9.629l96.717-17.429a8.288,8.288,0,0,1,9.628,6.687l29.064,161.275a8.288,8.288,0,0,1-6.687,9.628" transform="translate(65.245 79.741)" fill="#fcf7f7"/><path d="M223.75,286.875q-1.372-5.036-2.742-10.071l.357-11.678c-.751-2.763-4.465-3.355-6.379-5.555a1.967,1.967,0,0,0-1.915-.728,2.509,2.509,0,0,0-3.4,2.759c2.1,10.736,6.135,21.206,10.623,31.18.539,1.2,3.135.987,4.16.453,2.647-1.378-.1-4.123-.709-6.361" transform="translate(94.788 116.964)" fill="#212540"/><path d="M67.821,301.992q-8.829,4.766-18.045,8.738c-1.76.758-.2,2.97,1.547,2.216,6.143-2.647,12.12-5.2,18.006-8.375,1.692-.913.186-3.494-1.507-2.579" transform="translate(22.158 136.467)" fill="#212540"/><path d="M178.009,350.663a.415.415,0,0,1-.405-.334L147.882,195.736a.413.413,0,1,1,.81-.155l29.722,154.593a.412.412,0,0,1-.327.482.476.476,0,0,1-.078.007" transform="translate(66.866 88.285)" fill="#212540"/><path d="M156.381,103.729c-11.527,0-18.621-9.769-18.7-9.884a.412.412,0,0,1,.672-.478c.091.128,9.262,12.733,23.585,8.761,10.446-2.9,15.444-12.057,15.493-12.15a.412.412,0,0,1,.726.389c-.049.094-5.216,9.567-16,12.556a21.557,21.557,0,0,1-5.775.806" transform="translate(62.221 40.588)" fill="#e6795e"/><path d="M85.852,307.027a1.448,1.448,0,0,0-.241-.484q-10.257-13.521-19.8-27.559c1.175-1.307-.848-3.251-2.22-1.991-.183.168-.362.341-.543.51a1.593,1.593,0,0,0-.6.559A95.665,95.665,0,0,0,46.238,298.34a1.267,1.267,0,0,0-.768,2.039c.033.044.065.087.1.129.1.25,2.056-.8,2.271-.627,7.5,9.762,18.02,22.792,24.736,33.113,2.946,4.526,4.162,1.6,4.458,1.693-.248,1.506-.563-1.632.213-3.2,4.178-8.45,3.1-15.217,8.81-22.714a1.182,1.182,0,0,0-.206-1.746" transform="translate(20.426 125.066)" fill="#fcb48b"/><path d="M204.706,256.023c-.083-1.915-3.071-1.926-2.987,0q.41,9.386.818,18.771c.083,1.915,3.07,1.926,2.986,0q-.407-9.386-.816-18.771" transform="translate(91.212 115.117)" fill="#212540"/><path d="M80.88,289.178q-3.023-4.346-6.04-8.7a3.6,3.6,0,0,0-5.283-.72l-.041.033a308.148,308.148,0,0,1-27.673,21.1,3.613,3.613,0,0,0-.993,4.887c3.344,5.318,6.549,10.723,9.805,16.1A3.623,3.623,0,0,0,55.788,323c3.842-2.608,7.663-5.245,11.389-8.01,6.286-4.666,12-10.032,18.072-14.953a2.443,2.443,0,0,0,.545-3.17c-1.583-2.6-3.176-5.193-4.914-7.691" transform="translate(18.221 126.119)" fill="#fcf7f7"/><path d="M274.235,283.554l-2.171-1.075c2.884-1.38,4.175-6,.47-8.036l-.033-.366c2.306-1.69,3.108-5.665-.086-7.64q-12.065-7.458-24.8-13.749c-12.457-6.153-25.381-9.52-38.046-15.081-5.37-2.358-10.719-4.878-16.305-6.692A69.768,69.768,0,0,0,177.5,228.21c-4.036-.349-8.762-.7-12.011-3.413-2.278-1.9-7.1-1.719-6.888,2.154a9.59,9.59,0,0,0,2.977,5.929c5.907,4.927,18,4.489,23.386,5.363a.462.462,0,0,1-.107.918c-4.614-.372-13.916-1.046-19.289-.921-5.34.123-10.116-.261-15.344,1.1-5.9,1.541-11.815,3.019-17.615,4.921-1.988.652-1.236,2.406-.224,3.6,3.715,4.381,9.388,2.165,14.064,1.14a63.683,63.683,0,0,1,13.295-1.653c2.453-.012,4.907-.131,7.36-.183,2.492-.054,4.984-.093,7.477-.139,1.353-.026.488.623-.057.884a10.164,10.164,0,0,1-2.611.334c-1.946.261-3.889.552-5.82.906a38.271,38.271,0,0,0-10.708,3.137c-4.757,2.46-3.405,9.284,1.313,8.861a17.991,17.991,0,0,0,.781,3.368,4.553,4.553,0,0,0,5.389,3.148,4.354,4.354,0,0,0,.089,1.78c.691,2.517,2.321,3.537,4.749,3.625,5.568.2,12.936.838,19.35.893.02.055,19.616.55,32.642-1.406a22.928,22.928,0,0,1,13.109,1.921c12.288,5.738,26.822,11.819,39.074,17.888,2.168,1.073,2.682-.492,3.963-2.682,1.157-1.979.569-5.052-1.608-6.13" transform="translate(59.4 101.116)" fill="#fcb48b"/><path d="M135.43,202.481q-.943-4.936-1.934-9.86-1.989-9.85-4.181-19.658-1.279-5.72-2.628-11.424a78.949,78.949,0,0,0-2.322-8.9c-2.013-5.533-5.825-10.531-12.2-10.518-.507,0,1.814-2.97,1.413-2.83a20.733,20.733,0,0,0-7.991,5.51c-31.364,38.43-62.736,76.862-90.177,119.282-5.8,8.964-11.066,18.284-14.318,29.661a28.088,28.088,0,0,0,.277,16.439c7.271,22.2,25.41,43.756,33.916,54.42l-.566.559a6.9,6.9,0,0,0-.37,9.414q4.559,5.261,9.242,10.411a8.709,8.709,0,0,0,4.5,2.634c3.912-2.6,8.068-4.842,11.879-7.609,5.295-3.845,32.3-29.616,36.7-33.1.829-.659.428-2.066-.228-2.9-2.572-3.267-9.519-11.738-12.136-14.952-.9-1.108-1.95.11-2.213-.261-6.083-8.593-9.872-13.848-17.024-24.093a8.563,8.563,0,0,1,.738-10.72c10.4-11.238,35.526-38.481,48.315-53.145q6.2-7.11,12.628-14.022c3.991-4.291,9.082-8.505,9.7-14.715.328-3.27-.412-6.43-1.022-9.624" transform="translate(0 62.983)" fill="#c27d60"/><path d="M150.834,250.765a.412.412,0,0,1-.113-.809,192.149,192.149,0,0,1,23.952-4.689.413.413,0,0,1,.115.818,191.267,191.267,0,0,0-23.84,4.664.435.435,0,0,1-.113.016" transform="translate(68.018 110.903)" fill="#e6795e"/><path d="M154.639,254.985a.412.412,0,0,1-.116-.807c.061-.019,6.237-1.8,21.115-3.558a.412.412,0,0,1,.1.819c-14.793,1.746-20.92,3.511-20.98,3.53a.466.466,0,0,1-.116.016" transform="translate(69.738 113.324)" fill="#e6795e"/><path d="M165.35,110.972c-2.659,1.5-28.055,18.512-31.139,19.75-17.65,7.079-37.078,13.605-54.162,21.96-1.695.829-2.477,4.492-1.95,6.227-.078.33.53.893.533,1.281.234,23.3,2.874,46.094,4.831,69.308C79.9,265.433,70.032,480.978,71.813,524.432a8.858,8.858,0,0,0,3.848,6.952c4.676,3.2,40.282,23.9,42.844,25.11a3.662,3.662,0,0,0,5.212-3.109q4.768-82.23,12.283-164.268,8.044-87.71,19.236-175.092c4.172-32.585,7.792-67.107,12.624-99.6.288-1.936-.308-4.695-2.509-3.45" transform="translate(32.376 50.038)" fill="#c27d60"/><path d="M281.809,287.43c-1.865-16.895-30.616-30.377-45.561-36.75-6.679-2.849.587-.736-6.686-1.849a2.43,2.43,0,0,0-1.342.151,2.153,2.153,0,0,0-1.727.441c-3.179,2.366-2.37,5.915-1.644,9.163q1.562,6.99,3.125,13.983c.992,4.438,2.039,8.868,2.965,13.319.854,4.1,1.609,8.526.16,12.612a2.181,2.181,0,0,0-.013,1.484,2.234,2.234,0,0,0,1.123,1.558,107.282,107.282,0,0,0,19.815,9.1c5.277,1.792,12.386,4.753,17.918,2.26,10.772-3.771,12.914-15.967,11.866-25.47" transform="translate(101.374 112.501)" fill="#c27d60"/><path d="M230.812,270.522c-.293-6.711-.333-13.494-1.075-20.172a1.53,1.53,0,0,0-.415-.908,1.276,1.276,0,0,0-.736-1.288c-6.811-3.568-23.723-10.245-23.779-7.683-.308,13.916-.333,27.963-2.094,41.788-.109.86,18.038,7.957,26.144,10.963a1.32,1.32,0,0,0,1.8-1.276,1.541,1.541,0,0,0,.337-.828c.7-6.837.119-13.749-.18-20.595" transform="translate(91.662 108.477)" fill="#fcf7f7"/><path d="M72.618,361.709a.412.412,0,0,1-.412-.425c.264-8.418.569-17.423.906-26.765a.418.418,0,0,1,.15-.3c6.555-5.406,15.493-13.261,22.676-19.572,6.17-5.424,11.045-9.708,12.724-10.978,2.444-1.847,4.294-2.387,5.656-1.647,2.289,1.242,2.239,5.812,2,9.14-.391,5.51-1.584,14.863-2.66,20.849-.831,4.619-36.426,27.259-40.845,29.654a.405.405,0,0,1-.2.049m1.311-26.976c-.325,9.006-.619,17.7-.876,25.85,7.84-4.451,39.119-24.964,39.794-28.723,1.072-5.963,2.261-15.277,2.65-20.763.126-1.786.513-7.223-1.573-8.356-1.034-.561-2.637-.029-4.766,1.58l-.248-.328.248.328c-1.655,1.252-6.764,5.742-12.679,10.939-7.133,6.271-16,14.061-22.551,19.472" transform="translate(32.65 136.421)" fill="#212540"/><path d="M127.527,323.221a.41.41,0,0,1-.407-.35L104.8,178.325a3.139,3.139,0,0,1,2.6-3.556l25.227-4.251a1.86,1.86,0,0,0,1.037-3.119l-26.584-27.832a1.481,1.481,0,0,1,.261-2.264l42.437-25.676c1.117-.73,2-.909,2.626-.526s.855,1.258.7,2.6a.412.412,0,1,1-.819-.094c.11-.951-.006-1.608-.317-1.8s-.95,0-1.753.521L107.776,138a.656.656,0,0,0-.1,1l26.582,27.832a2.684,2.684,0,0,1-1.494,4.5l-25.229,4.251a2.315,2.315,0,0,0-1.918,2.623l22.321,144.541a.412.412,0,0,1-.344.47.485.485,0,0,1-.064,0" transform="translate(47.373 50.149)" fill="#212540"/><path d="M243.947,304.774c-.543-17.207-.774-31.217-2.492-48.349-.11-1.1-.674-3.664-1.509-3.956-7.769-5.282-26.273-13.033-25.869-9.519.182,1.576,2.536,18.594,2.949,27.587.453,9.846.041,19.97,1.263,29.752.16,1.279,21.062,9.974,24.963,10.326,1.531.138.717-5.11.694-5.842" transform="translate(96.798 109.457)" fill="#c27d60"/><path d="M79.46,234h-.023a.414.414,0,0,1-.389-.436c2.528-44.142-1.934-86.315-1.981-86.736a.413.413,0,0,1,.82-.089c.045.423,4.516,42.664,1.984,86.871a.413.413,0,0,1-.411.389" transform="translate(34.847 66.185)" fill="#212540"/><path d="M38,311.95a.412.412,0,0,1-.245-.744,414.28,414.28,0,0,0,34.1-28.612.411.411,0,0,1,.566.6A414.244,414.244,0,0,1,38.248,311.87a.409.409,0,0,1-.244.08" transform="translate(16.998 127.732)" fill="#212540"/><path d="M262.473,262.45a.4.4,0,0,1-.212-.06c-7.267-4.374-20.727-8.552-25.149-9.926-.987-.306-1.333-.414-1.445-.465a.412.412,0,0,1,.335-.752c.093.039.677.221,1.353.43,4.447,1.381,17.977,5.582,25.33,10.007a.413.413,0,0,1-.214.765" transform="translate(106.453 113.592)" fill="#212540"/><path d="M14.2,251.745a.412.412,0,0,1-.1-.812c5.874-1.5,32.927-1.143,34.881.048a.413.413,0,0,1-.43.7c-1.448-.882-27.973-1.549-34.248.046a.407.407,0,0,1-.1.013" transform="translate(6.235 113.019)" fill="#212540"/><path d="M80.123,212.423a.413.413,0,0,1-.4-.315c-.06-.25-6.063-25.009-11.522-35.246a.412.412,0,1,1,.728-.388c5.508,10.329,11.536,35.191,11.6,35.44a.412.412,0,0,1-.3.5.445.445,0,0,1-.1.012" transform="translate(30.817 79.699)" fill="#212540"/><path d="M235.362,300.648a.414.414,0,0,1-.412-.424,309.388,309.388,0,0,0-2.165-46.7.412.412,0,1,1,.816-.115,310.043,310.043,0,0,1,2.174,46.836.414.414,0,0,1-.412.4" transform="translate(105.258 114.427)" fill="#212540"/><path d="M116.66,101.038a9.824,9.824,0,0,1-11.79-10.578c.045-.547-.809-.545-.852,0a10.678,10.678,0,0,0,12.869,11.4c.539-.107.311-.929-.227-.823" transform="translate(47.018 40.719)" fill="#692922"/><path d="M184.047,109.914c-.642-.742-2.915.213-3.18.761-6.642,13.65-13.279,25.253-18.181,36.855-.452,1.067-14.021-22.044-19.419-36.4a1.572,1.572,0,0,0-2.955.054,1.511,1.511,0,0,0-.308.4c-7.487,14.477-12.31,37.193-12.953,39.008s11.116-.59,20.05-2.271c1.5-.282,3.684-1.828,5.255-1.169.855.359,5.385,4.894,8.261,7.92a3.126,3.126,0,0,0,4.691-.187l6.567-8.092c2.7-1.73,25.252,10.923,25.252,10.923-1.139-7.884-9.661-43.849-13.08-47.8" transform="translate(57.438 49.578)" fill="#fcf7f7"/><path d="M76.077,296.231c-1.048-.341-2.238.816-3.211,2.066-.167.174-.33.349-.5.523a52.859,52.859,0,0,0-7.511,7.245,3.859,3.859,0,0,0-.916,2.077,4.506,4.506,0,0,0-.125,1.073c.009,11.639.911,27.371,1.223,39A120.386,120.386,0,0,0,66.628,365.4c.774,4.352,6.745,11.678,7.821,11.988,1.192.343,2.318-.873,2.339-2.493.144-10.705,1.085-52.533,1.992-73.108.087-1.974-1.1-3.551-2.7-5.557" transform="translate(28.857 133.922)" fill="#fcb48b"/><path d="M73.972,355.038a.414.414,0,0,1-.337-.173c-.006-.01-.652-.912-3.074-3.658-3.49-3.953-1.724-28.055-1.647-29.078a.408.408,0,0,1,.441-.381.413.413,0,0,1,.38.443c-.642,8.555-1.166,25.515,1.442,28.47,2.467,2.8,3.1,3.69,3.131,3.728a.412.412,0,0,1-.337.649" transform="translate(30.929 145.487)" fill="#e6795e"/><path d="M175.455,312.416a.412.412,0,0,1-.076-.818l87.681-16.437a.412.412,0,1,1,.152.809l-87.681,16.439a.477.477,0,0,1-.077.007" transform="translate(79.151 133.462)" fill="#212540"/><path d="M174.227,318.934a8.341,8.341,0,0,1-7.733-4.082c-.137-.2-.263-.375-.382-.53-1.432-1.856-3.856-17.99-4.127-19.824a.413.413,0,1,1,.816-.121c1.054,7.116,2.98,18.164,3.964,19.44.126.164.258.354.4.561,1.4,2,4.008,5.727,14.2,2.371a.413.413,0,0,1,.259.784,24.036,24.036,0,0,1-7.4,1.4" transform="translate(73.244 132.952)" fill="#212540"/><path d="M222.8,279.1a.429.429,0,0,1-.177-.039l-19.957-9.494a.412.412,0,1,1,.354-.745l19.957,9.494a.412.412,0,0,1-.177.784" transform="translate(91.534 121.539)" fill="#212540"/><path d="M218.932,245.815a.409.409,0,0,1-.168-.036c-3.9-1.747-11.709-5.107-13.338-5.324a4.7,4.7,0,0,0-.717-.054.412.412,0,0,1-.62.529.829.829,0,0,1-.327-.926c.224-.5.985-.47,1.773-.366,2.154.288,13.1,5.181,13.566,5.389a.412.412,0,0,1-.168.789" transform="translate(92.113 108.331)" fill="#212540"/></g></g></g></svg>