<svg xmlns="http://www.w3.org/2000/svg" width="44.563" height="42.011" viewBox="0 0 44.563 42.011"><g transform="translate(0 0)"><path d="M42.638,22.08l-6.912-1.508V17.221a2.562,2.562,0,0,0-2.56-2.559H11.4a2.562,2.562,0,0,0-2.559,2.559v3.351L1.925,22.08A2.449,2.449,0,0,0,.057,24.992l6.16,28.235A2.469,2.469,0,0,0,9.127,55.1l7.4-1.615a6.774,6.774,0,0,0,11.5,0L35.436,55.1a2.469,2.469,0,0,0,2.911-1.869l2.769-12.692a.87.87,0,1,0-1.7-.371L36.646,52.857a.712.712,0,0,1-.839.539l-7.035-1.534a6.694,6.694,0,0,0,.235-1.1h4.159a2.563,2.563,0,0,0,2.56-2.56V22.354l6.541,1.427a.706.706,0,0,1,.539.84l-1.759,8.062a.87.87,0,1,0,1.7.371l1.759-8.063a2.449,2.449,0,0,0-1.869-2.911ZM15.79,51.861,8.756,53.4a.711.711,0,0,1-.839-.539L1.757,24.621a.706.706,0,0,1,.539-.84l6.541-1.427V48.2a2.586,2.586,0,0,0,2.56,2.56h4.158A6.694,6.694,0,0,0,15.79,51.861Zm6.492,3.071a5.041,5.041,0,1,1,5.041-5.041A5.094,5.094,0,0,1,22.281,54.932Zm11.7-6.73a.82.82,0,0,1-.819.819H29.007a6.782,6.782,0,0,0-13.452,0H11.4a.829.829,0,0,1-.819-.819V17.221A.819.819,0,0,1,11.4,16.4H33.167a.82.82,0,0,1,.819.818Z" transform="translate(0 -14.662)" fill="#e3e230"/><path d="M225.53,395.978l-2.511,2.511-.867-.867a.87.87,0,0,0-1.231,1.231l1.482,1.482a.879.879,0,0,0,1.231,0l3.126-3.126a.87.87,0,1,0-1.231-1.231Z" transform="translate(-201.461 -362.557)" fill="#e3e230"/><path d="M277.406,84.617h-4.9a.87.87,0,0,0,0,1.741h4.9a.87.87,0,1,0,0-1.741Z" transform="translate(-247.991 -78.528)" fill="#e3e230"/><path d="M169.742,288.061h-10a.87.87,0,1,0,0,1.741h10a.87.87,0,1,0,0-1.741Z" transform="translate(-145.04 -264.265)" fill="#e3e230"/><path d="M174.455,152.431H159.737a.87.87,0,1,0,0,1.741h14.718a.87.87,0,0,0,0-1.741Z" transform="translate(-145.04 -140.44)" fill="#e3e230"/><path d="M174.455,220.247H159.737a.87.87,0,1,0,0,1.741h14.718a.87.87,0,1,0,0-1.741Z" transform="translate(-145.04 -202.353)" fill="#e3e230"/><path d="M463.767,257.112a.87.87,0,1,0-.356,1.079A.877.877,0,0,0,463.767,257.112Z" transform="translate(-421.875 -235.529)" fill="#e3e230"/></g></svg>