<svg xmlns="http://www.w3.org/2000/svg" width="56.499" height="64.899" viewBox="0 0 56.499 64.899"><path d="M200.934,192.482a1.967,1.967,0,0,0-1.965-1.965H184.2a1.967,1.967,0,0,0-1.965,1.965v2.172a1.967,1.967,0,0,0,1.965,1.965h14.771a1.967,1.967,0,0,0,1.965-1.965v-2.172Zm-1.9,2.172a.064.064,0,0,1-.063.063H184.2a.064.064,0,0,1-.063-.063v-2.172a.064.064,0,0,1,.063-.063h14.771a.064.064,0,0,1,.063.063v2.172Z" transform="translate(-163.334 -166.368)" fill="#e3e230"/><path d="M87.633,35.7h-6.4V10.4a5.156,5.156,0,0,0-5.151-5.15h-8.5V5.114A1.967,1.967,0,0,0,65.62,3.15H61.172a4.1,4.1,0,0,0-7.976,0H48.748a1.967,1.967,0,0,0-1.965,1.965v.135h-8.5a5.156,5.156,0,0,0-5.15,5.15V59.749a5.156,5.156,0,0,0,5.15,5.151h5.131a.951.951,0,0,0,0-1.9H38.284a3.253,3.253,0,0,1-3.249-3.249V10.4A3.253,3.253,0,0,1,38.284,7.15h8.5v2.3h-6.4A3.054,3.054,0,0,0,37.334,12.5v3.014a.951.951,0,1,0,1.9,0V12.5a1.151,1.151,0,0,1,1.149-1.149h6.532a2.984,2.984,0,0,0,2.846,2.1H64.605a2.984,2.984,0,0,0,2.846-2.1h6.531A1.151,1.151,0,0,1,75.132,12.5V35.7H73.983a2,2,0,0,0-2,2v2.1a2,2,0,0,0,1.05,1.76v8.609a2,2,0,0,0,2,2h.1v5.48A1.151,1.151,0,0,1,73.983,58.8h-33.6a1.151,1.151,0,0,1-1.149-1.149V19.968a.951.951,0,1,0-1.9,0V57.649A3.054,3.054,0,0,0,40.384,60.7h33.6a3.054,3.054,0,0,0,3.051-3.051v-5.48h2.3v7.58A3.253,3.253,0,0,1,76.083,63H47.852a.951.951,0,1,0,0,1.9H76.083a5.156,5.156,0,0,0,5.151-5.151v-7.58h5.349a2,2,0,0,0,2-2V41.559a2,2,0,0,0,1.05-1.76V37.7a2,2,0,0,0-2-2Zm.1,2v2.1a.1.1,0,0,1-.1.1H83.859V37.6h3.774A.1.1,0,0,1,87.732,37.7Zm-5.775,4.236a.064.064,0,0,1-.063.063H79.722a.064.064,0,0,1-.063-.063V37.6h2.3ZM57.184,1.9a2.2,2.2,0,0,1,1.98,1.248H55.2A2.2,2.2,0,0,1,57.184,1.9Zm8.5,8.571a1.079,1.079,0,0,1-1.077,1.077H58.135V10.4a.951.951,0,1,0-1.9,0V11.55H49.762a1.079,1.079,0,0,1-1.077-1.077V5.114a.064.064,0,0,1,.063-.063H65.62a.064.064,0,0,1,.063.063Zm8.3-1.023h-6.4V7.15h8.5A3.253,3.253,0,0,1,79.332,10.4V35.7h-2.3V12.5a3.054,3.054,0,0,0-3.051-3.051Zm-.1,28.25a.1.1,0,0,1,.1-.1h3.774v2.3H73.983a.1.1,0,0,1-.1-.1V37.7Zm12.8,12.468a.1.1,0,0,1-.1.1H75.033a.1.1,0,0,1-.1-.1V41.8h2.823v.135A1.967,1.967,0,0,0,79.722,43.9h2.172a1.967,1.967,0,0,0,1.965-1.965V41.8h2.823Z" transform="translate(-33.134 0)" fill="#e3e230"/><path d="M178.2,115.967H167.632a1.967,1.967,0,0,0-1.965,1.965V120.1a1.967,1.967,0,0,0,1.965,1.965H178.2a1.967,1.967,0,0,0,1.965-1.965v-2.172A1.967,1.967,0,0,0,178.2,115.967Zm.063,4.136a.064.064,0,0,1-.063.063H167.632a.064.064,0,0,1-.063-.063v-2.172a.064.064,0,0,1,.063-.063H178.2a.064.064,0,0,1,.063.063Z" transform="translate(-148.868 -101.267)" fill="#e3e230"/><path d="M101.364,190.435h4.272a1.967,1.967,0,0,0,1.965-1.965V184.2a1.967,1.967,0,0,0-1.965-1.965h-4.272A1.967,1.967,0,0,0,99.4,184.2v4.272A1.967,1.967,0,0,0,101.364,190.435ZM101.3,184.2a.064.064,0,0,1,.063-.063h4.272a.064.064,0,0,1,.063.063v4.272a.064.064,0,0,1-.063.063h-4.272a.064.064,0,0,1-.063-.063Z" transform="translate(-90.999 -159.135)" fill="#e3e230"/><path d="M200.934,275.315a1.967,1.967,0,0,0-1.965-1.965H184.2a1.967,1.967,0,0,0-1.965,1.965v2.172a1.967,1.967,0,0,0,1.965,1.965h14.771a1.967,1.967,0,0,0,1.965-1.965v-2.172Zm-1.9,2.172a.064.064,0,0,1-.063.063H184.2a.064.064,0,0,1-.063-.063v-2.172a.064.064,0,0,1,.063-.063h14.771a.064.064,0,0,1,.063.063v2.172Z" transform="translate(-163.334 -238.701)" fill="#e3e230"/><path d="M99.4,271.3a1.967,1.967,0,0,0,1.965,1.965h4.272A1.967,1.967,0,0,0,107.6,271.3v-4.272a1.967,1.967,0,0,0-1.965-1.965h-4.272a1.967,1.967,0,0,0-1.965,1.965Zm1.9-4.272a.064.064,0,0,1,.063-.063h4.272a.064.064,0,0,1,.063.063V271.3a.064.064,0,0,1-.063.063h-4.272a.064.064,0,0,1-.063-.063Z" transform="translate(-90.999 -231.468)" fill="#e3e230"/><path d="M198.969,356.184H184.2a1.967,1.967,0,0,0-1.965,1.965v2.172a1.967,1.967,0,0,0,1.965,1.965h14.771a1.967,1.967,0,0,0,1.965-1.965v-2.172A1.967,1.967,0,0,0,198.969,356.184Zm.063,4.136a.064.064,0,0,1-.063.063H184.2a.064.064,0,0,1-.063-.063v-2.172a.064.064,0,0,1,.063-.063h14.771a.064.064,0,0,1,.063.063v2.172Z" transform="translate(-163.334 -311.035)" fill="#e3e230"/><path d="M99.4,354.136a1.967,1.967,0,0,0,1.965,1.965h4.272a1.967,1.967,0,0,0,1.965-1.965v-4.272a1.967,1.967,0,0,0-1.965-1.965h-4.272a1.967,1.967,0,0,0-1.965,1.965Zm1.9-4.272a.064.064,0,0,1,.063-.063h4.272a.064.064,0,0,1,.063.063v4.272a.064.064,0,0,1-.063.063h-4.272a.064.064,0,0,1-.063-.063Z" transform="translate(-90.999 -303.801)" fill="#e3e230"/></svg>