<svg xmlns="http://www.w3.org/2000/svg" width="66.167" height="55.495" viewBox="0 0 66.167 55.495"><g transform="translate(0 -5)"><path d="M41.9,40.762H38.955L34.637,10.32a4.074,4.074,0,0,0-3.98-3.126H6.933a4.086,4.086,0,0,0-4.092,4.069v29.5H1.067A1.067,1.067,0,0,0,0,41.829v11.72a1.067,1.067,0,0,0,1.067,1.067H3.983a6.951,6.951,0,0,0,13.686,0h7.659a6.95,6.95,0,0,0,13.685,0H41.9a1.066,1.066,0,0,0,1.067-1.067V41.829A1.066,1.066,0,0,0,41.9,40.762Zm-23.55-5.89,0,5.891h-8.16V29.222a1.681,1.681,0,0,1,1.474-1.784h5.214a1.654,1.654,0,0,1,1.475,1.784l.038,1.642a1.066,1.066,0,0,0,.758.969L24.9,33.569a.887.887,0,1,1-.565,1.682l-4.611-1.4A1.079,1.079,0,0,0,18.349,34.872ZM4.975,11.264A1.948,1.948,0,0,1,6.933,9.329H30.657a1.932,1.932,0,0,1,1.886,1.391L36.549,39l-4.273-3.569.854-1.182A1.067,1.067,0,1,0,31.4,33l-3.314,4.589a1.066,1.066,0,0,0,.24,1.49,1.082,1.082,0,0,0,1.49-.241l1.207-1.671,4.313,3.6H20.479l0-4.45,3.235.982c3.741,1.129,5.608-4.62,1.8-5.767L20.484,30.01v-.785a3.778,3.778,0,0,0-3.609-3.919H11.66a3.809,3.809,0,0,0-3.608,3.919v11.54H4.975Zm5.85,46.949a4.665,4.665,0,1,1,0-9.325,4.665,4.665,0,1,1,0,9.325Zm21.344,0a4.665,4.665,0,1,1,4.8-4.663,4.74,4.74,0,0,1-4.8,4.663Zm8.662-5.73H39.014a6.951,6.951,0,0,0-13.686,0H17.669a6.951,6.951,0,0,0-13.686,0H2.134V42.9h38.7Z" transform="translate(0 0.147)" fill="#e3e230"/><path d="M13.95,23.434a5.621,5.621,0,1,1,5.586-5.62,5.609,5.609,0,0,1-5.586,5.62Zm0-9.107A3.486,3.486,0,1,0,17.4,17.814a3.474,3.474,0,0,0-3.451-3.487Z" transform="translate(0.562 0.483)" fill="#e3e230"/><path d="M62.315,42.683H42.5a1.066,1.066,0,0,1-1.067-1.067V6.067a1.067,1.067,0,1,1,2.134,0V40.549H62.315a1.067,1.067,0,0,1,0,2.134Z" transform="translate(2.785)" fill="#e3e230"/><path d="M61.559,19.905H46.545a1.066,1.066,0,0,0-1.067,1.067V36.749a1.066,1.066,0,0,0,1.067,1.067H61.559a1.066,1.066,0,0,0,1.067-1.067V20.972A1.067,1.067,0,0,0,61.559,19.9ZM51.8,22.039h4.51v2.773H51.8Zm8.695,13.642H47.612V22.039h2.051v3.84a1.066,1.066,0,0,0,1.067,1.067h6.644a1.066,1.066,0,0,0,1.067-1.067v-3.84h2.05V35.682Z" transform="translate(3.057 1.002)" fill="#e3e230"/></g></svg>