<svg xmlns="http://www.w3.org/2000/svg" xmlns:xlink="http://www.w3.org/1999/xlink" width="361.525" height="539.165" viewBox="0 0 361.525 539.165"><defs><clipPath id="a"><rect width="361.525" height="539.165" fill="none"/></clipPath><clipPath id="b"><rect width="361.524" height="539.165" fill="none"/></clipPath><clipPath id="c"><rect width="292.249" height="380.648" fill="none"/></clipPath><clipPath id="d"><rect width="305.895" height="343.909" fill="none"/></clipPath><clipPath id="e"><rect width="84.391" height="18.923" fill="none"/></clipPath><clipPath id="f"><rect width="33.402" height="33.011" fill="none"/></clipPath><clipPath id="g"><rect width="123.65" height="23.375" fill="none"/></clipPath><clipPath id="i"><rect width="33.401" height="33.011" fill="none"/></clipPath><clipPath id="k"><rect width="123.651" height="21.766" fill="none"/></clipPath><clipPath id="m"><rect width="137.468" height="33.722" fill="none"/></clipPath><clipPath id="n"><path d="M988.706,1334.142l21.442,82.2-50.032,26.356,23.229,41.991s83.089-33.95,83.089-61.647-56.733-89.79-56.733-89.79Z" transform="translate(-960.116 -1333.249)" fill="none"/></clipPath><clipPath id="o"><rect width="75.747" height="160.817" fill="none"/></clipPath><clipPath id="q"><path d="M492.716,512.712c-1.444.582,4.544,6.117,4.544,6.117l-6.581.232s-8.626-3.635-9.492-2.427,2.709,6.353,12.346,9.746l-7.161-1.475s-4.663-3.249-5.42-1.988,6.452,5.559,10.855,6.433a36.992,36.992,0,0,1-7.022,0c-.857-.166-1.127.574-.306,1.315.956.863,3.394,1.726,8.109,1.153,0,0,4.078,3.05,8.627,2.476,0,0,14.587,43.309,24.044,53.015S560.6,623.9,560.6,623.9l15.431-27.127s-34.1-21.9-37.581-29.617-28.48-40.6-29.7-42.17c-.306-3.842-13.7-12.3-15.861-12.3a.468.468,0,0,0-.174.027" transform="translate(-480.898 -512.685)" fill="none"/></clipPath><clipPath id="s"><path d="M1227.281,481.216c-1.076,1.676-23.078,36.631-25.869,44.623s-34.826,32.811-34.826,32.811l17.76,25.663s23.415-29.054,31.98-39.556,19.28-54.928,19.28-54.928c4.581.171,8.375-3.226,8.375-3.226,4.292.14,6.626-.725,7.682-1.589,1.114-.912.806-1.825-.127-1.557a37,37,0,0,1-7,.614c4.308-1.258,11.111-6.175,10.246-7.364s-5.224,2.457-5.224,2.457l-7,2.1c9.3-4.229,12.409-9.669,11.44-10.8s-9.241,3.254-9.241,3.254l-6.575.349s5.477-6.041,3.987-6.494a.4.4,0,0,0-.114-.015c-1.956,0-14.811,9.76-14.776,13.653" transform="translate(-1166.586 -467.563)" fill="none"/></clipPath><clipPath id="u"><path d="M848.619,871.842a48.26,48.26,0,0,1-17.2-.223c-8.711-1.563-9.828.67-9.828.67-3.35-.67-28.25-15.823-28.25-15.823l-17.67,22.9s13.324,11.646,16.675,19.91a132.9,132.9,0,0,0,9.143,17.465l2.234,34.844,57.626-1.34s.894-17.422,6.7-26.58,1.16-16.7,4.932-27.126c3.8-10.5,17.173-22.15,17.173-22.15l-21.721-18.916s-16.689,15.926-19.816,16.373" transform="translate(-775.672 -855.469)" fill="none"/></clipPath><clipPath id="v"><rect width="84.922" height="88.7" fill="none"/></clipPath><clipPath id="x"><path d="M926.939,906.208a.411.411,0,0,0-.256.493c.049.155.094.3.139.459v0c.13.421.253.844.374,1.265a72.683,72.683,0,0,1,2.89,26.025.249.249,0,0,1-.262.2q-17.256-.126-34.514-.243a.234.234,0,0,1-.249-.225q.06-1.139.121-2.275.407-7.7.824-15.4.172-3.27.348-6.534c.034-.692.249-1.493.264-2.195v0a3.4,3.4,0,0,0-.012-.349c-.025-.256.228-.693-.379-.748a17.4,17.4,0,0,1-2.486-.32c-.938-.184-1.552-.275-1.548-.136a.112.112,0,0,1,0,.034v0c.064,1.932-.3,4.407-.231,6.347.07,2,.111,4.016.1,6.029-.069,13.266-2.351,26.562-12.594,36.273l-.237.219h0a7.516,7.516,0,0,1-3.035,1.719c-4.245,8.7-3.392,19.218-3.662,28.5-.008.27-.016.532-.022.788,0,.147-.006.292-.01.434-.009.29-.016.568-.023.841,0,.1-.008.2-.011.3s-.007.181-.01.273c-.005.109-.01.218-.017.327-.007.148-.017.3-.028.447a56.227,56.227,0,0,1-2.926,9.566c2.438.6,7.542.7,10.572,1.214,11.128,1.881,26.505,1.005,40.265.129,8.211-.523,15.845-1.045,21.659-.982a.207.207,0,0,1-.042-.066c-.038-.169-.072-.336-.107-.505-.011-.047-.018-.09-.029-.137s-.017-.085-.025-.126c-.044-.208-.083-.416-.122-.624l-.017-.082c-.107-.564-.2-1.132-.287-1.7-.071-.445-.132-.89-.188-1.339-.028-.223-.055-.446-.077-.669s-.047-.422-.068-.634l-.008-.088c-.021-.221-.04-.444-.058-.665-.013-.135-.023-.273-.03-.412-.016-.2-.029-.392-.039-.592-.011-.149-.02-.3-.025-.454,0-.039,0-.08-.006-.122-.008-.18-.016-.36-.021-.54-.006-.094-.006-.191-.009-.288a.453.453,0,0,1,0-.091c-.009-.25-.014-.5-.017-.746a42.6,42.6,0,0,1,.639-7.847,172.581,172.581,0,0,0,2.532-21.546,2.369,2.369,0,0,0-.577-1.527c-1.234-1.592-4.1-2.966-5.265-4.911-3.947-6.616-4.179-14.13-4.028-21.468.028-1.4.071-2.791.1-4.169a70.45,70.45,0,0,0-.56-13.33,30.085,30.085,0,0,0-1.678-6.185,10.932,10.932,0,0,0-1.27-2.823.333.333,0,0,0-.175-.092.814.814,0,0,0-.083,0,14.08,14.08,0,0,0-3.506,1.294" transform="translate(-869.485 -904.914)" fill="none"/></clipPath><clipPath id="y"><rect width="121.313" height="109.865" fill="none"/></clipPath><clipPath id="aa"><path d="M928.865,653.131c-1.875.189-3.569,1.149-5.33,1.82-5.011,1.909-10.555,1.472-15.916,1.577a14.579,14.579,0,0,0-5.972,1.044,8.259,8.259,0,0,0-4.51,8.488s-1.944,2.363-2.757,3.634a3.356,3.356,0,0,0-.51,3.546l1.645,5.828a5.841,5.841,0,0,1-.391,5.417c-3.17,6.564-6.385,13.2-11.042,18.807l11.26,4.025c3.065,1.1,6.2,2.2,9.457,2.22l3.239-4.623,1.17,9,17.348-.291,2.177-6.94,3.993,4.585a30.553,30.553,0,0,1,5.692-1.805,19.752,19.752,0,0,1-.678-7.661l3.479,5.676a50.292,50.292,0,0,1,8.551-6.1,31.848,31.848,0,0,1-3.571-7.5,47.408,47.408,0,0,1,6.893,4.3,24.2,24.2,0,0,1,5.286-6.82,23.869,23.869,0,0,1-14.271-17.634c-.6-3.375-.457-6.9-1.575-10.138a16.875,16.875,0,0,0-7.541-8.742,10.968,10.968,0,0,0-5.435-1.744,6.9,6.9,0,0,0-.691.034" transform="translate(-884.082 -653.097)" fill="none"/></clipPath><clipPath id="ac"><rect width="25.082" height="64.981" fill="none"/></clipPath><clipPath id="ad"><rect width="21.778" height="20.535" fill="none"/></clipPath></defs><g clip-path="url(#a)"><g transform="translate(0 0)"><g clip-path="url(#b)"><path d="M347.356,609.14,94.488,586.478a30.948,30.948,0,0,1-28.062-33.587L99.567,183.1a30.948,30.948,0,0,1,33.587-28.062L386.022,177.7a30.948,30.948,0,0,1,28.062,33.587L380.943,581.078a30.948,30.948,0,0,1-33.587,28.062" transform="translate(-52.685 -123.1)" fill="#48647e"/><path d="M313.158,606.075,60.29,583.413a30.948,30.948,0,0,1-28.062-33.587L65.369,180.037a30.948,30.948,0,0,1,33.587-28.062l252.868,22.662a30.948,30.948,0,0,1,28.062,33.587L346.745,578.013a30.948,30.948,0,0,1-33.587,28.062" transform="translate(-25.51 -120.664)" fill="#92c9ff"/><path d="M215.109,332.931,195.775,557.816,175.424,701.294l261.518,21.369,7.123-188.252,22.387-189.269Z" transform="translate(-139.397 -264.557)" fill="#99b1da"/><rect width="377.548" height="259.908" transform="translate(35.788 424.524) rotate(-84.879)" fill="#d1dbed"/><g transform="translate(36.111 52.675)" opacity="0.4"><g clip-path="url(#c)"><path d="M468.08,275.5c-13.061,146.643-24.176,323.917-44.156,361.6-73.184.567-158.336-4.778-248.092-12.4l67.377-368.211Z" transform="translate(-175.831 -256.488)" fill="#93b7e2"/></g></g><path d="M415.06,267.881c-11.25,145.72-23.1,280.2-54.646,340.183-114.7,7.966-190.364,2.147-251.25-7.9,15.521-83.846,31.292-224.035,47.063-363.991l136.24,12.514Z" transform="translate(-86.745 -187.67)" fill="#fff"/><g transform="translate(22.419 80.211)" opacity="0.6"><g clip-path="url(#d)"><path d="M415.06,390.565c-11.25,145.72-23.1,280.2-54.646,340.183-114.7,7.966-190.364,2.147-251.25-7.9,4.194-1.7,256.276-27.387,305.9-332.284" transform="translate(-109.164 -390.566)" fill="#ededed"/></g></g><rect width="20.832" height="136.766" transform="translate(123.516 109.193) rotate(-83.531)" fill="#fbd0c3"/><rect width="9.535" height="123.362" transform="translate(159.811 152.591) rotate(-83.531)" fill="#93b7e2"/><g transform="translate(157.468 163.775)" opacity="0.3"><g clip-path="url(#e)"><rect width="9.535" height="83.851" transform="translate(0 9.475) rotate(-83.531)" fill="#d1dbed"/></g></g><g transform="translate(89.362 135.302)" opacity="0.5"><g clip-path="url(#f)"><path d="M464.683,691.834l-14.424-1.348-7.309-.707c-2.443-.237-4.892-.495-7.341-.745l-.485-.05.051-.5q.372-3.632.762-7.262l.778-7.26,1.611-14.513.07-.631.631.073,14.505,1.678,7.25.867q3.625.428,7.248.883l.5.062-.061.485-.918,7.322-.947,7.282Zm0,0,1.374-14.66.7-7.227.728-7.187.436.547q-3.632-.371-7.262-.762l-7.259-.778-14.513-1.612.7-.558L437.9,674.1l-.867,7.25q-.428,3.625-.883,7.247l-.434-.545c2.387.3,4.775.588,7.168.9l7.2.938Z" transform="translate(-435.124 -658.822)" fill="#3d5891"/></g></g><path d="M430.037,599.167c2.816,2.553,3.941,2.978,6.159,6.651,3.626,6,2.809,8.281,3.939,9.463s6.668,2.553,10.937-2.005,11.456-17.554,19.842-24.986,12.171-9.461,14.579-10.48-4.9-1.411-20.234,8.687a89.5,89.5,0,0,0-18.692,17.317,26.376,26.376,0,0,0-5.541-10.533c-4.085-4.381-15.666,1.646-10.989,5.887" transform="translate(-340.85 -458.751)" fill="#ff794c"/><rect width="9.535" height="101.586" transform="translate(153.829 205.348) rotate(-83.531)" fill="#93b7e2"/><g transform="translate(151.486 216.531)" opacity="0.3"><g clip-path="url(#g)"><rect width="9.535" height="123.362" transform="matrix(0.113, -0.994, 0.994, 0.113, 0, 9.475)" fill="#d1dbed"/></g></g><g transform="translate(83.38 188.06)" opacity="0.5"><g clip-path="url(#f)"><path d="M435.554,948.718,421.13,947.37l-7.309-.707c-2.443-.237-4.892-.495-7.341-.745l-.485-.05.051-.5q.372-3.632.762-7.261l.778-7.26,1.61-14.513.07-.631.631.073,14.505,1.678,7.25.867q3.625.428,7.248.883l.5.062-.061.485-.917,7.322-.947,7.282Zm0,0,1.373-14.66.7-7.227.728-7.187.436.547q-3.632-.371-7.262-.762l-7.259-.778-14.513-1.612.7-.558-1.68,14.505-.867,7.249q-.428,3.625-.883,7.248l-.434-.545c2.387.3,4.775.588,7.168.9l7.2.938Z" transform="translate(-405.995 -915.708)" fill="#3d5891"/></g></g><path d="M401.418,861.039c2.816,2.553,3.941,2.978,6.159,6.651,3.626,6,2.809,8.281,3.939,9.463s6.668,2.553,10.937-2.005,11.456-17.554,19.842-24.987,12.171-9.461,14.579-10.48-4.9-1.411-20.234,8.687a89.5,89.5,0,0,0-18.692,17.318,26.377,26.377,0,0,0-5.541-10.534c-4.085-4.381-15.666,1.646-10.989,5.887" transform="translate(-318.109 -666.842)" fill="#2ab17f"/><rect width="9.535" height="123.362" transform="matrix(0.113, -0.994, 0.994, 0.113, 147.846, 258.104)" fill="#93b7e2"/><rect width="9.535" height="55.169" transform="translate(145.504 278.762) rotate(-83.531)" fill="#d1dbed"/><g transform="translate(77.397 240.816)" opacity="0.5"><g clip-path="url(#i)"><path d="M406.425,1205.6,392,1204.253l-7.309-.707c-2.443-.236-4.892-.495-7.341-.745l-.485-.05.051-.5q.372-3.632.762-7.261l.778-7.26,1.611-14.513.07-.631.631.073,14.505,1.678,7.25.867q3.625.428,7.248.883l.5.062-.061.485-.917,7.322-.947,7.282Zm0,0,1.373-14.659.7-7.228.728-7.187.436.548q-3.632-.371-7.262-.762l-7.259-.778-14.513-1.613.7-.558-1.68,14.505-.867,7.249q-.428,3.626-.883,7.248l-.434-.545c2.387.3,4.775.588,7.168.9l7.2.938Z" transform="translate(-376.866 -1172.59)" fill="#3d5891"/></g></g><path d="M372.535,1124.526c2.816,2.553,3.941,2.978,6.159,6.651,3.626,6,2.809,8.281,3.939,9.463s6.668,2.553,10.937-2.005,11.456-17.554,19.842-24.986,12.171-9.461,14.579-10.48-4.9-1.411-20.234,8.687a89.5,89.5,0,0,0-18.692,17.318,26.377,26.377,0,0,0-5.541-10.533c-4.085-4.381-15.666,1.646-10.989,5.887" transform="translate(-295.158 -876.217)" fill="#2ab17f"/><rect width="9.535" height="123.362" transform="matrix(0.113, -0.994, 0.994, 0.113, 141.864, 310.861)" fill="#93b7e2"/><rect width="9.535" height="97.451" transform="matrix(0.113, -0.994, 0.994, 0.113, 139.521, 331.519)" fill="#d1dbed"/><g transform="translate(71.415 293.572)" opacity="0.5"><g clip-path="url(#i)"><path d="M377.3,1462.484l-14.424-1.348-7.309-.707c-2.443-.237-4.892-.495-7.341-.745l-.485-.05.051-.5q.372-3.632.762-7.261l.778-7.26,1.611-14.513.07-.631.631.073,14.505,1.678,7.25.867q3.625.428,7.248.883l.5.062-.061.485-.917,7.322-.947,7.282Zm0,0,1.374-14.66.7-7.227.728-7.187.436.547q-3.632-.371-7.262-.762l-7.259-.778L351.5,1430.8l.7-.558-1.68,14.505-.867,7.25q-.428,3.625-.883,7.248l-.434-.545c2.387.3,4.775.588,7.168.9l7.2.938Z" transform="translate(-347.737 -1429.472)" fill="#3d5891"/></g></g><path d="M347.2,1377.793c2.816,2.553,3.941,2.978,6.159,6.651,3.626,6,2.809,8.281,3.939,9.463s6.668,2.553,10.937-2.005,11.456-17.554,19.842-24.986,12.171-9.461,14.579-10.48-4.9-1.411-20.234,8.687a89.5,89.5,0,0,0-18.692,17.318,26.375,26.375,0,0,0-5.541-10.533c-4.085-4.381-15.666,1.646-10.989,5.886" transform="translate(-275.028 -1077.47)" fill="#e3e230"/><rect width="9.535" height="48.9" transform="translate(135.927 363.218) rotate(-83.531)" fill="#93b7e2"/><g transform="translate(133.584 374.402)" opacity="0.3"><g clip-path="url(#k)"><path d="M774.1,1836.949l-122.576-13.9-1.074,9.475c47.424,5.374,107.734,13.023,120.251,12.235a10.7,10.7,0,0,0,3.4-7.811" transform="translate(-650.453 -1823.05)" fill="#d1dbed"/></g></g><g transform="translate(65.884 345.975)" opacity="0.5"><g clip-path="url(#i)"><path d="M350.364,1717.648,335.94,1716.3l-7.309-.707c-2.443-.237-4.892-.495-7.342-.745l-.485-.05.051-.5q.373-3.632.762-7.261l.778-7.259,1.61-14.513.07-.631.631.073,14.505,1.679,7.25.867q3.625.428,7.248.883l.5.062-.061.485-.917,7.322-.947,7.281Zm0,0,1.373-14.659.7-7.227.728-7.187.436.547q-3.632-.371-7.262-.762l-7.259-.778-14.513-1.612.7-.558-1.68,14.505-.867,7.249q-.428,3.625-.883,7.248l-.434-.545c2.387.3,4.775.588,7.168.9l7.2.938Z" transform="translate(-320.805 -1684.637)" fill="#3d5891"/></g></g><path d="M319.023,1633.438c2.816,2.553,3.941,2.978,6.159,6.652,3.626,6,2.809,8.281,3.939,9.463s6.668,2.553,10.937-2.005,11.456-17.554,19.842-24.987,12.171-9.461,14.579-10.48-4.9-1.411-20.234,8.687a89.5,89.5,0,0,0-18.692,17.317,26.375,26.375,0,0,0-5.541-10.533c-4.085-4.381-15.666,1.646-10.989,5.886" transform="translate(-252.635 -1280.613)" fill="#e3e230"/><g transform="translate(128.619 53.955)" opacity="0.3"><g clip-path="url(#m)"><path d="M763.745,274.87l-1.934,21.576L626.276,284.3l1.934-21.576,9.463.848L636.4,277.821,753,288.271l1.277-14.249Z" transform="translate(-626.276 -262.722)" fill="#243354"/></g></g><path d="M789.825,37.017a16.707,16.707,0,0,0-10.327-4.8,19.823,19.823,0,0,1-8.4-2.722,20.62,20.62,0,0,1-3.049-2.23,19.809,19.809,0,0,1-6.246-10.788A19.9,19.9,0,0,0,744.114.734L736.837.082a19.894,19.894,0,0,0-20.209,12.343,19.811,19.811,0,0,1-8.065,9.505,20.61,20.61,0,0,1-3.4,1.653,19.823,19.823,0,0,1-8.747,1.185,16.708,16.708,0,0,0-11.017,2.89,13.989,13.989,0,0,0-1.28.956,16.82,16.82,0,0,0-5.971,11.416l-2.6,29.024L792.159,79.506l2.6-29.024a16.754,16.754,0,0,0-4.935-13.465m-51.788-9.381a10.137,10.137,0,0,1-9.462-10.757,10.4,10.4,0,0,1,20.686,1.854,10.137,10.137,0,0,1-11.224,8.9" transform="translate(-536.812 -0.002)" fill="#ff794c"/><path d="M891.041,1938.693l-22.821,5.536-21.895,5.314s-7.894-7.555-6.834-16.165l25.179-12.875,9.652-4.937Z" transform="translate(-667.005 -1522.165)" fill="#f5b0a6"/><path d="M1008.37,1938.693l-16.491,4.142-4.833-24.167,4.605-3.1Z" transform="translate(-784.335 -1522.165)" fill="#f18a8b"/><path d="M872.16,2105.676a103.886,103.886,0,0,1,19.039-38.03c-4.439-2.6-10.315-.055-11.871,1.778s-10.2,34.279-10.2,34.279Z" transform="translate(-690.63 -1642.13)" fill="#243354"/><path d="M785.286,2024.1s-2.544-5.405-1.236-14.785c1.574-11.289,11.611-24.83,10.174-28.92s-6.1-13.257-5.677-20.746c-9.211,1.867-12.985,5.832-17.548,6.618s-12.318,2.053-14.375,5.249,12.808,43.125,12.808,43.125l9.141,15.676Z" transform="translate(-601.081 -1557.192)" fill="#243354"/><path d="M877.69,2039.589c1.436,4.09-8.6,17.631-10.174,28.92-1.309,9.38,1.235,14.785,1.235,14.785L865.5,2086.3l-2.833-2.788s-3.7-11.036,1.867-27.715c2.262-6.785,5.858-15,10.983-21.658.876,2.2,1.7,4.1,2.171,5.447" transform="translate(-684.545 -1616.388)"/><path d="M862.841,2271s2.789-3.644-1-13.579c-3.842-.414-8.377,3.75-8.126,5.1,2.032,2.741,9.129,8.483,9.129,8.483" transform="translate(-678.377 -1793.791)" fill="#fff"/><path d="M739.587,2022.885c1.636,5.132,3.466,10.578,5.194,15.72,1.612,4.8,3.136,9.331,4.377,13.227,3.68,11.547,13.647,22.449,14.07,22.908,0,0,4.358-.964,5.248-4.834-.647-.822-9.326-10.22-12.52-20.24-1.259-3.949-2.791-8.508-4.412-13.333-3.816-11.361-9.626-29.528-9.6-31.411-3.2-1.925-6.993,1.421-6.993,1.421.859,4.222,2.6,10.137,4.638,16.542" transform="translate(-584.012 -1592.695)"/><path d="M748.632,2005.108a6.672,6.672,0,0,1,.984-.275c1.658,7.8,6.292,21.821,10.393,34.222,1.438,4.35,2.8,8.459,3.907,11.943,3.407,10.69,13.087,21.277,13.183,21.383l-.749.69c-.1-.107-9.929-10.856-13.405-21.764-1.109-3.479-2.466-7.585-3.9-11.932-1.646-4.977-3.377-10.214-4.97-15.21-2.372-7.441-4.433-14.346-5.439-19.058" transform="translate(-594.885 -1593.099)" fill="#fff"/><path d="M826.636,2253.279c.07.078.138.15.2.223-1,3.841-5.216,4.819-5.4,4.86l-.142.031-.1-.108c-.387-.421-8.8-9.63-13.061-20.079,1.13-.562,5.381-2.511,6.708-3.117,3.616,9.219,11.186,17.424,11.788,18.189" transform="translate(-642.171 -1776.067)"/><path d="M772.034,2022.829c1.691,5.306,3.474,10.726,4.728,14.457,1.618,4.815,3.146,9.363,4.41,13.328,1.329,4.169,4.524,11.007,12.2,19.911.19.222.322.374.382.449a.382.382,0,1,0,.6-.473c-.063-.08-.2-.241-.4-.475-7.594-8.805-10.746-15.542-12.054-19.644-1.266-3.971-2.794-8.521-4.414-13.34-4.031-12-9.6-29.548-9.582-31.285a.382.382,0,0,0-.765-.009c-.016,1.27,2.334,9.047,4.894,17.08" transform="translate(-609.591 -1593.526)" fill="#fff"/><path d="M840.374,2006.432a6.626,6.626,0,1,0,8.325,4.3,6.626,6.626,0,0,0-8.325-4.3" transform="translate(-664.118 -1594.119)" fill="#fff"/><path d="M846.045,2012.986a5.267,5.267,0,1,0,6.618,3.419,5.267,5.267,0,0,0-6.618-3.419" transform="translate(-669.377 -1599.379)" fill="#fff"/><path d="M854.024,2022.206a3.355,3.355,0,1,0,4.216,2.178,3.355,3.355,0,0,0-4.216-2.178" transform="translate(-676.775 -1606.777)"/><path d="M1009.7,1333.249s56.733,62.094,56.733,89.79-83.089,61.647-83.089,61.647l-23.229-41.991,50.032-26.356-21.442-82.2Z" transform="translate(-762.937 -1059.438)" fill="#284b89"/></g></g><g transform="translate(197.18 273.811)"><g clip-path="url(#n)"><g transform="translate(10.241 -4.438)" opacity="0.39"><g clip-path="url(#o)"><path d="M1023.6,1311.642s53.629,92.7,57.722,102.277c7.74,18.115,2.932,52.218,2.932,52.218s-74.621,7.352-74.271,6.2,16.912-63.963,16.912-63.963Z" transform="translate(-1009.981 -1311.641)" fill="#24447c"/></g></g></g></g><g transform="translate(0 0)"><g clip-path="url(#b)"><path d="M988.263,2198.223l-11.8,12.636-19.6,20.991s-10.75-1.98-14.589-9.758l15-26.394,4.327-7.622Z" transform="translate(-748.752 -1738.709)" fill="#f5b0a6"/><path d="M1041.073,2198.223l-14.8,15.725-17.553-14.882,5.678-10.988Z" transform="translate(-801.561 -1738.709)" fill="#f18a8b"/><path d="M1065.114,2379.05a103.883,103.883,0,0,1-4.974-42.238c-5.136.267-8.651,5.618-8.945,8s10.3,34.251,10.3,34.251Z" transform="translate(-835.305 -1856.899)" fill="#243354"/><path d="M934.455,2333.658s-5.094-3.12-9.152-11.678c-4.884-10.3-3.933-27.127-7.379-29.756s-12.376-7.73-16.137-14.22c-6.673,6.619-7.649,12-11.031,15.168s-9.166,8.481-9.13,12.281,34.387,29.007,34.387,29.007l16.248,8.08Z" transform="translate(-700.565 -1810.168)" fill="#243354"/><path d="M1039.223,2334.244c3.446,2.629,2.495,19.457,7.379,29.756,4.058,8.558,9.152,11.678,9.152,11.678l-1.062,4.3-3.9-.774s-9.149-7.193-13.66-24.187c-1.836-6.913-3.341-15.752-2.715-24.132,1.942,1.361,3.671,2.5,4.805,3.36" transform="translate(-821.864 -1852.188)"/><path d="M1118.854,2548.462s.33-4.577-8.3-10.8c-3.438,1.764-4.941,7.734-3.993,8.721,3.2,1.175,12.288,2.076,12.288,2.076" transform="translate(-879.088 -2016.501)" fill="#fff"/><path d="M874.038,2413.06c4.185,3.39,8.705,6.937,12.973,10.285,3.982,3.125,7.745,6.076,10.923,8.65,9.417,7.629,23.733,11.267,24.339,11.417,0,0,3.113-3.2,1.731-6.922-.991-.331-13.406-3.419-21.578-10.04-3.221-2.609-7-5.577-11.01-8.719-9.428-7.4-24.26-19.391-25.275-20.977-3.731.149-5.064,5.028-5.064,5.028,3.037,3.057,7.737,7.045,12.961,11.277" transform="translate(-684.237 -1904.531)"/><path d="M868.133,2404.075a6.652,6.652,0,0,1,.671-.771c5.671,5.612,17.242,14.781,27.479,22.893,3.591,2.846,6.983,5.534,9.824,7.835,8.718,7.063,22.622,10.595,22.76,10.63l-.246.988c-.142-.035-14.26-3.62-23.155-10.827-2.837-2.3-6.226-4.984-9.815-7.828-4.11-3.256-8.432-6.681-12.506-9.982-6.069-4.917-11.583-9.555-15.011-12.939" transform="translate(-689.844 -1909.735)" fill="#fff"/><path d="M1075.645,2556.474c.1.027.2.05.294.074,1.276,3.759-1.712,6.892-1.842,7.026l-.1.1-.143-.035c-.555-.139-12.646-3.212-21.942-9.607.636-1.091,3.119-5.054,3.894-6.289,8.085,5.718,18.916,8.418,19.84,8.727" transform="translate(-835.879 -2024.514)"/><path d="M897.4,2407.068c4.327,3.506,8.794,7.056,11.89,9.486,4,3.135,7.771,6.1,11,8.716,3.4,2.755,9.826,6.715,21.132,9.939.281.081.474.135.566.166a.382.382,0,1,0,.242-.725c-.1-.032-.3-.091-.6-.176-11.182-3.188-17.516-7.087-20.861-9.8-3.238-2.624-7.015-5.587-11.014-8.724-9.958-7.814-24.254-19.419-25.189-20.883a.382.382,0,0,0-.643.413c.684,1.07,6.918,6.279,13.47,11.586" transform="translate(-702.352 -1903.052)" fill="#fff"/><path d="M954.819,2338.6a6.626,6.626,0,1,0,9.319-.977,6.626,6.626,0,0,0-9.319.977" transform="translate(-757.553 -1856.371)" fill="#fff"/><path d="M961.132,2344.715a5.267,5.267,0,1,0,7.409-.777,5.267,5.267,0,0,0-7.409.777" transform="translate(-762.81 -1861.628)" fill="#fff"/><path d="M970.014,2353.315a3.355,3.355,0,1,0,4.72-.495,3.355,3.355,0,0,0-4.72.495" transform="translate(-770.206 -1869.025)"/><path d="M854.407,1323.325s-15.635,21.889-7.594,44.672,53.159,71.921,53.159,71.921l-28.143,61.2,46.012,27.7s24.123-75.495,27.7-91.577-41.991-92.024-41.991-92.024l-1.34-25.016-46.012,3.574Z" transform="translate(-671.075 -1049.068)" fill="#2c4da2"/><path d="M951.973,1484l-.762-.364c11.167-23.364,31.878-68.975,30.338-74.365-.724-2.532-8.028-12.114-16.484-23.208-15.023-19.708-33.719-44.234-35.293-53.993-1.042-6.461.155-15.754,3.557-27.622,2.528-8.818,5.4-15.84,5.429-15.91l.782.321c-.029.069-2.885,7.056-5.4,15.83-3.319,11.578-4.541,21-3.533,27.247,1.54,9.549,20.955,35.018,35.131,53.615,8.86,11.623,15.858,20.8,16.625,23.488.854,2.987-4.01,16.523-14.454,40.231-7.753,17.6-15.853,34.561-15.934,34.73" transform="translate(-738.533 -1023.907)" fill="#fff"/><path d="M1126.684,1818.014a.423.423,0,0,1-.173-.808l18.292-8.213a.423.423,0,0,1,.346.771l-18.292,8.213a.421.421,0,0,1-.173.037" transform="translate(-894.96 -1437.448)" fill="#fff"/><path d="M1141.226,1877.8a.423.423,0,0,1-.019-.845l16.052-.747a.423.423,0,0,1,.039.844l-16.053.747h-.02" transform="translate(-906.515 -1490.892)" fill="#fff"/><path d="M929.961,1339.312a.422.422,0,0,1-.351-.657c.215-.322.624-.362,1.3-.43,1.61-.16,4.959-.493,8.388-5.03,4.331-5.731,7.357-16.168,8.992-31.021a.423.423,0,0,1,.84.093c-1.652,15.006-4.733,25.583-9.158,31.438-3.651,4.831-7.249,5.189-8.978,5.361a4.337,4.337,0,0,0-.717.1.423.423,0,0,1-.317.142m.352-.188h0" transform="translate(-738.638 -1034.448)" fill="#fff"/><path d="M538.449,567.156c-3.484-7.715-28.48-40.6-29.7-42.17-.316-3.967-14.59-12.856-16.034-12.273s4.544,6.117,4.544,6.117l-6.581.232s-8.626-3.635-9.492-2.427,2.708,6.353,12.347,9.746l-7.161-1.475s-4.663-3.249-5.42-1.988,6.452,5.559,10.855,6.433a36.988,36.988,0,0,1-7.022,0c-1.856-.36-.957,3.533,7.8,2.468,0,0,4.078,3.05,8.627,2.476,0,0,14.587,43.31,24.044,53.016S560.6,623.9,560.6,623.9l15.43-27.128s-34.1-21.9-37.581-29.616" transform="translate(-382.135 -407.395)" fill="#f5b0a6"/></g></g><g transform="translate(98.762 105.291)"><g clip-path="url(#q)"><path d="M779.288,843.082l-22.641,26.966,3.053,2.289,6.869,9.158Z" transform="translate(-700.016 -775.228)" fill="#f18a8b"/><path d="M726.487,693.3c-3.982-1.426-9.584-5.528-13.64-6.726a22.87,22.87,0,0,0-6.182-.514,46.859,46.859,0,0,1-7.5-.713c2.381-1.387,5.787-.973,7.521-3.114,1.361-1.681.994-4.129.507-6.236a140.48,140.48,0,0,0-6.152-19.805q5.615,9.081,10.542,18.565c3.041,5.854,6.121,12.095,11.626,15.729Z" transform="translate(-654.338 -626.721)" fill="#f18a8b"/></g></g><g transform="translate(0 0)"><g clip-path="url(#b)"><path d="M497.224,539.869l-4.447-1.5-8.6-4.19.37-.76,8.577,4.178,4.372,1.476Z" transform="translate(-384.74 -423.868)" fill="#f18a8b"/><rect width="6.915" height="0.845" transform="translate(110.666 119.815) rotate(-69.531)" fill="#f18a8b"/><path d="M555.011,576.912a5.383,5.383,0,0,1,2.369-1.216,5.451,5.451,0,0,1,2.74.045,5.627,5.627,0,0,1,2.372,1.36,6.553,6.553,0,0,1,1.522,2.179,16.2,16.2,0,0,0-1.943-1.666,7,7,0,0,0-2.177-1.06,6.6,6.6,0,0,0-2.405-.206,10.033,10.033,0,0,0-2.477.562" transform="translate(-441.028 -457.343)" fill="#f18a8b"/><path d="M1201.412,525.839c2.791-7.992,24.793-42.947,25.869-44.623-.035-3.98,13.4-14.091,14.891-13.638s-3.987,6.494-3.987,6.494l6.576-.349s8.272-4.381,9.241-3.254-2.138,6.567-11.44,10.8l7-2.1s4.358-3.647,5.224-2.457-5.938,6.106-10.246,7.364a36.995,36.995,0,0,0,7-.614c1.817-.522,1.265,3.434-7.555,3.146,0,0-3.794,3.4-8.375,3.227,0,0-10.715,44.426-19.28,54.927s-31.981,39.556-31.981,39.556l-17.76-25.663s32.034-24.82,34.826-32.812" transform="translate(-927.003 -371.54)" fill="#f5b0a6"/></g></g><g transform="translate(239.583 96.024)"><g clip-path="url(#s)"><path d="M1203.256,855.469l27.22,14.755L1201.985,897.7s-11.957-31.8,1.272-42.229" transform="translate(-1190.776 -775.804)" fill="#f18a8b"/><path d="M1288.594,654.731a12.82,12.82,0,0,1,11.792-4.922c3.018.42,6.085,1.929,8.974.96a20.284,20.284,0,0,0-6.668-5.794c-.814-.439-1.773-.983-1.844-1.906a2.644,2.644,0,0,1,.482-1.449,171.736,171.736,0,0,0,11.418-24.365,392.774,392.774,0,0,1-23.21,32.364Z" transform="translate(-1263.537 -586.513)" fill="#f18a8b"/></g></g><g transform="translate(0 0)"><g clip-path="url(#b)"><path d="M1528.665,491.076l-.34-.774,4.224-1.855,8.176-4.917.436.724-8.247,4.956Z" transform="translate(-1214.451 -384.228)" fill="#f18a8b"/><rect width="0.845" height="6.915" transform="translate(312.618 104.611) rotate(-25.523)" fill="#f18a8b"/><path d="M1490.345,534.1a10,10,0,0,0-2.517-.342,6.589,6.589,0,0,0-2.378.417,7,7,0,0,0-2.076,1.248,16.149,16.149,0,0,0-1.789,1.83,6.555,6.555,0,0,1,1.324-2.3,5.625,5.625,0,0,1,2.243-1.564,5.449,5.449,0,0,1,2.725-.286,5.389,5.389,0,0,1,2.467,1" transform="translate(-1177.31 -423.571)" fill="#f18a8b"/><path d="M821.593,872.289s1.117-2.234,9.828-.67a48.263,48.263,0,0,0,17.2.223c3.127-.447,19.816-16.373,19.816-16.373l21.721,18.916s-13.375,11.652-17.173,22.15c-3.772,10.428.875,17.968-4.932,27.126s-6.7,26.58-6.7,26.58l-57.627,1.34-2.234-34.844a132.9,132.9,0,0,1-9.143-17.464c-3.35-8.264-16.675-19.91-16.675-19.91l17.67-22.9s24.9,15.153,28.25,15.823" transform="translate(-616.372 -679.781)" fill="#6fc183"/></g></g><g transform="translate(159.301 175.689)"><g clip-path="url(#u)"><g transform="translate(18.48 9.913)" opacity="0.34"><g clip-path="url(#v)"><path d="M870.471,955.078a56.034,56.034,0,0,0,17.394-37.487c.261-4.526-.014-9.085.5-13.586a13.335,13.335,0,0,1,5.661.771l.32,34.256c.037,3.927.111,8.021,1.813,11.506a7.231,7.231,0,0,0,3.194,3.5,8.938,8.938,0,0,0,4.747.4q3.522-.366,7.022-.939c2.822-.462,5.746-1.076,8.019-2.915,2.558-2.07,3.915-5.385,4.922-8.632a69.3,69.3,0,0,0,.713-38.19,2.945,2.945,0,0,1,2.915,2.073,11.732,11.732,0,0,1,.52,3.957A36.118,36.118,0,0,0,938.5,933.826c2.786,2.778,6.051,5.058,8.381,8.277,4.3,5.941,4.682,14.44,2,21.373s-8.059,12.4-14.138,16.19-12.873,6.079-19.651,8.135c-12.057,3.657-24.974,6.684-36.988,2.873-3.548-1.125-7.1-2.978-9.169-6.241a18.688,18.688,0,0,1-2.271-6.314A49.965,49.965,0,0,1,866,962.248Z" transform="translate(-865.653 -903.737)" fill="#40947e"/></g></g></g></g><g transform="translate(0 0)"><g clip-path="url(#b)"><path d="M880.056,999.547c17.769,3,46.368-1.022,61.924-.853a.209.209,0,0,1-.042-.066c-.038-.17-.072-.336-.107-.506-.011-.047-.018-.09-.029-.137s-.017-.085-.024-.126c-.044-.208-.083-.416-.122-.624l-.017-.082c-.107-.564-.2-1.132-.287-1.7-.07-.445-.132-.89-.188-1.339-.028-.223-.055-.446-.077-.669s-.047-.422-.067-.634l-.009-.088c-.021-.221-.04-.444-.058-.665-.013-.135-.023-.273-.031-.412-.016-.2-.029-.392-.039-.592-.011-.149-.02-.3-.025-.454,0-.039,0-.08-.006-.122-.008-.18-.016-.36-.022-.54-.006-.094-.006-.191-.009-.288a.47.47,0,0,1,0-.092c-.009-.249-.014-.5-.017-.746a42.6,42.6,0,0,1,.639-7.847,172.637,172.637,0,0,0,2.532-21.546,2.369,2.369,0,0,0-.577-1.527c-1.234-1.592-4.1-2.966-5.265-4.911-3.947-6.616-4.179-14.13-4.028-21.468.028-1.4.071-2.791.1-4.169a70.445,70.445,0,0,0-.56-13.33,30.1,30.1,0,0,0-1.677-6.185,10.938,10.938,0,0,0-1.27-2.823.333.333,0,0,0-.175-.092c-.7-.073-2.615.855-3.589,1.29a.411.411,0,0,0-.256.493c.049.154.094.3.139.459v0c.13.421.253.844.374,1.266a72.685,72.685,0,0,1,2.891,26.025.249.249,0,0,1-.263.2q-17.256-.126-34.514-.243a.234.234,0,0,1-.249-.225q.06-1.139.121-2.275.408-7.7.824-15.4.172-3.27.348-6.534c.035-.692.249-1.493.264-2.194v0a3.4,3.4,0,0,0-.012-.349c-.025-.256.228-.693-.379-.748a17.37,17.37,0,0,1-2.486-.32c-.938-.184-1.552-.274-1.548-.136a.112.112,0,0,1,0,.033v0c.064,1.932-.3,4.407-.231,6.347.07,2,.112,4.016.1,6.029-.069,13.266-2.352,26.562-12.594,36.273l-.237.219h0a7.513,7.513,0,0,1-3.035,1.719c-4.245,8.7-3.392,19.218-3.662,28.5-.008.27-.016.532-.022.788,0,.148-.006.292-.01.434-.009.29-.016.568-.023.841,0,.1-.008.2-.011.3s-.007.181-.011.273c0,.109-.01.218-.018.327-.007.148-.017.3-.027.447a56.214,56.214,0,0,1-2.926,9.566c2.438.6,7.542.7,10.572,1.214" transform="translate(-690.917 -719.071)" fill="#40947e"/></g></g><g transform="translate(178.567 185.843)"><g clip-path="url(#x)"><g transform="translate(-16.988 -3.449)" opacity="0.5"><g clip-path="url(#y)"><path d="M908.072,900.73l.008-1.908-13.355-.052.04-10.3-1.908-.007-.041,10.3-12.592-.049.04-10.3-1.908-.007-.04,10.3-12.593-.05.041-10.3-1.908-.007-.04,10.3-12.593-.049.04-10.3-1.908-.008-.04,10.3-12.592-.05.04-10.3-1.908-.008-.04,10.3-12.592-.049.04-10.3-1.908-.008-.04,10.3-12.592-.049.04-10.3-1.908-.007-.04,10.3-18.7-.073-.008,1.908,18.7.073-.049,12.593-18.7-.073-.008,1.908,18.7.073-.049,12.593-18.7-.074-.007,1.908,18.7.073-.049,12.592-18.7-.073-.007,1.908,18.7.073-.049,12.592-18.7-.073-.007,1.908,18.7.073-.05,12.593-18.7-.073-.007,1.908,18.7.073-.049,12.593-18.7-.073-.008,1.908,18.7.073-.04,10.3,1.908.007.04-10.3,12.592.049-.041,10.3,1.908.008.04-10.3,12.593.05-.04,10.3,1.908.008.04-10.3,12.593.049-.04,10.3,1.908.008.04-10.3,12.592.049-.04,10.3,1.908.007.04-10.3,12.592.05-.04,10.3,1.908.007.041-10.3,12.593.05-.041,10.3,1.908.007.04-10.3,13.356.052.008-1.908-13.355-.052.049-12.592,13.356.052.007-1.908-13.356-.053.049-12.592,13.356.052.007-1.908-13.356-.052.049-12.593,13.355.052.007-1.908-13.356-.052.049-12.593,13.355.053.008-1.908-13.356-.052.049-12.592,13.355.052.008-1.908-13.356-.053.049-12.592Zm-29.764-.117-.05,12.592-12.592-.049.049-12.592ZM849.137,944l-.049,12.593-12.592-.05.049-12.592Zm-12.585-1.957.05-12.592,12.592.049-.049,12.593Zm14.493,1.965,12.593.049-.049,12.593L851,956.6Zm.008-1.908.049-12.592,12.592.049-.049,12.592Zm.057-14.5.05-12.593,12.592.049-.049,12.592Zm-1.908-.008-12.593-.049.049-12.592,12.592.049Zm-14.5-.057-12.593-.05.05-12.592,12.593.049Zm-.007,1.908-.05,12.593-12.592-.049.049-12.592Zm-.057,14.5-.049,12.592-12.593-.049.05-12.592Zm-.057,14.5-.049,12.592-12.593-.049.049-12.593Zm1.908.007,12.592.049-.049,12.592-12.592-.049Zm14.5.057,12.593.049-.049,12.593-12.592-.049Zm14.5.057,12.592.049-.049,12.593-12.593-.049Zm.007-1.908.049-12.592,12.592.049-.049,12.592Zm.057-14.5.049-12.592,12.593.049-.049,12.592Zm.057-14.5.049-12.593,12.593.049-.049,12.592Zm-1.8-27.1-.049,12.593-12.593-.05.049-12.593Zm-14.5-.057-.049,12.593-12.593-.049.049-12.593Zm-14.5-.057-.049,12.592-12.592-.049.049-12.593Zm-27.093-.106,12.592.049-.049,12.592-12.592-.05Zm-.057,14.5,12.592.049-.049,12.593-12.592-.049Zm-.057,14.5,12.593.049-.049,12.593-12.592-.049Zm-.057,14.5,12.593.049-.05,12.592-12.592-.049Zm-.057,14.5,12.592.049-.049,12.592-12.593-.05Zm-.106,27.093.049-12.592,12.592.049-.049,12.593Zm14.5.057.049-12.592,12.592.05-.05,12.592Zm14.5.057.049-12.592,12.593.049-.049,12.592Zm14.5.057.049-12.593,12.592.049-.049,12.592Zm14.5.057.049-12.593,12.592.049-.049,12.592Zm27.093.106-12.592-.049.049-12.593,12.592.049Zm.057-14.5-12.592-.049.049-12.592,12.592.049Zm.057-14.5L880,956.714l.049-12.592,12.592.049Zm.057-14.5-12.593-.049.049-12.593,12.593.049Zm.057-14.5-12.593-.05.049-12.593,12.593.05Zm.057-14.5-12.592-.05.049-12.592,12.593.049Z" transform="translate(-786.767 -888.118)" fill="#fff"/></g></g></g></g><g transform="translate(0 0)"><g clip-path="url(#b)"><path d="M897.137,666.06a8.259,8.259,0,0,1,4.51-8.488,14.579,14.579,0,0,1,5.972-1.044c5.361-.1,10.9.333,15.916-1.577,1.761-.671,3.455-1.631,5.33-1.82a10.309,10.309,0,0,1,6.126,1.71,16.874,16.874,0,0,1,7.541,8.742c1.118,3.24.979,6.764,1.575,10.138a23.87,23.87,0,0,0,14.271,17.634,24.2,24.2,0,0,0-5.286,6.82,47.4,47.4,0,0,0-6.893-4.3,31.845,31.845,0,0,0,3.571,7.5,50.3,50.3,0,0,0-8.551,6.1l-3.479-5.676a19.754,19.754,0,0,0,.678,7.662,30.535,30.535,0,0,0-5.692,1.805l-3.993-4.584-2.177,6.939-17.348.291-1.17-9-3.239,4.623c-3.255-.016-6.392-1.125-9.457-2.22l-11.26-4.025c4.656-5.608,7.872-12.244,11.042-18.807a5.84,5.84,0,0,0,.391-5.417l-1.645-5.828a3.356,3.356,0,0,1,.51-3.546c.813-1.271,2.757-3.634,2.757-3.634" transform="translate(-702.517 -518.97)"/></g></g><g transform="translate(181.565 134.127)"><g clip-path="url(#aa)"><path d="M914.936,681.729s.127-5.724,5.6-6.742c-2.035,3.434-.382,7.378-.382,7.378s.127-5.978,4.325-6.614-2.162-1.018-2.29-4.706a8.758,8.758,0,0,1,7.5-9.158c5.469-.89-18.825.89-18.825.89s1.908,18.571,4.07,18.953" transform="translate(-905.365 -659.883)" fill="#282828"/><path d="M878.8,831.569l3.589,1.107a2.265,2.265,0,0,0,2.938-.744l3.928-4.034q-.7,4.088-1.78,8.1c1.31-.477,2.91.855,4.073.087a2.67,2.67,0,0,0,.8-1.036l6.9-12.944-3,14.289a.911.911,0,0,0,1.167.563,2.64,2.64,0,0,0,1.136-.888l4.372-4.97a73.275,73.275,0,0,0,1.939,8.172,31.126,31.126,0,0,0,14.808-1.8,11.372,11.372,0,0,0,3.208-1.717c2.935-2.4,3.4-6.642,3.642-10.428l1.774,4.649a2.958,2.958,0,0,0,1.6-.117l1.344-4.69a20.614,20.614,0,0,0,9.78-7.883,12.465,12.465,0,0,0,4.92,3.638,15.72,15.72,0,0,0,3.065-7.88c1.683.851,4.2.124,5.225,1.708a3.164,3.164,0,0,1,.4,1.6c.226,5.315-3.78,9.709-6.959,13.975-2.5,3.354-4.652,7.027-7.749,9.838-5.948,5.4-14.414,6.821-22.4,7.68-7.556.813-15.631,1.232-22.3-2.406-4.283-2.336-7.679-6.2-12.225-7.977-2.273-.886-4.887-1.288-6.565-3.059Z" transform="translate(-878.002 -780.193)" fill="#282828"/></g></g><g transform="translate(0 0)"><g clip-path="url(#b)"><path d="M992.567,743.539l-2.7.766a44.97,44.97,0,0,0,1.792,6.54c.233.56.544.96.7,1.3,6.823,14.656,0,15-5.98,12.864-.571-.205-1.115-.416-1.642-.638-7.561-3.129-10.667-7.616-10.667-7.616s.055-8.171-1.886-14.5c-.039-.133-.078-.266-.122-.4a8.561,8.561,0,0,1-.222-.838,10.863,10.863,0,0,1-4.138-.649c-.005-.005-.016-.005-.022-.011-4.66-1.692-7.339-6.08-5.98-9.785,1.082-2.973,4.427-4.6,8.115-4.255.278.028.555.061.832.111,0,0-.061-.15-.161-.427-.083-.222-.194-.538-.316-.915a4.162,4.162,0,0,0,1.559-.261c2.857-1.137,2.568-8.548,2.568-8.548,9.452-.128,11.871-10.029,11.871-10.029,1.476,2.657-1.01,6.7-1.131,6.89a7.484,7.484,0,0,0,5.336-6.812,1.316,1.316,0,0,1,.116.067,15.18,15.18,0,0,1,6.64,6.773c.078.327.155.638.25.915l2.491,8.809.843,2.968.588,2.075a12.68,12.68,0,0,1-8.731,15.61" transform="translate(-763.911 -561.203)" fill="#f5b0a6"/><path d="M1024.63,706.389a14.191,14.191,0,0,1-7.75,10.3c.8-.893,1.653-2.1,1.154-3.19a14.452,14.452,0,0,1-7.122,7.655,3.468,3.468,0,0,0-1.176.749,3.845,3.845,0,0,0-.538,1.076,5,5,0,0,1-2.89,2.918,3.39,3.39,0,0,1-1.681.1c-.083-.222-.194-.538-.316-.915a4.161,4.161,0,0,0,1.559-.261c2.857-1.137,2.568-8.548,2.568-8.548,9.452-.128,11.871-10.029,11.871-10.029,1.476,2.657-1.01,6.7-1.132,6.89a7.484,7.484,0,0,0,5.336-6.812,1.273,1.273,0,0,1,.117.067" transform="translate(-798.054 -561.203)" fill="#f18a8b"/><path d="M969.812,803.794l.111.177a6.482,6.482,0,0,0-6.429,3.85,7.639,7.639,0,0,0,1.093,7.566,8.637,8.637,0,0,0,3.09,2.446c-4.66-1.692-7.339-6.08-5.98-9.785,1.082-2.973,4.427-4.6,8.116-4.255" transform="translate(-763.911 -638.682)" fill="#f18a8b"/><path d="M1026.668,903.688c-7.561-3.129-10.667-7.616-10.667-7.616s.055-8.171-1.886-14.5c2.108,3.806,1.331,8.865,3.278,12.853,1.931,3.955,6.146,6.163,9.275,9.264" transform="translate(-805.845 -700.522)" fill="#f18a8b"/><path d="M1084.931,824.741s-3.432.175-10.172.558c0,0,1.2,7.069,6.056,6.264,4.119-.683,4.116-6.822,4.116-6.822" transform="translate(-854.035 -655.363)" fill="#fff"/><path d="M1067.621,783.44c.1,1.3.9,2.3,1.778,2.231s1.516-1.177,1.416-2.476-.9-2.3-1.778-2.231-1.516,1.177-1.416,2.476" transform="translate(-848.354 -620.574)"/><path d="M1102.6,799.459l.01,2.483a.2.2,0,0,1-.142.188l-4.45,1.258a.2.2,0,0,1-.179-.337l4.441-3.741a.2.2,0,0,1,.321.148" transform="translate(-872.316 -635.119)" fill="#f18a8b"/><path d="M976.761,830.064a4.04,4.04,0,0,1,2.1-1.589,3.986,3.986,0,0,1,2.741.1,5.048,5.048,0,0,1,1.194.67,6.625,6.625,0,0,1,.987.9,8.02,8.02,0,0,1,1.387,2.21c-.626-.6-1.216-1.206-1.85-1.733-.16-.129-.321-.256-.481-.38s-.324-.243-.5-.342a5.661,5.661,0,0,0-1.046-.543,4.1,4.1,0,0,0-2.27-.248,5.957,5.957,0,0,0-2.264.947" transform="translate(-776.162 -658.176)" fill="#f18a8b"/><path d="M992.091,837.831a2.74,2.74,0,0,1-1.1-.91,2.461,2.461,0,0,1-.491-1.444,1.981,1.981,0,0,1,.628-1.443,2.362,2.362,0,0,1,1.3-.625,8.211,8.211,0,0,0-.79,1.045,2,2,0,0,0-.3,1.029,3.244,3.244,0,0,0,.228,1.122c.142.392.327.789.522,1.226" transform="translate(-787.076 -662.252)" fill="#f18a8b"/><path d="M1045.362,879.145c3.008,6.473,8.957,8.944,13.334,9.877a47.963,47.963,0,0,1-1.945-7.1s-4.962,1.261-11.389-2.778" transform="translate(-830.675 -698.594)" fill="#f18a8b"/><path d="M1051.334,759.142a2.458,2.458,0,0,0-3.143,1.47c-.331,1.295-2.412,1-2.076-.313a4.5,4.5,0,0,1,5.532-3.233c1.3.325,1,2.406-.313,2.076" transform="translate(-831.243 -601.472)"/><path d="M1104.443,860.76a3.6,3.6,0,0,1-3.686.963c-.69-.255-.262-1.312.427-1.058a2.519,2.519,0,0,0,2.55-.8c.552-.487,1.258.409.709.893" transform="translate(-874.415 -683.163)" fill="#f18a8b"/><path d="M1032.266,818.051c.127.868,1.58,1.376,3.246,1.134s2.915-1.142,2.789-2.011-1.58-1.376-3.246-1.134-2.915,1.143-2.789,2.011" transform="translate(-820.261 -648.401)" fill="#f18a8b"/><path d="M1137.7,789.146a4.042,4.042,0,0,1-.632.253c-1.611.521-3.142.265-3.408-.573s.807-1.941,2.416-2.469a7.222,7.222,0,0,1,.775-.2Z" transform="translate(-900.806 -624.707)" fill="#f18a8b"/><path d="M1105.236,746.173c-1.26-.234-2.963-.67-3.843.553-.788,1.1-2.529-.079-1.739-1.177,1.4-1.948,3.62-1.864,5.747-1.469,1.317.244,1.164,2.34-.165,2.093" transform="translate(-873.658 -591.088)"/><path d="M1118,776.7c-1.26-.234-2.964-.67-3.843.553-.789,1.1-2.529-.079-1.739-1.177,1.4-1.948,3.62-1.864,5.747-1.469,1.317.244,1.164,2.34-.165,2.093" transform="translate(-883.797 -615.342)"/><path d="M1053.126,779.63a5.575,5.575,0,1,1,4.63-6.382,5.582,5.582,0,0,1-4.63,6.382m-1.652-10.388a4.943,4.943,0,1,0,5.659,4.105,4.949,4.949,0,0,0-5.659-4.105" transform="translate(-831.718 -610.711)" fill="#5681bf"/><path d="M1117.909,768.813a5.575,5.575,0,1,1,4.63-6.382,5.582,5.582,0,0,1-4.63,6.382m-1.652-10.388a4.943,4.943,0,1,0,5.659,4.105,4.949,4.949,0,0,0-5.659-4.105" transform="translate(-883.196 -602.115)" fill="#5681bf"/><path d="M1099.353,786.07a2.276,2.276,0,0,1,2.4-.239c.276.131.446-.311.172-.442a2.752,2.752,0,0,0-2.876.314c-.243.185.058.552.3.366" transform="translate(-873.267 -623.88)" fill="#5681bf"/><path d="M861.545,103.243s-10.623,19.682-39.052,31.863c.483-11.117-9.131-17.185-13.507-19.365a21.668,21.668,0,0,0-2.091-.926.061.061,0,0,1-.022-.011s20.619-12.814,26.555-35.619c19.371,2.191,28.119,24.058,28.119,24.058" transform="translate(-641.164 -62.923)" fill="#fef2ef"/><path d="M282.889,45.959S262.9,82.51,218.847,89.694a46.106,46.106,0,0,1-6.191-1.881C183.428,76.658,189.48,42.526,189.48,42.526s46.863,1.248,64.986-16.875c4.776,17.435,23.986,19.942,27.775,20.264.416.033.649.044.649.044" transform="translate(-150.154 -20.383)" fill="#d3e9ff"/><path d="M218.847,154.985a46.106,46.106,0,0,1-6.191-1.881c-29.228-11.155-23.176-45.287-23.176-45.287s-5.405,35.148,29.367,47.168" transform="translate(-150.154 -85.675)" fill="#93b7e2"/><path d="M374.569,124.376s-19.993,36.55-64.043,43.735a46.919,46.919,0,0,1-6.192-1.883c-.016-.146,5.27,5.036,9.915-9.063,12.276,1.824,45.961-12.943,59.566-32.686.032-.049.07-.1.1-.146.418.032.651.043.651.043" transform="translate(-241.832 -98.799)" fill="#e8f4ff"/><g transform="translate(0 128.357)" opacity="0.46"><g clip-path="url(#ac)"><path d="M.715,625s-7.243,41.545,24.367,64.982c-5.153-27.168-6.171-29.712-6.171-29.712Z" transform="translate(0 -624.999)" fill="#f19a6d"/></g></g><path d="M59.646,656.323s-24.052.315-34.048,13.122C-5.331,640.08,1.23,604.464,1.23,604.464c23.428,1.563,46.547-5.308,46.547-5.308s-1.058,6.724-1.661,14.593a98.854,98.854,0,0,0-.212,14.772,23.392,23.392,0,0,0,.814,4.352c3.023,10.886,12.927,23.45,12.927,23.45" transform="translate(-0.515 -476.107)" fill="#fef2ef"/><g transform="translate(24.426 136.801)" opacity="0.46"><g clip-path="url(#ad)"><path d="M140.712,686.083c-.168-.19-.336-.374-.5-.554-3.734-4.1-21.279,1.123-21.279,1.123l20.156-8.96.749-11.576.271.841a98.855,98.855,0,0,0-.212,14.772,23.391,23.391,0,0,0,.814,4.352" transform="translate(-118.934 -666.118)" fill="#f19a6d"/></g></g></g></g></g></svg>