<svg xmlns="http://www.w3.org/2000/svg" width="72.62" height="55.67" viewBox="0 0 72.62 55.67"><g transform="translate(-0.457 -8)"><path d="M14.539,35.544,1.533,30.125.64,32.264,9.2,35.833V46.27a1.16,1.16,0,0,0,1.16,1.16h5.862a15.4,15.4,0,0,0,2.114,2.659,2.793,2.793,0,0,0,4.34-.485l.224.282a2.716,2.716,0,0,0,4.734-.941,2.783,2.783,0,0,0,4.374-.6,2.721,2.721,0,0,0,3.356-.915H52.113a1.16,1.16,0,0,0,1.16-1.16V9.16A1.16,1.16,0,0,0,52.113,8H10.364A1.16,1.16,0,0,0,9.2,9.16V18.83L1.716,13.985.457,15.932,19.213,28.068ZM11.524,45.11V36.8l2.319.966v1.464A15.336,15.336,0,0,0,15,45.11Zm21.292,1.009-5.324-6.39-1.784,1.486,2.884,3.459L29.9,46.423a.886.886,0,0,1,.175.526.5.5,0,0,1-.82.34l-5.318-5.318L22.3,43.612,24.487,45.8l.739,1.476a2.029,2.029,0,0,1,.215.908.423.423,0,0,1-.724.255l-4.175-5.211L18.73,44.675l1.946,2.435a4.432,4.432,0,0,1,.116,1,.5.5,0,0,1-.82.34,12.957,12.957,0,0,1-3.81-9.223V37.324l5.159-8.256,3.723.414a90.694,90.694,0,0,0,9.973.552.862.862,0,0,1,.271,1.68,12.423,12.423,0,0,1-3.935.639H28.919a1.16,1.16,0,0,0-1.038,1.679l5.468,10.934a1.984,1.984,0,0,1,.209.884.436.436,0,0,1-.742.269Zm-5.056-35.8h6.958V19.6H27.76ZM11.524,20.331V10.319H25.44V20.757a1.16,1.16,0,0,0,1.16,1.16h9.278a1.16,1.16,0,0,0,1.16-1.16V10.319H50.954V45.11H35.791a4.245,4.245,0,0,0-.366-1.181l-.569-1.139H48.634V40.471H33.695l-2.9-5.8h.559a14.79,14.79,0,0,0,4.673-.758,3.182,3.182,0,0,0-1.012-6.2,88.641,88.641,0,0,1-9.715-.537l-3.863-.429-.007-.007Z" fill="#e3e230"/><path d="M46.376,44.105l-5.865.837a3.038,3.038,0,0,0-2.594,2.978L30.808,46.5a8.158,8.158,0,0,0-5.208.624,2.892,2.892,0,0,0,.378,5.335l14.96,4.987a9.289,9.289,0,0,0,5.19.2l6.926-1.731a1.148,1.148,0,0,0,1.011.847l15.076,1.16.177-2.322L55.312,54.523V47.479H69.229V45.159H54.153a1.147,1.147,0,0,0-.849.384,10.478,10.478,0,0,0-6.928-1.438Zm-.812,11.284a6.984,6.984,0,0,1-3.893-.15l-14.96-4.987a.573.573,0,0,1-.074-1.055,5.825,5.825,0,0,1,3.717-.424l9.22,1.844a2.986,2.986,0,0,0,1.366.341h3.936V48.638H40.939a.7.7,0,0,1-.1-1.4L46.7,46.4a8.206,8.206,0,0,1,5.671,1.286l.618.413v5.432Z" transform="translate(3.759 5.749)" fill="#e3e230"/><rect width="9.278" height="2.319" transform="translate(39.357 35.833)" fill="#e3e230"/></g></svg>