<svg xmlns="http://www.w3.org/2000/svg" width="63.667" height="61.545" viewBox="0 0 63.667 61.545"><g transform="translate(-1 -2)"><g transform="translate(1 2)"><g transform="translate(16.475)"><g transform="translate(14.156 5.303)"><path d="M19.819,14.051a6.379,6.379,0,0,1-3.99-1.407,1.061,1.061,0,0,1,1.331-1.653,4.2,4.2,0,0,0,2.659.938,4.249,4.249,0,0,0,4.244-4.244,4.184,4.184,0,0,0-.354-1.7,1.061,1.061,0,1,1,1.944-.853,6.3,6.3,0,0,1,.533,2.551A6.374,6.374,0,0,1,19.819,14.051Z" transform="translate(-15.434 -4.499)" fill="#e3e230"/></g><g transform="translate(10.073 25.486)"><path d="M28.345,37.334a1.061,1.061,0,0,1-1.061-1.061V25.28a3.147,3.147,0,0,0-2.5-3.1L14.34,19.864a1.061,1.061,0,0,1-.787-1.335l1.1-3.758a1.062,1.062,0,1,1,2.037.6l-.783,2.67,9.334,2.069a5.252,5.252,0,0,1,4.162,5.172V36.273a1.061,1.061,0,0,1-1.061,1.061Z" transform="translate(-13.51 -14.009)" fill="#e3e230"/></g><g transform="translate(0 13.893)"><path d="M33.671,49.831a5.931,5.931,0,0,1-5.87-5.123L26.356,34.354a69.288,69.288,0,0,0-10.617-1.5c-3.57,0-5.955-2.054-6.717-5.787-1.307-6.4,2.536-15.965,7.213-17.96a7.9,7.9,0,0,1,9,2.394l4.758,5.624,7.252.9a3.174,3.174,0,0,1,2.133,1.22,3.134,3.134,0,0,1,.635,2.326,3.174,3.174,0,0,1-3.154,2.791,2.051,2.051,0,0,1-.507-.051l-8.493-1.04a3.353,3.353,0,0,1-1.806-.872l-6.5-6.857a1.061,1.061,0,0,1,1.541-1.46L27.544,20.9a1.156,1.156,0,0,0,.59.274l8.595,1.059A1.129,1.129,0,0,0,37.9,21.31a1.026,1.026,0,0,0-.208-.768,1.071,1.071,0,0,0-.719-.412l-7.659-.955a1.062,1.062,0,0,1-.679-.367l-5.03-5.942a5.773,5.773,0,0,0-6.545-1.808C13.292,12.667,10,21.26,11.1,26.641c.554,2.714,2.116,4.09,4.639,4.09,3.954,0,11.475,1.632,11.793,1.7a1.059,1.059,0,0,1,.826.889l1.549,11.1a3.8,3.8,0,0,0,3.765,3.287,1.061,1.061,0,0,1,0,2.122Z" transform="translate(-8.763 -8.547)" fill="#e3e230"/></g><g transform="translate(11.114)"><path d="M18.244,12.611H15.655a1.064,1.064,0,0,1-.923-.537A5.332,5.332,0,0,1,14,9.428V8.367A6.374,6.374,0,0,1,20.367,2h1.061c4.1,0,7.428,2.857,7.428,6.367a1.061,1.061,0,0,1-1.061,1.061H22.355A4.253,4.253,0,0,1,18.244,12.611Zm-1.921-2.122h1.921a2.126,2.126,0,0,0,2.122-2.122,1.061,1.061,0,0,1,1.061-1.061h5.138a5.239,5.239,0,0,0-5.138-3.183H20.367a4.249,4.249,0,0,0-4.244,4.244V9.428A2.93,2.93,0,0,0,16.324,10.489Z" transform="translate(-14 -2)" fill="#e3e230"/></g></g><g transform="translate(2.122 36.078)"><path d="M34.894,38.1H3.061a1.061,1.061,0,0,1-1.012-1.379l2.08-6.6A15.864,15.864,0,0,1,19.317,19h4.966a5.313,5.313,0,0,1,5.306,5.306v6.367a5.313,5.313,0,0,0,5.306,5.306,1.061,1.061,0,1,1,0,2.122ZM4.509,35.978H29.7a7.4,7.4,0,0,1-2.235-5.306V24.306a3.187,3.187,0,0,0-3.183-3.183H19.317A13.753,13.753,0,0,0,6.151,30.759Z" transform="translate(-2 -19)" fill="#e3e230"/></g><g transform="translate(4.244 25.467)"><path d="M12.55,16.122H4.061a1.061,1.061,0,1,1,0-2.122H12.55a1.061,1.061,0,0,1,0,2.122Z" transform="translate(-3 -14)" fill="#e3e230"/></g><g transform="translate(0 21.222)"><path d="M14.794,28.978H2.061A1.061,1.061,0,0,1,1,27.917V13.061A1.061,1.061,0,0,1,2.061,12H14.794a1.061,1.061,0,0,1,1.061,1.061V27.917A1.061,1.061,0,0,1,14.794,28.978ZM3.122,26.856H13.733V14.122H3.122Z" transform="translate(-1 -12)" fill="#e3e230"/></g><g transform="translate(9.341 53.056)"><path d="M11.977,35.489a7.447,7.447,0,0,1-6.432-3.708,1.061,1.061,0,0,1,1.836-1.063,5.308,5.308,0,0,0,9.9-2.657,1.061,1.061,0,1,1,2.122,0,7.436,7.436,0,0,1-7.428,7.428Z" transform="translate(-5.401 -27)" fill="#e3e230"/></g><g transform="translate(49.711 48.155)"><path d="M30.952,38.08a7.369,7.369,0,0,1-6.377-3.612A1.061,1.061,0,1,1,26.4,33.378a5.308,5.308,0,1,0,7.946-6.81A1.061,1.061,0,1,1,35.7,24.935,7.43,7.43,0,0,1,30.952,38.08Z" transform="translate(-24.424 -24.691)" fill="#e3e230"/></g><g transform="translate(27.589 53.056)"><path d="M23.55,29.122H15.061a1.061,1.061,0,1,1,0-2.122H23.55a1.061,1.061,0,1,1,0,2.122Z" transform="translate(-14 -27)" fill="#e3e230"/></g><g transform="translate(10.611 46.689)"><path d="M15.55,26.122H7.061a1.061,1.061,0,0,1,0-2.122H15.55a1.061,1.061,0,1,1,0,2.122Z" transform="translate(-6 -24)" fill="#e3e230"/></g><g transform="translate(46.689 44.567)"><path d="M28.093,33.611H24.061A1.061,1.061,0,0,1,23,32.55a9.543,9.543,0,0,1,15.857-7.162,1.061,1.061,0,0,1,.028,1.562l-4.2,4.011A9.463,9.463,0,0,1,28.093,33.611ZM25.2,31.489h2.895a7.366,7.366,0,0,0,5.123-2.061l3.3-3.151A7.42,7.42,0,0,0,25.2,31.489Z" transform="translate(-23 -23)" fill="#e3e230"/></g><g transform="translate(0 36.078)"><path d="M21.161,21.122H2.061a1.061,1.061,0,0,1,0-2.122h19.1a1.061,1.061,0,1,1,0,2.122Z" transform="translate(-1 -19)" fill="#e3e230"/></g><g transform="translate(0 4.244)"><path d="M14.794,6.122H2.061A1.061,1.061,0,0,1,2.061,4H14.794a1.061,1.061,0,1,1,0,2.122Z" transform="translate(-1 -4)" fill="#e3e230"/></g><g transform="translate(6.367)"><path d="M22.039,4.122H5.061A1.061,1.061,0,1,1,5.061,2H22.039a1.061,1.061,0,1,1,0,2.122Z" transform="translate(-4 -2)" fill="#e3e230"/></g><g transform="translate(48.811 19.1)"><path d="M29.306,19.489H28.244a4.244,4.244,0,1,1,0-8.489h1.061a3.187,3.187,0,0,1,3.183,3.183v2.122A3.187,3.187,0,0,1,29.306,19.489Zm-1.061-6.367a2.122,2.122,0,0,0,0,4.244h1.061a1.061,1.061,0,0,0,1.061-1.061V14.183a1.062,1.062,0,0,0-1.061-1.061Z" transform="translate(-24 -11)" fill="#e3e230"/></g><g transform="translate(36.078 31.833)"><path d="M23.306,40.344H19.061a1.061,1.061,0,0,1,0-2.122h4.244a3.187,3.187,0,0,0,3.183-3.183V18.061a1.061,1.061,0,1,1,2.122,0V35.039A5.313,5.313,0,0,1,23.306,40.344Z" transform="translate(-18 -17)" fill="#e3e230"/></g><g transform="translate(45.652 25.588)"><path d="M29.777,35.831a1.062,1.062,0,0,1-1.048-.9L26.318,19.362a3.888,3.888,0,0,0-2.977-3.209,1.06,1.06,0,0,1,.465-2.069,6.027,6.027,0,0,1,4.612,4.96l2.409,15.564a1.063,1.063,0,0,1-.885,1.212,1.438,1.438,0,0,1-.163.011Z" transform="translate(-22.512 -14.057)" fill="#e3e230"/></g></g></g></svg>