<svg xmlns="http://www.w3.org/2000/svg" width="66.667" height="61.29" viewBox="0 0 66.667 61.29"><g transform="translate(-1 -3)"><path d="M26.075,36A1.075,1.075,0,0,0,25,37.075v4.3a1.075,1.075,0,0,0,2.151,0v-4.3A1.075,1.075,0,0,0,26.075,36Z" transform="translate(1.806 2.484)" fill="#1d7b58"/><path d="M22.075,36A1.075,1.075,0,0,0,21,37.075v4.3a1.075,1.075,0,0,0,2.151,0v-4.3A1.075,1.075,0,0,0,22.075,36Z" transform="translate(1.505 2.484)" fill="#1d7b58"/><path d="M46.075,36A1.075,1.075,0,0,0,45,37.075v4.3a1.075,1.075,0,0,0,2.151,0v-4.3A1.075,1.075,0,0,0,46.075,36Z" transform="translate(3.312 2.484)" fill="#1d7b58"/><path d="M42.075,36A1.075,1.075,0,0,0,41,37.075v4.3a1.075,1.075,0,0,0,2.151,0v-4.3A1.075,1.075,0,0,0,42.075,36Z" transform="translate(3.011 2.484)" fill="#1d7b58"/><path d="M38.075,36A1.075,1.075,0,0,0,37,37.075v4.3a1.075,1.075,0,0,0,2.151,0v-4.3A1.075,1.075,0,0,0,38.075,36Z" transform="translate(2.71 2.484)" fill="#1d7b58"/><path d="M34.075,36A1.075,1.075,0,0,0,33,37.075v4.3a1.075,1.075,0,0,0,2.151,0v-4.3A1.075,1.075,0,0,0,34.075,36Z" transform="translate(2.409 2.484)" fill="#1d7b58"/><path d="M26.075,24A1.075,1.075,0,0,0,25,25.075v4.3a1.075,1.075,0,1,0,2.151,0v-4.3A1.075,1.075,0,0,0,26.075,24Z" transform="translate(1.806 1.581)" fill="#1d7b58"/><path d="M50.075,24A1.075,1.075,0,0,0,49,25.075v4.3a1.075,1.075,0,1,0,2.151,0v-4.3A1.075,1.075,0,0,0,50.075,24Z" transform="translate(3.613 1.581)" fill="#1d7b58"/><path d="M46.075,24A1.075,1.075,0,0,0,45,25.075v4.3a1.075,1.075,0,1,0,2.151,0v-4.3A1.075,1.075,0,0,0,46.075,24Z" transform="translate(3.312 1.581)" fill="#1d7b58"/><path d="M42.075,24A1.075,1.075,0,0,0,41,25.075v4.3a1.075,1.075,0,1,0,2.151,0v-4.3A1.075,1.075,0,0,0,42.075,24Z" transform="translate(3.011 1.581)" fill="#1d7b58"/><path d="M38.075,24A1.075,1.075,0,0,0,37,25.075v4.3a1.075,1.075,0,1,0,2.151,0v-4.3A1.075,1.075,0,0,0,38.075,24Z" transform="translate(2.71 1.581)" fill="#1d7b58"/><path d="M34.075,24A1.075,1.075,0,0,0,33,25.075v4.3a1.075,1.075,0,1,0,2.151,0v-4.3A1.075,1.075,0,0,0,34.075,24Z" transform="translate(2.409 1.581)" fill="#1d7b58"/><path d="M66.591,38.484H63.366V35.258a1.075,1.075,0,0,0-1.075-1.075H59.065V22.355a1.075,1.075,0,0,0-1.075-1.075H23.581a1.075,1.075,0,0,0-1.075,1.075V34.183H20.355v-17.2a1.075,1.075,0,0,0,1.054-.864l1.075-5.376A1.075,1.075,0,0,0,21.43,9.452H20.355V6.226a3.226,3.226,0,0,0-6.452,0V9.452H11.753V6.226a3.226,3.226,0,0,0-6.452,0V9.452H4.226a1.075,1.075,0,0,0-1.054,1.286l1.075,5.376a1.075,1.075,0,0,0,1.054.864V47.086H2.075A1.075,1.075,0,0,0,1,48.161v3.226a1.073,1.073,0,0,0,.375.816L4.82,55.156a10.6,10.6,0,0,1,3.707,8.059A1.075,1.075,0,0,0,9.6,64.29H55.839a3.229,3.229,0,0,0,3.226-3.226v-1.7a7.5,7.5,0,0,1,1.264-4.175l7.157-10.736a1.076,1.076,0,0,0,.181-.6v-4.3A1.075,1.075,0,0,0,66.591,38.484ZM33.258,23.43H56.914V34.183H33.258Zm0,12.9H61.215v2.151H53.688a1.075,1.075,0,0,0-1.043.815L50.7,47.086H33.258Zm-8.6-12.9h6.452V34.183H24.656Zm-4.3,12.9H31.108V47.086H20.355Zm-4.3-30.108a1.075,1.075,0,1,1,2.151,0V9.452H16.054Zm-8.6,0a1.075,1.075,0,1,1,2.151,0V9.452H7.452ZM20.118,11.6l-.645,3.226H6.183L5.538,11.6ZM7.452,34.183V26.656H18.2v7.527ZM18.2,36.333V47.086H7.452V36.333ZM7.452,24.505V16.979H18.2v7.527ZM58.54,54a9.646,9.646,0,0,0-1.625,5.368v1.7a1.076,1.076,0,0,1-1.075,1.075H10.632A12.747,12.747,0,0,0,6.22,53.524L3.151,50.893V49.237H51.538a1.075,1.075,0,0,0,1.043-.815l.872-3.486h11.13Zm6.977-11.215H53.99l.538-2.151H65.516Z" transform="translate(0 0)" fill="#1d7b58"/></g></svg>