<svg xmlns="http://www.w3.org/2000/svg" xmlns:xlink="http://www.w3.org/1999/xlink" width="1032.5" height="449.992" viewBox="0 0 1032.5 449.992"><defs><linearGradient id="a" x1="0.355" y1="0.326" x2="0.988" y2="0.297" gradientUnits="objectBoundingBox"><stop offset="0" stop-color="#92c9ff"/><stop offset="1" stop-color="#2ab17f"/></linearGradient><clipPath id="b"><path d="M14.862,0H1017.638c8.208,0,14.862,7.55,14.862,16.864V433.129c0,9.314-6.654,16.864-14.862,16.864H14.862C6.654,449.992,0,442.442,0,433.129V16.864C0,7.55,6.654,0,14.862,0Z" transform="translate(-12635 -12918)" fill="#eff6ff"/></clipPath><clipPath id="c"><rect width="595.179" height="471.239" fill="#e8f6f1"/></clipPath><clipPath id="d"><rect width="326.7" height="233.292" fill="#92c9ff"/></clipPath><clipPath id="e"><path d="M0,0,500.145-.42l-.3,356.9L-.3,356.9Z" fill="#92c9ff"/></clipPath><clipPath id="f"><rect width="589.913" height="140.083" fill="url(#a)"/></clipPath><clipPath id="h"><rect width="192.045" height="188.619" fill="none"/></clipPath><clipPath id="i"><path d="M5.686,53.637A49.462,49.462,0,1,0,55.154,4.181,49.468,49.468,0,0,0,5.686,53.637" transform="translate(-5.686 -4.181)" fill="none"/></clipPath><radialGradient id="j" cx="0.546" cy="0.174" r="0.948" gradientTransform="matrix(0, 1, 1, 0, -1.471, 1.471)" gradientUnits="objectBoundingBox"><stop offset="0" stop-color="#fff"/><stop offset="1" stop-color="#b3b3b3"/></radialGradient><clipPath id="k"><path d="M6.024,51.9A47.389,47.389,0,1,0,53.416,4.518,47.386,47.386,0,0,0,6.024,51.9" transform="translate(-6.024 -4.518)" fill="none"/></clipPath><radialGradient id="l" cx="0.548" cy="1.07" r="1.313" gradientTransform="matrix(0, -1, -1, 0, 1.219, 1.219)" gradientUnits="objectBoundingBox"><stop offset="0" stop-color="#fff"/><stop offset="1" stop-color="#e5e5e5"/></radialGradient><clipPath id="aa"><rect width="33.238" height="29.286" fill="none" stroke="#92c9ff" stroke-width="1"/></clipPath><clipPath id="ab"><rect width="22.458" height="19.788" fill="none" stroke="#92c9ff" stroke-width="1"/></clipPath><clipPath id="ac"><rect width="22.458" height="19.788" fill="none" stroke="#2ab17f" stroke-width="1"/></clipPath><clipPath id="ad"><rect width="33.238" height="29.286" fill="none" stroke="#2ab17f" stroke-width="1"/></clipPath></defs><g transform="translate(-282.5 -2182.008)"><g transform="translate(0 -23)"><g transform="translate(12917.5 15123.008)" opacity="0.2" clip-path="url(#b)"><g transform="translate(-12683.449 -12971.008)" fill="#fff" stroke="#707070" stroke-width="1"><rect width="1118" height="544" stroke="none"/><rect x="0.5" y="0.5" width="1117" height="543" fill="none"/></g><path d="M14.862,0H1017.638c8.208,0,14.862,7.483,14.862,16.714V429.278c0,9.231-6.654,16.714-14.862,16.714H14.862C6.654,445.992,0,438.509,0,429.278V16.714C0,7.483,6.654,0,14.862,0Z" transform="translate(-12635 -12918)" fill="#f6f6f6"/><path d="M297.626,0C462,0,595.252,133.574,595.252,298.347S462,596.693,297.626,596.693,0,463.119,0,298.347,133.252,0,297.626,0Z" transform="translate(-12529.795 -13352.778)" fill="#d3e9ff" opacity="0.41"/><path d="M278.462,0c153.79,0,278.462,124.974,278.462,279.136S432.252,558.273,278.462,558.273,0,433.3,0,279.136,124.672,0,278.462,0Z" transform="translate(-13037.831 -12771.375)" fill="#92c9ff" opacity="0.48" style="mix-blend-mode:multiply;isolation:isolate"/><g transform="translate(-12141.796 -12928.623)" style="mix-blend-mode:multiply;isolation:isolate"><g transform="translate(0 0)" clip-path="url(#c)"><path d="M176.419,55.311c-13.353,13.094-27.04,25.847-39.986,39.353-24.95,26.03-49.814,52.163-74.105,78.842C26.823,212.5,4.5,258.108,1.989,312.176.3,348.523.559,384.969.1,421.372-.1,437.99.066,454.613.064,471.234H8.448c-.118-29.246-.542-58.495-.259-87.737.233-24.1.714-48.232,2.126-72.284,2.615-44.534,18.584-83.99,46.53-117.765,16.875-20.395,35.5-39.267,53.593-58.573q28.276-30.174,57.11-59.79c5.894-6.037,12.792-11.033,19.231-16.505a5.03,5.03,0,0,1,.8-1.13C205.382,43.2,224.25,30.723,245.019,21.535,268.047,11.348,291.958,6.346,317.1,9.41c31.02,3.78,59.795,14.863,87.532,29.07,53.716,27.514,99.228,66.634,143.191,107.91q21.985,21.787,43.972,43.572c1.108,1.1,2.234,2.174,3.352,3.261q.015-6.184.031-12.37c-3.227-3.171-6.476-6.318-9.679-9.514q-14.475-14.445-28.922-28.921c-12.758-11.417-25.381-23-38.3-34.22C480.592,75.466,441.057,45.549,395.762,24.67,370.633,13.086,344.774,3.96,317.191.828c-26.455-3-51.527,2.3-75.718,13.026-22.08,9.787-42.041,23.174-60.916,38.378-1.34,1.079-2.758,2.055-4.139,3.079" transform="translate(0 0.005)" fill="#e8f6f1"/><path d="M9.7,738.237c-.579-18.684-.705-37.4-1.837-56.046-1.953-32.155,3.361-63.317,10.58-94.343,5.212-22.4,11.244-44.459,20.332-65.6,12.986-30.213,34.955-48.076,66.431-54.752a507.433,507.433,0,0,1,80.232-10.126c27.259-1.358,54.577-2.231,81.862-2.062,32.744.2,63.967,7.65,92.552,24.89,19.574,11.8,36.108,27.5,52.479,43.411,27.3,26.535,54.331,53.366,82.062,79.411,12.8,12.019,26.976,22.478,40.527,33.643q0-5.36,0-10.72c-18.767-16.2-38.089-31.78-56.169-48.76-26.242-24.646-51.458-50.449-77.347-75.5-34.546-33.427-75.437-51.78-122.942-54.478-32.613-1.852-65.159-.545-97.638,2.035-22.228,1.765-44.372,4.82-66.489,7.806-7.479,1.009-14.772,3.527-22.131,5.433-26.8,6.939-45.085,24.446-57.523,49.212-12.3,24.489-19.351,50.8-24.94,77.55-3.551,17-7.807,34.065-8.988,51.3-1.469,21.432-.124,43.072.066,64.622.1,11.025.325,22.048.494,33.072Z" transform="translate(60.231 -266.998)" fill="#e8f6f1"/><path d="M8.447,851.755q3.824-49.431,7.665-98.86c1.7-21.483,3.086-42.98,9.481-63.78,8.509-27.674,27.455-40.939,54.637-43.641,25.654-2.55,51.179-.261,76.636,2.431,19.566,2.069,39.032,5.183,58.516,8.026,30.514,4.452,54.579,20.626,74.777,43.862,12.207,14.042,24.179,28.35,37.083,41.69,16.294,16.845,36.3,28.83,55.132,42.325,11.447,8.2,22.63,16.8,33.932,25.214q0-5.53-.005-11.061c-23.329-16.887-46.835-33.524-69.927-50.749-16.457-12.276-29.3-28.449-42.408-44.242-13.685-16.482-28.533-31.557-47.216-42.1-13.529-7.639-28.269-11.424-43.261-14.084a667.091,667.091,0,0,0-106.37-10.658,198.168,198.168,0,0,0-42.027,3.742C38.923,645.158,24.4,663.727,16.9,689.077c-5.238,17.7-6.99,35.967-8.389,54.282Q4.588,794.709.81,846.069c-.143,1.9-.493,3.791-.746,5.686Z" transform="translate(178.849 -380.516)" fill="#e8f6f1"/><path d="M305.634,929.455c-.569-14.2-1.755-28.415-1.589-42.61.474-40.517,18.073-71.988,49.553-95.451a83.838,83.838,0,0,1,38.873-16.226c20.862-2.879,37.887,5.086,49.934,22.213a495.255,495.255,0,0,1,29.231,47.742c17.1,31.334,37.482,59.8,64.162,83.214a6.925,6.925,0,0,1,.849,1.118h13.041c-18.026-15.517-35.2-32.036-48.313-52.2-11.633-17.882-21.92-36.7-32.725-55.146-8.015-13.685-15.857-27.473-27.24-38.647-17.067-16.753-37.236-20.938-59.455-14.792-44.005,12.172-78.943,54.047-84.9,100.507-2.5,19.511-.776,38.909.174,58.357.031.638.013,1.278.018,1.917Z" transform="translate(-69.899 -458.216)" fill="#e8f6f1"/><path d="M512.654,1014.793c-1.852-27.892-1.414-55.357,15.056-79.529,6.258-9.184,14.328-15.814,25.51-17.636a23.009,23.009,0,0,1,18.426,4.578c13.417,10.307,22.919,24.116,31.722,38.46a300.615,300.615,0,0,1,26.657,54.127h8.383c-6.209-20.6-16.462-39.168-27.271-57.441-8.175-13.82-17.446-26.8-29.188-37.677-15.383-14.251-34.153-14.73-50.206-1.218-13.149,11.067-20.42,25.941-24.368,42.556-4.2,17.678-4.585,35.7-3.1,53.78Z" transform="translate(-239.659 -543.554)" fill="#e8f6f1"/></g></g><g transform="translate(-12405.816 -12426.56) rotate(180)" opacity="0.65" style="mix-blend-mode:screen;isolation:isolate"><g transform="translate(0)" clip-path="url(#d)"><path d="M306.04.194c-.462,3.957-.848,7.929-1.4,11.878-1.332,9.491-2.615,18.991-4.146,28.45-4.084,25.24-9.517,50.164-17.835,74.388a7.874,7.874,0,0,1-.412.858c-3.473,8.19-6.919,16.391-10.443,24.558a37.513,37.513,0,0,1-2.324,4c-5.811,10.53-13.031,19.809-23.611,25.931-10.032,5.8-19.884,4.975-29.355-1.422-2.058-1.39-3.867-3.152-5.791-4.743l.037.018-.559-.367c-3.313-3.617-6.907-7.018-9.884-10.9-7.719-10.054-13.2-21.345-17.345-33.3a13.175,13.175,0,0,1-.295-1.413,64.726,64.726,0,0,0,27.061-7.448c3.189-2.621,6.67-4.96,9.509-7.918,7.214-7.518,10.463-16.8,10.963-27.12.038-.776.068-1.552.1-2.329a53.98,53.98,0,0,0-7.561-26.748c-4.61-7.739-10.648-13.99-19.141-17.454-11.842-4.829-24.226-1.88-32.729,7.775-6.292,7.144-9.522,15.751-11.389,24.911-.875,4.294-1.266,8.687-1.876,13.035.109,7.223.218,14.446.331,21.942-2.435-.667-4.975-1.284-7.466-2.059A141.947,141.947,0,0,1,120.92,81.885c-5.917-3.563-12-6.877-17.723-10.733C77.586,53.885,55.082,33.085,34.653,9.965,31.864,6.809,29.127,3.607,26.165.194L0,0A3.253,3.253,0,0,1,2.909,1.414,427.281,427.281,0,0,0,44.016,47.266C62.061,64.579,81.294,80.4,102.711,93.407c4.646,2.821,9.472,5.341,14.209,8.012.841.474,1.647,1.009,2.469,1.516,2.779,1.187,5.564,2.358,8.335,3.564a138.461,138.461,0,0,0,32.9,10.113c1.433.234,1.967.948,2.359,2.3,5.52,19.046,14.14,36.482,27.176,51.528,3,3.466,6.461,6.535,9.71,9.786,5.171,4.038,10.573,7.683,16.779,9.972,14.631,5.4,28.418,3.258,41.262-5.119,4.523-2.95,8.483-6.767,12.7-10.188a126.753,126.753,0,0,0,17.026-23.659c2.794-6.033,5.769-11.99,8.346-18.115,5.521-13.12,9.545-26.747,13.095-40.516,1.289-5,2.448-10.029,3.666-15.045C318.33,52.009,326.2.026,326.7.026M177.357,95.207c-.338-6.133-.544-12.273-.76-18.412a14.327,14.327,0,0,1,.333-2.466c.514-8.714,2.21-17.1,7.649-24.2,3.787-4.943,9.06-5.684,14.214-2.2,6.35,4.289,9.66,10.64,11.523,17.849a27.2,27.2,0,0,1,.4,13.071c-1.1,6.935-4.906,11.989-10.872,15.446-5.6,3.248-11.783,4.444-18.172,4.768-4,.2-4.092.219-4.317-3.857" transform="translate(0 40.129)" fill="#92c9ff"/><line x1="19.066" y2="0.098" transform="translate(306.04 0)" fill="#fdfdfd"/></g></g><g transform="matrix(0.927, -0.375, 0.375, 0.927, -12609.98, -13013.947)" opacity="0.07" style="mix-blend-mode:darken;isolation:isolate"><g transform="translate(0 0)" clip-path="url(#e)"><path d="M468.516-.1c-.712,6.054-1.308,12.132-2.161,18.173-2.051,14.521-4.028,29.057-6.383,43.53-6.285,38.619-14.633,76.757-27.4,113.826a12.074,12.074,0,0,1-.632,1.314c-5.327,12.534-10.614,25.084-16.018,37.584a57.492,57.492,0,0,1-3.563,6.126c-8.91,16.116-19.974,30.321-36.18,39.7-15.365,8.893-30.447,7.637-44.938-2.137-3.149-2.124-5.916-4.817-8.859-7.248l.057.027-.856-.56c-5.067-5.53-10.565-10.728-15.117-16.655-11.8-15.372-20.18-32.637-26.51-50.926a20.114,20.114,0,0,1-.45-2.161c14.661-1.02,28.571-4.392,41.437-11.43,4.885-4.014,10.217-7.6,14.567-12.125,11.054-11.51,16.039-25.71,16.818-41.5.059-1.187.105-2.375.158-3.563a82.433,82.433,0,0,0-11.54-40.912c-7.047-11.834-16.283-21.39-29.28-26.677-18.123-7.373-37.085-2.846-50.114,11.937-9.641,10.938-14.6,24.109-17.468,38.125-1.345,6.57-1.949,13.291-2.889,19.944.158,11.05.315,22.1.479,33.568-3.727-1.017-7.615-1.958-11.428-3.14a216.987,216.987,0,0,1-45.235-19.6c-9.054-5.444-18.365-10.5-27.118-16.4C118.707,82.337,84.283,50.544,53.038,15.2,48.772,10.376,44.586,5.48,40.056.263L0,0A4.973,4.973,0,0,1,4.452,2.16,652.2,652.2,0,0,0,67.323,72.254c27.6,26.463,57.027,50.648,89.8,70.514,7.108,4.309,14.494,8.158,21.742,12.238,1.287.724,2.52,1.542,3.778,2.316,4.253,1.813,8.516,3.6,12.756,5.442,16.207,7.038,32.874,12.584,50.36,15.429,2.193.357,3.009,1.448,3.609,3.52,8.427,29.131,21.6,55.795,41.538,78.8,4.593,5.3,9.883,9.989,14.852,14.959,7.911,6.17,16.176,11.74,25.674,15.234,22.392,8.237,43.5,4.948,63.174-7.884,6.928-4.519,13-10.364,19.457-15.6,10.277-10.931,18.6-23.277,26.1-36.216,4.286-9.233,8.847-18.351,12.8-27.725,8.47-20.078,14.646-40.931,20.1-62,1.979-7.647,3.76-15.346,5.632-23.021C487.265,79.157,499.375-.38,500.145-.38M271.394,145.425c-.51-9.382-.817-18.775-1.14-28.167a21.922,21.922,0,0,1,.513-3.773c.8-13.331,3.4-26.158,11.741-37.026,5.8-7.566,13.877-8.708,21.763-3.389,9.716,6.553,14.775,16.265,17.617,27.291a41.585,41.585,0,0,1,.6,20C320.8,130.97,314.96,138.706,305.824,144c-8.585,4.977-18.044,6.814-27.826,7.318-6.121.315-6.265.34-6.6-5.9" transform="translate(-0.052 61.392)" fill="#92c9ff"/><line x1="29.188" y2="0.175" transform="translate(468.516 -0.419)" fill="#fdfdfd"/></g></g></g></g><text transform="translate(325 2244)" fill="#12263f" font-size="18" font-family="Roboto-Bold, Roboto" font-weight="700"><tspan x="0" y="0">Tipo de transporte</tspan></text><g transform="translate(496.116 2335.676)"><g transform="translate(0 0)" clip-path="url(#f)"><path d="M589.737,118.073a48.094,48.094,0,0,1-48.022-48.041,70.051,70.051,0,0,0-140.1,0,47.709,47.709,0,1,1-95.416,0,70.052,70.052,0,0,0-140.083-1.684c-.609,25.774-19.531,48.193-45.272,49.649a48.1,48.1,0,0,1-50.81-47.965A70.121,70.121,0,0,0,.457,0L0,22.01A48.078,48.078,0,0,1,48.022,70.032a70.042,70.042,0,1,0,140.083,0,47.718,47.718,0,1,1,95.435,0,70.126,70.126,0,0,0,70.051,70.051c.1,0,.209-.014.314-.014s.209.014.314.014c.238,0,.476-.019.695-.033.224.014.462.033.68.033a70.126,70.126,0,0,0,70.051-70.051,48.1,48.1,0,0,1,38.968-47.161,11.235,11.235,0,0,0,2.008-.59,43.043,43.043,0,0,1,22.477,3.43c18.6,8.226,29.756,27.23,30.679,47.551a70.13,70.13,0,0,0,69.961,66.821c.238,0,.238-22.01,0-22.01" transform="translate(0 -0.001)" fill="url(#a)"/></g></g><g transform="translate(530.167 2330)"><g clip-path="url(#h)"><g transform="translate(34.933 25.686)"><g clip-path="url(#i)"><rect width="134.533" height="134.533" transform="matrix(0.874, -0.486, 0.486, 0.874, -42.018, 23.364)" fill="url(#j)"/></g></g><g transform="translate(37.009 27.757)"><g clip-path="url(#k)"><rect width="132.933" height="132.933" transform="matrix(0.792, -0.611, 0.611, 0.792, -45.836, 35.355)" fill="url(#l)"/></g></g></g></g><g transform="translate(647.167 2330)"><g transform="translate(34.933 25.686)"><g clip-path="url(#i)"><rect width="134.533" height="134.533" transform="matrix(0.874, -0.486, 0.486, 0.874, -42.018, 23.364)" fill="url(#j)"/></g></g><g transform="translate(37.009 27.757)"><g clip-path="url(#k)"><rect width="132.933" height="132.933" transform="matrix(0.792, -0.611, 0.611, 0.792, -45.836, 35.355)" fill="url(#l)"/></g></g></g><g transform="translate(765.167 2330)"><g clip-path="url(#h)"><g transform="translate(34.933 25.686)"><g clip-path="url(#i)"><rect width="134.533" height="134.533" transform="matrix(0.874, -0.486, 0.486, 0.874, -42.018, 23.364)" fill="url(#j)"/></g></g><g transform="translate(37.009 27.757)"><g clip-path="url(#k)"><rect width="132.933" height="132.933" transform="matrix(0.792, -0.611, 0.611, 0.792, -45.836, 35.355)" fill="url(#l)"/></g></g></g></g><g transform="translate(882.167 2330)"><g clip-path="url(#h)"><g transform="translate(34.933 25.686)"><g clip-path="url(#i)"><rect width="134.533" height="134.533" transform="matrix(0.874, -0.486, 0.486, 0.874, -42.018, 23.364)" fill="url(#j)"/></g></g><g transform="translate(37.009 27.757)"><g clip-path="url(#k)"><rect width="132.933" height="132.933" transform="matrix(0.792, -0.611, 0.611, 0.792, -45.836, 35.355)" fill="url(#l)"/></g></g></g></g><g transform="translate(530.167 2405.718) rotate(90)"><path d="M-11801-8646v60.9" transform="translate(11817.618 8646.002)" fill="none" stroke="#92c9ff" stroke-width="2"/><g transform="translate(0 36.301)"><g clip-path="url(#aa)"><path d="M32.722.857a33.113,33.113,0,0,0-16.1,28.426A33.112,33.112,0,0,0,.514.857" transform="translate(0.001 0.002)" fill="none" stroke="#92c9ff" stroke-miterlimit="10" stroke-width="2"/></g></g></g><g transform="translate(686.116 2535.238) rotate(-90)"><path d="M-11801-8618.49V-8648h56.954" transform="translate(11817.618 8679.386)" fill="none" stroke="#92c9ff" stroke-linejoin="round" stroke-width="2"/><g transform="translate(5.39 41.05)"><g clip-path="url(#ab)"><path d="M22.276.857A22.374,22.374,0,0,0,11.4,20.064,22.373,22.373,0,0,0,.514.857" transform="translate(-0.166 -0.277)" fill="none" stroke="#92c9ff" stroke-miterlimit="10" stroke-width="2"/></g></g></g><g transform="translate(885.351 2273.275) rotate(90)"><path d="M-11801-8618.49V-8648h56.954" transform="translate(11817.618 8679.386)" fill="none" stroke="#2ab17f" stroke-linejoin="round" stroke-width="2"/><g transform="translate(5.39 41.05)"><g clip-path="url(#ac)"><path d="M22.276.857A22.374,22.374,0,0,0,11.4,20.064,22.373,22.373,0,0,0,.514.857" transform="translate(-0.166 -0.277)" fill="none" stroke="#2ab17f" stroke-miterlimit="10" stroke-width="2"/></g></g></g><g transform="translate(1060.529 2416.395) rotate(-90)"><path d="M-11801-8646v60.9" transform="translate(11817.618 8646.002)" fill="none" stroke="#2ab17f" stroke-width="2"/><g transform="translate(0 36.301)"><g clip-path="url(#ad)"><path d="M32.722.857a33.113,33.113,0,0,0-16.1,28.426A33.112,33.112,0,0,0,.514.857" transform="translate(0.001 0.002)" fill="none" stroke="#2ab17f" stroke-miterlimit="10" stroke-width="2"/></g></g></g><text transform="translate(555.167 2249)" fill="#12263f" font-size="16" font-family="Roboto-Bold, Roboto" font-weight="700"><tspan x="0" y="17">Transporte terrestre</tspan><tspan font-family="Roboto-Regular, Roboto" font-weight="400"><tspan x="0" y="41">Flexible y económico, pero con </tspan><tspan x="0" y="65">limitaciones de alcance y velocidad.</tspan></tspan></text><text transform="translate(322.166 2336)" fill="#12263f" font-size="16" font-family="Roboto-Bold, Roboto" font-weight="700"><tspan x="0" y="17">Transporte marítimo</tspan><tspan font-family="Roboto-Regular, Roboto" font-weight="400"><tspan x="0" y="41">Eficiente para </tspan><tspan x="0" y="65">grandes volúmenes, </tspan><tspan x="0" y="89">pero con menor </tspan><tspan x="0" y="113">velocidad y alto </tspan><tspan x="0" y="137">costo.</tspan><tspan y="137" font-family="Roboto-Bold, Roboto" font-weight="700"> </tspan></tspan></text><text transform="translate(1143.167 2360)" fill="#12263f" font-size="16" font-family="Roboto-Bold, Roboto" font-weight="700"><tspan x="0" y="17">Transporte </tspan><tspan x="0" y="41">multimodal</tspan><tspan font-family="Roboto-Regular, Roboto" font-weight="400"><tspan x="0" y="65">Combina eficiencia y </tspan><tspan x="0" y="89">trazabilidad con </tspan><tspan x="0" y="113">costos moderados.</tspan></tspan></text><text transform="translate(756.167 2508)" fill="#12263f" font-size="16" font-family="Roboto-Bold, Roboto" font-weight="700"><tspan x="0" y="17">Transporte aéreo</tspan><tspan font-family="Roboto-Regular, Roboto" font-weight="400"><tspan x="0" y="41">Ideal para entregas rápidas y de alto valor, aunque costoso.</tspan></tspan></text><g transform="translate(585.495 2381.488)"><path d="M227.032,165.953h-7.744v-7.9a.272.272,0,0,0-.272-.272H202.81a.272.272,0,0,0-.272.272v16.313h25.124v-7.782A.631.631,0,0,0,227.032,165.953Z" transform="translate(-178.142 -149.176)" fill="#ffc06c"/><g transform="translate(24.396 8.605)"><path d="M349.97,234.038h-8.375v-8.413h7.744a.631.631,0,0,1,.631.631v7.782Z" transform="translate(-324.845 -217.453)" fill="#eda558"/><rect width="8.375" height="8.413" transform="translate(0 8.171)" fill="#eda558"/><path d="M280.442,165.953h-8.375v-8.172h8.1a.272.272,0,0,1,.272.272Z" transform="translate(-263.692 -157.781)" fill="#eda558"/></g><path d="M89.305,93.368V87.286a.942.942,0,1,0-1.884,0v6.082Z" transform="translate(-76.891 -86.344)" fill="#cccbca"/><rect width="16.353" height="9.143" transform="translate(3.296 16.462)" fill="#e1effb"/><rect width="6.983" height="9.143" transform="translate(12.666 16.462)" fill="#bad5e5"/><path d="M51.39,268.211h0a1.611,1.611,0,0,1-1.611,1.611H.681a.68.68,0,0,0-.667.82,18.679,18.679,0,0,0,4.525,8.61,1.975,1.975,0,0,1,.307,2.168l-1.521,3.185a.805.805,0,0,0,.727,1.152h48.57a.8.8,0,0,0,.725-.46l8.247-17.557a.8.8,0,0,0-.725-1.142H53A1.611,1.611,0,0,0,51.39,268.211Z" transform="translate(0 -244.888)" fill="#ff4c4c"/><path d="M393.332,266.6h-6.339l-9,19.159h7.092a.8.8,0,0,0,.725-.46l8.247-17.557A.8.8,0,0,0,393.332,266.6Z" transform="translate(-332.463 -244.888)" fill="#ef2929"/><path d="M61.2,149.118H50.4v-8.74a.46.46,0,0,1,.46-.46h9.884a.46.46,0,0,1,.46.46Z" transform="translate(-44.329 -133.465)" fill="#e1effb"/><path d="M88.634,139.918H82.11v9.2h6.983v-8.74A.459.459,0,0,0,88.634,139.918Z" transform="translate(-72.22 -133.465)" fill="#bad5e5"/><path d="M35.691,211.232H17.479a.3.3,0,0,1-.3-.3v-2.277a.3.3,0,0,1,.3-.3H35.691a.3.3,0,0,1,.3.3v2.277A.3.3,0,0,1,35.691,211.232Z" transform="translate(-15.112 -193.664)" fill="#cccbca"/><path d="M122.015,208.361h-6.687v2.871h6.687a.3.3,0,0,0,.3-.3v-2.277A.3.3,0,0,0,122.015,208.361Z" transform="translate(-101.436 -193.664)" fill="#b9bbc1"/><path d="M28.706,379.438a1.98,1.98,0,0,1-.157,1.229l-1.521,3.185a.805.805,0,0,0,.727,1.152h48.57a.8.8,0,0,0,.725-.46l2.4-5.107Z" transform="translate(-23.702 -344.134)" fill="#33d8dd"/><path d="M380.608,379.437,377.993,385h7.092a.8.8,0,0,0,.725-.46l2.4-5.107h-7.6Z" transform="translate(-332.463 -344.133)" fill="#0fb0c0"/></g><g transform="translate(945.326 2373.926)"><g transform="translate(0.34 8.699)"><path d="M60.213,41.892a4.35,4.35,0,0,1-4.348-4.35.937.937,0,1,1,1.874,0,2.476,2.476,0,0,0,2.475,2.476h.036a2.522,2.522,0,0,0,2.44-2.44,2.459,2.459,0,0,0-.967-2,6.575,6.575,0,0,1-2.445-5.222v-1.67a.937.937,0,0,1,1.874,0v1.67a4.7,4.7,0,0,0,1.713,3.736,4.317,4.317,0,0,1,1.7,3.511,4.378,4.378,0,0,1-4.287,4.287Z" transform="translate(-38.874 -27.75)" fill="#525959"/><path d="M25.062,59.767a.937.937,0,0,1-.312-1.82L45.2,50.719a.937.937,0,1,1,.624,1.767L25.375,59.713A.944.944,0,0,1,25.062,59.767Z" transform="translate(-24.125 -38.398)" fill="#525959"/><path d="M83.721,59.767a.944.944,0,0,1-.312-.054L62.958,52.486a.937.937,0,1,1,.624-1.767l20.453,7.227a.937.937,0,0,1-.312,1.82Z" transform="translate(-41.879 -38.398)" fill="#525959"/></g><path d="M23.49,64h4.818V91.969H23.49Z" transform="translate(-23.49 -35.895)" fill="#fb6255"/><path d="M32.49,64h4.818V91.969H32.49Z" transform="translate(-27.672 -35.895)" fill="#dc3531"/><path d="M41.49,64h4.818V91.969H41.49Z" transform="translate(-31.854 -35.895)" fill="#fb6255"/><path d="M50.49,64h4.818V91.969H50.49Z" transform="translate(-36.036 -35.895)" fill="#dc3531"/><path d="M59.49,64h4.818V91.969H59.49Z" transform="translate(-40.218 -35.895)" fill="#fb6255"/><path d="M68.49,64h4.818V91.969H68.49Z" transform="translate(-44.4 -35.895)" fill="#dc3531"/><path d="M77.49,64h4.818V91.969H77.49Z" transform="translate(-48.582 -35.895)" fill="#fb6255"/><path d="M86.49,64h4.818V91.969H86.49Z" transform="translate(-52.764 -35.895)" fill="#dc3531"/><path d="M95.49,64h4.818V91.969H95.49Z" transform="translate(-56.946 -35.895)" fill="#fb6255"/><path d="M23.49,64H66.852v4.818H23.49Z" transform="translate(-23.49 -35.895)" fill="#fb6255"/><path d="M23.49,107.247H66.852v4.818H23.49Z" transform="translate(-23.49 -55.991)" fill="#fb6255"/><path d="M57.615,11.5H64.44v9.636H57.615Z" transform="translate(-39.347 -11.5)" fill="#fa983c"/><path d="M62.24,11.5h4.35v9.636H62.24Z" transform="translate(-41.496 -11.5)" fill="#ed862f"/><path d="M95.49,64h4.818v4.818H95.49Z" transform="translate(-56.946 -35.895)" fill="#dc3531"/><path d="M95.49,107.247h4.818v4.818H95.49Z" transform="translate(-56.946 -55.991)" fill="#dc3531"/></g><g transform="translate(708.344 2384.089)"><g transform="translate(1.974 27.435)"><path d="M28.637,302.231l-7.108-5.591a.868.868,0,0,1-.282-1.145h0a4.558,4.558,0,0,1,5.49-1.41l6.428,3.647Z" transform="translate(-21.13 -293.724)" fill="#ff2c5c"/><path d="M127.039,366.533l5.605,7.123a.868.868,0,0,0,1.145.282l.424-.293A3.855,3.855,0,0,0,135.406,369l-3.853-6.982Z" transform="translate(-117.147 -355.64)" fill="#ff2c5c"/></g><path d="M66.907,311.655l-4.022,4,3.607,2.837,4.528-4.5Z" transform="translate(-57.011 -282.546)" fill="#e62753"/><g transform="translate(10.686 5.067)"><path d="M115.132,63.225h0a2.459,2.459,0,0,1-.166-3.294c1.141-1.4,2.57-2.958,3.427-3.816a8.593,8.593,0,0,1,2.528-1.8.468.468,0,0,1,.576.067l2.478,2.478a.468.468,0,0,1,.067.576,8.593,8.593,0,0,1-1.8,2.528c-.857.857-2.416,2.286-3.816,3.427A2.46,2.46,0,0,1,115.132,63.225Z" transform="translate(-114.412 -54.246)" fill="#c3d3db"/><path d="M354.635,302.729h0a2.459,2.459,0,0,1-.166-3.294c1.141-1.4,2.57-2.958,3.427-3.816a8.59,8.59,0,0,1,2.528-1.8.468.468,0,0,1,.576.067l2.478,2.478a.468.468,0,0,1,.067.576,8.6,8.6,0,0,1-1.8,2.528c-.857.857-2.416,2.286-3.816,3.427A2.46,2.46,0,0,1,354.635,302.729Z" transform="translate(-331.545 -271.379)" fill="#c3d3db"/></g><path d="M22.6,72.339l8.769-8.769L4.2,55.035a1.536,1.536,0,0,0-1.486.363l-2.3,2.3a1.793,1.793,0,0,0,.646,2.76Z" transform="translate(-0.001 -49.844)" fill="#ff2c5c"/><path d="M194.107,126.308l-7.829,7.829,5.2,2.869,8.769-8.769Z" transform="translate(-168.879 -114.51)" fill="#e62753"/><path d="M271.16,184.961l8.769-8.769,8.535,27.165a1.536,1.536,0,0,1-.363,1.486l-2.3,2.3a1.793,1.793,0,0,1-2.76-.646Z" transform="translate(-245.833 -159.735)" fill="#ff2c5c"/><path d="M109.91,12.77,95.177,27.5a79.855,79.855,0,0,1-7.852,6.888l-7.009,5.377c-1.623,1.245-3.553,1.4-4.59.358h0c-1.037-1.037-.887-2.967.358-4.59l5.377-7.009a79.854,79.854,0,0,1,6.888-7.852L103.083,5.943a24.467,24.467,0,0,1,6.77-4.844c2.1-.992,4.341-1.614,5.427-.527S115.746,3.9,114.754,6A24.462,24.462,0,0,1,109.91,12.77Z" transform="translate(-68.031 0)" fill="#e0f3fc"/><path d="M115.556.6a2.155,2.155,0,0,0-1.519-.57,9.335,9.335,0,0,1-1.1,3.945,24.463,24.463,0,0,1-4.844,6.77L93.364,25.472a79.842,79.842,0,0,1-7.852,6.888L78.5,37.738a4.478,4.478,0,0,1-3.16,1.022A2.379,2.379,0,0,0,76,40.149h0c1.037,1.037,2.967.887,4.59-.358L87.6,34.414a79.852,79.852,0,0,0,7.852-6.888l14.732-14.732a24.467,24.467,0,0,0,4.844-6.77C116.021,3.918,116.642,1.681,115.556.6Z" transform="translate(-68.306 -0.023)" fill="#c3d3db"/><path d="M405.543,52.588l-.5.5c-.467.467-5.693-4.759-5.226-5.226l.5-.5a1.057,1.057,0,0,1,1.162-.249h0a8.611,8.611,0,0,1,4.314,4.314h0A1.057,1.057,0,0,1,405.543,52.588Z" transform="translate(-362.443 -42.639)" fill="#51c4f5"/><path d="M92.641,347.085a.7.7,0,0,1-.5-1.2l6.118-6.118a.7.7,0,0,1,.991.991l-6.118,6.118A.7.7,0,0,1,92.641,347.085Z" transform="translate(-83.353 -307.85)" fill="#e62753"/></g><g transform="translate(817.667 2374.316)"><g transform="translate(2.5 2.96)"><g transform="translate(51.164 30.165)"><g transform="translate(0.741 2.267)"><path d="M46.731,31.332l-.194-.113,0-.744.194.113Z" transform="translate(-46.535 -30.475)" fill="#21201f"/></g><g transform="translate(0.739 1.669)"><path d="M46.729,30.522l-.194-.113v-.442l.194.113Z" transform="translate(-46.534 -29.968)" fill="#21201f"/></g><g transform="translate(0.003 2.681)"><path d="M46.1,31.1l-.194-.113v-.165l.194.113Z" transform="translate(-45.909 -30.826)" fill="#5b5e71"/></g><g transform="translate(0.003 2.111)"><path d="M46.1,31.025l-.194-.113a4.218,4.218,0,0,1,.738-.57l.194.113A4.218,4.218,0,0,0,46.1,31.025Z" transform="translate(-45.909 -30.342)" fill="#434240"/></g><path d="M47.94,28.551a1.375,1.375,0,0,0-.7.2,2.8,2.8,0,0,0-.7.613l.194.113a2.8,2.8,0,0,1,.7-.613,1.375,1.375,0,0,1,.7-.2Z" transform="translate(-45.795 -28.551)" fill="#434240"/><g transform="translate(0.737 0.813)"><path d="M46.728,30.054l-.194-.113,0-.7.194.113Z" transform="translate(-46.532 -29.241)" fill="#21201f"/></g><g transform="translate(0 1.793)"><path d="M46.1,30.35l-.194-.113v-.165l.194.113Z" transform="translate(-45.907 -30.072)" fill="#5b5e71"/></g><g transform="translate(0.194 0.113)"><path d="M47.511,28.847a1.375,1.375,0,0,1,.7-.2l.006,2.2a3.247,3.247,0,0,1-.7.568,1.834,1.834,0,0,1-.7.245l0-.744a4.023,4.023,0,0,0-.738.579v-.165a4.218,4.218,0,0,1,.738-.57v-.442a2.607,2.607,0,0,1-.739.288V30.44a2.411,2.411,0,0,0,.739-.28l0-.7a2.8,2.8,0,0,1,.7-.613Z" transform="translate(-46.071 -28.647)" fill="#383736"/></g><g transform="translate(0 1.513)"><path d="M46.1,30.227l-.194-.113a2.412,2.412,0,0,0,.739-.28l.194.113A2.411,2.411,0,0,1,46.1,30.227Z" transform="translate(-45.907 -29.835)" fill="#434240"/></g></g><path d="M37.156,46.919a2.355,2.355,0,0,1-.948,2.138L32.1,51.435c.582-.333.79-1.034.79-2.091a6.8,6.8,0,0,0-2.853-5.495,2.074,2.074,0,0,0-2.1-.191l4.1-2.379a2.05,2.05,0,0,1,2.1.183,6.874,6.874,0,0,1,3.019,5.456Z" transform="translate(2.046 3.851)" fill="#2d2c2b"/><path d="M15.969,34.731a2.355,2.355,0,0,1-.948,2.138l-4.109,2.379c.582-.333.79-1.034.79-2.091a6.8,6.8,0,0,0-2.853-5.495,2.074,2.074,0,0,0-2.1-.191l4.1-2.379a2.05,2.05,0,0,1,2.1.183,6.874,6.874,0,0,1,3.019,5.456Z" transform="translate(-1.74 1.673)" fill="#2d2c2b"/><g transform="translate(26.56 15.334)"><path d="M41.086,15.969l-.062,21.965L25.033,47.226,25.1,25.262Z" transform="translate(-25.033 -15.969)" fill="#c4c2c0"/></g><g transform="translate(0 9.291)"><path d="M29.12,26.176l-.061,21.968L13.736,39.3,4.394,33.9,2.5,32.811l.061-21.968Z" transform="translate(-2.5 -10.842)" fill="#d6d4d2"/></g><g transform="translate(0 25.586)"><path d="M29.069,40l-.011,5.674L13.736,36.827l-9.342-5.4L2.5,30.34l.011-5.674Z" transform="translate(-2.5 -24.667)" fill="#c4c2c0"/></g><g transform="translate(0.063)"><path d="M45.1,18.293,29.112,27.586,2.554,12.253,18.545,2.96Z" transform="translate(-2.554 -2.96)" fill="#e9e8e6"/></g><path d="M55.05,39.39v5.776L39.02,54.431l-.012-.024V48.643L34.34,44.035,32.772,35.96l-1.627-2.723L25.04,29.855l16.03-9.241.024-.024v.024L47.188,24l1.638,2.711,1.556,8.086Z" transform="translate(1.528 0.191)" fill="#0074d1"/><path d="M25.035,44.992V28.442l6.112,3.4,1.63,2.716,1.562,8.081,4.673,4.607v5.784Z" transform="translate(1.527 1.594)" fill="#00649b"/><path d="M31.331,34.382l-1.145-1.928-.05-.017-3.771-2.112v6.6l6.23,3.933-1.263-6.475Z" transform="translate(1.765 1.931)" fill="#82c6e0"/><path d="M30.22,32.725l16.039-9.248L47.9,26.186,31.85,35.441Z" transform="translate(2.454 0.707)" fill="#006cb5"/><path d="M32.928,41.885,48.97,32.638l4.671,4.6L37.6,46.492Z" transform="translate(2.938 2.344)" fill="#0074d1"/><path d="M50.556,38.341l-10.5,6.07-6.5-2.521,15.228-8.785Z" transform="translate(3.049 2.428)" fill="#00649b"/><path d="M52.932,36.537v5.784L36.893,51.579V45.8Z" transform="translate(3.646 3.041)" fill="#3f9ae0"/><path d="M49.2,33.865,33.166,43.1,31.6,35.031l16.055-9.256Z" transform="translate(2.7 1.118)" fill="#0074d1"/><g transform="translate(34.913 27.772)"><g transform="translate(1.268)"><path d="M46.269,33.445l-1.327-6.924-.435.251,1.243,6.486Z" transform="translate(-31.175 -26.521)" fill="#00649b"/><path d="M47.771,32.236,33.2,40.633l.085.437,15.01-8.646Z" transform="translate(-33.196 -25.5)" fill="#3f9ae0"/></g><path d="M47.962,33.225c-19.026,10.93-13.55,7.784-14.592,8.381l-.071-.342L32.12,35.134l14.6-8.4.059.33Z" transform="translate(-32.12 -26.484)" fill="#82c6e0"/></g><g transform="translate(41.06 41.059)"><g transform="translate(0 7.076)"><path d="M39.994,43.8,40,46.223l-2.66,1.536-.007-2.426Z" transform="translate(-37.335 -43.797)" fill="#fff"/></g><g transform="translate(12.318)"><path d="M50.457,37.793l.007,2.426-2.672,1.543-.007-2.426Z" transform="translate(-47.785 -37.793)" fill="#fff"/></g><g transform="translate(12.76 0.654)"><path d="M49.951,38.348l0,1.626-1.791,1.034,0-1.626Z" transform="translate(-48.16 -38.348)" fill="#efc348"/></g><g transform="translate(0.436 7.728)"><path d="M39.495,44.349l0,1.626-1.791,1.034,0-1.626Z" transform="translate(-37.704 -44.349)" fill="#efc348"/></g><g transform="translate(3.185 1.846)"><path d="M48.645,39.359v.274l-8.609,4.928v-.274Z" transform="translate(-40.036 -39.359)" fill="#0074d1"/></g><g transform="translate(3.187 2.558)"><path d="M48.647,39.964v.274l-8.609,4.928v-.274Z" transform="translate(-40.038 -39.964)" fill="#0074d1"/></g><g transform="translate(3.191 3.997)"><path d="M48.65,41.185v.274l-8.609,4.928v-.274Z" transform="translate(-40.042 -41.185)" fill="#0074d1"/></g><g transform="translate(3.189 3.285)"><path d="M48.649,40.58v.274l-8.609,4.928v-.274Z" transform="translate(-40.04 -40.58)" fill="#0074d1"/></g></g><g transform="translate(3.067 31.41)"><path d="M13.631,36.157,5.1,31.23a3.133,3.133,0,0,1,2.739-1.622,4.109,4.109,0,0,1,2.061.6,8.307,8.307,0,0,1,3.729,5.953Z" transform="translate(-5.102 -29.608)" fill="#b2b0af"/><path d="M8.987,31.3A6.871,6.871,0,0,1,12,36.75C12,38.794,10.638,39.666,8.966,38.7a6.881,6.881,0,0,1-3.027-5.452c.006-2.044,1.375-2.916,3.048-1.95Z" transform="translate(-4.953 -29.376)" fill="#434240"/><ellipse cx="2.065" cy="3.564" rx="2.065" ry="3.564" transform="translate(0.428 3.597) rotate(-30.129)" fill="#fff"/><g transform="translate(2.15 5.622)"><path d="M8,34.617a.167.167,0,0,0-.05-.02l-1.025-.221a4.976,4.976,0,0,0,.9,1.558l.323-.992A.326.326,0,0,0,8,34.617Z" transform="translate(-6.926 -34.377)" fill="#434240"/></g><g transform="translate(1.93 3.746)"><path d="M6.844,32.786a2.043,2.043,0,0,0-.1.674,3.283,3.283,0,0,0,.1.792l.953-.022c.116,0,.116-.19,0-.324Z" transform="translate(-6.74 -32.786)" fill="#434240"/></g><g transform="translate(2.156 2.961)"><path d="M7.838,32.12a1.022,1.022,0,0,0-.907.515l1.022.96a.267.267,0,0,0,.05.038c.1.059.185-.01.151-.153Z" transform="translate(-6.931 -32.12)" fill="#434240"/></g><g transform="translate(3.385 3.005)"><path d="M8.613,32.41a2.122,2.122,0,0,0-.638-.253l.494,1.381a.343.343,0,0,0,.141.181c.056.032.112.031.141-.018l.5-.807a3.376,3.376,0,0,0-.638-.484Z" transform="translate(-7.975 -32.157)" fill="#434240"/></g><g transform="translate(4.619 6.736)"><path d="M9.179,35.343c-.1-.059-.183.011-.151.153l.319,1.362a1.032,1.032,0,0,0,.906-.515l-1.024-.962a.266.266,0,0,0-.05-.038Z" transform="translate(-9.021 -35.322)" fill="#434240"/></g><g transform="translate(3.373 6.659)"><path d="M8.605,35.279c-.056-.032-.112-.032-.141.016l-.5.807a3.367,3.367,0,0,0,.638.484,2.129,2.129,0,0,0,.638.253l-.494-1.381a.343.343,0,0,0-.141-.179Z" transform="translate(-7.964 -35.257)" fill="#434240"/></g><g transform="translate(4.623 4.053)"><path d="M9.358,33.046l-.326.99a.33.33,0,0,0,.149.326.167.167,0,0,0,.05.02l1.026.223a4.908,4.908,0,0,0-.9-1.558Z" transform="translate(-9.025 -33.046)" fill="#434240"/></g><g transform="translate(4.937 6.022)"><path d="M10.331,34.716l-.955.02c-.113,0-.114.191,0,.324l.952,1.122a2.088,2.088,0,0,0,.1-.674,3.336,3.336,0,0,0-.1-.792Z" transform="translate(-9.291 -34.716)" fill="#434240"/></g></g><g transform="translate(28.04 45.776)"><path d="M34.818,48.345l-8.529-4.928A3.133,3.133,0,0,1,29.028,41.8a4.109,4.109,0,0,1,2.061.6,8.307,8.307,0,0,1,3.729,5.953Z" transform="translate(-26.289 -41.796)" fill="#005e87"/><path d="M30.173,43.486a6.871,6.871,0,0,1,3.016,5.451c-.006,2.044-1.365,2.916-3.037,1.95a6.882,6.882,0,0,1-3.027-5.452c.006-2.044,1.375-2.916,3.048-1.95Z" transform="translate(-26.14 -41.564)" fill="#434240"/><ellipse cx="2.065" cy="3.564" rx="2.065" ry="3.564" transform="translate(0.432 3.613) rotate(-30.129)" fill="#fff"/><g transform="translate(2.15 5.622)"><path d="M29.187,46.8a.167.167,0,0,0-.05-.02l-1.025-.221a4.976,4.976,0,0,0,.9,1.558l.323-.992a.326.326,0,0,0-.149-.326Z" transform="translate(-28.113 -46.565)" fill="#434240"/></g><g transform="translate(1.93 3.746)"><path d="M28.03,44.973a2.043,2.043,0,0,0-.1.674,3.283,3.283,0,0,0,.1.792l.953-.022c.116,0,.116-.19,0-.324Z" transform="translate(-27.926 -44.973)" fill="#434240"/></g><g transform="translate(2.156 2.961)"><path d="M29.025,44.307a1.022,1.022,0,0,0-.907.515l1.022.96a.267.267,0,0,0,.05.038c.1.059.185-.01.151-.153Z" transform="translate(-28.118 -44.307)" fill="#434240"/></g><g transform="translate(3.385 3.005)"><path d="M29.8,44.6a2.122,2.122,0,0,0-.638-.253l.494,1.381a.343.343,0,0,0,.141.181c.056.032.112.031.141-.018l.5-.807A3.376,3.376,0,0,0,29.8,44.6Z" transform="translate(-29.161 -44.345)" fill="#434240"/></g><g transform="translate(4.618 6.736)"><path d="M30.365,47.531c-.1-.059-.183.011-.151.153l.319,1.362a1.032,1.032,0,0,0,.906-.515l-1.024-.962A.266.266,0,0,0,30.365,47.531Z" transform="translate(-30.207 -47.51)" fill="#434240"/></g><g transform="translate(3.373 6.659)"><path d="M29.792,47.467c-.056-.032-.112-.032-.141.016l-.5.807a3.367,3.367,0,0,0,.638.484,2.129,2.129,0,0,0,.638.253l-.494-1.381a.343.343,0,0,0-.141-.179Z" transform="translate(-29.15 -47.445)" fill="#434240"/></g><g transform="translate(4.623 4.053)"><path d="M30.545,45.234l-.326.99a.33.33,0,0,0,.149.326.167.167,0,0,0,.05.02l1.026.223a4.907,4.907,0,0,0-.9-1.558Z" transform="translate(-30.211 -45.234)" fill="#434240"/></g><g transform="translate(4.937 6.022)"><path d="M31.518,46.9l-.955.02c-.113,0-.114.191,0,.324l.952,1.122a2.088,2.088,0,0,0,.1-.674A3.336,3.336,0,0,0,31.518,46.9Z" transform="translate(-30.478 -46.904)" fill="#434240"/></g></g><g transform="translate(46.748 46.34)"><path d="M47.184,43.527,42.21,46.391V45.236l4.962-2.876Z" transform="translate(-42.151 -42.258)" fill="#fff"/><path d="M42.16,46.509V45.218l.029-.017,5.05-2.927.013,1.3Zm.117-1.223V46.3l4.856-2.8-.011-1.031Z" transform="translate(-42.16 -42.274)" fill="#2d2c2b"/></g><g transform="translate(32.817 41.192)"><g transform="translate(1.412 1.015)"><path d="M31.733,39.163l-.194-.113a2.576,2.576,0,0,1,.739-.283l.194.113a2.576,2.576,0,0,0-.739.283Z" transform="translate(-31.539 -38.768)" fill="#383736"/></g><g transform="translate(1.41 0.127)"><path d="M31.732,38.7l-.194-.113a3.99,3.99,0,0,0,.738-.573l.194.113A3.991,3.991,0,0,1,31.732,38.7Z" transform="translate(-31.538 -38.014)" fill="#434240"/></g><g transform="translate(0 0.813)"><path d="M30.541,40.908l-.194-.113-.006-2.2.194.113Z" transform="translate(-30.341 -38.596)" fill="#383736"/></g><path d="M31.749,37.906a1.375,1.375,0,0,0-.7.2,2.8,2.8,0,0,0-.7.613l.194.113a2.8,2.8,0,0,1,.7-.613,1.375,1.375,0,0,1,.7-.2Z" transform="translate(-30.341 -37.906)" fill="#434240"/><g transform="translate(0.194 0.113)"><path d="M31.209,38.2a1.375,1.375,0,0,1,.7-.2l0,.7a3.99,3.99,0,0,0,.738-.573v.165a4.2,4.2,0,0,1-.738.565V39.3a2.576,2.576,0,0,1,.739-.283v.165a2.387,2.387,0,0,0-.739.274l0,.744a3.247,3.247,0,0,1-.7.568,1.834,1.834,0,0,1-.7.245l-.006-2.2a2.8,2.8,0,0,1,.7-.613Z" transform="translate(-30.506 -38.002)" fill="#2d2c2b"/></g></g><path d="M36.046,41.972a2.111,2.111,0,0,0-.852.521,2.185,2.185,0,0,0-.521.846.109.109,0,0,1-.208,0A2.126,2.126,0,0,0,33.1,41.972a.111.111,0,0,1,0-.214,2.148,2.148,0,0,0,1.367-1.367.109.109,0,0,1,.208,0,2.139,2.139,0,0,0,1.373,1.367.113.113,0,0,1,0,.214Z" transform="translate(2.953 3.716)" fill="#fff"/><g transform="translate(36.092 28.014)" opacity="0.2"><path d="M42.243,28.84,40.11,37.268l-6.919,3.96-.071-.342,2.016-7.956,7.108-4.09Z" transform="translate(-33.12 -26.349)" fill="#fff"/><path d="M45.273,27.061l-2.016,7.992-1.9,1.084-.083.047-.707.4,2.145-8.4,2.5-1.45Z" transform="translate(-31.789 -26.726)" fill="#fff"/></g></g></g></g></svg>