<svg xmlns="http://www.w3.org/2000/svg" width="80.051" height="55.171" viewBox="0 0 80.051 55.171"><g transform="translate(0 -0.496)"><path d="M68.328,12.219A40.026,40.026,0,0,0,0,40.522,39.888,39.888,0,0,0,2.363,54.1,2.366,2.366,0,1,0,6.815,52.5a34.949,34.949,0,0,1-2-9.608h7.276a2.367,2.367,0,1,0,0-4.733H4.814A35.035,35.035,0,0,1,8.351,24.967l6.3,3.637a2.367,2.367,0,0,0,2.367-4.1l-6.293-3.633a35.582,35.582,0,0,1,9.651-9.652l3.634,6.293a2.366,2.366,0,1,0,4.1-2.367l-3.636-6.3A35.02,35.02,0,0,1,37.658,5.311v7.276a2.367,2.367,0,0,0,4.734,0V5.311A35.035,35.035,0,0,1,55.579,8.848l-3.637,6.3a2.367,2.367,0,1,0,4.1,2.367l3.633-6.294a35.576,35.576,0,0,1,9.652,9.652l-6.293,3.633A2.367,2.367,0,1,0,65.4,28.6l6.3-3.636a35.029,35.029,0,0,1,3.537,13.187H67.959a2.367,2.367,0,1,0,0,4.733h7.276a34.905,34.905,0,0,1-1.822,9.1,2.367,2.367,0,0,0,4.477,1.537,40.082,40.082,0,0,0-9.562-41.306Zm0,0" fill="#e3e230"/><path d="M232.909,145.895l-10.091,10.874a6.653,6.653,0,1,0,3.032,3.692l10.529-11.346a2.367,2.367,0,1,0-3.47-3.22Zm-13.37,18.569a1.915,1.915,0,1,1,1.915-1.915A1.918,1.918,0,0,1,219.539,164.464Zm0,0" transform="translate(-179.606 -122.027)" fill="#e3e230"/></g></svg>