<svg xmlns="http://www.w3.org/2000/svg" width="49" height="49" viewBox="0 0 49 49"><g transform="translate(-2 -2)"><path d="M3.593,15.769A1.593,1.593,0,0,0,5.185,14.25V7.415l13.72,13.72a1.594,1.594,0,1,0,2.254-2.254L7.415,5.185H14.25A1.593,1.593,0,0,0,14.25,2H3.592A1.592,1.592,0,0,0,2,3.592V14.25a1.592,1.592,0,0,0,1.592,1.519Z" transform="translate(0 0)" fill="#e3e230"/><path d="M19.875,3.592a1.592,1.592,0,0,0,1.519,1.593h6.762L14.436,18.9a1.594,1.594,0,1,0,2.254,2.254L30.41,7.439V14.25a1.617,1.617,0,1,0,3.234,0V3.592A1.593,1.593,0,0,0,32.052,2H21.394a1.592,1.592,0,0,0-1.519,1.592Z" transform="translate(17.356 0)" fill="#e3e230"/><path d="M32.023,19.832a1.592,1.592,0,0,0-1.593,1.592v6.762L16.71,14.466a1.594,1.594,0,0,0-2.254,2.254l13.72,13.72H21.365a1.592,1.592,0,0,0,0,3.16H31.949a1.592,1.592,0,0,0,1.592-1.593V21.351a1.593,1.593,0,0,0-1.519-1.519Z" transform="translate(17.385 17.399)" fill="#e3e230"/><path d="M15.769,32.023A1.593,1.593,0,0,0,14.25,30.43H7.415l13.72-13.72a1.594,1.594,0,0,0-2.254-2.254L5.16,28.176V21.365a1.593,1.593,0,0,0-3.16,0V31.949a1.592,1.592,0,0,0,1.592,1.592H14.25a1.592,1.592,0,0,0,1.519-1.519Z" transform="translate(0 17.385)" fill="#e3e230"/></g></svg>