<svg xmlns="http://www.w3.org/2000/svg" width="81.297" height="38.107" viewBox="0 0 81.297 38.107"><ellipse cx="1.588" cy="1.588" rx="1.588" ry="1.588" transform="translate(34.135 28.581)" fill="#e3e230"/><path d="M80.664,162.507,70.5,155.052,80.664,147.6a1.613,1.613,0,0,0,0-2.562L68.753,136.3a1.608,1.608,0,0,0-2.527,1.281v3.177H60.246A17.07,17.07,0,0,0,48.214,145.7a15.034,15.034,0,0,0-9.5-3.353H32.679a15.2,15.2,0,0,0-9.533,3.393,17.691,17.691,0,0,0-12.316-4.982H1.588A1.62,1.62,0,0,0,0,142.345v7.942a1.621,1.621,0,0,0,1.588,1.588H11.2a5.89,5.89,0,0,1,5.185,3.177,5.893,5.893,0,0,1-5.185,3.176H1.588A1.588,1.588,0,0,0,0,159.817v7.942a1.588,1.588,0,0,0,1.588,1.588H10.83a17.706,17.706,0,0,0,12.319-4.981,15.108,15.108,0,0,0,5.023,2.7,1.588,1.588,0,0,0,.948-3.032,11.936,11.936,0,0,1-6.567-5.083L18.8,152.92a9.013,9.013,0,0,0-7.6-4.222H3.176v-4.765H10.83a14.48,14.48,0,0,1,12.28,6.744l3.772,5.929a6.992,6.992,0,0,0,5.846,3.21h6.037a6.924,6.924,0,0,0,4.821-1.954h0l2.578,4.105a11.9,11.9,0,0,1-3.834,2.052,1.588,1.588,0,0,0,.962,3.027A15.153,15.153,0,0,0,48.2,164.4a17.013,17.013,0,0,0,12.044,4.943h5.979v3.177a1.6,1.6,0,0,0,2.527,1.281l11.911-8.736A1.613,1.613,0,0,0,80.664,162.507ZM10.83,166.171H3.176v-4.765H11.2a8.893,8.893,0,0,0,7.023-3.4l1.637,2.629a15.093,15.093,0,0,0,1.029,1.449.349.349,0,0,0,.021.032,14.534,14.534,0,0,1-10.078,4.054Zm55.4-7.942H60.613a6.414,6.414,0,0,1-5.523-3.177,6.412,6.412,0,0,1,5.523-3.177h5.612Zm1.588-14.3a1.588,1.588,0,0,0,1.588-1.588v-1.631l7.637,5.6-7.637,5.6v-1.631a1.588,1.588,0,0,0-1.588-1.588h-7.2a9.5,9.5,0,0,0-7.362,3.462l-1.792-2.818a15.334,15.334,0,0,0-1-1.4,13.9,13.9,0,0,1,9.791-4.013h7.568ZM38.764,156.64H32.726a3.727,3.727,0,0,1-3.061-1.589,3.732,3.732,0,0,1,3.063-1.588h6.036a3.727,3.727,0,0,1,3.064,1.588A3.726,3.726,0,0,1,38.764,156.64ZM69.4,169.389v-1.631a1.588,1.588,0,0,0-1.588-1.588H60.246a13.869,13.869,0,0,1-11.844-6.58l-3.756-6.036a6.889,6.889,0,0,0-5.882-3.268H32.727a6.891,6.891,0,0,0-4.845,1.973l-2.656-4.12a12.007,12.007,0,0,1,7.453-2.618h6.037a11.871,11.871,0,0,1,10.063,5.525l3.772,5.931a9.508,9.508,0,0,0,8.063,4.428h7.2a1.588,1.588,0,0,0,1.588-1.588v-1.631l7.637,5.6Z" transform="translate(0 -136)" fill="#e3e230"/></svg>