<svg xmlns="http://www.w3.org/2000/svg" width="49.884" height="58.58" viewBox="0 0 49.884 58.58"><path d="M49.826,15.893l0-.046c-.026-.563-.042-1.158-.053-1.82a6.209,6.209,0,0,0-5.846-6.082c-6.735-.376-11.946-2.572-16.4-6.911L27.49,1a3.749,3.749,0,0,0-5.1,0l-.038.036C17.906,5.373,12.7,7.569,5.96,7.946A6.208,6.208,0,0,0,.114,14.028c-.01.658-.027,1.253-.053,1.82l0,.106c-.131,6.868-.294,15.416,2.566,23.174A29.5,29.5,0,0,0,9.7,50.151a37.022,37.022,0,0,0,13.849,8.192,4.289,4.289,0,0,0,.568.155,4.192,4.192,0,0,0,1.648,0,4.3,4.3,0,0,0,.57-.155,37.046,37.046,0,0,0,13.835-8.2,29.541,29.541,0,0,0,7.077-11.026C50.119,31.338,49.957,22.774,49.826,15.893Zm-5.8,22.037C41.008,46.107,34.851,51.723,25.2,55.1a.864.864,0,0,1-.109.03.771.771,0,0,1-.3,0,.855.855,0,0,1-.108-.029C15.024,51.729,8.864,46.116,5.85,37.939c-2.636-7.151-2.486-15-2.354-21.92v-.038c.027-.595.045-1.218.055-1.9a2.759,2.759,0,0,1,2.6-2.7A30.159,30.159,0,0,0,16.388,9.126a26.781,26.781,0,0,0,8.342-5.6.317.317,0,0,1,.425,0,26.792,26.792,0,0,0,8.342,5.6,30.16,30.16,0,0,0,10.237,2.252,2.759,2.759,0,0,1,2.6,2.7c.01.688.028,1.311.055,1.9C46.521,22.911,46.667,30.764,44.024,37.93Zm0,0" transform="translate(0 0.001)" fill="#e3e230"/><path d="M105,128.41a14.6,14.6,0,1,0,14.6,14.6A14.616,14.616,0,0,0,105,128.41Zm0,25.761a11.162,11.162,0,1,1,11.161-11.162A11.174,11.174,0,0,1,105,154.171Zm0,0" transform="translate(-80.056 -113.718)" fill="#e3e230"/><path d="M165.228,212.495l-6.781,6.781-1.84-1.84a1.719,1.719,0,1,0-2.431,2.43l3.056,3.056a1.719,1.719,0,0,0,2.43,0l8-8a1.719,1.719,0,1,0-2.431-2.43Zm0,0" transform="translate(-136.09 -187.736)" fill="#e3e230"/></svg>