<svg xmlns="http://www.w3.org/2000/svg" width="61.773" height="64.58" viewBox="0 0 61.773 64.58"><path d="M61.773,30.88A30.887,30.887,0,1,0,21.492,60.31a1.241,1.241,0,0,0,.377.058,1.364,1.364,0,0,0,.691-.189,1.287,1.287,0,0,0,.572-.719l7.8-24.722a3.861,3.861,0,0,0-.04-7.722,3.809,3.809,0,0,0-1.655.386L18.932,17.1a1.287,1.287,0,0,0-1.82,1.82l10.3,10.311a3.786,3.786,0,0,0,1.082,4.66L21.062,57.444a28.341,28.341,0,1,1,21.331-.707l-.8-3.783a1.287,1.287,0,0,0-2.116-.693l-7.743,6.913a1.287,1.287,0,0,0,.466,2.188l9.886,3.155a1.288,1.288,0,0,0,1.653-1.493l-.789-3.712A30.786,30.786,0,0,0,61.773,30.88ZM30.887,29.593A1.287,1.287,0,1,1,29.6,30.88,1.287,1.287,0,0,1,30.887,29.593Zm4.239,30,4.408-3.932,1.216,5.732Zm0,0" transform="translate(0 0)" fill="#e3e230"/><path d="M234.672,42.045v2.574a1.287,1.287,0,1,0,2.574,0V42.045a1.287,1.287,0,1,0-2.574,0Zm0,0" transform="translate(-205.072 -35.617)" fill="#e3e230"/><path d="M42.1,234.617a1.287,1.287,0,0,0,0,2.574h2.574a1.287,1.287,0,0,0,0-2.574Zm0,0" transform="translate(-35.665 -205.024)" fill="#e3e230"/><path d="M411.981,237.191a1.287,1.287,0,1,0,0-2.574h-2.574a1.287,1.287,0,1,0,0,2.574Zm0,0" transform="translate(-356.643 -205.024)" fill="#e3e230"/></svg>