<svg xmlns="http://www.w3.org/2000/svg" width="74.664" height="69.192" viewBox="0 0 74.664 69.192"><path d="M73.571,152.453a1.094,1.094,0,0,0-1.094,1.094v2.279a.657.657,0,0,1-.656.656H2.844a.657.657,0,0,1-.656-.656V113.733a.657.657,0,0,1,.656-.656h1.9a1.094,1.094,0,1,0,0-2.187h-1.9A2.847,2.847,0,0,0,0,113.733v42.093a2.847,2.847,0,0,0,2.844,2.844h7.192l1.614,5.885a2.851,2.851,0,0,0,2.742,2.092H60.272a2.851,2.851,0,0,0,2.742-2.092l1.614-5.885h7.192a2.847,2.847,0,0,0,2.844-2.844v-2.279A1.094,1.094,0,0,0,73.571,152.453ZM60.9,163.976a.658.658,0,0,1-.633.483H14.392a.658.658,0,0,1-.632-.483L12.3,158.67H62.36Z" transform="translate(0 -97.454)" fill="#658cb1"/><path d="M108.123,32.2H98.935a9.359,9.359,0,1,0-16.851,0H46.146a1.094,1.094,0,1,0,0,2.187H83.319l2.273,3.937H44.177A1.679,1.679,0,0,0,42.5,40V72.175a1.679,1.679,0,0,0,1.677,1.677h58.915a1.679,1.679,0,0,0,1.677-1.677V40a1.679,1.679,0,0,0-1.677-1.677H95.427L97.7,34.383h10.422a.657.657,0,0,1,.656.656V69.75a1.094,1.094,0,0,0,2.187,0V35.04a2.847,2.847,0,0,0-2.844-2.844ZM78.517,52.882h24.065v6.411H93.429a1.679,1.679,0,0,0-1.677,1.677v10.7H85.342v-10.7a1.679,1.679,0,0,0-1.677-1.677H69.93a1.667,1.667,0,0,0-1.418.781L61.19,71.664H53.609l6.191-9.8a1.676,1.676,0,0,0-1.417-2.572H56.406l3.529-1.807a1.385,1.385,0,0,0,0-2.467h0L55.76,52.882H68.752A1.679,1.679,0,0,0,70.429,51.2v-10.7H76.84V51.2A1.679,1.679,0,0,0,78.517,52.882Zm4.637,8.6V71.664H63.778L70.212,61.48ZM52.392,55.709,51.248,53.03l6.3,3.223-6.3,3.223L52.392,56.8A1.391,1.391,0,0,0,52.392,55.709Zm15.85-15.2V50.694H51.487l-1.215-.622a1.372,1.372,0,0,0-1.576.22,1.4,1.4,0,0,0-.3.4H44.687V40.508ZM48.948,59.292h-4.26V52.882h4.119l1.439,3.371Zm-4.26,2.187H48.28a1.383,1.383,0,0,0,1.991.953l1.861-.953h5.323L51.022,71.664H44.687ZM93.94,71.664V61.48h8.642V71.664Zm8.642-31.156V50.694H79.027V40.508h7.828l2.2,3.814a1.677,1.677,0,0,0,2.9,0h0l2.2-3.814ZM90.51,42.463,84.3,31.706a7.172,7.172,0,1,1,12.422,0Z" transform="translate(-36.302 -18.761)" fill="#658cb1"/><path d="M347.9,54.323a4.067,4.067,0,1,0,4.067,4.067,4.072,4.072,0,0,0-4.067-4.067Zm0,5.947a1.88,1.88,0,1,1,1.88-1.88A1.882,1.882,0,0,1,347.9,60.27Z" transform="translate(-293.688 -49.137)" fill="#658cb1"/><path d="M148.246,453.077H177.8a1.094,1.094,0,0,0,0-2.187H148.246a1.094,1.094,0,1,0,0,2.187Z" transform="translate(-125.693 -387.873)" fill="#658cb1"/></svg>