<svg xmlns="http://www.w3.org/2000/svg" width="63.067" height="59.304" viewBox="0 0 63.067 59.304"><path d="M35.675,92.92v-12.9a.41.41,0,0,1,.4-.4h3.171v5.774a.955.955,0,0,0,.955.955h5.638a.954.954,0,0,0,.955-.955V79.618h3.172a.409.409,0,0,1,.4.4v12.9a.41.41,0,0,1-.4.4H36.08A.41.41,0,0,1,35.675,92.92Zm5.486-13.3v4.818h3.728V79.618Zm11.126,13.3v-12.9a2.319,2.319,0,0,0-2.316-2.315H36.08a2.318,2.318,0,0,0-2.316,2.315v12.9a2.318,2.318,0,0,0,2.316,2.316H49.971A2.319,2.319,0,0,0,52.287,92.92ZM35.675,59.7a.41.41,0,0,1,.4-.4h3.171v5.775a.956.956,0,0,0,.955.955h5.638a.955.955,0,0,0,.955-.955V59.294h3.172a.41.41,0,0,1,.4.4V72.6a.409.409,0,0,1-.4.4H36.08a.41.41,0,0,1-.4-.4Zm5.486-.4v4.82h3.728v-4.82ZM36.08,74.91H49.971A2.319,2.319,0,0,0,52.287,72.6V59.7a2.319,2.319,0,0,0-2.316-2.316H36.08A2.318,2.318,0,0,0,33.764,59.7V72.6A2.318,2.318,0,0,0,36.08,74.91Zm7.815-21.826c0-.007,0-.013,0-.02l.23-5.447a.956.956,0,0,1,1.909.081L45.9,50.9A19.748,19.748,0,0,1,72.06,52.429a.955.955,0,1,1-1.351,1.351,17.836,17.836,0,0,0-23.443-1.53l3.068.129a.956.956,0,0,1-.081,1.909l-5.447-.229A.956.956,0,0,1,43.894,53.085ZM72.34,99.535v.018L72.11,105a.955.955,0,0,1-1.909-.082l.134-3.194a19.712,19.712,0,0,1-26.164-1.535.956.956,0,0,1,1.352-1.351,17.8,17.8,0,0,0,23.444,1.53l-3.07-.129a.956.956,0,1,1,.081-1.909l5.445.229a.956.956,0,0,1,.915.977ZM91.245,88.673a.956.956,0,0,1-.955.955H79.823a.955.955,0,1,1,0-1.91H90.29A.955.955,0,0,1,91.245,88.673Zm0-10.246a.955.955,0,0,1-.955.955H79.823a.956.956,0,1,1,0-1.911H90.29A.956.956,0,0,1,91.245,78.427Zm0-10.246a.955.955,0,0,1-.955.956H79.823a.956.956,0,1,1,0-1.911H90.29A.955.955,0,0,1,91.245,68.181ZM75.777,85.746a.957.957,0,0,1,0,1.351l-2.252,2.251a.955.955,0,0,1-1.351,0L70.823,88a.956.956,0,0,1,1.351-1.352l.677.675,1.576-1.575a.954.954,0,0,1,1.351,0Zm0-10.246a.957.957,0,0,1,0,1.351L73.525,79.1a.956.956,0,0,1-1.351,0l-1.351-1.351A.956.956,0,0,1,72.174,76.4l.677.676L74.427,75.5a.955.955,0,0,1,1.351,0Zm0-10.245a.956.956,0,0,1,0,1.351l-2.252,2.253a.957.957,0,0,1-1.351,0l-1.351-1.351a.955.955,0,0,1,1.351-1.351l.677.675,1.576-1.576A.954.954,0,0,1,75.777,65.254ZM94.92,92.17V60.446a1.881,1.881,0,0,0-1.879-1.879H87.57v2.418a.956.956,0,0,1-.956.955H74.995a.956.956,0,0,1-.955-.955V58.567H68.568a1.882,1.882,0,0,0-1.879,1.879V92.17a1.882,1.882,0,0,0,1.879,1.879H93.041A1.881,1.881,0,0,0,94.92,92.17ZM75.951,56.64h1.823a.954.954,0,0,0,.954-.979,2.077,2.077,0,1,1,4.152,0,.954.954,0,0,0,.955.979h1.823v3.389H75.951Zm17.09.017H87.57v-.972a.955.955,0,0,0-.956-.955h-1.92a3.988,3.988,0,0,0-7.779,0h-1.92a.955.955,0,0,0-.955.955v.972H68.568a3.8,3.8,0,0,0-3.791,3.79V92.17a3.8,3.8,0,0,0,3.791,3.79H93.041a3.794,3.794,0,0,0,3.79-3.79V60.446a3.793,3.793,0,0,0-3.791-3.79Z" transform="translate(-33.764 -46.664)" fill="#658cb1" fill-rule="evenodd"/></svg>