<svg xmlns="http://www.w3.org/2000/svg" width="68.626" height="68.622" viewBox="0 0 68.626 68.622"><g transform="translate(0 0)"><path d="M61.087,7.553A25.736,25.736,0,0,0,22.339,41.242l-3.606,3.606-.5-.5a1.428,1.428,0,0,0-2.021,0L1.675,58.875a5.719,5.719,0,1,0,8.088,8.088L24.294,52.431a1.428,1.428,0,0,0,0-2.021l-.507-.509,3.6-3.6a25.736,25.736,0,0,0,33.7-38.744Zm-5.908-.824a1.365,1.365,0,0,1,.354.046c1.665.446,3,4.739,1.4,10.72A24.808,24.808,0,0,1,53.979,24.1l-5.761-1.544a24.757,24.757,0,0,1,.748-7.2,18.17,18.17,0,0,1,3.045-6.432C53.1,7.551,54.281,6.729,55.179,6.729ZM7.742,64.939A2.859,2.859,0,1,1,3.7,60.9l13.52-13.522,4.044,4.044ZM21.767,47.88l-1.011-1.011,3.439-3.437c.163.171.331.343.5.515s.337.331.509.494Zm17.065-2.63c-.147,2-1.173,2.272-1.558,2.375a2.082,2.082,0,0,1-.559.08c-1.1,0-1.95-1.16-2.469-2.207l4.586-1.232A7.011,7.011,0,0,1,38.832,45.25Zm20.234-3.325a22.727,22.727,0,0,1-16.175,6.7c-.735,0-1.464-.038-2.184-.1a6.164,6.164,0,0,0,.978-3.062,11.308,11.308,0,0,0-.3-3.355,1.431,1.431,0,0,0-1.751-1.012l-7.663,2.054A1.428,1.428,0,0,0,30.956,44.9c.006.017.052.193.147.465a23.009,23.009,0,0,1-4.387-3.439A22.886,22.886,0,0,1,52.2,4.843a10.545,10.545,0,0,0-2.436,2.314A21.087,21.087,0,0,0,46.2,14.62a26.162,26.162,0,0,0-.72,9.275,1.429,1.429,0,0,0,1.045,1.17l7.66,2.053a1.454,1.454,0,0,0,.371.048,1.428,1.428,0,0,0,1.118-.539,26.1,26.1,0,0,0,4.014-8.392,21.912,21.912,0,0,0,.764-7.138,22.876,22.876,0,0,1-1.391,30.828Z" transform="translate(0 -0.016)" fill="#e3e230"/></g><g transform="translate(25.283 18.502)"><path d="M202.932,148.8a21.152,21.152,0,0,0-3.562-7.464c-1.7-2.151-3.568-3.287-5.416-3.287a4.211,4.211,0,0,0-1.093.143c-1.989.533-3.4,2.436-3.96,5.357a20.343,20.343,0,0,0,.542,8.865,26.163,26.163,0,0,0,4.012,8.392,1.441,1.441,0,0,0,1.12.538,1.393,1.393,0,0,0,.369-.048l7.663-2.052a1.431,1.431,0,0,0,1.043-1.17A26.1,26.1,0,0,0,202.932,148.8Zm-2.015,7.936-5.763,1.546a24.9,24.9,0,0,1-2.951-6.607c-1.6-5.981-.266-10.274,1.4-10.72a1.364,1.364,0,0,1,.354-.045c.9,0,2.084.822,3.171,2.2a18.233,18.233,0,0,1,3.045,6.432A24.747,24.747,0,0,1,200.917,156.74Z" transform="translate(-188.631 -138.054)" fill="#e3e230"/></g><g transform="translate(44.079 26.38)"><path d="M338.6,198.934l-7.663-2.052a1.428,1.428,0,0,0-1.751,1.01,11.172,11.172,0,0,0-.3,3.356c.188,2.595,1.493,4.344,3.669,4.928a5.034,5.034,0,0,0,1.3.177c1.263,0,3.083-.519,4.588-2.99a11.429,11.429,0,0,0,1.169-2.676A1.429,1.429,0,0,0,338.6,198.934Zm-4.748,4.559a2.166,2.166,0,0,1-.559-.08c-.381-.1-1.393-.373-1.554-2.319a6.882,6.882,0,0,1,0-1.039l4.582,1.228C335.828,202.289,335,203.493,333.853,203.493Z" transform="translate(-328.859 -196.833)" fill="#e3e230"/></g></svg>