<svg xmlns="http://www.w3.org/2000/svg" width="66.183" height="72.913" viewBox="0 0 66.183 72.913"><path d="M67.724,13.238a1.131,1.131,0,0,1,2.262,0v9.437a1.131,1.131,0,0,1-2.262,0Zm2.262,15.633a1.131,1.131,0,0,1-2.262,0V27.742a1.131,1.131,0,0,1,2.262,0ZM69.836.587,89.111,33.972a1.127,1.127,0,0,1-.976,1.687v0H74.962V67.8a5.137,5.137,0,0,1-5.126,5.13H28.21a5.138,5.138,0,0,1-5.13-5.13V21.165a1.139,1.139,0,0,1,.335-.806L33.663,10.116a1.111,1.111,0,0,1,.8-.331H62.566L67.882.576a1.124,1.124,0,0,1,1.954.012ZM72.7,35.662H49.573a1.127,1.127,0,0,1-.922-1.782L61.259,12.045H35.594v5.122a5.14,5.14,0,0,1-5.13,5.126H25.34v45.5a2.875,2.875,0,0,0,2.868,2.868H69.836A2.874,2.874,0,0,0,72.7,67.792V35.662ZM77.521,18.4,68.857,3.39,51.528,33.4H86.186ZM32.942,32.645a1.126,1.126,0,0,1,1.678-1.5l6.737,7.539,2.456-2.413a1.126,1.126,0,0,1,1.67.1l6.7,7.494,2.46-2.413a1.124,1.124,0,0,1,1.665.095l5.585,6.1a1.125,1.125,0,0,1,2.22-.284l.938,3.927a1.129,1.129,0,0,1-1.4,1.385l-3.889-1.133a1.127,1.127,0,1,1,.674-2.15l-5.043-5.511L52.921,46.3h0a1.126,1.126,0,0,1-1.629-.054l-6.734-7.539-2.46,2.413a1.129,1.129,0,0,1-1.629-.05ZM65.083,59.511H62.417v4.8h2.666Zm-3.8-2.262h4.928a1.128,1.128,0,0,1,1.129,1.129v7.064a1.128,1.128,0,0,1-1.129,1.129H61.287a1.128,1.128,0,0,1-1.129-1.129V58.378A1.129,1.129,0,0,1,61.287,57.249ZM32.96,51.42V64.309h2.666V45.538H32.96ZM30.7,65.442V44.41a1.131,1.131,0,0,1,1.133-1.129h4.923a1.131,1.131,0,0,1,1.133,1.129V65.443a1.131,1.131,0,0,1-1.133,1.129H31.831A1.134,1.134,0,0,1,30.7,65.442Zm10.95-17.316h4.928A1.128,1.128,0,0,1,47.7,49.255V65.442a1.128,1.128,0,0,1-1.129,1.129H41.648a1.128,1.128,0,0,1-1.129-1.129V49.255A1.128,1.128,0,0,1,41.648,48.126Zm3.794,2.26H42.78V64.309h2.663Zm9.822,4.774H52.6v9.148h2.666ZM51.47,52.9h4.923a1.135,1.135,0,0,1,1.133,1.133v11.41a1.131,1.131,0,0,1-1.133,1.129H51.47a1.131,1.131,0,0,1-1.133-1.129V54.033A1.135,1.135,0,0,1,51.47,52.9ZM26.937,20.036h3.525a2.878,2.878,0,0,0,2.868-2.868V13.642Z" transform="translate(-23.08 -0.013)" fill="#658cb1"/></svg>