<svg xmlns="http://www.w3.org/2000/svg" width="44.563" height="43.537" viewBox="0 0 44.563 43.537"><g transform="translate(0)"><g transform="translate(0 0)"><path d="M203.638,177.313a.653.653,0,0,0,.653-.653v-1.265a.653.653,0,0,0-1.306,0v1.265A.653.653,0,0,0,203.638,177.313Z" transform="translate(-185.318 -160.046)" fill="#e3e230"/><path d="M251.393,177.313a.653.653,0,0,0,.653-.653v-1.265a.653.653,0,0,0-1.306,0v1.265A.653.653,0,0,0,251.393,177.313Z" transform="translate(-228.916 -160.046)" fill="#e3e230"/><ellipse cx="1.306" cy="1.306" rx="1.306" ry="1.306" transform="translate(10.875 37.07)" fill="#e3e230"/><ellipse cx="1.306" cy="1.306" rx="1.306" ry="1.306" transform="translate(16.354 37.07)" fill="#e3e230"/><ellipse cx="1.306" cy="1.306" rx="1.306" ry="1.306" transform="translate(21.832 37.07)" fill="#e3e230"/><ellipse cx="1.306" cy="1.306" rx="1.306" ry="1.306" transform="translate(27.31 37.07)" fill="#e3e230"/><path d="M43.04,14.355h-.187v-2.5a5.962,5.962,0,1,0-11.925,0v2.317A13.648,13.648,0,0,0,8.983,15.37H1.958A1.961,1.961,0,0,0,0,17.329V36.281a.653.653,0,0,0,1.306,0V21.926H6.767c-.021.312-.033.627-.033.945A13.664,13.664,0,0,0,33.676,26.1h5.815V43.137a.653.653,0,0,1-.653.653H34.861V40.726A1.961,1.961,0,0,0,32.9,38.768H27.678a.653.653,0,1,0,0,1.306H32.9a.653.653,0,0,1,.653.653v6.748a.653.653,0,0,1-.653.653H7.893a.653.653,0,0,1-.653-.653V40.726a.653.653,0,0,1,.653-.653H24.632a.653.653,0,0,0,0-1.306H7.893a1.961,1.961,0,0,0-1.958,1.958V43.79H1.958a.653.653,0,0,1-.653-.653v-3.81a.653.653,0,0,0-1.306,0v3.81A1.961,1.961,0,0,0,1.958,45.1H5.935v2.379a1.961,1.961,0,0,0,1.958,1.958H32.9a1.961,1.961,0,0,0,1.958-1.958V45.1h3.977A1.961,1.961,0,0,0,40.8,43.137V26.1H43.04a1.525,1.525,0,0,0,1.523-1.523v-8.7A1.525,1.525,0,0,0,43.04,14.355Zm-10.806-2.5a4.657,4.657,0,1,1,9.313,0v2.5H40.154v-2.5a3.263,3.263,0,1,0-6.525,0v2.5H32.234Zm6.614,0v2.5H34.934v-2.5a1.957,1.957,0,1,1,3.914,0ZM1.306,20.62V17.329a.654.654,0,0,1,.653-.653H8.221a13.557,13.557,0,0,0-1.3,3.945ZM20.4,35.23a12.3,12.3,0,0,1-7.708-2.706,8.491,8.491,0,0,1,4.291-4.164,7.352,7.352,0,0,0,6.834,0,8.491,8.491,0,0,1,4.291,4.164A12.3,12.3,0,0,1,20.4,35.23Zm8.717-3.606a9.792,9.792,0,0,0-4.038-4.1A7.376,7.376,0,1,0,13.16,20.4a.653.653,0,1,0,1.281.251,6.071,6.071,0,1,1,.095,2.752.653.653,0,1,0-1.261.339,7.355,7.355,0,0,0,2.445,3.781,9.792,9.792,0,0,0-4.038,4.1A12.353,12.353,0,1,1,29.713,14.758a1.518,1.518,0,0,0-.495,1.12v8.7A1.525,1.525,0,0,0,30.742,26.1h1.584a12.364,12.364,0,0,1-3.211,5.524Zm14.143-7.047a.218.218,0,0,1-.218.218h-12.3a.218.218,0,0,1-.218-.218v-8.7a.218.218,0,0,1,.218-.218h12.3a.218.218,0,0,1,.218.218Z" transform="translate(0 -5.896)" fill="#e3e230"/><path d="M417.006,145.479a.653.653,0,0,0-.653.653v1.98a.653.653,0,1,0,1.306,0v-1.98A.653.653,0,0,0,417.006,145.479Z" transform="translate(-380.115 -133.33)" fill="#e3e230"/></g></g></svg>