<svg xmlns="http://www.w3.org/2000/svg" width="44.563" height="44.472" viewBox="0 0 44.563 44.472"><path d="M38.037,6.52a22.3,22.3,0,0,0-31.511,0,22.262,22.262,0,0,0,14.188,37.95.653.653,0,1,0,.09-1.3,20.987,20.987,0,1,1,2.954,0,.653.653,0,0,0,.045,1.3l.046,0A22.258,22.258,0,0,0,38.036,6.52Zm0,0" transform="translate(0.001)" fill="#e3e230"/><path d="M216.162,118.5l2.45-2.448,6.714,6.709a4.238,4.238,0,1,0,6-5.992l-6.714-6.708,6.714-6.708a4.238,4.238,0,0,0-6-5.992L223.2,99.483a.653.653,0,1,0,.923.923l2.124-2.122a2.94,2.94,0,0,1,4.15,0,2.929,2.929,0,0,1,0,4.145l-7.176,7.17a.653.653,0,0,0,0,.923l7.176,7.17a2.929,2.929,0,0,1,0,4.145,2.94,2.94,0,0,1-4.15,0l-7.176-7.17a.653.653,0,0,0-.923,0l-2.911,2.909a.653.653,0,1,0,.923.923Zm0,0" transform="translate(-196.33 -87.756)" fill="#e3e230"/><path d="M102.011,98.284l7.176,7.17a.653.653,0,0,0,.923,0l2.911-2.908a.653.653,0,1,0-.923-.923l-2.449,2.447-6.714-6.709a4.238,4.238,0,1,0-6,5.992l6.714,6.708-6.714,6.708a4.238,4.238,0,0,0,6,5.992l2.117-2.116a.653.653,0,1,0-.923-.923l-2.117,2.115a2.94,2.94,0,0,1-4.15,0,2.928,2.928,0,0,1,0-4.145l7.176-7.17a.653.653,0,0,0,0-.923l-7.176-7.17a2.928,2.928,0,0,1,0-4.145A2.94,2.94,0,0,1,102.011,98.284Zm0,0" transform="translate(-87.366 -87.756)" fill="#e3e230"/></svg>