<svg xmlns="http://www.w3.org/2000/svg" width="60" height="60.005" viewBox="0 0 60 60.005"><path d="M57,0H3A3,3,0,0,0,0,3V45a3,3,0,0,0,3,3H20.324a3.135,3.135,0,0,0,.6.568,1.128,1.128,0,0,1,.454.676,3.132,3.132,0,0,0,1.839,2.2l-1.752,2.2a2.1,2.1,0,0,0,1.77,3.413l1.765-.1.6,1.661A2.081,2.081,0,0,0,27.436,60c.049,0,.1,0,.148,0a2.077,2.077,0,0,0,1.848-1.116L30,57.821l.565,1.058A2.078,2.078,0,0,0,32.416,60a1.455,1.455,0,0,0,.148-.005A2.084,2.084,0,0,0,34.4,58.609l.6-1.656,1.762.106a2.1,2.1,0,0,0,1.774-3.411l-1.754-2.207a3.132,3.132,0,0,0,1.84-2.2,1.119,1.119,0,0,1,.453-.677,3.111,3.111,0,0,0,.6-.569H57a3,3,0,0,0,3-3V3A3,3,0,0,0,57,0ZM27.666,57.943a.1.1,0,0,1-.186-.011l-.849-2.361a1,1,0,0,0-1-.659l-2.513.151a.1.1,0,0,1-.085-.17l1.846-2.323a3.121,3.121,0,0,0,2.107.833c.159,0,.312-.007.459-.012.487-.023.661-.018.873.117a3.12,3.12,0,0,0,1.469.474Zm9.316-2.934a.093.093,0,0,1-.1.054l-2.511-.151a1,1,0,0,0-1,.659l-.848,2.356a.1.1,0,0,1-.192.012l-1.2-2.236,1.242-2.319.166.006c.15.006.306.013.47.013a3.117,3.117,0,0,0,2.107-.834L36.969,54.9a.092.092,0,0,1,.013.109Zm1.84-11.4a3.23,3.23,0,0,0-.429,2.043c0,.119.01.241.01.366a1.129,1.129,0,0,1-.481.92,3.109,3.109,0,0,0-1.256,1.881,1.129,1.129,0,0,1-.853.85,3.118,3.118,0,0,0-1.88,1.257,1.126,1.126,0,0,1-.919.481c-.133,0-.259-.006-.381-.011a3.164,3.164,0,0,0-2.03.434,1.125,1.125,0,0,1-1.208,0,2.866,2.866,0,0,0-1.624-.441c-.144,0-.282.006-.413.012s-.244.01-.372.01a1.129,1.129,0,0,1-.92-.481,3.109,3.109,0,0,0-1.881-1.256,1.129,1.129,0,0,1-.85-.853,3.118,3.118,0,0,0-1.257-1.88,1.126,1.126,0,0,1-.481-.919c0-.133.006-.26.011-.382a3.144,3.144,0,0,0-.434-2.029A1.128,1.128,0,0,1,21.18,42.4a3.092,3.092,0,0,0,.439-2.2,1.146,1.146,0,0,1,.459-1.128,3.109,3.109,0,0,0,1.256-1.881,1.129,1.129,0,0,1,.853-.85,3.118,3.118,0,0,0,1.88-1.257,1.126,1.126,0,0,1,.919-.481c.123,0,.243,0,.36.009A3.2,3.2,0,0,0,29.4,34.18a1.127,1.127,0,0,1,1.207,0,3.167,3.167,0,0,0,2.036.43c.121,0,.245-.011.374-.011a1.129,1.129,0,0,1,.92.481,3.109,3.109,0,0,0,1.881,1.256,1.129,1.129,0,0,1,.85.854,3.116,3.116,0,0,0,1.257,1.879,1.126,1.126,0,0,1,.481.919c0,.134-.006.261-.011.383a3.14,3.14,0,0,0,.434,2.028,1.127,1.127,0,0,1,0,1.206Zm-.2-6.848a3.136,3.136,0,0,0-2.372-2.376,1.119,1.119,0,0,1-.677-.453A3.132,3.132,0,0,0,33.014,32.6c-.16,0-.314.007-.463.013-.488.023-.658.017-.869-.118a3.138,3.138,0,0,0-3.362,0c-.211.135-.4.14-.89.119-.145,0-.292-.011-.444-.011a3.129,3.129,0,0,0-2.554,1.331,1.128,1.128,0,0,1-.676.454,3.136,3.136,0,0,0-2.375,2.372,1.121,1.121,0,0,1-.454.678,3.134,3.134,0,0,0-1.28,3.1,1.106,1.106,0,0,1-.155.79,3.155,3.155,0,0,0-.319.682H11a1,1,0,0,1-1-1,3.015,3.015,0,0,0-3-3,.977.977,0,0,1-.713-.307A.959.959,0,0,1,6,37V11a1,1,0,0,1,1-1,3.015,3.015,0,0,0,3-3,.977.977,0,0,1,.307-.713A.959.959,0,0,1,11,6H49a1,1,0,0,1,1,1,3.015,3.015,0,0,0,3,3,.977.977,0,0,1,.713.307A.959.959,0,0,1,54,11V37a1,1,0,0,1-1,1,3.015,3.015,0,0,0-3,3,.977.977,0,0,1-.307.713A.959.959,0,0,1,49,42H40.827a3.129,3.129,0,0,0-.316-.68c-.143-.222-.143-.394-.121-.859.006-.151.013-.309.013-.475a3.129,3.129,0,0,0-1.331-2.554,1.129,1.129,0,0,1-.454-.675ZM58,45a1,1,0,0,1-1,1H40.4c0-.149-.006-.294-.011-.435-.021-.487-.016-.676.116-.883A3.155,3.155,0,0,0,40.827,44H49a3.015,3.015,0,0,0,3-3,.977.977,0,0,1,.307-.713A.959.959,0,0,1,53,40a3,3,0,0,0,3-3V11a3.015,3.015,0,0,0-3-3,.977.977,0,0,1-.713-.307A.959.959,0,0,1,52,7a3,3,0,0,0-3-3H11A3.015,3.015,0,0,0,8,7a.977.977,0,0,1-.307.713A.959.959,0,0,1,7,8a3,3,0,0,0-3,3V37a3.015,3.015,0,0,0,3,3,.977.977,0,0,1,.713.307A.959.959,0,0,1,8,41a3,3,0,0,0,3,3h8.173a3.129,3.129,0,0,0,.316.68c.142.22.142.394.121.862-.006.147-.013.3-.013.458H3a1,1,0,0,1-1-1V3A1,1,0,0,1,3,2H57a1,1,0,0,1,1,1Z" fill="#658cb1"/><path d="M17,17H43a3,3,0,0,0,3-3V12a3,3,0,0,0-3-3H17a3,3,0,0,0-3,3v2A3,3,0,0,0,17,17Zm-1-5a1,1,0,0,1,1-1H43a1,1,0,0,1,1,1v2a1,1,0,0,1-1,1H17a1,1,0,0,1-1-1Z" fill="#658cb1"/><path d="M30,37a6,6,0,1,0,6,6A6,6,0,0,0,30,37Zm0,10a4,4,0,1,1,4-4A4,4,0,0,1,30,47Z" fill="#658cb1"/><path d="M15,22H45a1,1,0,0,0,0-2H15a1,1,0,0,0,0,2Z" fill="#658cb1"/><path d="M15,26H45a1,1,0,0,0,0-2H15a1,1,0,0,0,0,2Z" fill="#658cb1"/><path d="M46,29a1,1,0,0,0-1-1H15a1,1,0,0,0,0,2H45A1,1,0,0,0,46,29Z" fill="#658cb1"/></svg>