<svg xmlns="http://www.w3.org/2000/svg" width="61" height="58.836" viewBox="0 0 61 58.836"><path d="M61,39.955V5.421H53.188V0H7.812V5.421H0V39.955H7.812v3.634H6.434V50.1H22.589v1.013H38.411V50.1H54.567v-6.51H53.188V39.955ZM59.213,7.208v30.96H47.767V7.208Zm-44.193,0H45.98v30.96H15.02ZM9.6,1.787H51.4V5.421H9.6ZM1.787,38.168V7.208H13.233v30.96Zm8.985,10.144H8.221V45.376h2.552Zm4.338,0H12.559V45.376h2.552Zm1.787,0V45.376h5.69v2.936Zm7.477-2.936H36.624v3.948H24.376ZM44.1,48.312H38.411V45.376H44.1Zm4.338,0H45.889V45.376h2.551Zm4.339,0H50.228V45.376H52.78ZM51.4,43.589H9.6v-.923h9.185V40.878H9.6v-.923H51.4Zm0,0" transform="translate(0)" fill="#e3e230"/><path d="M91.125,435.966H85.287v-1.152h4.349v-1.787H85.287v-1.072h4.349v-1.787H83.5v7.585h9.412v-7.248H91.125Zm0,0" transform="translate(-73.552 -378.918)" fill="#e3e230"/><path d="M357.117,435.966h-5.838v-1.152h4.35v-1.787h-4.35v-1.072h4.35v-1.787h-6.137v7.585H358.9v-7.248h-1.787Zm0,0" transform="translate(-307.853 -378.918)" fill="#e3e230"/><path d="M163.273,296.191H167.2v1.787h-3.926Zm0,0" transform="translate(-143.821 -260.903)" fill="#e3e230"/><path d="M159.811,113.156V100.031H144.9v13.125h-6.562v11.636h1.787v-9.849h2.459v3.591H149v-3.59h2.46v9.848h1.787v-9.848h2.46v3.59h6.419v-3.591h2.46v9.849h1.787V113.156Zm-6.033-11.337v1.8h-2.845v-1.8Zm-7.092,0h2.459v3.59h6.42v-3.59h2.46v11.337H146.686Zm.529,14.928h-2.845v-1.8h2.845Zm13.125,0h-2.845v-1.8h2.845Zm0,0" transform="translate(-121.855 -88.113)" fill="#e3e230"/><path d="M273.441,296.191h3.925v1.787h-3.925Zm0,0" transform="translate(-240.863 -260.903)" fill="#e3e230"/><path d="M218.359,186.031h3.925v1.787h-3.925Zm0,0" transform="translate(-192.344 -163.867)" fill="#e3e230"/><path d="M473.787,96.894H472V83.957h1.787Zm0-14.128H472V80.979h1.787Zm0-2.979H472V78h1.787Zm0,0" transform="translate(-415.766 -68.707)" fill="#e3e230"/><path d="M87.857,96.894H86.07V83.957h1.787Zm0-14.128H86.07V80.979h1.787Zm0-2.979H86.07V78h1.787Zm0,0" transform="translate(-75.816 -68.707)" fill="#e3e230"/><path d="M290.689,23.744H279.957V21.957h10.732Zm-11.924,0h-1.787V21.957h1.787Zm-2.979,0H274V21.957h1.787Zm0,0" transform="translate(-241.356 -19.341)" fill="#e3e230"/></svg>