<svg xmlns="http://www.w3.org/2000/svg" xmlns:xlink="http://www.w3.org/1999/xlink" width="1032.5" height="586.667" viewBox="0 0 1032.5 586.667"><defs><radialGradient id="a" cx="0.548" cy="1.07" r="1.313" gradientTransform="matrix(0, -1, -1, 0, 1.219, 1.219)" gradientUnits="objectBoundingBox"><stop offset="0" stop-color="#fff"/><stop offset="0.552" stop-color="#f5f5f5"/><stop offset="1" stop-color="#e5e5e5"/></radialGradient><clipPath id="e"><path d="M14.862,0H1017.638c8.208,0,14.862,9.843,14.862,21.986v542.7c0,12.142-6.654,21.985-14.862,21.985H14.862C6.654,586.667,0,576.823,0,564.681V21.986C0,9.843,6.654,0,14.862,0Z" transform="translate(0 0)" fill="#eff6ff"/></clipPath><clipPath id="f"><rect width="595.179" height="531.638" fill="#e8f6f1"/></clipPath><clipPath id="g"><rect width="326.7" height="263.193" fill="#92c9ff"/></clipPath><clipPath id="h"><path d="M23.572,31.6,532.731,8.87,516.538,405.113,7.378,427.845Z" fill="#92c9ff"/></clipPath><clipPath id="i"><rect width="192.045" height="188.619" fill="none"/></clipPath><clipPath id="j"><path d="M5.686,53.637A49.462,49.462,0,1,0,55.154,4.181,49.468,49.468,0,0,0,5.686,53.637" transform="translate(-5.686 -4.181)" fill="none"/></clipPath><radialGradient id="k" cx="0.546" cy="0.174" r="0.948" gradientTransform="matrix(0, 1, 1, 0, -1.471, 1.471)" gradientUnits="objectBoundingBox"><stop offset="0" stop-color="#fff"/><stop offset="1" stop-color="#b3b3b3"/></radialGradient><clipPath id="l"><path d="M6.024,51.9A47.389,47.389,0,1,0,53.416,4.518,47.386,47.386,0,0,0,6.024,51.9" transform="translate(-6.024 -4.518)" fill="url(#a)"/></clipPath></defs><g transform="translate(-285 -5798)"><g transform="translate(2.5 3567.445)"><g transform="translate(282.5 2230.555)" opacity="0.2" clip-path="url(#e)"><g transform="translate(-37.449 -13.53)" fill="#fff" stroke="#707070" stroke-width="1"><rect width="1118" height="613.725" stroke="none"/><rect x="0.5" y="0.5" width="1117" height="612.725" fill="none"/></g><path d="M14.862,0H1017.638c8.208,0,14.862,8.442,14.862,18.856V484.3c0,10.414-6.654,18.856-14.862,18.856H14.862C6.654,503.155,0,494.713,0,484.3V18.856C0,8.442,6.654,0,14.862,0Z" transform="translate(0 0)" fill="#f6f6f6"/><path d="M297.626,0C462,0,595.252,150.695,595.252,336.586S462,673.172,297.626,673.172,0,522.477,0,336.586,133.252,0,297.626,0Z" transform="translate(105 -456.659)" fill="#d3e9ff" opacity="0.41"/><path d="M278.462,0c153.79,0,278.462,140.992,278.462,314.914S432.252,629.827,278.462,629.827,0,488.835,0,314.914,124.672,0,278.462,0Z" transform="translate(-388.831 188.242)" fill="#92c9ff" opacity="0.48" style="mix-blend-mode:multiply;isolation:isolate"/><g transform="translate(493.204 -11.985)" style="mix-blend-mode:multiply;isolation:isolate"><g transform="translate(0 0)" clip-path="url(#f)"><path d="M176.419,62.4c-13.353,14.772-27.04,29.159-39.986,44.4-24.95,29.366-49.814,58.849-74.105,88.947C26.823,239.735,4.5,291.191,1.989,352.189.3,393.194.559,434.311.1,475.38c-.208,18.748-.038,37.5-.039,56.254H8.448c-.118-32.994-.542-65.992-.259-98.982.233-27.191.714-54.413,2.126-81.548,2.615-50.242,18.584-94.755,46.53-132.859,16.875-23.009,35.5-44.3,53.593-66.08q28.276-34.042,57.11-67.453c5.894-6.811,12.792-12.447,19.231-18.621a5.726,5.726,0,0,1,.8-1.275C205.382,48.741,224.25,34.662,245.019,24.3,268.047,12.8,291.958,7.16,317.1,10.617c31.02,4.264,59.795,16.768,87.532,32.8,53.716,31.041,99.228,75.175,143.191,121.741q21.985,24.579,43.972,49.157c1.108,1.238,2.234,2.453,3.352,3.678q.015-6.977.031-13.956c-3.227-3.577-6.476-7.128-9.679-10.734q-14.475-16.3-28.922-32.628c-12.758-12.88-25.381-25.948-38.3-38.606-37.687-36.926-77.222-70.678-122.517-94.233-25.13-13.068-50.989-23.364-78.571-26.9-26.455-3.39-51.527,2.6-75.718,14.7-22.08,11.041-42.041,26.144-60.916,43.3-1.34,1.217-2.758,2.319-4.139,3.474" transform="translate(0 0.004)" fill="#e8f6f1"/><path d="M9.7,775.65c-.579-21.079-.705-42.191-1.837-63.23-1.953-36.276,3.361-71.432,10.58-106.435,5.212-25.27,11.244-50.157,20.332-74.011C51.757,497.888,73.725,477.736,105.2,470.2a452.86,452.86,0,0,1,80.232-11.423c27.259-1.532,54.577-2.517,81.862-2.326,32.744.229,63.967,8.631,92.552,28.081,19.574,13.318,36.108,31.022,52.479,48.975,27.3,29.936,54.331,60.206,82.062,89.589,12.8,13.56,26.976,25.359,40.527,37.956q0-6.047,0-12.094c-18.767-18.28-38.089-35.853-56.169-55.009-26.242-27.805-51.458-56.915-77.347-85.176-34.546-37.712-75.437-58.417-122.942-61.461-32.613-2.09-65.159-.615-97.638,2.3-22.228,1.992-44.372,5.438-66.489,8.806-7.479,1.139-14.772,3.979-22.131,6.129-26.8,7.829-45.085,27.58-57.523,55.52C22.382,547.7,15.33,577.38,9.741,607.556,6.189,626.732,1.934,645.988.753,665.435c-1.469,24.18-.124,48.593.066,72.9.1,12.438.325,24.874.494,37.311Z" transform="translate(60.231 -244.012)" fill="#e8f6f1"/><path d="M8.447,879.4q3.824-55.767,7.665-111.531c1.7-24.236,3.086-48.489,9.481-71.955,8.509-31.221,27.455-46.186,54.637-49.234,25.654-2.877,51.179-.295,76.636,2.742,19.566,2.334,39.032,5.847,58.516,9.055,30.514,5.023,54.579,23.27,74.777,49.483,12.207,15.842,24.179,31.984,37.083,47.034,16.294,19,36.3,32.525,55.132,47.75,11.447,9.253,22.63,18.948,33.932,28.445q0-6.238-.005-12.479c-23.329-19.052-46.835-37.82-69.927-57.254-16.457-13.849-29.3-32.1-42.408-49.912-13.685-18.594-28.533-35.6-47.216-47.5-13.529-8.618-28.269-12.888-43.261-15.889-35.191-7.042-70.675-11.41-106.37-12.024a176.348,176.348,0,0,0-42.027,4.222C38.923,646.319,24.4,667.268,16.9,695.868c-5.238,19.973-6.99,40.577-8.389,61.24Q4.588,815.038.81,872.981c-.143,2.148-.493,4.277-.746,6.414Z" transform="translate(178.849 -347.758)" fill="#e8f6f1"/><path d="M305.634,950.407c-.569-16.024-1.755-32.057-1.589-48.072.474-45.711,18.073-81.215,49.553-107.685,11.557-9.717,24.626-16.087,38.873-18.306,20.862-3.248,37.887,5.738,49.934,25.06a575.833,575.833,0,0,1,29.231,53.861c17.1,35.35,37.482,67.468,64.162,93.88a7.793,7.793,0,0,1,.849,1.262h13.041c-18.026-17.506-35.2-36.142-48.313-58.886-11.633-20.174-21.92-41.4-32.725-62.215-8.015-15.44-15.857-30.994-27.24-43.6-17.067-18.9-37.236-23.622-59.455-16.688-44.005,13.733-78.943,60.974-84.9,113.389-2.5,22.011-.776,43.9.174,65.837.031.719.013,1.442.018,2.163Z" transform="translate(-69.899 -418.769)" fill="#e8f6f1"/><path d="M512.654,1028.4c-1.852-31.467-1.414-62.453,15.056-89.722,6.258-10.361,14.328-17.841,25.51-19.9a21.1,21.1,0,0,1,18.426,5.165c13.417,11.628,22.919,27.207,31.722,43.389a358.71,358.71,0,0,1,26.657,61.065h8.383c-6.209-23.238-16.462-44.188-27.271-64.8C602.962,948,593.69,933.36,581.949,921.088c-15.383-16.077-34.153-16.618-50.206-1.374-13.149,12.485-20.42,29.266-24.368,48.011-4.2,19.944-4.585,40.274-3.1,60.673Z" transform="translate(-239.659 -496.76)" fill="#e8f6f1"/></g></g><g transform="translate(229.184 554.429) rotate(180)" opacity="0.65" style="mix-blend-mode:screen;isolation:isolate"><g transform="translate(0 0)" clip-path="url(#g)"><path d="M306.04.219c-.462,4.464-.848,8.946-1.4,13.4-1.332,10.707-2.615,21.425-4.146,32.1-4.084,28.475-9.517,56.594-17.835,83.922a9.424,9.424,0,0,1-.412.968c-3.473,9.24-6.919,18.492-10.443,27.706a43.924,43.924,0,0,1-2.324,4.516c-5.811,11.879-13.031,22.348-23.611,29.255-10.032,6.549-19.884,5.613-29.355-1.6-2.058-1.569-3.867-3.556-5.791-5.35l.037.02-.559-.413c-3.313-4.081-6.907-7.917-9.884-12.292-7.719-11.343-13.2-24.08-17.345-37.571-.124-.4-.159-.843-.295-1.594a59.19,59.19,0,0,0,27.061-8.4c3.189-2.957,6.67-5.6,9.509-8.933,7.214-8.481,10.463-18.95,10.963-30.6.038-.876.068-1.751.1-2.627a66.859,66.859,0,0,0-7.561-30.177c-4.61-8.731-10.648-15.784-19.141-19.691-11.842-5.448-24.226-2.121-32.729,8.771-6.292,8.06-9.522,17.77-11.389,28.1-.875,4.844-1.266,9.8-1.876,14.706.109,8.149.218,16.3.331,24.755-2.435-.752-4.975-1.449-7.466-2.323A134.148,134.148,0,0,1,120.92,92.38c-5.917-4.02-12-7.758-17.723-12.109C77.586,60.792,55.082,37.325,34.653,11.243,31.864,7.682,29.127,4.069,26.165.219L0,0A3.14,3.14,0,0,1,2.909,1.6,467.788,467.788,0,0,0,44.016,53.324c18.045,19.532,37.278,37.385,58.695,52.055,4.646,3.182,9.472,6.025,14.209,9.038.841.535,1.647,1.139,2.469,1.711,2.779,1.339,5.564,2.661,8.335,4.021a127.193,127.193,0,0,0,32.9,11.409c1.433.264,1.967,1.069,2.359,2.6,5.52,21.487,14.14,41.158,27.176,58.133,3,3.91,6.461,7.372,9.71,11.041,5.171,4.555,10.573,8.668,16.779,11.25,14.631,6.088,28.418,3.676,41.262-5.775,4.523-3.328,8.483-7.634,12.7-11.494,6.707-8.055,12.135-17.154,17.026-26.691,2.794-6.806,5.769-13.527,8.346-20.437,5.521-14.8,9.545-30.175,13.095-45.708,1.289-5.638,2.448-11.314,3.666-16.973C318.33,58.675,326.2.03,326.7.03M177.357,107.41c-.338-6.919-.544-13.846-.76-20.772a18.124,18.124,0,0,1,.333-2.782c.514-9.83,2.21-19.288,7.649-27.3,3.787-5.576,9.06-6.413,14.214-2.486,6.35,4.838,9.66,12,11.523,20.136a34.505,34.505,0,0,1,.4,14.747,23.807,23.807,0,0,1-10.872,17.426c-5.6,3.665-11.783,5.014-18.172,5.379-4,.228-4.092.247-4.317-4.351" transform="translate(0 45.272)" fill="#92c9ff"/><line x1="19.066" y2="0.111" transform="translate(306.04 0)" fill="#fdfdfd"/></g></g><g transform="matrix(0.927, -0.375, 0.375, 0.927, -8.675, -128.716)" opacity="0.07" style="mix-blend-mode:darken;isolation:isolate"><g transform="translate(0 0)" clip-path="url(#h)"><path d="M477.485,10.21c-.994,6.753-1.871,13.527-3.009,20.272-2.734,16.212-5.394,32.438-8.436,48.61-8.117,43.154-18.313,85.866-32.959,127.588a15.355,15.355,0,0,1-.7,1.486C426.4,222.318,420.457,236.487,414.4,250.6a72.68,72.68,0,0,1-3.9,6.96c-9.788,18.289-21.683,34.551-38.6,45.686-16.037,10.557-31.335,9.834-45.651-.372-3.111-2.218-5.808-5.085-8.7-7.652l.057.028-.846-.584c-4.912-5.914-10.277-11.439-14.647-17.818-11.333-16.54-19.09-35.335-24.72-55.357a23.079,23.079,0,0,1-.362-2.379c14.97-1.785,29.28-6.148,42.691-14.534,5.151-4.673,10.739-8.888,15.369-14.11,11.766-13.27,17.472-29.257,18.968-46.826.112-1.321.213-2.641.319-3.962.3-16.23-2.864-31.281-9.926-44.906-6.647-12.825-15.624-23.022-28.619-28.313-18.121-7.378-37.625-1.508-51.547,15.483-10.3,12.572-15.933,27.415-19.479,43.1-1.662,7.354-2.576,14.843-3.829,22.27-.331,12.261-.663,24.521-1.007,37.246-3.748-.963-7.664-1.835-11.494-2.977a192.552,192.552,0,0,1-45.176-19.75c-8.975-5.641-18.228-10.845-26.876-17C117.714,117.3,84.086,83.535,53.853,45.689c-4.128-5.167-8.171-10.416-12.55-16.005L.538,31.174a4.494,4.494,0,0,1,4.436,2.2,624.622,624.622,0,0,0,60.881,75.019c26.921,28.15,55.8,53.69,88.273,74.286,7.044,4.467,14.392,8.412,21.588,12.619,1.277.747,2.5,1.6,3.742,2.4,4.248,1.823,8.508,3.619,12.743,5.474,16.185,7.092,32.905,12.507,50.579,14.887,2.216.3,3,1.473,3.517,3.747,7.281,31.965,19.5,60.981,38.777,85.629,4.439,5.678,9.616,10.65,14.453,15.946,7.779,6.5,15.945,12.314,25.458,15.77,22.428,8.147,44.063,3.557,64.662-11.565,7.254-5.325,13.691-12.084,20.5-18.188,10.949-12.594,19.968-26.67,28.178-41.369,4.774-10.441,9.823-20.767,14.265-31.349,9.516-22.668,16.732-46.093,23.22-69.726,2.355-8.578,4.511-17.2,6.758-25.808C493.043,97.361,508.911,8.522,509.7,8.487M270.339,180.541c-.1-10.393,0-20.808.094-31.219a27.348,27.348,0,0,1,.69-4.211c1.406-14.836,4.631-29.192,13.6-41.628,6.245-8.659,14.514-10.285,22.305-4.731,9.6,6.842,14.316,17.4,16.719,29.514a50.078,50.078,0,0,1-.28,22.173,39.879,39.879,0,0,1-18.016,26.991c-8.961,5.907-18.671,8.368-28.652,9.363-6.245.622-6.393.657-6.46-6.251" transform="translate(20.249 68.587)" fill="#92c9ff"/><line x1="29.721" y2="1.493" transform="translate(500.526 8.981)" fill="#fdfdfd"/></g></g></g></g><g transform="translate(1.25 46)"><text transform="translate(711.462 5817.37)" fill="#12263f" font-size="18" font-family="Roboto-Bold, Roboto" font-weight="700"><tspan x="0" y="0">Políticas empresariales</tspan></text><rect width="192" height="80" rx="16" transform="translate(343.076 6042.469)" fill="#f9f8e9"/><rect width="192" height="98" rx="16" transform="translate(584.025 6042.469)" fill="#e8f6f1"/><rect width="192" height="100" rx="16" transform="translate(1065.924 6063.469)" fill="#fef2ef"/><rect width="192" height="98" rx="16" transform="translate(343.076 6131.469)" fill="#f4f1d4"/><rect width="192" height="99" rx="16" transform="translate(823.025 6134.969)" fill="#d3e9ff"/><rect width="192" height="143.5" rx="16" transform="translate(584.025 6150.969)" fill="#d3efe5"/><rect width="192" height="121" rx="16" transform="translate(1065.424 6170.969)" fill="#fde8e1"/><text transform="translate(403.076 6021.469)" fill="#12263f" font-size="16" font-family="Roboto-Bold, Roboto" font-weight="700"><tspan x="0" y="0">Estrategias</tspan></text><text transform="translate(837.025 6021.469)" fill="#12263f" font-size="16" font-family="Roboto-Bold, Roboto" font-weight="700"><tspan x="0" y="0">Adopción de tecnologías</tspan></text><text transform="translate(644.025 6021.469)" fill="#12263f" font-size="16" font-family="Roboto-Bold, Roboto" font-weight="700"><tspan x="0" y="0">Formación</tspan></text><text transform="translate(1172.025 6020.064)" fill="#12263f" font-size="16" font-family="Roboto-Bold, Roboto" font-weight="700"><tspan x="-42.168" y="0">Políticas de</tspan><tspan x="-71.824" y="24" xml:space="preserve"> calidad y seguridad</tspan></text><g transform="translate(328.076 5935.469)" fill="none" stroke="#12263f" stroke-width="2"><rect width="221" height="303" rx="18" stroke="none"/><rect x="1" y="1" width="219" height="301" rx="17" fill="none"/></g><g transform="translate(670.538 5780.271)" fill="none" stroke="#12263f" stroke-width="2"><rect width="258.924" height="62.198" rx="18" stroke="none"/><rect x="1" y="1" width="256.924" height="60.198" rx="17" fill="none"/></g><g transform="translate(809.975 5939.469)" fill="none" stroke="#12263f" stroke-width="2"><rect width="221" height="308" rx="18" stroke="none"/><rect x="1" y="1" width="219" height="306" rx="17" fill="none"/></g><g transform="translate(569.025 5935.469)" fill="none" stroke="#12263f" stroke-width="2"><rect width="221" height="374" rx="18" stroke="none"/><rect x="1" y="1" width="219" height="372" rx="17" fill="none"/></g><g transform="translate(1050.924 5939.469)" fill="none" stroke="#12263f" stroke-width="2"><rect width="221" height="364" rx="18" stroke="none"/><rect x="1" y="1" width="219" height="362" rx="17" fill="none"/></g><text transform="translate(365.076 6063.469)" fill="#12263f" font-size="16" font-family="Roboto-Bold, Roboto" font-weight="700"><tspan x="0" y="17">Enfoque: </tspan><tspan font-family="Roboto-Regular, Roboto" font-weight="400"><tspan x="0" y="41">Gestión de flotas.</tspan></tspan></text><rect width="192" height="80" rx="16" transform="translate(824.975 6046.469)" fill="#e8f4ff"/><text transform="translate(838.076 6063.469)" fill="#12263f" font-size="16" font-family="Roboto-Bold, Roboto" font-weight="700"><tspan x="0" y="17">Enfoque: </tspan><tspan font-family="Roboto-Regular, Roboto" font-weight="400"><tspan x="0" y="41">Inversión en sistemas.</tspan></tspan></text><text transform="translate(1084.076 6082.469)" fill="#12263f" font-size="16" font-family="Roboto-Bold, Roboto" font-weight="700"><tspan x="0" y="17">Enfoque: </tspan><tspan font-family="Roboto-Regular, Roboto" font-weight="400"><tspan x="0" y="41">Implementación de </tspan><tspan x="0" y="65">certificaciones.</tspan></tspan></text><text transform="translate(595.076 6059.469)" fill="#12263f" font-size="16" font-family="Roboto-Bold, Roboto" font-weight="700"><tspan x="0" y="17">Enfoque: </tspan><tspan font-family="Roboto-Regular, Roboto" font-weight="400"><tspan x="0" y="41">Desarrollo de </tspan><tspan x="0" y="65">habilidades del personal.</tspan></tspan></text><text transform="translate(365.076 6146.469)" fill="#12263f" font-size="16" font-family="Roboto-Bold, Roboto" font-weight="700"><tspan x="0" y="17">Detalles: </tspan><tspan y="17" font-family="Roboto-Regular, Roboto" font-weight="400">Adquisición, </tspan><tspan x="0" y="41" font-family="Roboto-Regular, Roboto" font-weight="400">mantenimiento, y </tspan></text><text transform="translate(843.127 6150.969)" fill="#12263f" font-size="16" font-family="Roboto-Bold, Roboto" font-weight="700"><tspan x="0" y="17">Detalles: </tspan><tspan y="17" font-family="Roboto-Regular, Roboto" font-weight="400">GPS, RFID, </tspan><tspan x="0" y="41" font-family="Roboto-Regular, Roboto" font-weight="400">TMS, WMS y </tspan></text><text transform="translate(1080.576 6188.969)" fill="#12263f" font-size="16" font-family="Roboto-Bold, Roboto" font-weight="700"><tspan x="0" y="17">Detalles: </tspan><tspan y="17" font-family="Roboto-Regular, Roboto" font-weight="400">Integridad del </tspan><tspan x="0" y="41" font-family="Roboto-Regular, Roboto" font-weight="400">producto y seguridad </tspan><tspan x="0" y="65" font-family="Roboto-Regular, Roboto" font-weight="400">de la cadena de </tspan></text><text transform="translate(605.076 6167.469)" fill="#12263f" font-size="16" font-family="Roboto-Bold, Roboto" font-weight="700"><tspan x="0" y="17">Detalles: </tspan><tspan y="17" font-family="Roboto-Regular, Roboto" font-weight="400">Uso de </tspan><tspan x="0" y="41" font-family="Roboto-Regular, Roboto" font-weight="400">tecnologías de </tspan><tspan x="0" y="65" font-family="Roboto-Regular, Roboto" font-weight="400">trazabilidad y </tspan><tspan x="0" y="89" font-family="Roboto-Regular, Roboto" font-weight="400">procedimientos </tspan><tspan x="0" y="113" font-family="Roboto-Regular, Roboto" font-weight="400">estandarizados.</tspan></text><g transform="translate(-4.975 236.469)"><g transform="translate(1081.898 5623)"><g clip-path="url(#i)"><g transform="translate(34.933 25.686)"><g clip-path="url(#j)"><rect width="134.533" height="134.533" transform="matrix(0.874, -0.486, 0.486, 0.874, -42.018, 23.364)" fill="url(#k)"/></g></g><g transform="translate(37.009 27.757)"><g clip-path="url(#l)"><rect width="132.933" height="132.933" transform="matrix(0.792, -0.611, 0.611, 0.792, -45.836, 35.355)" fill="url(#a)"/></g></g></g></g><g transform="translate(1132.934 5502.426)"><path d="M85.643,229.333,92.2,253.967c1.031,3.874-2.37,3.126-3.942,2.518-1.312-.507-6.553-2.545-6.553-2.545s-3.531,1.915-4.485,2.422c-2.079,1.1-4.2.83-5.112-1.811-.024-.069-2.264-7.667-4.372-14.816v-10.4Z" transform="translate(-34.272 -38.513)" fill="#f45558"/><g transform="translate(8.812 190.865)"><path d="M15.569,67.906,9,92.579c-1.032,3.88,2.374,3.131,3.948,2.522,1.314-.508,6.563-2.549,6.563-2.549s3.536,1.918,4.492,2.426c2.083,1.107,4.206.831,5.12-1.814.024-.069,2.268-7.679,4.379-14.84V67.906Z" transform="translate(-8.812 -67.906)" fill="#f45558"/><path d="M67.84,67.906V78.325c1.615,5.48,2.635,8.932,3.351,11.357,2.015-.4,3.918-3.851,5.845-4.487,2.043-.674,5.949,1.216,7.683-.057s1.107-5.565,2.364-7.311a4.027,4.027,0,0,1,1.079-.958l-2.385-8.963Z" transform="translate(-43.146 -67.906)" fill="#db375b"/><path d="M23.017,67.906c-.139.324-.3.655-.47.99l-1.285,4.828c.934,1.848,4.9,2.588,6.112,4.247,1.272,1.735.682,6.033,2.428,7.29s5.635-.667,7.684-.011a3.675,3.675,0,0,1,1.048.578c.831-2.817,1.147-3.883,2.214-7.5V67.906Z" transform="translate(-16.054 -67.906)" fill="#db375b"/></g><path d="M50.285,205.812c-1.732,1.27-5.631-.616-7.671.056s-4.052,4.509-6.2,4.518-4.194-3.809-6.239-4.464-5.928,1.266-7.672.011-1.154-5.546-2.424-7.278-5.54-2.46-6.213-4.5,2.326-5.165,2.317-7.313S13.147,181.6,13.8,179.55s4.918-2.811,6.173-4.555.628-6.029,2.36-7.3,5.631.616,7.671-.056,4.052-4.509,6.2-4.518,4.194,3.809,6.239,4.464,5.928-1.266,7.672-.011,1.154,5.546,2.424,7.278,5.54,2.46,6.213,4.5-2.326,5.165-2.317,7.313,3.036,5.247,2.381,7.293-4.918,2.811-6.173,4.555-.628,6.029-2.36,7.3Z" transform="translate(-2.848)" fill="#ffd54f"/><path d="M12.733,282v.443h.886V282Zm2.214,0v.443h.886V282Zm2.213,0v.443h.886V282Zm2.214,0v.443h.886V282Zm2.213,0v.443h.886V282Zm2.214,0v.443h.886V282Zm2.214,0v.443H26.9V282Zm2.213,0v.443h.886V282Zm2.214,0v.443h.886V282Z" transform="translate(-2.281 -69.148)" fill="#bf1d43" fill-rule="evenodd"/><path d="M62.311,200.3A13.893,13.893,0,1,1,48.418,186.4,13.893,13.893,0,0,1,62.311,200.3Z" transform="translate(-14.956 -13.543)" fill="#2196f3"/><path d="M70.582,53.827c-.617,1.19-2.255,2.476-2.6,3.569-.468,1.469.766,4.351-.476,5.265s-3.616-1.187-5.158-1.178c-1.1.007-2.728,1.1-4.024,1.391-.059.98,0,2.091.574,2.506,1.253.9,3.823-1.234,5.366-1.243s4.138,2.092,5.38,1.178.008-4.017.476-5.487,3.268-3.289,2.783-4.753c-.231-.7-1.329-1.012-2.318-1.249Z" transform="translate(-28.786 131.148)" fill="#2979ff"/><path d="M43.592,178.629l0,.443.878.006.01-.442Zm-1.347.075-.887.108.06.439.872-.106Zm3.585.03-.052.44.871.118.065-.438Zm-5.8.327-.863.225.119.427.851-.222Zm8.007.068-.111.428.846.235.125-.425Zm-10.151.579-.828.333.172.409.815-.328Zm12.288.1-.169.409.808.346.181-.4Zm-14.332.82-.776.44.225.382.764-.433Zm16.356.136-.217.386.758.445.229-.379Zm-18.261,1.044-.712.538.273.348.7-.529Zm20.146.168-.266.354.694.54.277-.346ZM32.2,183.229l-.636.627.316.31.626-.616Zm23.592.2-.31.316.617.625.32-.306Zm-25.129,1.435-.548.7.354.266.54-.693Zm26.639.222-.349.273.53.7.357-.261Zm-27.95,1.595-.453.768.384.22.448-.757Zm29.231.243-.382.225.434.764.389-.212Zm-30.293,1.729-.351.82.409.169.346-.808Zm31.325.262-.409.171.329.815.413-.159ZM27.5,190.746l-.239.86.429.111.235-.846Zm32.879.274-.427.119.223.85.43-.106Zm-33.393,1.907-.127.882.439.058.125-.87Zm33.871.284-.439.06.106.872.44-.046Zm-34.1,1.948-.007.892.442,0,.007-.878Zm34.285.286-.443,0-.011.984.442.014Zm-33.778,1.907-.44.046.107.887.439-.06Zm33.225.382-.127.869.437.071.128-.883Zm-32.879,1.775-.431.1.219.864.428-.114Zm32.483.373-.237.847.425.125.24-.86ZM28.234,201.6l-.413.158.333.829.409-.172Zm31.186.358-.347.807.4.181.353-.82Zm-30.293,1.633-.389.212.44.776.382-.224Zm29.353.337-.45.754.376.233.458-.766Zm-28.207,1.521-.357.261.538.712.349-.273Zm27.019.311-.546.689.342.28.554-.7Zm-25.64,1.383-.319.306.625.636.31-.315Zm24.222.279-.63.613.3.322.639-.622Zm-22.634,1.222-.278.344.7.551.269-.352Zm21.011.241-.7.529.262.356.712-.537Zm-19.241,1.039-.233.377.766.457.221-.383Zm17.445.2-.765.432.212.388.777-.439Zm-15.525.838-.181.4.82.352.167-.409Zm13.582.157-.815.327.158.413.829-.333Zm-11.544.623-.125.425.86.239.112-.429Zm9.489.109-.852.215.1.431.865-.218Zm-7.364.394-.07.437.883.127.057-.439Zm5.226.06-.872.1.046.44.887-.106Zm-3.056.165-.009.443.891.008,0-.443Z" transform="translate(-10.433 -9.02)" fill="#ff7377"/><path d="M78.217,282v.443H79.1V282Zm2.214,0v.443h.886V282Zm2.213,0v.443h.886V282Zm2.214,0v.443h.886V282Zm2.213,0v.443h.886V282Zm2.214,0v.443h.886V282Zm2.214,0v.443h.886V282Zm2.213,0v.443H94.6V282Zm2.214,0v.443h.886V282Z" transform="translate(-40.37 -69.148)" fill="#bf1d43" fill-rule="evenodd"/><path d="M61.014,213.981c-1.24.913-3.832-1.186-5.372-1.176s-4.106,2.139-5.357,1.241-.057-4.011-.541-5.472-3.3-3.244-2.836-4.711,3.8-1.293,5.037-2.206,2.065-4.144,3.6-4.153,2.4,3.212,3.654,4.109,4.579.683,5.063,2.145-2.312,3.278-2.779,4.745.765,4.566-.475,5.478Z" transform="translate(-22.129 -19.999)" fill="#d9defb"/></g></g><g transform="translate(-4.975 236.469)"><g transform="translate(364 5623)"><g clip-path="url(#i)"><g transform="translate(34.933 25.686)"><g clip-path="url(#j)"><rect width="134.533" height="134.533" transform="matrix(0.874, -0.486, 0.486, 0.874, -42.018, 23.364)" fill="url(#k)"/></g></g><g transform="translate(37.009 27.757)"><g clip-path="url(#l)"><rect width="132.933" height="132.933" transform="matrix(0.792, -0.611, 0.611, 0.792, -45.836, 35.355)" fill="url(#a)"/></g></g></g></g><g transform="translate(418.119 5666.367)"><g transform="translate(9.932 5.635)"><g transform="translate(5.429 41.284)"><path d="M40.3,40.21a3.012,3.012,0,0,1-3.013,3.013H17.217a3.013,3.013,0,1,1,0-6.025H37.29A3.012,3.012,0,0,1,40.3,40.21Z" transform="translate(-14.187 -37.198)" fill="#5b5e8b"/><g transform="translate(2.147 6.025)"><path d="M37.708,44.534a2.6,2.6,0,0,1-2.6,2.6H18.467a2.6,2.6,0,0,1,0-5.21H35.111A2.6,2.6,0,0,1,37.708,44.534Z" transform="translate(-15.87 -41.92)" fill="#5b5e8b"/></g></g><g transform="translate(5.429 41.287)"><path d="M21.344,43.228H17.214a3.014,3.014,0,1,1,0-6.028h4.131a3.014,3.014,0,1,0,0,6.028Z" transform="translate(-14.187 -37.2)" fill="#312e4b"/><g transform="translate(2.149 6.028)"><path d="M22.6,47.125H18.466a2.6,2.6,0,0,1,0-5.2H22.6a2.6,2.6,0,0,0,0,5.2Z" transform="translate(-15.872 -41.925)" fill="#312e4b"/></g></g><g transform="translate(12.633 52.517)"><path d="M31.491,46v1.145a4.017,4.017,0,0,1-4.015,4.015H23.848a4.017,4.017,0,0,1-4.015-4.015V46Z" transform="translate(-19.834 -46.003)" fill="#5b5e8b"/></g><g transform="translate(12.634 52.514)"><path d="M24.843,46.925a2.546,2.546,0,0,0-2.2,3.9,1.165,1.165,0,0,0,.168.193,4.006,4.006,0,0,1-2.978-3.867V46h11.66v.925Z" transform="translate(-19.835 -46.001)" fill="#312e4b"/></g><g transform="translate(0.005 0.004)"><path d="M18.781,46.125H38.071A20.765,20.765,0,0,1,42.786,34.96,18.415,18.415,0,0,0,46.9,22.789a18.488,18.488,0,0,0-36.968.526,18.427,18.427,0,0,0,4.29,11.852,19.753,19.753,0,0,1,4.555,10.958Z" transform="translate(-9.936 -4.843)" fill="#fcb73e"/></g><path d="M18.787,46.126h3.659A19.76,19.76,0,0,0,17.9,35.162,18.469,18.469,0,0,1,30.25,4.941a10.089,10.089,0,0,0-1.074-.087A18.479,18.479,0,0,0,14.228,35.162a19.791,19.791,0,0,1,4.559,10.964Z" transform="translate(-9.932 -4.839)" fill="#fd982e"/></g><g transform="translate(14.816 10.12)"><circle cx="13.609" cy="13.609" r="13.609" fill="#e83d62"/><g transform="translate(3.183 3.183)"><circle cx="10.426" cy="10.426" r="10.426" fill="#deddff"/></g><g transform="translate(5.896 5.896)"><circle cx="7.714" cy="7.714" r="7.714" fill="#e83d62"/></g><g transform="translate(8.89 8.89)"><circle cx="4.719" cy="4.719" r="4.719" fill="#deddff"/></g></g><g transform="translate(28.095 1.953)"><g transform="translate(0 3.504)"><path d="M24.373,22.983a.736.736,0,0,1,.022-1.042L42.064,4.906a.737.737,0,0,1,1.02,1.064L25.415,23.005A.737.737,0,0,1,24.373,22.983Z" transform="translate(-24.168 -4.7)" fill="#5b5e8b"/></g><g transform="translate(15.602)"><path d="M43.536,5.984,40.2,9.115a.319.319,0,0,1-.231.083L36.7,8.977a.3.3,0,0,1-.288-.307L36.4,5.392a.319.319,0,0,1,.1-.226l3.334-3.131a.309.309,0,0,1,.52.224l.012,2.7a.3.3,0,0,0,.288.307l2.7.182a.309.309,0,0,1,.191.533Z" transform="translate(-36.397 -1.953)" fill="#65b9ff"/></g></g></g></g><path d="M-8210.475-5720v-22.667h725.141v16" transform="translate(8654.051 11608)" fill="none" stroke="#12263f" stroke-width="2"/><path d="M-7969.051-5742.667v24" transform="translate(8649.051 11608)" fill="none" stroke="#12263f" stroke-width="2"/><path d="M-7969.051-5742.667v24" transform="translate(8890.051 11608)" fill="none" stroke="#12263f" stroke-width="2"/><path d="M-7969.051-5742.667v24" transform="translate(8769.051 11584)" fill="none" stroke="#12263f" stroke-width="2"/><g transform="translate(-4.975 236.469)"><g transform="translate(840.949 5623)"><g clip-path="url(#i)"><g transform="translate(34.933 25.686)"><g clip-path="url(#j)"><rect width="134.533" height="134.533" transform="matrix(0.874, -0.486, 0.486, 0.874, -42.018, 23.364)" fill="url(#k)"/></g></g><g transform="translate(37.009 27.757)"><g clip-path="url(#l)"><rect width="132.933" height="132.933" transform="matrix(0.792, -0.611, 0.611, 0.792, -45.836, 35.355)" fill="url(#a)"/></g></g></g></g><g transform="translate(893.051 5664)"><rect width="60" height="39" rx="2" transform="translate(2 9)" fill="#939393"/><path d="M6,13H58V40H6Z" fill="#f2f2f2"/><path d="M6,13H55V37H6Z" fill="#fff"/><path d="M43,54l-3-6H24l-3,6Z" fill="#474747"/><path d="M62,40v6a2,2,0,0,1-2,2H4a2,2,0,0,1-2-2V40Z" fill="#686868"/><path d="M20,54H44a4,4,0,0,1,4,4v4H16V58A4,4,0,0,1,20,54Z" fill="#686868"/><path d="M31,43h2v2H31Z" fill="#474747"/><path d="M53,35h2v2H53Z" fill="#3b5892"/><path d="M49,35h2v2H49Z" fill="#3b5892"/><path d="M45,35h2v2H45Z" fill="#3b5892"/><path d="M21,2H43V36H21Z" fill="#c8cded"/><path d="M21,2H40V31H21Z" fill="#e2e7f6"/><path d="M35,7H33V5H31V7H29V9h2v2h2V9h2Z" fill="#d23f34"/><path d="M28,13h8v2H28Z" fill="#9da1bf"/><path d="M24,17H40v2H24Z" fill="#9da1bf"/><path d="M24,21H40v2H24Z" fill="#9da1bf"/><path d="M24,25H40v2H24Z" fill="#9da1bf"/><path d="M24,29H40v2H24Z" fill="#9da1bf"/><path d="M38,13h2v2H38Z" fill="#9da1bf"/></g></g><g transform="translate(-4.975 236.469)"><g transform="translate(600 5623)"><g clip-path="url(#i)"><g transform="translate(34.933 25.686)"><g clip-path="url(#j)"><rect width="134.533" height="134.533" transform="matrix(0.874, -0.486, 0.486, 0.874, -42.018, 23.364)" fill="url(#k)"/></g></g><g transform="translate(37.009 27.757)"><g clip-path="url(#l)"><rect width="132.933" height="132.933" transform="matrix(0.792, -0.611, 0.611, 0.792, -45.836, 35.355)" fill="url(#a)"/></g></g></g></g><g transform="translate(655.421 5672)"><path d="M6.319,206.888l-.207-5.545A5.865,5.865,0,0,0,5.1,198.256l-3.775-5.532a7.587,7.587,0,0,1-.11-8.387l6.508-10.1,4.25,14.641L10.261,207.1l-3.272.367a.6.6,0,0,1-.67-.577Z" transform="translate(0 -154.606)" fill="#f1d0a5"/><path d="M115.012,32.6a2.985,2.985,0,0,1-2.985,2.985H67.6A2.985,2.985,0,0,1,64.611,32.6V2.985A2.985,2.985,0,0,1,67.6,0h44.43a2.985,2.985,0,0,1,2.985,2.985Z" transform="translate(-57.332)" fill="#365e7d"/><path d="M472.519,2.985A2.985,2.985,0,0,0,469.534,0h-2.027a2.985,2.985,0,0,1,2.985,2.985V32.6a2.985,2.985,0,0,1-2.985,2.985h2.027a2.985,2.985,0,0,0,2.985-2.985Z" transform="translate(-414.839 0)" fill="#2b4d66"/><path d="M152.148,35.276H111.285a.167.167,0,0,0-.162.172v27.3a.167.167,0,0,0,.162.172h40.862a.167.167,0,0,0,.162-.172v-27.3A.167.167,0,0,0,152.148,35.276Z" transform="translate(-98.604 -31.302)" fill="#d3effb"/><path d="M458.2,35.276h-2.169a.167.167,0,0,1,.162.172v27.3a.167.167,0,0,1-.162.172H458.2a.167.167,0,0,0,.162-.172v-27.3A.167.167,0,0,0,458.2,35.276Z" transform="translate(-404.657 -31.302)" fill="#b1e4f9"/><g transform="translate(9.055 16.217)"><path d="M81.238,147.107a.87.87,0,0,1-.87-.87v-1.416a.87.87,0,1,1,1.741,0v1.416A.87.87,0,0,1,81.238,147.107Z" transform="translate(-80.368 -143.951)" fill="#2b4d66"/></g><path d="M71.726,252.879l.093-4.014a6.938,6.938,0,0,1,.386-2.126,5.828,5.828,0,0,0-1-5.626,1.044,1.044,0,0,1-.107-1.169l5.5-9.932a2.045,2.045,0,0,0-3.293-2.377l-9.145,9.917.6,6.911,2.431,9.435,4-.433a.6.6,0,0,0,.538-.586Z" transform="translate(-56.927 -201.407)" fill="#f1d0a5"/><path d="M100.422,230.022a2.044,2.044,0,0,0-3.044-2.6,2.04,2.04,0,0,1,.531,2.6l-5.5,9.933a1.044,1.044,0,0,0,.107,1.169,5.828,5.828,0,0,1,1,5.626,6.933,6.933,0,0,0-.386,2.126l-.064,2.769a2.024,2.024,0,0,1-1.805,1.965l-.045,0a.237.237,0,0,0-.2.294l4-.433a.6.6,0,0,0,.538-.586l.09-3.891a7.289,7.289,0,0,1,.387-2.244,5.829,5.829,0,0,0-1-5.631,1.044,1.044,0,0,1-.107-1.169Z" transform="translate(-80.756 -201.417)" fill="#f1b986"/><path d="M312.352,193.7H300.667a1.494,1.494,0,0,1-1.494-1.494v-3.75a1.494,1.494,0,0,1,1.494-1.494h11.685a1.494,1.494,0,0,1,1.494,1.494v3.75A1.494,1.494,0,0,1,312.352,193.7Z" transform="translate(-265.469 -165.903)" fill="#80e29d"/><path d="M397.924,186.965h-2.315a1.494,1.494,0,0,1,1.494,1.494v3.75a1.494,1.494,0,0,1-1.494,1.494h2.315a1.494,1.494,0,0,0,1.494-1.494v-3.75A1.494,1.494,0,0,0,397.924,186.965Z" transform="translate(-351.041 -165.902)" fill="#66b49d"/><g transform="translate(32.146 38.636)"><path d="M305.336,362a.687.687,0,0,0,.687-.687v-3.355a4.042,4.042,0,0,1,.6-2.14l1.728-2.761a5.147,5.147,0,0,0,.481-4.368l-.819-2.381-1.583-3.352h-11.7l-2.687,3.352-4.022-1.958a1.79,1.79,0,0,0-2.143.452,2.266,2.266,0,0,0,.024,2.986l5.215,5.646a3.591,3.591,0,0,1,.926,2.433v5.447a.687.687,0,0,0,.687.687h12.6Z" transform="translate(-285.339 -342.957)" fill="#f1d0a5"/></g><g transform="translate(50.655 38.571)"><path d="M454.628,348.181l-.819-2.381-1.583-3.352-1.84-.065,1.427,3.417.64,2.381a5.148,5.148,0,0,1-.481,4.368l-1.729,2.761a4.042,4.042,0,0,0-.6,2.14v4.042h1.488a.687.687,0,0,0,.687-.687V357.45a4.042,4.042,0,0,1,.6-2.14l1.728-2.761A5.147,5.147,0,0,0,454.628,348.181Z" transform="translate(-449.638 -342.384)" fill="#f1b986"/></g><g transform="translate(38.859 24.897)"><path d="M348.926,238.093V223.2a2.005,2.005,0,1,0-3.992,0v14.892h3.992Z" transform="translate(-344.934 -221.002)" fill="#f1d0a5"/><path d="M384.357,311.5v-6.438a1.422,1.422,0,0,0-1.5-1.334h-1a1.422,1.422,0,0,0-1.5,1.334V311.5Z" transform="translate(-376.374 -294.406)" fill="#f1d0a5"/><path d="M419.789,311.5v-6.438a1.422,1.422,0,0,0-1.5-1.334h-1a1.422,1.422,0,0,0-1.5,1.334V311.5Z" transform="translate(-407.815 -294.406)" fill="#f1d0a5"/><path d="M455.22,311.5v-6.438a1.422,1.422,0,0,0-1.5-1.334h-1a1.422,1.422,0,0,0-1.5,1.334V311.5Z" transform="translate(-439.254 -294.406)" fill="#f1d0a5"/></g><path d="M461.585,303.725h-1a1.653,1.653,0,0,0-.5.077,1.354,1.354,0,0,1,1,1.257V311.5h2v-6.438A1.422,1.422,0,0,0,461.585,303.725Z" transform="translate(-408.255 -269.509)" fill="#f1b986"/><g transform="translate(41.981 34.68)"><path d="M373.51,316.02a.87.87,0,0,1-.87-.87v-6.438a.87.87,0,0,1,1.741,0v6.438A.87.87,0,0,1,373.51,316.02Z" transform="translate(-372.64 -307.842)" fill="#f1b986"/></g><g transform="translate(45.972 34.68)"><path d="M408.942,316.02a.87.87,0,0,1-.87-.87v-6.438a.87.87,0,0,1,1.741,0v6.438A.87.87,0,0,1,408.942,316.02Z" transform="translate(-408.072 -307.842)" fill="#f1b986"/></g><g transform="translate(49.964 34.68)"><path d="M444.372,316.02a.87.87,0,0,1-.87-.87v-6.438a.87.87,0,0,1,1.741,0v6.438A.87.87,0,0,1,444.372,316.02Z" transform="translate(-443.502 -307.842)" fill="#f1b986"/></g><path d="M178.618,117.774a13.588,13.588,0,0,1-10.9,0,.942.942,0,0,1-.58-.868v-8.729H179.2v8.729a.942.942,0,0,1-.58.868Z" transform="translate(-148.312 -95.99)" fill="#4a80aa"/><path d="M179.652,108.176v8.04a.942.942,0,0,1-.58.868,13.508,13.508,0,0,1-9.636.465.943.943,0,0,0,.321.224,13.588,13.588,0,0,0,10.9,0,.942.942,0,0,0,.58-.868v-8.729h-1.581Z" transform="translate(-150.347 -95.989)" fill="#407093"/><path d="M155.572,68.173l-9.237,5.083a.21.21,0,0,1-.2,0l-9.237-5.083a.21.21,0,0,1,0-.368l9.237-5.083a.21.21,0,0,1,.2,0l9.237,5.083A.21.21,0,0,1,155.572,68.173Z" transform="translate(-121.376 -55.633)" fill="#365e7d"/><path d="M217.532,67.805l-9.237-5.083a.21.21,0,0,0-.2,0l-1.48.814,7.757,4.269a.21.21,0,0,1,0,.368l-7.757,4.269,1.48.814a.21.21,0,0,0,.2,0l9.237-5.083a.21.21,0,0,0,0-.368Z" transform="translate(-183.335 -55.633)" fill="#2b4d66"/><g transform="translate(23.871 11.486)"><path d="M215.626,110.408a.87.87,0,0,1-.87-.87V106.51l-2.657-3.119a.87.87,0,0,1,1.325-1.129l2.865,3.363a.871.871,0,0,1,.208.564v3.348A.87.87,0,0,1,215.626,110.408Z" transform="translate(-211.891 -101.956)" fill="#407093"/></g><g transform="translate(37.459 10.663)"><path d="M339.89,96.4h-6.517a.87.87,0,1,1,0-1.741h6.517a.87.87,0,0,1,0,1.741Z" transform="translate(-332.502 -94.655)" fill="#2b4d66"/></g><g transform="translate(37.459 14.657)"><path d="M344.533,131.842h-11.16a.87.87,0,0,1,0-1.741h11.16a.87.87,0,0,1,0,1.741Z" transform="translate(-332.503 -130.101)" fill="#2b4d66"/></g></g></g></g></g></svg>