<svg xmlns="http://www.w3.org/2000/svg" width="74.333" height="74.334" viewBox="0 0 74.333 74.334"><path d="M14.714,14.427H34.519a3.714,3.714,0,1,0,0-7.427H14.714a3.714,3.714,0,0,0,0,7.427Zm0-4.951H34.519a1.238,1.238,0,1,1,0,2.476H14.714a1.238,1.238,0,1,1,0-2.476Z" transform="translate(2.616 1.665)" fill="#658cb1"/><path d="M62.288,56.352A24.668,24.668,0,0,0,54.466,20.68V10.41a2.447,2.447,0,0,0-.722-1.745L45.8.722A2.447,2.447,0,0,0,44.055,0H3.714A3.714,3.714,0,0,0,0,3.714V70.558a3.714,3.714,0,0,0,3.714,3.714H50.752a3.714,3.714,0,0,0,3.714-3.714V63.495c.647-.371,1.277-.776,1.886-1.208L67.1,73.034a4.2,4.2,0,1,0,5.942-5.924ZM45.8,4.225l4.443,4.44h-3.2A1.238,1.238,0,0,1,45.8,7.427ZM51.99,70.558A1.238,1.238,0,0,1,50.752,71.8H3.714a1.238,1.238,0,0,1-1.238-1.238V3.714A1.238,1.238,0,0,1,3.714,2.476H43.325V7.427a3.714,3.714,0,0,0,3.714,3.714H51.99v8.27a24.757,24.757,0,1,0,0,45.353Zm-9.9-6.189A22.281,22.281,0,1,1,64.369,42.087,22.281,22.281,0,0,1,42.087,64.369ZM58.31,60.744a24.828,24.828,0,0,0,2.434-2.435l1.826,1.826-2.435,2.434ZM71.287,71.3a1.778,1.778,0,0,1-2.426-.009l-6.968-6.973,2.434-2.434L71.3,68.858A1.773,1.773,0,0,1,71.287,71.3Z" transform="translate(0 0)" fill="#658cb1"/><path d="M7.238,19.476H20.854a1.238,1.238,0,1,0,0-2.476H7.238a1.238,1.238,0,0,0,0,2.476Z" transform="translate(1.427 4.044)" fill="#658cb1"/><path d="M7.238,24.476H15.9A1.238,1.238,0,0,0,15.9,22H7.238a1.238,1.238,0,0,0,0,2.476Z" transform="translate(1.427 5.233)" fill="#658cb1"/><path d="M7.238,29.476h6.189a1.238,1.238,0,0,0,0-2.476H7.238a1.238,1.238,0,0,0,0,2.476Z" transform="translate(1.427 6.422)" fill="#658cb1"/><path d="M7.238,34.476h4.951a1.238,1.238,0,0,0,0-2.476H7.238a1.238,1.238,0,0,0,0,2.476Z" transform="translate(1.427 7.611)" fill="#658cb1"/><path d="M7.238,39.476h4.951a1.238,1.238,0,0,0,0-2.476H7.238a1.238,1.238,0,0,0,0,2.476Z" transform="translate(1.427 8.801)" fill="#658cb1"/><path d="M7.238,44.476h6.189a1.238,1.238,0,0,0,0-2.476H7.238a1.238,1.238,0,0,0,0,2.476Z" transform="translate(1.427 9.99)" fill="#658cb1"/><path d="M7.238,49.476h9.9a1.238,1.238,0,1,0,0-2.476h-9.9a1.238,1.238,0,0,0,0,2.476Z" transform="translate(1.427 11.179)" fill="#658cb1"/><path d="M23.33,52H7.238a1.238,1.238,0,0,0,0,2.476H23.33a1.238,1.238,0,1,0,0-2.476Z" transform="translate(1.427 12.369)" fill="#658cb1"/><path d="M42.494,18.565a1.238,1.238,0,0,0-.588,2.405,17.347,17.347,0,1,1-4.127-.5,1.238,1.238,0,1,0,0-2.476,19.782,19.782,0,1,0,4.715.564Z" transform="translate(4.286 4.281)" fill="#658cb1"/><path d="M30.113,36.79a1.238,1.238,0,1,0-1.75,1.75l2.476,2.476a1.238,1.238,0,0,0,1.75,0l9.9-9.9a1.238,1.238,0,1,0-1.75-1.75L31.714,38.39Z" transform="translate(6.66 6.898)" fill="#658cb1"/></svg>