<svg xmlns="http://www.w3.org/2000/svg" width="60.167" height="64.239" viewBox="0 0 60.167 64.239"><g transform="translate(-3.5 -0.489)"><path d="M45.387,55.121H65.581a3.739,3.739,0,0,0,3.74-3.74V16.936a3.74,3.74,0,0,0-1.766-3.176L47.111,1.052a3.74,3.74,0,0,0-3.948,0L22.718,13.76a3.74,3.74,0,0,0-1.766,3.176V30a1.014,1.014,0,0,0,2.028,0V16.936a1.712,1.712,0,0,1,.808-1.453L44.233,2.775a1.715,1.715,0,0,1,1.808,0L66.485,15.482a1.712,1.712,0,0,1,.808,1.453V51.381a1.713,1.713,0,0,1-1.712,1.712H45.387a1.014,1.014,0,0,0,0,2.028Z" transform="translate(-5.654)" fill="#e3e230" fill-rule="evenodd"/><path d="M64.656,63.9V34.448a3.74,3.74,0,0,0-3.74-3.74H37.943a3.74,3.74,0,0,0-3.74,3.74v9.4a1.014,1.014,0,0,0,2.028,0v-9.4a1.712,1.712,0,0,1,1.712-1.712H60.916a1.712,1.712,0,0,1,1.712,1.712V63.9a1.014,1.014,0,0,0,2.028,0Z" transform="translate(-9.947 -9.79)" fill="#e3e230" fill-rule="evenodd"/><path d="M59.512,18.543V15.654a2.377,2.377,0,0,0-2.377-2.377H51.191a2.377,2.377,0,0,0-2.377,2.377v2.889a2.377,2.377,0,0,0,2.377,2.377h5.944A2.377,2.377,0,0,0,59.512,18.543Zm-2.028-2.889v2.889a.349.349,0,0,1-.349.349H51.191a.349.349,0,0,1-.349-.349V15.654a.349.349,0,0,1,.349-.349h5.944A.349.349,0,0,1,57.483,15.654Z" transform="translate(-14.68 -4.143)" fill="#e3e230" fill-rule="evenodd"/><path d="M35.217,44.39h3.776a1.014,1.014,0,0,0,0-2.028H35.217a1.014,1.014,0,1,0,0,2.028Zm7.662,0H63.642a1.014,1.014,0,0,0,0-2.028H42.879a1.014,1.014,0,1,0,0,2.028Z" transform="translate(-9.947 -13.565)" fill="#e3e230" fill-rule="evenodd"/><path d="M51.084,56.532h17.7a1.014,1.014,0,0,0,0-2.028h-17.7a1.014,1.014,0,1,0,0,2.028Z" transform="translate(-15.087 -17.499)" fill="#e3e230" fill-rule="evenodd"/><path d="M51.084,68.675h17.7a1.014,1.014,0,0,0,0-2.028h-17.7a1.014,1.014,0,0,0,0,2.028Z" transform="translate(-15.087 -21.433)" fill="#e3e230" fill-rule="evenodd"/><path d="M36.691,52.389a3.74,3.74,0,0,0-3.74-3.74H7.24a3.74,3.74,0,0,0-3.74,3.74v24.2a3.74,3.74,0,0,0,3.74,3.74H32.952a3.74,3.74,0,0,0,3.74-3.74Zm-2.028,0v24.2A1.712,1.712,0,0,1,32.952,78.3H7.24A1.712,1.712,0,0,1,5.528,76.59v-24.2A1.712,1.712,0,0,1,7.24,50.677H32.952A1.712,1.712,0,0,1,34.663,52.389Z" transform="translate(0 -15.602)" fill="#e3e230" fill-rule="evenodd"/><path d="M16.517,53.719V63.942a2.377,2.377,0,0,0,3.734,1.951L24.114,63.2a.347.347,0,0,1,.4,0l3.862,2.688a2.377,2.377,0,0,0,3.734-1.951V49.663a1.014,1.014,0,0,0-2.028,0V63.942a.348.348,0,0,1-.548.287L25.671,61.54a2.377,2.377,0,0,0-2.716,0l-3.862,2.689a.349.349,0,0,1-.548-.287V53.719a1.014,1.014,0,1,0-2.028,0Z" transform="translate(-4.217 -15.602)" fill="#e3e230" fill-rule="evenodd"/></g></svg>