<svg xmlns="http://www.w3.org/2000/svg" width="60" height="59.999" viewBox="0 0 60 59.999"><g transform="translate(0 -0.001)"><path d="M.072,21.929A1.522,1.522,0,0,0,1.528,23H5V58a2,2,0,0,0,2,2H53a2,2,0,0,0,2-2V23h3.472a1.536,1.536,0,0,0,.873-2.795L30.873.276a1.522,1.522,0,0,0-1.745,0L.655,20.205a1.532,1.532,0,0,0-.583,1.724ZM49,37H11V27H49ZM11,39H49V58H46.816A2.966,2.966,0,0,0,47,57V47a3,3,0,0,0-3-3H34a3,3,0,0,0-3,3V57a2.966,2.966,0,0,0,.184,1H28.815A2.966,2.966,0,0,0,29,57V47a3,3,0,0,0-3-3H16a3,3,0,0,0-3,3V57a2.966,2.966,0,0,0,.184,1H11V39Zm27,7h2v3H38ZM20,46h2v3H20ZM16,58a1,1,0,0,1-1-1V47a1,1,0,0,1,1-1h2v3a2,2,0,0,0,2,2h2a2,2,0,0,0,2-2V46h2a1,1,0,0,1,1,1V57a1,1,0,0,1-1,1Zm18,0a1,1,0,0,1-1-1V47a1,1,0,0,1,1-1h2v3a2,2,0,0,0,2,2h2a2,2,0,0,0,2-2V46h2a1,1,0,0,1,1,1V57a1,1,0,0,1-1,1Zm19,0H51V27a2,2,0,0,0-2-2H11a2,2,0,0,0-2,2V58H7V23H53ZM30,2.106,56.993,21H3.007Z" fill="#e3e230"/><path d="M14,31H46a1,1,0,0,0,0-2H14a1,1,0,0,0,0,2Z" fill="#e3e230"/><path d="M14,35H46a1,1,0,0,0,0-2H14a1,1,0,0,0,0,2Z" fill="#e3e230"/><path d="M20,54H18a1,1,0,0,0,0,2h2a1,1,0,0,0,0-2Z" fill="#e3e230"/><path d="M38,54H36a1,1,0,0,0,0,2h2a1,1,0,0,0,0-2Z" fill="#e3e230"/></g></svg>