<svg xmlns="http://www.w3.org/2000/svg" width="86.978" height="55.019" viewBox="0 0 86.978 55.019"><g transform="translate(0 -94.062)"><g transform="translate(0 94.062)"><path d="M80.889,117.386l-2.252-9.01a1.362,1.362,0,0,0,1.078-1.332v-1.453a5.726,5.726,0,0,0-5.72-5.72H63.735v-3a2.818,2.818,0,0,0-2.815-2.815H8.625a2.818,2.818,0,0,0-2.815,2.815v24.7a1.362,1.362,0,0,0,2.724,0v-24.7a.091.091,0,0,1,.091-.091h52.3a.091.091,0,0,1,.091.091v24.7a1.362,1.362,0,1,0,2.724,0v-1.544H79.808a4.457,4.457,0,0,1,4.232,3.087H79.805a1.362,1.362,0,0,0-1.362,1.362v2.905a4.272,4.272,0,0,0,4.267,4.267h1.544v5.992H80.693a8.622,8.622,0,0,0-16.3,0h-.656V127.382a1.362,1.362,0,0,0-2.724,0v10.259H32.755a8.622,8.622,0,0,0-16.3,0H8.625a.091.091,0,0,1-.091-.091v-3h5.9a1.362,1.362,0,1,0,0-2.724H1.362a1.362,1.362,0,1,0,0,2.724H5.811v3a2.818,2.818,0,0,0,2.815,2.815h7.356c0,.03,0,.06,0,.091a8.625,8.625,0,0,0,17.25,0c0-.031,0-.06,0-.091H63.919c0,.03,0,.06,0,.091a8.625,8.625,0,0,0,17.25,0c0-.031,0-.06,0-.091h4.451A1.362,1.362,0,0,0,86.978,139V124.477A7.183,7.183,0,0,0,80.889,117.386ZM63.735,102.6H73.995a3,3,0,0,1,3,3v.091H63.735Zm0,14.708v-8.9h12.1l2.224,8.9H63.735ZM24.6,146.358a5.9,5.9,0,1,1,5.9-5.9A5.908,5.908,0,0,1,24.6,146.358Zm47.938,0a5.9,5.9,0,1,1,5.9-5.9A5.908,5.908,0,0,1,72.542,146.358Zm11.712-17.432H82.711a1.545,1.545,0,0,1-1.544-1.544v-1.544h3.087v3.087Z" transform="translate(0 -94.062)" fill="#e3e230"/></g><g transform="translate(21.79 137.642)"><g transform="translate(0 0)"><path d="M131.082,350.6a2.815,2.815,0,1,0,2.815,2.815A2.818,2.818,0,0,0,131.082,350.6Z" transform="translate(-128.267 -350.597)" fill="#e3e230"/></g></g><g transform="translate(69.728 137.642)"><g transform="translate(0 0)"><path d="M413.27,350.6a2.815,2.815,0,1,0,2.815,2.815A2.818,2.818,0,0,0,413.27,350.6Z" transform="translate(-410.455 -350.597)" fill="#e3e230"/></g></g><g transform="translate(34.864 131.831)"><g transform="translate(0 0)"><path d="M226.926,316.393H206.589a1.362,1.362,0,0,0,0,2.724h20.337a1.362,1.362,0,1,0,0-2.724Z" transform="translate(-205.227 -316.393)" fill="#e3e230"/></g></g><g transform="translate(2.905 126.021)"><g transform="translate(0 0)"><path d="M35.9,282.188H18.464a1.362,1.362,0,0,0,0,2.724H35.9a1.362,1.362,0,0,0,0-2.724Z" transform="translate(-17.102 -282.188)" fill="#e3e230"/></g></g><g transform="translate(24.695 107.136)"><g transform="translate(0 0)"><path d="M168.032,171.421a1.362,1.362,0,0,0-1.926,0l-12.111,12.111-6.3-6.3a1.362,1.362,0,0,0-1.926,1.926l7.263,7.263a1.362,1.362,0,0,0,1.926,0l13.074-13.074A1.362,1.362,0,0,0,168.032,171.421Z" transform="translate(-145.37 -171.023)" fill="#e3e230"/></g></g></g></svg>