<svg xmlns="http://www.w3.org/2000/svg" width="57.734" height="57.734" viewBox="0 0 57.734 57.734"><g transform="translate(0)"><path d="M55.286,52.163v-.875a6.2,6.2,0,0,0-.68-2.841.846.846,0,0,0-1.507.768,4.526,4.526,0,0,1,.5,2.073v.852H32.336v-.852A4.574,4.574,0,0,1,36.9,46.719H49.026a4.521,4.521,0,0,1,2.053.486.846.846,0,0,0,.761-1.51,6.2,6.2,0,0,0-2.814-.667H47.918V41.585a8.016,8.016,0,0,0-3.6-14.208V8.024A8.033,8.033,0,0,0,36.293,0H24.441A9.882,9.882,0,0,0,17.5,2.876L2.876,17.5A9.764,9.764,0,0,0,0,24.442V43.226a8.026,8.026,0,0,0,7.4,8c.038,0,.1.008,6.07.008,3.419,0,8.778,0,17.178-.006,0,.02,0,.039,0,.059v.875a2.8,2.8,0,0,0,.348,5.571H54.938a2.8,2.8,0,0,0,.349-5.571ZM49.292,35.28a6.338,6.338,0,0,1-2.705,5.187.846.846,0,0,0-.361.693v3.867H39.7V41.159a.846.846,0,0,0-.361-.693,6.327,6.327,0,1,1,9.95-5.187ZM7.5,49.538a6.361,6.361,0,0,1-5.812-6.312V25.975a4.409,4.409,0,0,1,4.4-4.4H8.33a.846.846,0,1,0,0-1.691H6.1a6.064,6.064,0,0,0-3.7,1.259,8.14,8.14,0,0,1,1.681-2.445L18.7,4.072a8.115,8.115,0,0,1,2.432-1.667A6.063,6.063,0,0,0,19.879,6.1v7.451a6.34,6.34,0,0,1-6.333,6.333H11.663a.846.846,0,1,0,0,1.691h1.883a8.033,8.033,0,0,0,8.024-8.024V6.1a4.409,4.409,0,0,1,4.4-4.4H36.293a6.34,6.34,0,0,1,6.333,6.333V27.269a8.017,8.017,0,0,0-4.613,14.315v3.443H36.9a6.271,6.271,0,0,0-6.01,4.51c-14.392.008-22.879.008-23.392,0Zm47.434,6.5H30.992a1.105,1.105,0,1,1,0-2.211H54.937a1.105,1.105,0,1,1,0,2.211Z" fill="#658cb1"/><path d="M125.349,162.581a4.575,4.575,0,0,0-8.391-1.024l-4.837,8.564-2.02-2.605a4.575,4.575,0,1,0-7.231,5.606l6.235,8.043a4.605,4.605,0,0,0,3.615,1.772c.11,0,.222,0,.333-.012a4.564,4.564,0,0,0,3.651-2.313l8.22-14.555a4.545,4.545,0,0,0,.424-3.475Zm-1.9,2.644-8.22,14.555a2.877,2.877,0,0,1-2.3,1.458c-.07.005-.141.008-.21.008a2.9,2.9,0,0,1-2.278-1.117l-6.235-8.043a2.883,2.883,0,0,1,4.558-3.533l2.8,3.611a.846.846,0,0,0,1.4-.1l5.462-9.672a2.883,2.883,0,1,1,5.021,2.836Z" transform="translate(-90.419 -141.277)" fill="#658cb1"/></g></svg>