<svg xmlns="http://www.w3.org/2000/svg" width="55.851" height="64.08" viewBox="0 0 55.851 64.08"><g transform="translate(-32.836)"><path d="M33.776,133.1H50.533a2.122,2.122,0,0,1,2.119,2.119v4.237a.94.94,0,1,0,1.88,0v-2.949l1.455-3.063a6,6,0,0,1,3.074-2.949l1.136-.483a.939.939,0,0,0,.105-.053l6.931-4.036a.941.941,0,0,0,.392-.444l1.841-4.319a2.08,2.08,0,0,1,1.922-1.264,3.436,3.436,0,0,1,3.188,2.136,4.305,4.305,0,0,1,.325,1.645v1.268a.94.94,0,0,0,1.88,0v-1.268a6.175,6.175,0,0,0-.466-2.36,5.312,5.312,0,0,0-4.935-3.3,3.954,3.954,0,0,0-3.642,2.407l-1.719,4.032-6.611,3.849-1.082.46a7.875,7.875,0,0,0-4.037,3.872l-.285.6a4,4,0,0,0-3.471-2.017H33.776a.94.94,0,0,0,0,1.88Z" transform="translate(0 -103.233)" fill="#658cb1"/><path d="M367.335,217.285a4.921,4.921,0,0,0-1.106-3.1,5.217,5.217,0,0,0-3.4-9.169h-8.69l.993-2.175a11.084,11.084,0,0,0,.992-4.07.94.94,0,1,0-1.877-.094,9.215,9.215,0,0,1-.825,3.383l-1.047,2.291a1.8,1.8,0,0,0,1.635,2.544h8.818a3.336,3.336,0,0,1,1.489,6.321.94.94,0,0,0-.127,1.6,3.031,3.031,0,0,1-.672,5.295.94.94,0,0,0-.3,1.571,2.752,2.752,0,0,1-1.26,4.72,1.2,1.2,0,0,0-.313,2.22,2.759,2.759,0,0,1,1.425,2.36,2.691,2.691,0,0,1-.785,1.944,2.885,2.885,0,0,1-2.046.857h-4.516a.94.94,0,0,0,0,1.88h4.516a4.776,4.776,0,0,0,3.387-1.42,4.557,4.557,0,0,0,1.323-3.295,4.641,4.641,0,0,0-1.348-3.182,4.626,4.626,0,0,0,1.691-6.5A4.946,4.946,0,0,0,367.335,217.285Z" transform="translate(-279.353 -172.999)" fill="#658cb1"/><path d="M72.368,335.074H58.826a4.764,4.764,0,0,1-2.421-.661l-1.874-1.106V314.518a.94.94,0,0,0-1.88,0v19.848a2.122,2.122,0,0,1-2.119,2.119H33.776a.94.94,0,1,0,0,1.88H50.532a4.006,4.006,0,0,0,3.861-2.957l1.057.624a6.646,6.646,0,0,0,3.376.922H72.368a.94.94,0,1,0,0-1.879Z" transform="translate(0 -274.285)" fill="#658cb1"/><path d="M283.064,7.652a.176.176,0,0,1,.022.136L282.7,9.322a2.055,2.055,0,0,0,2.967,2.308l1.845-.993a.175.175,0,0,1,.166,0l1.845.993a2.03,2.03,0,0,0,2.235-.187,2.03,2.03,0,0,0,.732-2.12l-.384-1.535a.176.176,0,0,1,.022-.136l1.149-1.829a2.055,2.055,0,0,0-1.74-3.148h-1.159a.175.175,0,0,1-.154-.091L289.4,1.071A2.053,2.053,0,0,0,287.6,0h0a2.054,2.054,0,0,0-1.8,1.071l-.825,1.513a.175.175,0,0,1-.154.091h-1.159a2.055,2.055,0,0,0-1.74,3.148Zm.438-3.007a.165.165,0,0,1,.153-.09h1.159a2.054,2.054,0,0,0,1.8-1.071l.825-1.513a.175.175,0,0,1,.308,0l.826,1.513a2.054,2.054,0,0,0,1.8,1.071h1.159a.175.175,0,0,1,.148.268L290.54,6.652a2.064,2.064,0,0,0-.253,1.591l.384,1.535a.175.175,0,0,1-.253.2l-1.845-.993a2.049,2.049,0,0,0-1.948,0l-1.845.993a.175.175,0,0,1-.253-.2l.384-1.535a2.065,2.065,0,0,0-.253-1.591l-1.149-1.829A.164.164,0,0,1,283.5,4.645Z" transform="translate(-217.593 0)" fill="#658cb1"/><path d="M404.748,45.124a.94.94,0,0,0,.94.94H407.1a.94.94,0,1,0,0-1.88h-1.417A.94.94,0,0,0,404.748,45.124Z" transform="translate(-325.309 -38.647)" fill="#658cb1"/><path d="M394.2,5.545a.936.936,0,0,0,.619-.233l1.065-.935a.94.94,0,0,0-1.24-1.413l-1.065.935a.94.94,0,0,0,.62,1.646Z" transform="translate(-315.259 -2.389)" fill="#658cb1"/><path d="M393.58,79.824l1.065.935a.94.94,0,0,0,1.24-1.413l-1.065-.935a.94.94,0,1,0-1.24,1.413Z" transform="translate(-315.261 -68.382)" fill="#658cb1"/><path d="M225.69,46.064h1.417a.94.94,0,1,0,0-1.88H225.69a.94.94,0,1,0,0,1.88Z" transform="translate(-167.866 -38.647)" fill="#658cb1"/><path d="M239.366,4.378l1.065.935a.94.94,0,0,0,1.24-1.413l-1.065-.935a.94.94,0,0,0-1.24,1.413Z" transform="translate(-180.371 -2.389)" fill="#658cb1"/><path d="M240.431,78.412l-1.065.935a.94.94,0,0,0,1.24,1.413l1.065-.935a.94.94,0,0,0-1.24-1.413Z" transform="translate(-180.371 -68.382)" fill="#658cb1"/></g></svg>