<svg xmlns="http://www.w3.org/2000/svg" width="73.705" height="61.421" viewBox="0 0 73.705 61.421"><g transform="translate(0)"><path d="M73.345,144.329,58.1,129.08A3.658,3.658,0,0,0,55.49,128H39.309v2.457h1.228v18.426h2.457V130.457h12.5a1.24,1.24,0,0,1,.869.36l2.1,2.1H52.822a2.457,2.457,0,0,0-2.457,2.457v11.056a2.457,2.457,0,0,0,2.457,2.457H71.248v9.827a1.228,1.228,0,0,1-1.228,1.228H67.464a8.588,8.588,0,0,0-17,0H33.069a8.588,8.588,0,0,0-17,0H13.512a1.228,1.228,0,0,1-1.228-1.228V146.426H9.827v12.284a3.685,3.685,0,0,0,3.685,3.685h2.555a8.569,8.569,0,0,0,2.495,4.914H0v2.457H58.964a8.6,8.6,0,0,0,8.5-7.371h2.555a3.685,3.685,0,0,0,3.685-3.685V145.2a1.229,1.229,0,0,0-.36-.869ZM18.426,161.167a6.142,6.142,0,1,1,6.142,6.142A6.142,6.142,0,0,1,18.426,161.167Zm12.148,6.142a8.569,8.569,0,0,0,2.495-4.914H50.463a8.569,8.569,0,0,0,2.495,4.914Zm28.39,0a6.142,6.142,0,1,1,6.142-6.142A6.142,6.142,0,0,1,58.964,167.31Zm-6.142-20.883V135.371h8.09l10.336,10.336v.72Zm0,0" transform="translate(0 -108.345)" fill="#e3e230"/><path d="M152,336h2.457v2.457H152Zm0,0" transform="translate(-128.66 -284.406)" fill="#e3e230"/><path d="M376,336h2.457v2.457H376Zm0,0" transform="translate(-318.265 -284.406)" fill="#e3e230"/><path d="M0,312H6.142v2.457H0Zm0,0" transform="translate(0 -264.092)" fill="#e3e230"/><path d="M16,280h3.685v2.457H16Zm0,0" transform="translate(-13.543 -237.005)" fill="#e3e230"/><path d="M24,248h2.457v2.457H24Zm0,0" transform="translate(-20.315 -209.919)" fill="#e3e230"/><path d="M304,280h4.914v2.457H304Zm0,0" transform="translate(-257.32 -237.005)" fill="#e3e230"/><path d="M18.426,36.853A18.426,18.426,0,1,0,0,18.426,18.426,18.426,0,0,0,18.426,36.853Zm0-34.4A15.969,15.969,0,1,1,2.457,18.426,15.969,15.969,0,0,1,18.426,2.457Zm0,0" transform="translate(0)" fill="#e3e230"/><path d="M79.371,69.513A3.677,3.677,0,0,0,80.6,62.368V56H78.142v6.368A3.682,3.682,0,0,0,75.911,64.6H72v2.457h3.911A3.686,3.686,0,0,0,79.371,69.513Zm0-4.914a1.228,1.228,0,1,1-1.228,1.228A1.228,1.228,0,0,1,79.371,64.6Zm0,0" transform="translate(-60.945 -47.401)" fill="#e3e230"/><path d="M24,112h2.457v2.457H24Zm0,0" transform="translate(-20.315 -94.802)" fill="#e3e230"/><path d="M112,200h2.457v2.457H112Zm0,0" transform="translate(-94.802 -169.29)" fill="#e3e230"/><path d="M200,112h2.457v2.457H200Zm0,0" transform="translate(-169.29 -94.802)" fill="#e3e230"/><path d="M112,24h2.457v2.457H112Zm0,0" transform="translate(-94.802 -20.315)" fill="#e3e230"/></g></svg>