<svg xmlns="http://www.w3.org/2000/svg" width="77" height="57.75" viewBox="0 0 77 57.75"><g transform="translate(0 -8)"><path d="M68.578,15.219H61.359a1.2,1.2,0,0,0,0,2.406h7.219A8.431,8.431,0,0,0,77,9.2,1.2,1.2,0,0,0,75.8,8H1.2A1.2,1.2,0,0,0,0,9.2a8.432,8.432,0,0,0,8.422,8.422H32.484v4.912A25.266,25.266,0,0,0,9.54,44.751l-2,16.968a3.609,3.609,0,0,0,3.584,4.032H65.87a3.609,3.609,0,0,0,3.584-4.032l-2-16.964A25.266,25.266,0,0,0,44.516,22.537V17.625H56.547a1.2,1.2,0,0,0,0-2.406H8.422a6.025,6.025,0,0,1-5.9-4.812H74.473a6.025,6.025,0,0,1-5.9,4.813ZM65.071,45.032l2,16.964a1.2,1.2,0,0,1-1.195,1.348H11.128A1.2,1.2,0,0,1,9.933,62l2-16.964a22.859,22.859,0,0,1,22.7-20.193h7.736a22.859,22.859,0,0,1,22.7,20.189ZM42.109,17.625v4.813H34.891V17.625Z" transform="translate(0)" fill="#658cb1"/><path d="M18,40.844A16.844,16.844,0,1,0,34.844,24,16.844,16.844,0,0,0,18,40.844Zm28.691-8.229-.988.57a1.2,1.2,0,1,0,1.2,2.084l.984-.568a14.31,14.31,0,0,1,1.329,4.94H48.078a1.2,1.2,0,0,0,0,2.406H49.22a14.3,14.3,0,0,1-1.323,4.94l-.984-.568a1.2,1.2,0,1,0-1.2,2.084l.988.57a14.558,14.558,0,0,1-3.618,3.618l-.57-.988a1.2,1.2,0,1,0-2.084,1.2l.568.984a14.3,14.3,0,0,1-4.946,1.329V54.078a1.2,1.2,0,0,0-2.406,0V55.22A14.3,14.3,0,0,1,28.7,53.9l.568-.984a1.2,1.2,0,1,0-2.084-1.2l-.57.988A14.558,14.558,0,0,1,23,49.079l.988-.57a1.2,1.2,0,1,0-1.2-2.084l-.984.568a14.3,14.3,0,0,1-1.329-4.946h1.142a1.2,1.2,0,0,0,0-2.406H20.468A14.31,14.31,0,0,1,21.8,34.7l.984.568a1.2,1.2,0,0,0,1.2-2.084L23,32.614A14.558,14.558,0,0,1,26.614,29l.57.987a1.2,1.2,0,0,0,1.043.6,1.183,1.183,0,0,0,.6-.162,1.2,1.2,0,0,0,.44-1.643L28.7,27.8a14.3,14.3,0,0,1,4.939-1.329v1.142a1.2,1.2,0,0,0,2.406,0V26.468a14.3,14.3,0,0,1,4.94,1.329l-.568.983a1.2,1.2,0,0,0,.44,1.643,1.183,1.183,0,0,0,.6.162,1.2,1.2,0,0,0,1.043-.6l.57-.987a14.558,14.558,0,0,1,3.617,3.617Z" transform="translate(3.656 3.25)" fill="#658cb1"/><path d="M33.813,36.237V31.2a1.2,1.2,0,0,0-2.406,0v5.034a3.609,3.609,0,1,0,2.406,0Zm-1.2,4.591a1.2,1.2,0,1,1,1.2-1.2A1.2,1.2,0,0,1,32.609,40.828Z" transform="translate(5.891 4.469)" fill="#658cb1"/></g></svg>