<svg xmlns="http://www.w3.org/2000/svg" xmlns:xlink="http://www.w3.org/1999/xlink" width="1240" height="594" viewBox="0 0 1240 594"><defs><clipPath id="a"><rect width="21.329" height="18.792" fill="none" stroke="#12263f" stroke-width="1"/></clipPath><clipPath id="f"><rect width="14.828" height="13.065" fill="none" stroke="#114d74" stroke-width="1"/></clipPath></defs><g transform="translate(-180.333 -692)"><rect width="1240" height="594" rx="20" transform="translate(180.333 692)" fill="#f6f6f6" opacity="0.42"/><g transform="translate(18.001 -38)"><path d="M15.792,0H354.875c8.722,0,15.792,3.355,15.792,7.495V50.418c0,4.139-7.07,7.495-15.792,7.495H15.792C7.07,57.913,0,54.558,0,50.418V7.495C0,3.355,7.07,0,15.792,0Z" transform="translate(629.333 775)" fill="#e3e230"/><text transform="translate(817.001 809.413)" fill="#12263f" font-size="20" font-family="Roboto-Black, Roboto" font-weight="800"><tspan x="-170.708" y="0">Estructura del sistema de trazabilidad</tspan></text><g transform="translate(792.837 832.913)"><path d="M-11801-8646v71.99" transform="translate(11811.664 8646.002)" fill="none" stroke="#12263f" stroke-width="2"/><g transform="translate(0 56.208)"><g clip-path="url(#a)"><path d="M21.182.857A21.249,21.249,0,0,0,10.848,19.1,21.248,21.248,0,0,0,.514.857" transform="translate(-0.184 -0.306)" fill="none" stroke="#12263f" stroke-miterlimit="10" stroke-width="2"/></g></g></g><g transform="translate(635.337 909.913)"><path d="M-11801-8646v39.077" transform="translate(11811.664 8646.002)" fill="none" stroke="#12263f" stroke-width="2"/><g transform="translate(0 23.294)"><g clip-path="url(#a)"><path d="M21.182.857A21.249,21.249,0,0,0,10.848,19.1,21.248,21.248,0,0,0,.514.857" transform="translate(-0.184 -0.306)" fill="none" stroke="#12263f" stroke-miterlimit="10" stroke-width="2"/></g></g></g><g transform="translate(885.003 907.913)"><path d="M-11801-8646v39.077" transform="translate(11811.664 8646.002)" fill="none" stroke="#12263f" stroke-width="2"/><g transform="translate(0 23.294)"><g clip-path="url(#a)"><path d="M21.182.857A21.249,21.249,0,0,0,10.848,19.1,21.248,21.248,0,0,0,.514.857" transform="translate(-0.184 -0.306)" fill="none" stroke="#12263f" stroke-miterlimit="10" stroke-width="2"/></g></g></g><g transform="translate(1133.337 909.913)"><path d="M-11801-8646v39.077" transform="translate(11811.663 8646.002)" fill="none" stroke="#12263f" stroke-width="2"/><g transform="translate(0 23.294)"><g clip-path="url(#a)"><path d="M21.182.857A21.249,21.249,0,0,0,10.848,19.1,21.248,21.248,0,0,0,.514.857" transform="translate(-0.184 -0.306)" fill="none" stroke="#12263f" stroke-miterlimit="10" stroke-width="2"/></g></g></g><text transform="translate(810.001 866.413)" fill="#12263f" font-size="16" font-family="Roboto-Regular, Roboto"><tspan x="0" y="0">Incluye</tspan></text><g transform="translate(402.496 907.913)"><path d="M-11801-8605.668V-8646h730.84" transform="translate(11811.664 8646.002)" fill="none" stroke="#12263f" stroke-width="2"/><g transform="translate(0 24.552)"><g clip-path="url(#a)"><path d="M21.182.857A21.249,21.249,0,0,0,10.848,19.1,21.248,21.248,0,0,0,.514.857" transform="translate(-0.184 -0.306)" fill="none" stroke="#12263f" stroke-miterlimit="10" stroke-width="2"/></g></g></g><g transform="translate(-3.33 -15)"><text transform="translate(598.829 1054.652)" fill="#12263f" font-size="16" font-family="Roboto-Regular, Roboto"><tspan x="0" y="0">Incluye</tspan></text><rect width="204.667" height="59.148" rx="11" transform="translate(543.663 971)" fill="#92c9ff"/><text transform="translate(645.996 994.574)" fill="#12263f" font-size="16" font-family="Roboto-Bold, Roboto" font-weight="700"><tspan x="-86.801" y="0">Características técnicas</tspan><tspan x="-41.453" y="24" xml:space="preserve"> de la carga</tspan></text><rect width="145.525" height="57.559" rx="11" transform="translate(594.829 1064.645)" fill="#e8f4ff"/><rect width="109.525" height="57.559" rx="11" transform="translate(594.829 1131.127)" fill="#e8f4ff"/><text transform="translate(611.591 1088.73)" fill="#12263f" font-size="16" font-family="Roboto-Regular, Roboto"><tspan x="0" y="0">Tipos de carga, </tspan><tspan x="0" y="24">peso y volumen.</tspan></text><text transform="translate(611.093 1153.408)" fill="#12263f" font-size="16" font-family="Roboto-Regular, Roboto"><tspan x="0" y="0">Empaque </tspan><tspan x="0" y="24">y embalaje.</tspan></text><path d="M-10850.362-8770.521V-8633" transform="translate(11418.524 9800.322)" fill="none" stroke="#114d74" stroke-width="2"/><g transform="translate(568.163 1099.655) rotate(-90)"><path d="M-11801-8646v19.46" transform="translate(11808.414 8646.002)" fill="none" stroke="#114d74" stroke-width="2"/><g transform="translate(0 8.488)"><g clip-path="url(#f)"><path d="M14.883.857A14.773,14.773,0,0,0,7.7,13.539,14.772,14.772,0,0,0,.514.857" transform="translate(-0.284 -0.474)" fill="none" stroke="#114d74" stroke-miterlimit="10" stroke-width="2"/></g></g></g><g transform="translate(568.162 1174.736) rotate(-90)"><path d="M-11801-8646v19.46" transform="translate(11808.414 8646.002)" fill="none" stroke="#114d74" stroke-width="2"/><g transform="translate(0 8.488)"><g clip-path="url(#f)"><path d="M14.883.857A14.773,14.773,0,0,0,7.7,13.539,14.772,14.772,0,0,0,.514.857" transform="translate(-0.284 -0.474)" fill="none" stroke="#114d74" stroke-miterlimit="10" stroke-width="2"/></g></g></g></g><g transform="translate(0.496 -15)"><text transform="translate(847.478 1041)" fill="#12263f" font-size="16" font-family="Roboto-Regular, Roboto"><tspan x="0" y="0">Incluye</tspan></text><rect width="204.667" height="45.148" rx="11" transform="translate(792.837 971)" fill="#92c9ff"/><text transform="translate(898.003 1000.247)" fill="#12263f" font-size="16" font-family="Roboto-Bold, Roboto" font-weight="700"><tspan x="-91.223" y="0">Operación del transporte </tspan></text><rect width="145.525" height="57.559" rx="11" transform="translate(843.478 1050.992)" fill="#e8f4ff"/><rect width="145.525" height="57.559" rx="11" transform="translate(843.478 1160.17)" fill="#e8f4ff"/><rect width="145.525" height="57.559" rx="11" transform="translate(842.952 1226.652)" fill="#e8f4ff"/><rect width="145.525" height="36.195" rx="11" transform="translate(843.478 1117.475)" fill="#e8f4ff"/><text transform="translate(860.239 1075.078)" fill="#12263f" font-size="16" font-family="Roboto-Regular, Roboto"><tspan x="0" y="0">Concepto, tipos </tspan><tspan x="0" y="24">y características.</tspan></text><text transform="translate(860.239 1184.256)" fill="#12263f" font-size="16" font-family="Roboto-Regular, Roboto"><tspan x="0" y="0">Inventarios y </tspan><tspan x="0" y="24">procedimientos.</tspan></text><text transform="translate(859.714 1250.738)" fill="#12263f" font-size="16" font-family="Roboto-Regular, Roboto"><tspan x="0" y="0">Puntos críticos</tspan><tspan x="0" y="24">de la operación.</tspan></text><text transform="translate(859.741 1139.756)" fill="#12263f" font-size="16" font-family="Roboto-Regular, Roboto"><tspan x="0" y="0">Variables y rutas.</tspan></text><path d="M-10850.362-8770.521v238.1" transform="translate(11667.173 9786.67)" fill="none" stroke="#114d74" stroke-width="2"/><g transform="translate(816.812 1086.003) rotate(-90)"><path d="M-11801-8646v19.46" transform="translate(11808.414 8646.002)" fill="none" stroke="#114d74" stroke-width="2"/><g transform="translate(0 8.488)"><g clip-path="url(#f)"><path d="M14.883.857A14.773,14.773,0,0,0,7.7,13.539,14.772,14.772,0,0,0,.514.857" transform="translate(-0.284 -0.474)" fill="none" stroke="#114d74" stroke-miterlimit="10" stroke-width="2"/></g></g></g><g transform="translate(816.812 1195.181) rotate(-90)"><path d="M-11801-8646v19.46" transform="translate(11808.414 8646.002)" fill="none" stroke="#114d74" stroke-width="2"/><g transform="translate(0 8.488)"><g clip-path="url(#f)"><path d="M14.883.857A14.773,14.773,0,0,0,7.7,13.539,14.772,14.772,0,0,0,.514.857" transform="translate(-0.284 -0.474)" fill="none" stroke="#114d74" stroke-miterlimit="10" stroke-width="2"/></g></g></g><g transform="translate(816.286 1261.663) rotate(-90)"><path d="M-11801-8646v19.46" transform="translate(11808.414 8646.002)" fill="none" stroke="#114d74" stroke-width="2"/><g transform="translate(0 8.488)"><g clip-path="url(#f)"><path d="M14.883.857A14.773,14.773,0,0,0,7.7,13.539,14.772,14.772,0,0,0,.514.857" transform="translate(-0.284 -0.474)" fill="none" stroke="#114d74" stroke-miterlimit="10" stroke-width="2"/></g></g></g><g transform="translate(816.812 1141.67) rotate(-90)"><path d="M-11801-8646v19.46" transform="translate(11808.414 8646.002)" fill="none" stroke="#114d74" stroke-width="2"/><g transform="translate(0 8.488)"><g clip-path="url(#f)"><path d="M14.883.857A14.773,14.773,0,0,0,7.7,13.539,14.772,14.772,0,0,0,.514.857" transform="translate(-0.284 -0.474)" fill="none" stroke="#114d74" stroke-miterlimit="10" stroke-width="2"/></g></g></g></g><g transform="translate(0.151 -12.15)"><text transform="translate(1102.583 1056.078)" fill="#12263f" font-size="16" font-family="Roboto-Regular, Roboto"><tspan x="0" y="0">Incluye</tspan></text><rect width="204.667" height="67.35" rx="11" transform="translate(1046.182 968.15)" fill="#92c9ff"/><text transform="translate(1151.347 997.397)" fill="#12263f" font-size="16" font-family="Roboto-Bold, Roboto" font-weight="700"><tspan x="-65.535" y="0">Trazabilidad de la </tspan><tspan x="-88.23" y="24">operación del transporte</tspan></text><rect width="117.525" height="57.559" rx="11" transform="translate(1093.82 1070.342)" fill="#e8f4ff"/><rect width="121.525" height="57.559" rx="11" transform="translate(1093.82 1179.52)" fill="#e8f4ff"/><rect width="145.525" height="36.195" rx="11" transform="translate(1093.821 1136.826)" fill="#e8f4ff"/><text transform="translate(1110.583 1094.43)" fill="#12263f" font-size="16" font-family="Roboto-Regular, Roboto"><tspan x="0" y="0">Concepto e </tspan><tspan x="0" y="24">importancia.</tspan><tspan x="0" y="48"></tspan></text><text transform="translate(1110.583 1203.607)" fill="#12263f" font-size="16" font-family="Roboto-Regular, Roboto"><tspan x="0" y="0">Sistema de </tspan><tspan x="0" y="24">trazabilidad.</tspan><tspan x="0" y="48"></tspan></text><text transform="translate(1110.084 1159.105)" fill="#12263f" font-size="16" font-family="Roboto-Regular, Roboto"><tspan x="0" y="0">Tipos y política. </tspan></text><path d="M-10850.362-8770.521V-8598.9" transform="translate(11917.517 9806.021)" fill="none" stroke="#114d74" stroke-width="2"/><g transform="translate(1067.155 1105.354) rotate(-90)"><path d="M-11801-8646v19.46" transform="translate(11808.414 8646.002)" fill="none" stroke="#114d74" stroke-width="2"/><g transform="translate(0 8.488)"><g clip-path="url(#f)"><path d="M14.883.857A14.773,14.773,0,0,0,7.7,13.539,14.772,14.772,0,0,0,.514.857" transform="translate(-0.284 -0.474)" fill="none" stroke="#114d74" stroke-miterlimit="10" stroke-width="2"/></g></g></g><g transform="translate(1067.155 1214.531) rotate(-90)"><path d="M-11801-8646v19.46" transform="translate(11808.414 8646.002)" fill="none" stroke="#114d74" stroke-width="2"/><g transform="translate(0 8.488)"><g clip-path="url(#f)"><path d="M14.883.857A14.773,14.773,0,0,0,7.7,13.539,14.772,14.772,0,0,0,.514.857" transform="translate(-0.284 -0.474)" fill="none" stroke="#114d74" stroke-miterlimit="10" stroke-width="2"/></g></g></g><g transform="translate(1067.155 1161.021) rotate(-90)"><path d="M-11801-8646v19.46" transform="translate(11808.414 8646.002)" fill="none" stroke="#114d74" stroke-width="2"/><g transform="translate(0 8.488)"><g clip-path="url(#f)"><path d="M14.883.857A14.773,14.773,0,0,0,7.7,13.539,14.772,14.772,0,0,0,.514.857" transform="translate(-0.284 -0.474)" fill="none" stroke="#114d74" stroke-miterlimit="10" stroke-width="2"/></g></g></g></g><g transform="translate(-0.33 -15)"><text transform="translate(367.331 1042)" fill="#12263f" font-size="16" font-family="Roboto-Regular, Roboto"><tspan x="0" y="0">Incluye</tspan></text><rect width="179.667" height="45.148" rx="11" transform="translate(312.663 971)" fill="#92c9ff"/><text transform="translate(407.331 999.074)" fill="#12263f" font-size="16" font-family="Roboto-Bold, Roboto" font-weight="700"><tspan x="-39.547" y="0">Transporte</tspan></text><rect width="112.525" height="57.559" rx="11" transform="translate(359.472 1191.302)" fill="#e8f4ff"/><rect width="98.256" height="36.194" rx="11" transform="translate(360.293 1056.046)" fill="#e8f4ff"/><rect width="74.909" height="36.194" rx="11" transform="translate(360.293 1100.013)" fill="#e8f4ff"/><rect width="134.114" height="36.194" rx="11" transform="translate(358.217 1145.657)" fill="#e8f4ff"/><text transform="translate(380.431 1213.77)" fill="#12263f" font-size="16" font-family="Roboto-Regular, Roboto"><tspan x="0" y="0">Normativas </tspan><tspan x="0" y="24">y políticas. </tspan></text><text transform="translate(375.791 1079.645)" fill="#12263f" font-size="16" font-family="Roboto-Regular, Roboto"><tspan x="0" y="0">Concepto.</tspan></text><text transform="translate(378.307 1123.611)" fill="#12263f" font-size="16" font-family="Roboto-Regular, Roboto"><tspan x="0" y="0">Tipos.</tspan></text><text transform="translate(376.23 1169.256)" fill="#12263f" font-size="16" font-family="Roboto-Regular, Roboto"><tspan x="0" y="0">Caracteristicas.</tspan></text><path d="M-10850.362-8770.521v198.577" transform="translate(11187.025 9787.67)" fill="none" stroke="#114d74" stroke-width="2"/><g transform="translate(336.663 1222.141) rotate(-90)"><path d="M-11801-8646v19.46" transform="translate(11808.414 8646.002)" fill="none" stroke="#114d74" stroke-width="2"/><g transform="translate(0 8.488)"><g clip-path="url(#f)"><path d="M14.883.857A14.773,14.773,0,0,0,7.7,13.539,14.772,14.772,0,0,0,.514.857" transform="translate(-0.284 -0.474)" fill="none" stroke="#114d74" stroke-miterlimit="10" stroke-width="2"/></g></g></g><g transform="translate(338.74 1079.559) rotate(-90)"><path d="M-11801-8646v19.46" transform="translate(11808.414 8646.002)" fill="none" stroke="#114d74" stroke-width="2"/><g transform="translate(0 8.488)"><g clip-path="url(#f)"><path d="M14.883.857A14.773,14.773,0,0,0,7.7,13.539,14.772,14.772,0,0,0,.514.857" transform="translate(-0.284 -0.474)" fill="none" stroke="#114d74" stroke-miterlimit="10" stroke-width="2"/></g></g></g><g transform="translate(338.74 1123.147) rotate(-90)"><path d="M-11801-8646v19.46" transform="translate(11808.414 8646.002)" fill="none" stroke="#114d74" stroke-width="2"/><g transform="translate(0 8.488)"><g clip-path="url(#f)"><path d="M14.883.857A14.773,14.773,0,0,0,7.7,13.539,14.772,14.772,0,0,0,.514.857" transform="translate(-0.284 -0.474)" fill="none" stroke="#114d74" stroke-miterlimit="10" stroke-width="2"/></g></g></g><g transform="translate(336.664 1168.792) rotate(-90)"><path d="M-11801-8646v19.46" transform="translate(11808.414 8646.002)" fill="none" stroke="#114d74" stroke-width="2"/><g transform="translate(0 8.488)"><g clip-path="url(#f)"><path d="M14.883.857A14.773,14.773,0,0,0,7.7,13.539,14.772,14.772,0,0,0,.514.857" transform="translate(-0.284 -0.474)" fill="none" stroke="#114d74" stroke-miterlimit="10" stroke-width="2"/></g></g></g></g></g></g></svg>